G04 #@! TF.GenerationSoftware,KiCad,Pcbnew,8.0.3-8.0.3-0~ubuntu22.04.1*
G04 #@! TF.CreationDate,2024-07-06T17:23:21+03:00*
G04 #@! TF.ProjectId,Directional_Coupler,44697265-6374-4696-9f6e-616c5f436f75,A0*
G04 #@! TF.SameCoordinates,Original*
G04 #@! TF.FileFunction,Copper,L1,Top*
G04 #@! TF.FilePolarity,Positive*
%FSLAX46Y46*%
G04 Gerber Fmt 4.6, Leading zero omitted, Abs format (unit mm)*
G04 Created by KiCad (PCBNEW 8.0.3-8.0.3-0~ubuntu22.04.1) date 2024-07-06 17:23:21*
%MOMM*%
%LPD*%
G01*
G04 APERTURE LIST*
G04 Aperture macros list*
%AMRoundRect*
0 Rectangle with rounded corners*
0 $1 Rounding radius*
0 $2 $3 $4 $5 $6 $7 $8 $9 X,Y pos of 4 corners*
0 Add a 4 corners polygon primitive as box body*
4,1,4,$2,$3,$4,$5,$6,$7,$8,$9,$2,$3,0*
0 Add four circle primitives for the rounded corners*
1,1,$1+$1,$2,$3*
1,1,$1+$1,$4,$5*
1,1,$1+$1,$6,$7*
1,1,$1+$1,$8,$9*
0 Add four rect primitives between the rounded corners*
20,1,$1+$1,$2,$3,$4,$5,0*
20,1,$1+$1,$4,$5,$6,$7,0*
20,1,$1+$1,$6,$7,$8,$9,0*
20,1,$1+$1,$8,$9,$2,$3,0*%
G04 Aperture macros list end*
G04 #@! TA.AperFunction,EtchedComponent*
%ADD10C,0.200000*%
G04 #@! TD*
G04 #@! TA.AperFunction,HeatsinkPad*
%ADD11C,0.500000*%
G04 #@! TD*
G04 #@! TA.AperFunction,CastellatedPad*
%ADD12RoundRect,0.274194X-1.725806X-0.575806X1.725806X-0.575806X1.725806X0.575806X-1.725806X0.575806X0*%
G04 #@! TD*
G04 #@! TA.AperFunction,ViaPad*
%ADD13C,0.500000*%
G04 #@! TD*
G04 APERTURE END LIST*
D10*
X91800000Y-45350000D02*
X106200000Y-45350000D01*
X106200000Y-53650000D01*
X91800000Y-53650000D01*
X91800000Y-45350000D01*
G04 #@! TA.AperFunction,EtchedComponent*
G36*
X91800000Y-45350000D02*
G01*
X106200000Y-45350000D01*
X106200000Y-53650000D01*
X91800000Y-53650000D01*
X91800000Y-45350000D01*
G37*
G04 #@! TD.AperFunction*
D11*
X92500000Y-46450000D03*
X92500000Y-48000000D03*
X92500000Y-49500000D03*
X92500000Y-51050000D03*
X92500000Y-52550000D03*
X93150000Y-45700000D03*
X93150000Y-47200000D03*
X93150000Y-48750000D03*
X93150000Y-50250000D03*
X93150000Y-51800000D03*
X93150000Y-53300000D03*
X93800000Y-46450000D03*
X93800000Y-48000000D03*
X93800000Y-49500000D03*
X93800000Y-51050000D03*
X93800000Y-52550000D03*
X94450000Y-45700000D03*
X94450000Y-47200000D03*
X94450000Y-48750000D03*
X94450000Y-50250000D03*
X94450000Y-51800000D03*
X94450000Y-53300000D03*
X95100000Y-46450000D03*
X95100000Y-48000000D03*
X95100000Y-49500000D03*
X95100000Y-51050000D03*
X95100000Y-52550000D03*
X95700000Y-45700000D03*
X95700000Y-47200000D03*
X95700000Y-48750000D03*
X95700000Y-50250000D03*
X95700000Y-51800000D03*
X95700000Y-53300000D03*
X96350000Y-46450000D03*
X96350000Y-48000000D03*
X96350000Y-49500000D03*
X96350000Y-51050000D03*
X96350000Y-52550000D03*
X97000000Y-45700000D03*
X97000000Y-47200000D03*
X97000000Y-48750000D03*
X97000000Y-50250000D03*
X97000000Y-51800000D03*
X97000000Y-53300000D03*
X97650000Y-46450000D03*
X97650000Y-48000000D03*
X97650000Y-49500000D03*
X97650000Y-51050000D03*
X97650000Y-52550000D03*
X98300000Y-45700000D03*
X98300000Y-47200000D03*
X98300000Y-48750000D03*
X98300000Y-50250000D03*
X98300000Y-51800000D03*
X98300000Y-53300000D03*
X99000000Y-46450000D03*
X99000000Y-48000000D03*
X99000000Y-49500000D03*
X99000000Y-51050000D03*
X99000000Y-52550000D03*
X99650000Y-45700000D03*
X99650000Y-47200000D03*
X99650000Y-48750000D03*
X99650000Y-50250000D03*
X99650000Y-51800000D03*
X99650000Y-53300000D03*
X100300000Y-46450000D03*
X100300000Y-48000000D03*
X100300000Y-49500000D03*
X100300000Y-51050000D03*
X100300000Y-52550000D03*
X100950000Y-45700000D03*
X100950000Y-47200000D03*
X100950000Y-48750000D03*
X100950000Y-50250000D03*
X100950000Y-51800000D03*
X100950000Y-53300000D03*
X101600000Y-46450000D03*
X101600000Y-48000000D03*
X101600000Y-49500000D03*
X101600000Y-51050000D03*
X101600000Y-52550000D03*
X102250000Y-45700000D03*
X102250000Y-47200000D03*
X102250000Y-48750000D03*
X102250000Y-50250000D03*
X102250000Y-51800000D03*
X102250000Y-53300000D03*
X102850000Y-46450000D03*
X102850000Y-48000000D03*
X102850000Y-49500000D03*
X102850000Y-51050000D03*
X102850000Y-52550000D03*
X103500000Y-45700000D03*
X103500000Y-47200000D03*
X103500000Y-48750000D03*
X103500000Y-50250000D03*
X103500000Y-51800000D03*
X103500000Y-53300000D03*
X104150000Y-46450000D03*
X104150000Y-48000000D03*
X104150000Y-49500000D03*
X104150000Y-51050000D03*
X104150000Y-52550000D03*
X104800000Y-45700000D03*
X104800000Y-47200000D03*
X104800000Y-48750000D03*
X104800000Y-50250000D03*
X104800000Y-51800000D03*
X104800000Y-53300000D03*
X105450000Y-46450000D03*
X105450000Y-48000000D03*
X105450000Y-49500000D03*
X105450000Y-51050000D03*
X105450000Y-52550000D03*
D12*
X110000000Y-55000000D03*
X88000000Y-43000000D03*
X88000000Y-56000000D03*
X88000000Y-48400000D03*
X88000000Y-50600000D03*
X110000000Y-48400000D03*
X110000000Y-50600000D03*
X110000000Y-44000000D03*
D13*
X93000000Y-57500000D03*
X101000000Y-56000000D03*
X91000000Y-53000000D03*
X100000000Y-56000000D03*
X94000000Y-41500000D03*
X101000000Y-41500000D03*
X103000000Y-43000000D03*
X92500000Y-56750000D03*
X105500000Y-42250000D03*
X101000000Y-43000000D03*
X91000000Y-52000000D03*
X97000000Y-41500000D03*
X97000000Y-43000000D03*
X95000000Y-41500000D03*
X95500000Y-56750000D03*
X105000000Y-57500000D03*
X97000000Y-57500000D03*
X94000000Y-43000000D03*
X100000000Y-43000000D03*
X105000000Y-56000000D03*
X105500000Y-56750000D03*
X96000000Y-43000000D03*
X91000000Y-45000000D03*
X96000000Y-57500000D03*
X102500000Y-42250000D03*
X91000000Y-48000000D03*
X103000000Y-41500000D03*
X96000000Y-56000000D03*
X89750000Y-52000000D03*
X104000000Y-57500000D03*
X106000000Y-43000000D03*
X106000000Y-57500000D03*
X91500000Y-42250000D03*
X99000000Y-43000000D03*
X92000000Y-44500000D03*
X99500000Y-56750000D03*
X104000000Y-56000000D03*
X102000000Y-56000000D03*
X107000000Y-49000000D03*
X103000000Y-56000000D03*
X102000000Y-57500000D03*
X106000000Y-54500000D03*
X107000000Y-53000000D03*
X106500000Y-42250000D03*
X103000000Y-57500000D03*
X106000000Y-41500000D03*
X100000000Y-41500000D03*
X101500000Y-56750000D03*
X91000000Y-46000000D03*
X91000000Y-50000000D03*
X94000000Y-57500000D03*
X96500000Y-42250000D03*
X98500000Y-56750000D03*
X93000000Y-41500000D03*
X107000000Y-52000000D03*
X95000000Y-57500000D03*
X101500000Y-42250000D03*
X91000000Y-55000000D03*
X98000000Y-56000000D03*
X97500000Y-42250000D03*
X91500000Y-56750000D03*
X92000000Y-56000000D03*
X92000000Y-43000000D03*
X97000000Y-56000000D03*
X98000000Y-43000000D03*
X103500000Y-56750000D03*
X98000000Y-41500000D03*
X94500000Y-42250000D03*
X101000000Y-57500000D03*
X95000000Y-56000000D03*
X102000000Y-41500000D03*
X99000000Y-41500000D03*
X107000000Y-56000000D03*
X93500000Y-42250000D03*
X105000000Y-43000000D03*
X107000000Y-51000000D03*
X91000000Y-47000000D03*
X102000000Y-43000000D03*
X99500000Y-42250000D03*
X96000000Y-41500000D03*
X102500000Y-56750000D03*
X94000000Y-56000000D03*
X89750000Y-47000000D03*
X108250000Y-47000000D03*
X88500000Y-47000000D03*
X97500000Y-56750000D03*
X99000000Y-56000000D03*
X91000000Y-54000000D03*
X92000000Y-55250000D03*
X99000000Y-57500000D03*
X103500000Y-42250000D03*
X104500000Y-56750000D03*
X92000000Y-41500000D03*
X92000000Y-43750000D03*
X105000000Y-41500000D03*
X106000000Y-44500000D03*
X108250000Y-52000000D03*
X109500000Y-47000000D03*
X95000000Y-43000000D03*
X106000000Y-55250000D03*
X104000000Y-43000000D03*
X106500000Y-56750000D03*
X106000000Y-43750000D03*
X107000000Y-55000000D03*
X107000000Y-46000000D03*
X104000000Y-41500000D03*
X100000000Y-57500000D03*
X98000000Y-57500000D03*
X107000000Y-48000000D03*
X91000000Y-43000000D03*
X93000000Y-56000000D03*
X107000000Y-45000000D03*
X109500000Y-52000000D03*
X100500000Y-56750000D03*
X100500000Y-42250000D03*
X91000000Y-49000000D03*
X98500000Y-42250000D03*
X106000000Y-56000000D03*
X93500000Y-56750000D03*
X107000000Y-44000000D03*
X92000000Y-54500000D03*
X96500000Y-56750000D03*
X107000000Y-47000000D03*
X91000000Y-51000000D03*
X91000000Y-44000000D03*
X95500000Y-42250000D03*
X91000000Y-56000000D03*
X92500000Y-42250000D03*
X92000000Y-57500000D03*
X93000000Y-43000000D03*
X104500000Y-42250000D03*
X88500000Y-52000000D03*
X107000000Y-43000000D03*
X107000000Y-50000000D03*
X94500000Y-56750000D03*
X107000000Y-54000000D03*
G04 #@! TA.AperFunction,Conductor*
G36*
X109506433Y-40651347D02*
G01*
X109513601Y-40652290D01*
X109577538Y-40660708D01*
X109602492Y-40667394D01*
X109662708Y-40692336D01*
X109685087Y-40705255D01*
X109736797Y-40744934D01*
X109755065Y-40763202D01*
X109770866Y-40783794D01*
X109794742Y-40814910D01*
X109807663Y-40837291D01*
X109832603Y-40897500D01*
X109839292Y-40922464D01*
X109848653Y-40993566D01*
X109849500Y-41006488D01*
X109849500Y-42401000D01*
X109830593Y-42459191D01*
X109781093Y-42495155D01*
X109750500Y-42500000D01*
X107500000Y-42500000D01*
X107500000Y-45500000D01*
X109750500Y-45500000D01*
X109808691Y-45518907D01*
X109844655Y-45568407D01*
X109849500Y-45599000D01*
X109849500Y-53401000D01*
X109830593Y-53459191D01*
X109781093Y-53495155D01*
X109750500Y-53500000D01*
X107500000Y-53500000D01*
X107500000Y-56500000D01*
X109750500Y-56500000D01*
X109808691Y-56518907D01*
X109844655Y-56568407D01*
X109849500Y-56599000D01*
X109849500Y-57993511D01*
X109848653Y-58006433D01*
X109839292Y-58077535D01*
X109832603Y-58102499D01*
X109807663Y-58162708D01*
X109794742Y-58185089D01*
X109755069Y-58236793D01*
X109736793Y-58255069D01*
X109685089Y-58294742D01*
X109662708Y-58307663D01*
X109602499Y-58332603D01*
X109577536Y-58339292D01*
X109553538Y-58342451D01*
X109506432Y-58348653D01*
X109493512Y-58349500D01*
X88506488Y-58349500D01*
X88493566Y-58348653D01*
X88422464Y-58339292D01*
X88397502Y-58332603D01*
X88373599Y-58322702D01*
X88337291Y-58307663D01*
X88314910Y-58294742D01*
X88263202Y-58255065D01*
X88244934Y-58236797D01*
X88205255Y-58185087D01*
X88192336Y-58162708D01*
X88167394Y-58102492D01*
X88160708Y-58077538D01*
X88151347Y-58006432D01*
X88150500Y-57993511D01*
X88150500Y-57599000D01*
X88169407Y-57540809D01*
X88218907Y-57504845D01*
X88249500Y-57500000D01*
X90499999Y-57500000D01*
X90500000Y-57500000D01*
X90500000Y-54500000D01*
X90499999Y-54500000D01*
X88249500Y-54500000D01*
X88191309Y-54481093D01*
X88155345Y-54431593D01*
X88150500Y-54401000D01*
X88150500Y-45310435D01*
X91499500Y-45310435D01*
X91499500Y-53689564D01*
X91519978Y-53765988D01*
X91519980Y-53765992D01*
X91559538Y-53834508D01*
X91559540Y-53834511D01*
X91615489Y-53890460D01*
X91615491Y-53890461D01*
X91684007Y-53930019D01*
X91684011Y-53930021D01*
X91760435Y-53950499D01*
X91760437Y-53950500D01*
X91760438Y-53950500D01*
X106239563Y-53950500D01*
X106239563Y-53950499D01*
X106315989Y-53930021D01*
X106384511Y-53890460D01*
X106440460Y-53834511D01*
X106480021Y-53765989D01*
X106500500Y-53689562D01*
X106500500Y-45310438D01*
X106480021Y-45234011D01*
X106440460Y-45165489D01*
X106384511Y-45109540D01*
X106384508Y-45109538D01*
X106315992Y-45069980D01*
X106315988Y-45069978D01*
X106239564Y-45049500D01*
X106239562Y-45049500D01*
X91839562Y-45049500D01*
X91760438Y-45049500D01*
X91760435Y-45049500D01*
X91684011Y-45069978D01*
X91684007Y-45069980D01*
X91615491Y-45109538D01*
X91559538Y-45165491D01*
X91519980Y-45234007D01*
X91519978Y-45234011D01*
X91499500Y-45310435D01*
X88150500Y-45310435D01*
X88150500Y-44599000D01*
X88169407Y-44540809D01*
X88218907Y-44504845D01*
X88249500Y-44500000D01*
X90499999Y-44500000D01*
X90500000Y-44500000D01*
X90500000Y-41500000D01*
X90499999Y-41500000D01*
X88249500Y-41500000D01*
X88191309Y-41481093D01*
X88155345Y-41431593D01*
X88150500Y-41401000D01*
X88150500Y-41006488D01*
X88151347Y-40993567D01*
X88160149Y-40926706D01*
X88160708Y-40922459D01*
X88167393Y-40897509D01*
X88192337Y-40837287D01*
X88205253Y-40814915D01*
X88244938Y-40763197D01*
X88263197Y-40744938D01*
X88314915Y-40705253D01*
X88337287Y-40692337D01*
X88397509Y-40667393D01*
X88422459Y-40660708D01*
X88487518Y-40652143D01*
X88493567Y-40651347D01*
X88506488Y-40650500D01*
X88534351Y-40650500D01*
X109465649Y-40650500D01*
X109493512Y-40650500D01*
X109506433Y-40651347D01*
G37*
G04 #@! TD.AperFunction*
M02*
