M48
; DRILL file {KiCad 8.0.3-8.0.3-0~ubuntu22.04.1} date 2024-07-06T17:23:18+0300
; FORMAT={-:-/ absolute / metric / decimal}
; #@! TF.CreationDate,2024-07-06T17:23:18+03:00
; #@! TF.GenerationSoftware,Kicad,Pcbnew,8.0.3-8.0.3-0~ubuntu22.04.1
; #@! TF.FileFunction,Plated,1,2,PTH
FMAT,2
METRIC
; #@! TA.AperFunction,Plated,PTH,ViaDrill
T1C0.300
; #@! TA.AperFunction,Plated,PTH,ComponentDrill
T2C0.300
; #@! TA.AperFunction,Plated,PTH,ComponentDrill
T3C1.000
%
G90
G05
T1
X88.5Y-47.0
X88.5Y-52.0
X89.75Y-47.0
X89.75Y-52.0
X91.0Y-43.0
X91.0Y-44.0
X91.0Y-45.0
X91.0Y-46.0
X91.0Y-47.0
X91.0Y-48.0
X91.0Y-49.0
X91.0Y-50.0
X91.0Y-51.0
X91.0Y-52.0
X91.0Y-53.0
X91.0Y-54.0
X91.0Y-55.0
X91.0Y-56.0
X91.5Y-42.25
X91.5Y-56.75
X92.0Y-41.5
X92.0Y-43.0
X92.0Y-43.75
X92.0Y-44.5
X92.0Y-54.5
X92.0Y-55.25
X92.0Y-56.0
X92.0Y-57.5
X92.5Y-42.25
X92.5Y-56.75
X93.0Y-41.5
X93.0Y-43.0
X93.0Y-56.0
X93.0Y-57.5
X93.5Y-42.25
X93.5Y-56.75
X94.0Y-41.5
X94.0Y-43.0
X94.0Y-56.0
X94.0Y-57.5
X94.5Y-42.25
X94.5Y-56.75
X95.0Y-41.5
X95.0Y-43.0
X95.0Y-56.0
X95.0Y-57.5
X95.5Y-42.25
X95.5Y-56.75
X96.0Y-41.5
X96.0Y-43.0
X96.0Y-56.0
X96.0Y-57.5
X96.5Y-42.25
X96.5Y-56.75
X97.0Y-41.5
X97.0Y-43.0
X97.0Y-56.0
X97.0Y-57.5
X97.5Y-42.25
X97.5Y-56.75
X98.0Y-41.5
X98.0Y-43.0
X98.0Y-56.0
X98.0Y-57.5
X98.5Y-42.25
X98.5Y-56.75
X99.0Y-41.5
X99.0Y-43.0
X99.0Y-56.0
X99.0Y-57.5
X99.5Y-42.25
X99.5Y-56.75
X100.0Y-41.5
X100.0Y-43.0
X100.0Y-56.0
X100.0Y-57.5
X100.5Y-42.25
X100.5Y-56.75
X101.0Y-41.5
X101.0Y-43.0
X101.0Y-56.0
X101.0Y-57.5
X101.5Y-42.25
X101.5Y-56.75
X102.0Y-41.5
X102.0Y-43.0
X102.0Y-56.0
X102.0Y-57.5
X102.5Y-42.25
X102.5Y-56.75
X103.0Y-41.5
X103.0Y-43.0
X103.0Y-56.0
X103.0Y-57.5
X103.5Y-42.25
X103.5Y-56.75
X104.0Y-41.5
X104.0Y-43.0
X104.0Y-56.0
X104.0Y-57.5
X104.5Y-42.25
X104.5Y-56.75
X105.0Y-41.5
X105.0Y-43.0
X105.0Y-56.0
X105.0Y-57.5
X105.5Y-42.25
X105.5Y-56.75
X106.0Y-41.5
X106.0Y-43.0
X106.0Y-43.75
X106.0Y-44.5
X106.0Y-54.5
X106.0Y-55.25
X106.0Y-56.0
X106.0Y-57.5
X106.5Y-42.25
X106.5Y-56.75
X107.0Y-43.0
X107.0Y-44.0
X107.0Y-45.0
X107.0Y-46.0
X107.0Y-47.0
X107.0Y-48.0
X107.0Y-49.0
X107.0Y-50.0
X107.0Y-51.0
X107.0Y-52.0
X107.0Y-53.0
X107.0Y-54.0
X107.0Y-55.0
X107.0Y-56.0
X108.25Y-47.0
X108.25Y-52.0
X109.5Y-47.0
X109.5Y-52.0
T2
X92.5Y-46.45
X92.5Y-48.0
X92.5Y-49.5
X92.5Y-51.05
X92.5Y-52.55
X93.15Y-45.7
X93.15Y-47.2
X93.15Y-48.75
X93.15Y-50.25
X93.15Y-51.8
X93.15Y-53.3
X93.8Y-46.45
X93.8Y-48.0
X93.8Y-49.5
X93.8Y-51.05
X93.8Y-52.55
X94.45Y-45.7
X94.45Y-47.2
X94.45Y-48.75
X94.45Y-50.25
X94.45Y-51.8
X94.45Y-53.3
X95.1Y-46.45
X95.1Y-48.0
X95.1Y-49.5
X95.1Y-51.05
X95.1Y-52.55
X95.7Y-45.7
X95.7Y-47.2
X95.7Y-48.75
X95.7Y-50.25
X95.7Y-51.8
X95.7Y-53.3
X96.35Y-46.45
X96.35Y-48.0
X96.35Y-49.5
X96.35Y-51.05
X96.35Y-52.55
X97.0Y-45.7
X97.0Y-47.2
X97.0Y-48.75
X97.0Y-50.25
X97.0Y-51.8
X97.0Y-53.3
X97.65Y-46.45
X97.65Y-48.0
X97.65Y-49.5
X97.65Y-51.05
X97.65Y-52.55
X98.3Y-45.7
X98.3Y-47.2
X98.3Y-48.75
X98.3Y-50.25
X98.3Y-51.8
X98.3Y-53.3
X99.0Y-46.45
X99.0Y-48.0
X99.0Y-49.5
X99.0Y-51.05
X99.0Y-52.55
X99.65Y-45.7
X99.65Y-47.2
X99.65Y-48.75
X99.65Y-50.25
X99.65Y-51.8
X99.65Y-53.3
X100.3Y-46.45
X100.3Y-48.0
X100.3Y-49.5
X100.3Y-51.05
X100.3Y-52.55
X100.95Y-45.7
X100.95Y-47.2
X100.95Y-48.75
X100.95Y-50.25
X100.95Y-51.8
X100.95Y-53.3
X101.6Y-46.45
X101.6Y-48.0
X101.6Y-49.5
X101.6Y-51.05
X101.6Y-52.55
X102.25Y-45.7
X102.25Y-47.2
X102.25Y-48.75
X102.25Y-50.25
X102.25Y-51.8
X102.25Y-53.3
X102.85Y-46.45
X102.85Y-48.0
X102.85Y-49.5
X102.85Y-51.05
X102.85Y-52.55
X103.5Y-45.7
X103.5Y-47.2
X103.5Y-48.75
X103.5Y-50.25
X103.5Y-51.8
X103.5Y-53.3
X104.15Y-46.45
X104.15Y-48.0
X104.15Y-49.5
X104.15Y-51.05
X104.15Y-52.55
X104.8Y-45.7
X104.8Y-47.2
X104.8Y-48.75
X104.8Y-50.25
X104.8Y-51.8
X104.8Y-53.3
X105.45Y-46.45
X105.45Y-48.0
X105.45Y-49.5
X105.45Y-51.05
X105.45Y-52.55
T3
X88.0Y-43.0
X88.0Y-48.4
X88.0Y-50.6
X88.0Y-56.0
X110.0Y-44.0
X110.0Y-48.4
X110.0Y-50.6
X110.0Y-55.0
M30
