G04 #@! TF.GenerationSoftware,KiCad,Pcbnew,8.0.2-8.0.2-0~ubuntu22.04.1*
G04 #@! TF.CreationDate,2024-05-04T14:39:35+03:00*
G04 #@! TF.ProjectId,Directional_Coupler,44697265-6374-4696-9f6e-616c5f436f75,A0*
G04 #@! TF.SameCoordinates,Original*
G04 #@! TF.FileFunction,Soldermask,Top*
G04 #@! TF.FilePolarity,Negative*
%FSLAX46Y46*%
G04 Gerber Fmt 4.6, Leading zero omitted, Abs format (unit mm)*
G04 Created by KiCad (PCBNEW 8.0.2-8.0.2-0~ubuntu22.04.1) date 2024-05-04 14:39:35*
%MOMM*%
%LPD*%
G01*
G04 APERTURE LIST*
G04 Aperture macros list*
%AMRoundRect*
0 Rectangle with rounded corners*
0 $1 Rounding radius*
0 $2 $3 $4 $5 $6 $7 $8 $9 X,Y pos of 4 corners*
0 Add a 4 corners polygon primitive as box body*
4,1,4,$2,$3,$4,$5,$6,$7,$8,$9,$2,$3,0*
0 Add four circle primitives for the rounded corners*
1,1,$1+$1,$2,$3*
1,1,$1+$1,$4,$5*
1,1,$1+$1,$6,$7*
1,1,$1+$1,$8,$9*
0 Add four rect primitives between the rounded corners*
20,1,$1+$1,$2,$3,$4,$5,0*
20,1,$1+$1,$4,$5,$6,$7,0*
20,1,$1+$1,$6,$7,$8,$9,0*
20,1,$1+$1,$8,$9,$2,$3,0*%
G04 Aperture macros list end*
%ADD10C,0.100000*%
%ADD11RoundRect,0.274194X-1.725806X-0.575806X1.725806X-0.575806X1.725806X0.575806X-1.725806X0.575806X0*%
%ADD12C,0.450000*%
G04 APERTURE END LIST*
D10*
X91700000Y-45250000D02*
X106300000Y-45250000D01*
X106300000Y-53750000D01*
X91700000Y-53750000D01*
X91700000Y-45250000D01*
G36*
X91700000Y-45250000D02*
G01*
X106300000Y-45250000D01*
X106300000Y-53750000D01*
X91700000Y-53750000D01*
X91700000Y-45250000D01*
G37*
D11*
X110000000Y-55000000D03*
X88000000Y-43000000D03*
X88000000Y-56000000D03*
D12*
X92500000Y-46450000D03*
X92500000Y-48000000D03*
X92500000Y-49500000D03*
X92500000Y-51050000D03*
X92500000Y-52550000D03*
X93150000Y-45700000D03*
X93150000Y-47200000D03*
X93150000Y-48750000D03*
X93150000Y-50250000D03*
X93150000Y-51800000D03*
X93150000Y-53300000D03*
X93800000Y-46450000D03*
X93800000Y-48000000D03*
X93800000Y-49500000D03*
X93800000Y-51050000D03*
X93800000Y-52550000D03*
X94450000Y-45700000D03*
X94450000Y-47200000D03*
X94450000Y-48750000D03*
X94450000Y-50250000D03*
X94450000Y-51800000D03*
X94450000Y-53300000D03*
X95100000Y-46450000D03*
X95100000Y-48000000D03*
X95100000Y-49500000D03*
X95100000Y-51050000D03*
X95100000Y-52550000D03*
X95700000Y-45700000D03*
X95700000Y-47200000D03*
X95700000Y-48750000D03*
X95700000Y-50250000D03*
X95700000Y-51800000D03*
X95700000Y-53300000D03*
X96350000Y-46450000D03*
X96350000Y-48000000D03*
X96350000Y-49500000D03*
X96350000Y-51050000D03*
X96350000Y-52550000D03*
X97000000Y-45700000D03*
X97000000Y-47200000D03*
X97000000Y-48750000D03*
X97000000Y-50250000D03*
X97000000Y-51800000D03*
X97000000Y-53300000D03*
X97650000Y-46450000D03*
X97650000Y-48000000D03*
X97650000Y-49500000D03*
X97650000Y-51050000D03*
X97650000Y-52550000D03*
X98300000Y-45700000D03*
X98300000Y-47200000D03*
X98300000Y-48750000D03*
X98300000Y-50250000D03*
X98300000Y-51800000D03*
X98300000Y-53300000D03*
X99000000Y-46450000D03*
X99000000Y-48000000D03*
X99000000Y-49500000D03*
X99000000Y-51050000D03*
X99000000Y-52550000D03*
X99650000Y-45700000D03*
X99650000Y-47200000D03*
X99650000Y-48750000D03*
X99650000Y-50250000D03*
X99650000Y-51800000D03*
X99650000Y-53300000D03*
X100300000Y-46450000D03*
X100300000Y-48000000D03*
X100300000Y-49500000D03*
X100300000Y-51050000D03*
X100300000Y-52550000D03*
X100950000Y-45700000D03*
X100950000Y-47200000D03*
X100950000Y-48750000D03*
X100950000Y-50250000D03*
X100950000Y-51800000D03*
X100950000Y-53300000D03*
X101600000Y-46450000D03*
X101600000Y-48000000D03*
X101600000Y-49500000D03*
X101600000Y-51050000D03*
X101600000Y-52550000D03*
X102250000Y-45700000D03*
X102250000Y-47200000D03*
X102250000Y-48750000D03*
X102250000Y-50250000D03*
X102250000Y-51800000D03*
X102250000Y-53300000D03*
X102850000Y-46450000D03*
X102850000Y-48000000D03*
X102850000Y-49500000D03*
X102850000Y-51050000D03*
X102850000Y-52550000D03*
X103500000Y-45700000D03*
X103500000Y-47200000D03*
X103500000Y-48750000D03*
X103500000Y-50250000D03*
X103500000Y-51800000D03*
X103500000Y-53300000D03*
X104150000Y-46450000D03*
X104150000Y-48000000D03*
X104150000Y-49500000D03*
X104150000Y-51050000D03*
X104150000Y-52550000D03*
X104800000Y-45700000D03*
X104800000Y-47200000D03*
X104800000Y-48750000D03*
X104800000Y-50250000D03*
X104800000Y-51800000D03*
X104800000Y-53300000D03*
X105450000Y-46450000D03*
X105450000Y-48000000D03*
X105450000Y-49500000D03*
X105450000Y-51050000D03*
X105450000Y-52550000D03*
D11*
X88000000Y-48400000D03*
X88000000Y-50600000D03*
X110000000Y-48400000D03*
X110000000Y-50600000D03*
X110000000Y-44000000D03*
M02*
