G04 #@! TF.GenerationSoftware,KiCad,Pcbnew,8.0.2-8.0.2-0~ubuntu22.04.1*
G04 #@! TF.CreationDate,2024-05-05T21:49:18+03:00*
G04 #@! TF.ProjectId,ZFTuner,5a465475-6e65-4722-9e6b-696361645f70,A0*
G04 #@! TF.SameCoordinates,Original*
G04 #@! TF.FileFunction,Legend,Bot*
G04 #@! TF.FilePolarity,Positive*
%FSLAX46Y46*%
G04 Gerber Fmt 4.6, Leading zero omitted, Abs format (unit mm)*
G04 Created by KiCad (PCBNEW 8.0.2-8.0.2-0~ubuntu22.04.1) date 2024-05-05 21:49:18*
%MOMM*%
%LPD*%
G01*
G04 APERTURE LIST*
G04 Aperture macros list*
%AMRoundRect*
0 Rectangle with rounded corners*
0 $1 Rounding radius*
0 $2 $3 $4 $5 $6 $7 $8 $9 X,Y pos of 4 corners*
0 Add a 4 corners polygon primitive as box body*
4,1,4,$2,$3,$4,$5,$6,$7,$8,$9,$2,$3,0*
0 Add four circle primitives for the rounded corners*
1,1,$1+$1,$2,$3*
1,1,$1+$1,$4,$5*
1,1,$1+$1,$6,$7*
1,1,$1+$1,$8,$9*
0 Add four rect primitives between the rounded corners*
20,1,$1+$1,$2,$3,$4,$5,0*
20,1,$1+$1,$4,$5,$6,$7,0*
20,1,$1+$1,$6,$7,$8,$9,0*
20,1,$1+$1,$8,$9,$2,$3,0*%
G04 Aperture macros list end*
%ADD10C,2.400000*%
%ADD11C,2.500000*%
%ADD12RoundRect,0.350000X-1.750000X-0.350000X1.750000X-0.350000X1.750000X0.350000X-1.750000X0.350000X0*%
%ADD13C,5.700000*%
%ADD14C,0.990600*%
%ADD15RoundRect,0.250000X-1.000000X1.000000X-1.000000X-1.000000X1.000000X-1.000000X1.000000X1.000000X0*%
%ADD16C,1.600000*%
%ADD17RoundRect,0.250000X1.000000X-1.000000X1.000000X1.000000X-1.000000X1.000000X-1.000000X-1.000000X0*%
%ADD18R,2.400000X2.400000*%
%ADD19C,0.650000*%
%ADD20O,2.100000X1.000000*%
%ADD21O,1.600000X1.000000*%
%ADD22R,1.000000X1.000000*%
%ADD23O,1.000000X1.000000*%
G04 APERTURE END LIST*
%LPC*%
D10*
X173500000Y-81300000D03*
D11*
X173500000Y-73800000D03*
D10*
X190157500Y-79900000D03*
D11*
X197657500Y-79900000D03*
D12*
X46407500Y-99950000D03*
X46407500Y-105050000D03*
D13*
X230400000Y-118500000D03*
D14*
X243865000Y-43480000D03*
X244881000Y-48560000D03*
X242849000Y-48560000D03*
D11*
X137657500Y-53117500D03*
X143657500Y-67317500D03*
X131657500Y-67317500D03*
D15*
X143657500Y-55117500D03*
D11*
X131657500Y-55117500D03*
X137657500Y-68917500D03*
D16*
X125657500Y-77660000D03*
X125657500Y-73740000D03*
D11*
X209540000Y-110317500D03*
X203540000Y-96117500D03*
X215540000Y-96117500D03*
D17*
X203540000Y-108317500D03*
D11*
X215540000Y-108317500D03*
X209540000Y-94517500D03*
X191540000Y-110317500D03*
X185540000Y-96117500D03*
X197540000Y-96117500D03*
D17*
X185540000Y-108317500D03*
D11*
X197540000Y-108317500D03*
X191540000Y-94517500D03*
X101657500Y-53117500D03*
X107657500Y-67317500D03*
X95657500Y-67317500D03*
D15*
X107657500Y-55117500D03*
D11*
X95657500Y-55117500D03*
X101657500Y-68917500D03*
D16*
X139067500Y-76200000D03*
X143657500Y-76200000D03*
D11*
X173540000Y-110317500D03*
X167540000Y-96117500D03*
X179540000Y-96117500D03*
D17*
X167540000Y-108317500D03*
D11*
X179540000Y-108317500D03*
X173540000Y-94517500D03*
D18*
X260100000Y-78750000D03*
D10*
X260100000Y-75250000D03*
X260100000Y-71750000D03*
X260100000Y-68250000D03*
D11*
X155657500Y-53117500D03*
X161657500Y-67317500D03*
X149657500Y-67317500D03*
D15*
X161657500Y-55117500D03*
D11*
X149657500Y-55117500D03*
X155657500Y-68917500D03*
X101540000Y-110317500D03*
X95540000Y-96117500D03*
X107540000Y-96117500D03*
D17*
X95540000Y-108317500D03*
D11*
X107540000Y-108317500D03*
X101540000Y-94517500D03*
D19*
X258235000Y-52445000D03*
X258235000Y-46665000D03*
D20*
X257735000Y-53875000D03*
D21*
X261915000Y-53875000D03*
D20*
X257735000Y-45235000D03*
D21*
X261915000Y-45235000D03*
D11*
X119540000Y-110317500D03*
X113540000Y-96117500D03*
X125540000Y-96117500D03*
D17*
X113540000Y-108317500D03*
D11*
X125540000Y-108317500D03*
X119540000Y-94517500D03*
X155540000Y-110317500D03*
X149540000Y-96117500D03*
X161540000Y-96117500D03*
D17*
X149540000Y-108317500D03*
D11*
X161540000Y-108317500D03*
X155540000Y-94517500D03*
D12*
X46307500Y-57950000D03*
X46307500Y-63050000D03*
D11*
X191657500Y-53117500D03*
X197657500Y-67317500D03*
X185657500Y-67317500D03*
D15*
X197657500Y-55117500D03*
D11*
X185657500Y-55117500D03*
X191657500Y-68917500D03*
X119657500Y-53117500D03*
X125657500Y-67317500D03*
X113657500Y-67317500D03*
D15*
X125657500Y-55117500D03*
D11*
X113657500Y-55117500D03*
X119657500Y-68917500D03*
X137657500Y-110317500D03*
X131657500Y-96117500D03*
X143657500Y-96117500D03*
D17*
X131657500Y-108317500D03*
D11*
X143657500Y-108317500D03*
X137657500Y-94517500D03*
D16*
X105077500Y-75500000D03*
X107657500Y-75500000D03*
D11*
X83422500Y-110292500D03*
X77422500Y-96092500D03*
X89422500Y-96092500D03*
D17*
X77422500Y-108292500D03*
D11*
X89422500Y-108292500D03*
X83422500Y-94492500D03*
D18*
X260100000Y-115250000D03*
D10*
X260100000Y-111750000D03*
X260100000Y-108250000D03*
D22*
X260900000Y-103350000D03*
D23*
X260900000Y-102080000D03*
D11*
X209657500Y-53117500D03*
X215657500Y-67317500D03*
X203657500Y-67317500D03*
D15*
X215657500Y-55117500D03*
D11*
X203657500Y-55117500D03*
X209657500Y-68917500D03*
D13*
X231000000Y-45000000D03*
X49000000Y-45500000D03*
X49000000Y-117500000D03*
D10*
X154157500Y-79900000D03*
D11*
X161657500Y-79900000D03*
D10*
X209400000Y-81300000D03*
D11*
X209400000Y-73800000D03*
X173657500Y-53117500D03*
X179657500Y-67317500D03*
X167657500Y-67317500D03*
D15*
X179657500Y-55117500D03*
D11*
X167657500Y-55117500D03*
X173657500Y-68917500D03*
%LPD*%
M02*
