M48
; DRILL file {KiCad 8.0.3-8.0.3-0~ubuntu22.04.1} date 2024-06-07T14:10:13+0300
; FORMAT={-:-/ absolute / metric / decimal}
; #@! TF.CreationDate,2024-06-07T14:10:13+03:00
; #@! TF.GenerationSoftware,Kicad,Pcbnew,8.0.3-8.0.3-0~ubuntu22.04.1
; #@! TF.FileFunction,Plated,1,4,PTH
FMAT,2
METRIC
; #@! TA.AperFunction,Plated,PTH,ViaDrill
T1C0.200
; #@! TA.AperFunction,Plated,PTH,ComponentDrill
T2C0.600
; #@! TA.AperFunction,Plated,PTH,ComponentDrill
T3C0.650
; #@! TA.AperFunction,Plated,PTH,ComponentDrill
T4C0.770
; #@! TA.AperFunction,Plated,PTH,ComponentDrill
T5C1.200
; #@! TA.AperFunction,Plated,PTH,ComponentDrill
T6C1.300
; #@! TA.AperFunction,Plated,PTH,ComponentDrill
T7C3.200
%
G90
G05
T1
X45.015Y-43.45
X45.015Y-46.45
X45.015Y-49.45
X45.015Y-52.45
X45.015Y-55.45
X45.015Y-64.45
X45.015Y-67.45
X45.015Y-70.45
X45.015Y-73.45
X45.015Y-76.45
X45.015Y-79.45
X45.015Y-82.45
X45.015Y-85.45
X45.015Y-88.45
X45.015Y-91.45
X45.015Y-94.45
X45.015Y-97.45
X45.015Y-106.45
X45.015Y-109.45
X45.015Y-112.45
X45.015Y-115.45
X45.015Y-118.45
X45.015Y-121.45
X46.307Y-59.3
X46.307Y-61.7
X46.407Y-101.3
X46.407Y-103.7
X47.411Y-101.3
X47.411Y-103.7
X47.527Y-59.3
X47.527Y-61.7
X48.015Y-49.45
X48.015Y-52.45
X48.015Y-55.45
X48.015Y-64.45
X48.015Y-67.45
X48.015Y-70.45
X48.015Y-73.45
X48.015Y-76.45
X48.015Y-79.45
X48.015Y-82.45
X48.015Y-85.45
X48.015Y-88.45
X48.015Y-91.45
X48.015Y-94.45
X48.015Y-97.45
X48.015Y-106.45
X48.015Y-109.45
X48.015Y-112.45
X48.015Y-121.45
X48.415Y-101.3
X48.415Y-103.7
X48.717Y-59.3
X48.746Y-61.7
X49.419Y-101.3
X49.419Y-103.7
X49.6Y-61.6
X49.834Y-59.157
X50.423Y-101.3
X50.423Y-103.7
X50.522Y-61.457
X50.875Y-58.726
X51.015Y-49.45
X51.015Y-52.45
X51.015Y-55.45
X51.015Y-64.45
X51.015Y-67.45
X51.015Y-70.45
X51.015Y-73.45
X51.015Y-76.45
X51.015Y-79.45
X51.015Y-82.45
X51.015Y-85.45
X51.015Y-88.45
X51.015Y-91.45
X51.015Y-94.45
X51.015Y-97.45
X51.015Y-106.45
X51.015Y-109.45
X51.015Y-112.45
X51.015Y-121.45
X51.427Y-101.3
X51.427Y-103.7
X51.58Y-61.065
X51.745Y-58.058
X52.431Y-101.3
X52.431Y-103.7
X52.529Y-57.274
X52.555Y-60.498
X53.313Y-56.49
X53.421Y-59.775
X53.434Y-101.3
X53.434Y-103.7
X54.015Y-43.45
X54.015Y-46.45
X54.015Y-49.45
X54.015Y-52.45
X54.015Y-64.45
X54.015Y-67.45
X54.015Y-70.45
X54.015Y-73.45
X54.015Y-76.45
X54.015Y-79.45
X54.015Y-82.45
X54.015Y-85.45
X54.015Y-88.45
X54.015Y-91.45
X54.015Y-94.45
X54.015Y-97.45
X54.015Y-106.45
X54.015Y-109.45
X54.015Y-112.45
X54.015Y-115.45
X54.015Y-118.45
X54.015Y-121.45
X54.097Y-55.706
X54.226Y-58.971
X54.438Y-101.3
X54.438Y-103.7
X54.881Y-54.922
X55.01Y-58.187
X55.442Y-101.3
X55.442Y-103.7
X55.665Y-54.137
X55.794Y-57.403
X56.446Y-101.3
X56.446Y-103.7
X56.45Y-53.353
X56.578Y-56.619
X57.015Y-43.45
X57.015Y-46.45
X57.015Y-49.45
X57.015Y-58.45
X57.015Y-61.45
X57.015Y-64.45
X57.015Y-67.45
X57.015Y-76.45
X57.015Y-79.45
X57.015Y-82.45
X57.015Y-85.45
X57.015Y-88.45
X57.015Y-91.45
X57.015Y-94.45
X57.015Y-97.45
X57.015Y-106.45
X57.015Y-109.45
X57.015Y-112.45
X57.015Y-115.45
X57.015Y-118.45
X57.015Y-121.45
X57.234Y-52.569
X57.325Y-103.65
X57.363Y-55.835
X57.534Y-101.157
X58.018Y-51.785
X58.147Y-55.05
X58.222Y-103.457
X58.575Y-100.726
X58.9Y-51.111
X58.931Y-54.266
X59.28Y-103.065
X59.466Y-100.037
X59.715Y-53.482
X60.0Y-50.3
X60.015Y-43.45
X60.015Y-46.45
X60.015Y-55.45
X60.015Y-61.45
X60.015Y-67.45
X60.015Y-73.45
X60.015Y-76.45
X60.015Y-79.45
X60.015Y-82.45
X60.015Y-85.45
X60.015Y-88.45
X60.015Y-91.45
X60.015Y-94.45
X60.015Y-97.45
X60.015Y-106.45
X60.015Y-109.45
X60.015Y-112.45
X60.015Y-115.45
X60.015Y-118.45
X60.015Y-121.45
X60.25Y-99.253
X60.255Y-102.498
X61.0Y-50.3
X61.0Y-53.2
X61.055Y-98.448
X61.142Y-101.755
X61.7Y-82.5
X61.86Y-97.643
X61.947Y-100.95
X62.0Y-50.3
X62.0Y-53.2
X62.686Y-96.817
X62.752Y-100.145
X63.0Y-50.3
X63.0Y-53.2
X63.0Y-87.8
X63.015Y-43.45
X63.015Y-46.45
X63.015Y-55.45
X63.015Y-61.45
X63.015Y-67.45
X63.015Y-76.45
X63.015Y-103.45
X63.015Y-106.45
X63.015Y-109.45
X63.015Y-112.45
X63.015Y-115.45
X63.015Y-118.45
X63.015Y-121.45
X63.473Y-96.151
X63.557Y-99.34
X64.0Y-50.3
X64.0Y-53.2
X64.341Y-98.555
X64.8Y-50.9
X64.8Y-52.6
X64.9Y-51.8
X65.233Y-97.867
X65.304Y-95.221
X66.015Y-43.45
X66.015Y-46.45
X66.015Y-49.45
X66.015Y-52.45
X66.015Y-55.45
X66.015Y-58.45
X66.015Y-61.45
X66.015Y-64.45
X66.015Y-67.45
X66.015Y-70.45
X66.015Y-73.45
X66.015Y-79.45
X66.015Y-85.45
X66.015Y-88.45
X66.015Y-91.45
X66.015Y-100.45
X66.015Y-103.45
X66.015Y-106.45
X66.015Y-109.45
X66.015Y-112.45
X66.015Y-115.45
X66.015Y-118.45
X66.015Y-121.45
X66.305Y-94.978
X67.361Y-94.892
X67.361Y-97.292
X68.368Y-94.892
X68.368Y-97.292
X69.015Y-43.45
X69.015Y-46.45
X69.015Y-49.45
X69.015Y-52.45
X69.015Y-55.45
X69.015Y-58.45
X69.015Y-61.45
X69.015Y-64.45
X69.015Y-67.45
X69.015Y-70.45
X69.015Y-73.45
X69.015Y-76.45
X69.015Y-79.45
X69.015Y-85.45
X69.015Y-88.45
X69.015Y-91.45
X69.015Y-100.45
X69.015Y-103.45
X69.015Y-106.45
X69.015Y-109.45
X69.015Y-112.45
X69.015Y-115.45
X69.015Y-118.45
X69.015Y-121.45
X69.374Y-94.892
X69.374Y-97.292
X70.38Y-94.892
X70.38Y-97.292
X71.1Y-83.45
X71.386Y-94.892
X71.386Y-97.292
X72.015Y-43.45
X72.015Y-46.45
X72.015Y-49.45
X72.015Y-52.45
X72.015Y-55.45
X72.015Y-58.45
X72.015Y-61.45
X72.015Y-64.45
X72.015Y-67.45
X72.015Y-70.45
X72.015Y-73.45
X72.015Y-76.45
X72.015Y-79.45
X72.015Y-85.45
X72.015Y-88.45
X72.015Y-91.45
X72.015Y-100.45
X72.015Y-103.45
X72.015Y-106.45
X72.015Y-109.45
X72.015Y-112.45
X72.015Y-115.45
X72.015Y-118.45
X72.015Y-121.45
X72.2Y-94.892
X72.2Y-97.292
X73.398Y-94.892
X73.398Y-97.292
X74.05Y-83.45
X74.404Y-94.892
X74.404Y-97.292
X75.015Y-43.45
X75.015Y-46.45
X75.015Y-49.45
X75.015Y-52.45
X75.015Y-55.45
X75.015Y-58.45
X75.015Y-61.45
X75.015Y-64.45
X75.015Y-67.45
X75.015Y-70.45
X75.015Y-73.45
X75.015Y-76.45
X75.015Y-79.45
X75.015Y-85.45
X75.015Y-88.45
X75.015Y-91.45
X75.015Y-100.45
X75.015Y-103.45
X75.015Y-106.45
X75.015Y-109.45
X75.015Y-112.45
X75.015Y-115.45
X75.015Y-118.45
X75.015Y-121.45
X75.41Y-94.892
X75.41Y-97.292
X76.2Y-84.4
X76.3Y-97.7
X76.4Y-94.6
X77.2Y-83.5
X77.2Y-97.925
X77.425Y-94.175
X77.8Y-82.5
X78.0Y-99.95
X78.015Y-43.45
X78.015Y-46.45
X78.015Y-49.45
X78.015Y-52.45
X78.015Y-55.45
X78.015Y-58.45
X78.015Y-61.45
X78.015Y-64.45
X78.015Y-67.45
X78.015Y-85.45
X78.015Y-88.45
X78.015Y-91.45
X78.015Y-103.45
X78.015Y-106.45
X78.015Y-112.45
X78.015Y-115.45
X78.015Y-118.45
X78.015Y-121.45
X78.35Y-97.7
X78.511Y-93.448
X79.0Y-89.2
X79.05Y-97.075
X79.3Y-96.075
X79.444Y-92.515
X80.067Y-95.004
X80.377Y-91.582
X81.0Y-94.071
X81.0Y-42.1
X81.0Y-99.95
X81.015Y-46.45
X81.015Y-49.45
X81.015Y-55.45
X81.015Y-58.45
X81.015Y-61.45
X81.015Y-64.45
X81.015Y-67.45
X81.015Y-70.45
X81.015Y-73.45
X81.015Y-88.45
X81.015Y-97.45
X81.015Y-103.45
X81.015Y-106.45
X81.015Y-109.45
X81.015Y-112.45
X81.015Y-115.45
X81.015Y-118.45
X81.015Y-121.45
X81.311Y-90.649
X81.7Y-51.9
X81.7Y-52.75
X81.7Y-53.7
X81.933Y-93.138
X82.244Y-89.716
X82.35Y-51.325
X82.35Y-54.15
X82.866Y-92.204
X83.177Y-88.782
X83.25Y-51.325
X83.25Y-54.15
X83.799Y-91.271
X84.0Y-42.1
X84.0Y-99.95
X84.015Y-46.45
X84.015Y-49.45
X84.015Y-55.45
X84.015Y-61.45
X84.015Y-76.45
X84.015Y-82.45
X84.015Y-85.45
X84.015Y-103.45
X84.015Y-106.45
X84.015Y-115.45
X84.015Y-118.45
X84.015Y-121.45
X84.11Y-87.849
X84.25Y-51.325
X84.275Y-54.175
X84.733Y-90.338
X84.95Y-86.95
X85.25Y-51.325
X85.25Y-54.2
X85.3Y-97.5
X85.666Y-89.405
X86.046Y-86.095
X86.25Y-51.325
X86.25Y-54.175
X86.58Y-88.49
X87.0Y-42.1
X87.0Y-51.625
X87.0Y-53.925
X87.015Y-46.45
X87.015Y-49.45
X87.015Y-55.45
X87.015Y-58.45
X87.015Y-61.45
X87.015Y-64.45
X87.015Y-67.45
X87.015Y-76.45
X87.015Y-79.45
X87.015Y-91.45
X87.015Y-94.45
X87.015Y-103.45
X87.015Y-106.45
X87.015Y-115.45
X87.015Y-118.45
X87.015Y-121.45
X87.05Y-99.95
X87.166Y-85.498
X87.45Y-87.825
X87.6Y-95.8
X87.7Y-96.8
X87.875Y-51.625
X87.875Y-53.9
X88.0Y-94.9
X88.322Y-92.731
X88.322Y-93.852
X88.325Y-87.4
X88.38Y-85.128
X88.4Y-91.7
X88.4Y-97.6
X88.6Y-90.7
X88.625Y-82.85
X88.7Y-51.1
X88.8Y-43.75
X88.8Y-53.775
X88.991Y-89.853
X89.375Y-87.2
X89.4Y-97.9
X89.536Y-88.94
X89.642Y-85.0
X89.7Y-50.6
X89.7Y-53.3
X90.015Y-79.45
X90.015Y-82.45
X90.015Y-103.45
X90.015Y-106.45
X90.015Y-121.45
X90.2Y-87.2
X90.2Y-99.95
X90.22Y-88.125
X90.4Y-41.3
X90.5Y-97.6
X90.522Y-92.758
X90.522Y-93.852
X90.669Y-91.617
X90.8Y-84.975
X90.9Y-94.972
X90.962Y-87.382
X91.1Y-96.8
X91.11Y-90.554
X91.2Y-50.6
X91.2Y-52.9
X91.813Y-89.642
X92.518Y-88.938
X92.925Y-41.3
X93.0Y-113.6
X93.015Y-43.45
X93.015Y-46.45
X93.015Y-49.45
X93.015Y-121.45
X93.242Y-88.214
X93.6Y-97.975
X93.6Y-99.95
X93.6Y-104.1
X93.6Y-107.1
X94.195Y-88.71
X94.195Y-91.25
X95.65Y-47.25
X96.015Y-118.45
X96.015Y-121.45
X96.735Y-88.71
X96.735Y-91.25
X97.025Y-43.0
X97.125Y-46.925
X97.4Y-99.95
X97.4Y-104.1
X97.4Y-107.1
X99.015Y-46.45
X99.015Y-103.45
X99.015Y-106.45
X99.015Y-115.45
X99.015Y-118.45
X99.015Y-121.45
X99.275Y-88.71
X99.275Y-91.25
X100.0Y-43.0
X100.275Y-48.7
X100.3Y-44.675
X100.4Y-99.95
X100.4Y-104.1
X100.4Y-107.1
X101.815Y-88.71
X101.815Y-91.25
X102.015Y-46.45
X102.015Y-103.45
X102.015Y-106.45
X102.015Y-115.45
X102.015Y-118.45
X102.015Y-121.45
X103.0Y-43.0
X103.2Y-88.975
X103.2Y-89.983
X103.2Y-90.992
X103.2Y-92.0
X103.4Y-99.975
X103.4Y-104.1
X103.4Y-107.1
X103.525Y-44.7
X103.525Y-48.7
X104.2Y-88.975
X104.2Y-92.0
X105.015Y-46.45
X105.015Y-115.45
X105.015Y-118.45
X105.015Y-121.45
X105.2Y-88.975
X105.2Y-92.0
X105.7Y-99.975
X105.7Y-104.1
X105.7Y-107.1
X106.0Y-43.0
X106.2Y-88.975
X106.2Y-92.0
X106.675Y-44.725
X107.55Y-97.95
X108.015Y-118.45
X108.015Y-121.45
X109.0Y-43.0
X109.435Y-88.71
X109.435Y-91.25
X110.5Y-99.975
X110.5Y-104.1
X110.5Y-107.1
X111.0Y-113.6
X111.015Y-46.45
X111.015Y-49.45
X111.015Y-118.45
X111.015Y-121.45
X111.975Y-88.71
X111.975Y-91.25
X112.0Y-43.0
X112.45Y-99.975
X114.015Y-118.45
X114.015Y-121.45
X114.515Y-88.71
X114.515Y-91.25
X115.0Y-43.0
X115.4Y-99.975
X115.4Y-104.8
X115.4Y-107.1
X117.015Y-46.45
X117.015Y-106.45
X117.015Y-115.45
X117.015Y-118.45
X117.015Y-121.45
X117.055Y-88.71
X117.055Y-91.25
X118.0Y-43.025
X118.3Y-48.7
X118.4Y-99.975
X118.4Y-104.8
X118.4Y-107.1
X119.595Y-88.71
X119.595Y-91.25
X120.015Y-46.45
X120.015Y-106.45
X120.015Y-115.45
X120.015Y-118.45
X120.015Y-121.45
X121.0Y-43.025
X121.2Y-88.975
X121.2Y-89.983
X121.2Y-90.992
X121.2Y-92.0
X121.4Y-99.975
X121.4Y-104.8
X121.4Y-107.1
X121.45Y-48.675
X122.2Y-88.975
X122.2Y-92.0
X123.015Y-46.45
X123.015Y-115.45
X123.015Y-118.45
X123.015Y-121.45
X123.2Y-88.975
X123.2Y-92.0
X123.8Y-99.975
X123.8Y-104.8
X123.8Y-107.1
X124.0Y-43.025
X124.2Y-88.975
X124.2Y-92.0
X125.575Y-97.95
X126.015Y-118.45
X126.015Y-121.45
X127.0Y-43.025
X127.0Y-47.55
X127.215Y-88.71
X127.215Y-91.25
X128.6Y-99.975
X128.6Y-105.5
X128.6Y-107.1
X129.0Y-113.6
X129.015Y-49.45
X129.015Y-118.45
X129.015Y-121.45
X129.755Y-88.71
X129.755Y-91.25
X130.0Y-43.025
X130.0Y-47.4
X132.015Y-118.45
X132.015Y-121.45
X132.295Y-88.71
X132.295Y-91.25
X133.0Y-43.025
X133.0Y-47.4
X133.5Y-99.975
X133.5Y-107.1
X134.3Y-115.4
X134.835Y-88.71
X134.835Y-91.25
X135.015Y-106.45
X135.015Y-121.45
X136.0Y-43.025
X136.0Y-47.4
X136.5Y-99.975
X136.5Y-107.1
X137.375Y-88.71
X137.375Y-91.25
X137.4Y-48.875
X138.015Y-106.45
X138.015Y-115.45
X138.015Y-121.45
X139.0Y-43.025
X139.0Y-47.4
X139.35Y-88.975
X139.35Y-89.983
X139.35Y-90.992
X139.35Y-92.0
X139.5Y-99.975
X139.5Y-107.1
X140.35Y-88.975
X140.35Y-92.0
X141.015Y-115.45
X141.015Y-121.45
X141.35Y-88.975
X141.35Y-92.0
X141.9Y-99.975
X141.9Y-107.1
X142.0Y-43.025
X142.0Y-47.4
X142.35Y-88.975
X142.35Y-92.0
X143.65Y-97.95
X144.015Y-115.45
X144.015Y-121.45
X144.8Y-43.1
X144.995Y-88.71
X144.995Y-91.25
X145.0Y-47.4
X145.7Y-43.1
X146.625Y-99.95
X146.625Y-107.1
X146.8Y-49.9
X147.015Y-115.45
X147.015Y-121.45
X147.535Y-88.71
X147.535Y-91.25
X147.6Y-119.9
X148.0Y-47.4
X148.7Y-119.9
X149.5Y-100.614
X150.015Y-115.45
X150.015Y-118.45
X150.015Y-121.45
X150.075Y-88.71
X150.075Y-91.25
X151.4Y-99.975
X151.4Y-107.1
X152.615Y-88.71
X152.615Y-91.25
X153.015Y-115.45
X153.015Y-118.45
X153.015Y-121.45
X154.4Y-99.975
X154.4Y-107.1
X155.155Y-88.71
X155.155Y-91.25
X156.015Y-115.45
X156.015Y-118.45
X156.015Y-121.45
X157.175Y-88.975
X157.175Y-89.983
X157.175Y-90.992
X157.175Y-92.0
X157.4Y-99.975
X157.4Y-107.1
X158.175Y-88.975
X158.175Y-92.0
X159.015Y-115.45
X159.015Y-118.45
X159.015Y-121.45
X159.175Y-88.975
X159.175Y-92.0
X159.6Y-99.975
X159.6Y-107.1
X160.175Y-88.975
X160.175Y-92.0
X161.4Y-101.429
X161.575Y-97.95
X162.015Y-118.45
X162.015Y-121.45
X162.775Y-88.71
X162.775Y-91.25
X164.475Y-99.975
X164.475Y-107.1
X164.5Y-47.4
X165.0Y-113.6
X165.015Y-118.45
X165.015Y-121.45
X165.315Y-88.71
X165.315Y-91.25
X167.463Y-43.688
X167.5Y-102.214
X167.855Y-88.71
X167.855Y-91.25
X168.015Y-118.45
X168.015Y-121.45
X169.375Y-99.975
X169.4Y-107.1
X170.395Y-88.71
X170.395Y-91.25
X171.015Y-115.45
X171.015Y-118.45
X171.015Y-121.45
X172.4Y-99.975
X172.4Y-107.1
X172.935Y-88.71
X172.935Y-91.25
X173.4Y-47.4
X174.015Y-115.45
X174.015Y-118.45
X174.015Y-121.45
X175.175Y-88.975
X175.175Y-89.983
X175.175Y-90.992
X175.175Y-92.0
X175.4Y-99.975
X175.4Y-107.1
X176.175Y-88.975
X176.175Y-92.0
X177.015Y-115.45
X177.015Y-118.45
X177.015Y-121.45
X177.175Y-88.975
X177.175Y-92.0
X177.8Y-99.975
X177.8Y-107.1
X178.15Y-52.2
X178.175Y-88.975
X178.175Y-92.0
X179.5Y-103.057
X179.518Y-44.65
X179.55Y-97.975
X180.015Y-118.45
X180.015Y-121.45
X180.555Y-88.71
X180.555Y-91.25
X182.5Y-47.4
X182.525Y-99.975
X182.525Y-107.1
X183.0Y-113.6
X183.015Y-118.45
X183.015Y-121.45
X183.095Y-88.71
X183.095Y-91.25
X185.4Y-103.871
X185.625Y-45.664
X185.635Y-88.71
X185.635Y-91.25
X186.015Y-118.45
X186.015Y-121.45
X187.2Y-52.2
X187.4Y-99.975
X187.4Y-107.1
X188.175Y-88.71
X188.175Y-91.25
X189.015Y-115.45
X189.015Y-118.45
X189.015Y-121.45
X190.475Y-99.975
X190.5Y-107.1
X190.715Y-88.71
X190.715Y-91.25
X191.65Y-47.4
X192.015Y-115.45
X192.015Y-118.45
X192.015Y-121.45
X193.175Y-88.975
X193.175Y-89.983
X193.175Y-90.992
X193.175Y-92.0
X193.4Y-99.975
X193.4Y-107.1
X194.175Y-88.975
X194.175Y-92.0
X195.015Y-115.45
X195.015Y-118.45
X195.015Y-121.45
X195.175Y-88.975
X195.175Y-92.0
X195.9Y-99.975
X195.9Y-107.1
X196.1Y-52.2
X196.175Y-88.975
X196.175Y-92.0
X197.55Y-97.975
X197.55Y-104.686
X197.596Y-46.65
X198.015Y-118.45
X198.015Y-121.45
X198.335Y-88.71
X198.8Y-43.1
X199.146Y-48.15
X199.7Y-43.1
X200.525Y-99.975
X200.525Y-107.1
X200.875Y-88.71
X200.875Y-91.25
X201.0Y-113.6
X201.015Y-118.45
X201.015Y-121.45
X201.4Y-47.4
X203.415Y-88.71
X203.415Y-91.25
X203.55Y-105.5
X204.015Y-118.45
X204.015Y-121.45
X205.2Y-115.3
X205.207Y-52.207
X205.4Y-99.975
X205.4Y-107.1
X205.955Y-88.71
X205.955Y-91.25
X206.95Y-47.4
X207.015Y-121.45
X208.4Y-99.975
X208.4Y-107.1
X208.495Y-88.71
X208.495Y-91.25
X210.015Y-121.45
X211.2Y-88.975
X211.2Y-89.983
X211.2Y-90.992
X211.2Y-92.0
X211.4Y-99.95
X211.4Y-107.1
X212.2Y-88.975
X212.2Y-92.0
X212.35Y-47.4
X213.015Y-121.45
X213.2Y-88.975
X213.2Y-92.0
X213.9Y-99.95
X213.9Y-107.1
X214.2Y-88.975
X214.2Y-92.0
X215.575Y-97.975
X216.015Y-115.45
X216.015Y-121.45
X216.115Y-88.71
X216.2Y-47.4
X216.7Y-49.0
X217.932Y-44.757
X218.875Y-43.85
X219.0Y-108.8
X219.015Y-112.45
X219.015Y-115.45
X219.015Y-121.45
X219.625Y-46.65
X219.8Y-119.9
X220.3Y-44.3
X220.3Y-100.2
X220.675Y-45.8
X220.9Y-119.9
X221.1Y-102.3
X221.6Y-49.0
X222.0Y-108.8
X222.015Y-46.45
X222.015Y-112.45
X222.015Y-115.45
X222.015Y-118.45
X222.015Y-121.45
X222.1Y-45.1
X222.5Y-48.15
X223.33Y-101.33
X223.475Y-50.65
X223.6Y-46.6
X224.2Y-44.4
X224.2Y-48.4
X224.225Y-49.875
X224.5Y-102.3
X225.0Y-108.8
X225.015Y-112.45
X225.015Y-115.45
X225.015Y-118.45
X225.015Y-121.45
X226.25Y-88.675
X227.4Y-87.1
X227.5Y-46.4
X227.5Y-53.15
X227.5Y-111.8
X227.65Y-89.9
X227.8Y-51.3
X227.8Y-75.1
X227.8Y-75.95
X227.8Y-76.75
X227.8Y-77.55
X227.8Y-78.4
X227.9Y-43.3
X228.015Y-49.45
X228.015Y-73.45
X228.015Y-82.45
X228.015Y-85.45
X228.015Y-115.45
X228.015Y-121.45
X228.1Y-55.7
X228.1Y-58.25
X228.1Y-60.8
X228.1Y-63.35
X228.15Y-66.9
X228.25Y-108.85
X228.5Y-102.7
X229.153Y-78.393
X229.6Y-111.8
X229.8Y-89.9
X229.85Y-87.1
X229.85Y-88.5
X230.2Y-61.8
X230.3Y-52.6
X230.5Y-75.093
X230.5Y-75.943
X230.5Y-76.743
X230.5Y-77.543
X230.5Y-78.393
X230.55Y-100.05
X230.7Y-93.71
X230.7Y-94.98
X230.7Y-96.25
X230.7Y-97.52
X230.7Y-98.79
X230.9Y-87.1
X230.9Y-88.5
X230.9Y-89.9
X231.015Y-73.45
X231.015Y-82.45
X231.015Y-85.45
X231.015Y-91.45
X231.125Y-111.625
X231.6Y-87.8
X231.6Y-89.2
X232.1Y-87.1
X232.1Y-88.5
X232.1Y-89.9
X232.2Y-48.9
X232.2Y-112.65
X232.25Y-63.75
X232.35Y-59.95
X232.4Y-66.3
X232.4Y-66.9
X232.4Y-67.5
X233.1Y-60.0
X233.275Y-73.425
X233.3Y-60.8
X233.3Y-87.1
X233.3Y-88.5
X233.3Y-89.9
X233.5Y-80.1
X233.9Y-84.1
X233.9Y-91.3
X234.0Y-43.3
X234.015Y-49.45
X234.015Y-118.45
X234.015Y-121.45
X234.1Y-46.45
X234.2Y-115.9
X234.2Y-116.85
X234.5Y-77.525
X234.5Y-87.1
X234.5Y-88.5
X234.5Y-89.9
X234.6Y-66.3
X234.6Y-66.9
X234.6Y-67.5
X234.925Y-81.6
X234.95Y-111.1
X235.05Y-115.9
X235.05Y-116.85
X235.65Y-119.55
X235.85Y-88.5
X236.15Y-89.9
X236.3Y-119.55
X236.4Y-54.5
X236.4Y-91.2
X236.4Y-93.1
X236.4Y-95.6
X236.4Y-98.15
X236.4Y-100.7
X236.475Y-85.6
X236.825Y-111.25
X236.9Y-83.6
X236.95Y-119.55
X236.953Y-67.493
X237.015Y-46.45
X237.015Y-49.45
X237.015Y-52.45
X237.015Y-58.45
X237.015Y-61.45
X237.015Y-79.45
X237.015Y-88.45
X237.015Y-106.45
X237.015Y-121.45
X237.253Y-66.893
X237.35Y-89.9
X237.625Y-104.775
X237.7Y-117.15
X237.9Y-63.4
X237.9Y-87.1
X238.0Y-60.2
X238.003Y-66.893
X238.3Y-85.0
X238.403Y-76.993
X238.55Y-89.9
X238.7Y-60.2
X238.753Y-66.893
X238.9Y-87.075
X239.203Y-76.993
X239.4Y-60.2
X239.45Y-88.45
X239.5Y-110.9
X239.503Y-66.893
X239.7Y-41.3
X239.8Y-91.15
X239.9Y-57.05
X239.9Y-57.65
X239.95Y-87.1
X239.95Y-99.8
X240.003Y-76.993
X240.015Y-61.45
X240.015Y-94.45
X240.015Y-112.45
X240.015Y-115.45
X240.015Y-118.45
X240.015Y-121.45
X240.1Y-83.7
X240.5Y-44.75
X240.5Y-57.05
X240.5Y-57.65
X240.503Y-71.343
X240.503Y-71.943
X240.8Y-85.3
X240.8Y-106.5
X240.9Y-43.5
X240.9Y-63.425
X240.95Y-89.9
X241.103Y-71.343
X241.103Y-71.943
X241.225Y-48.95
X241.3Y-88.45
X241.703Y-71.343
X241.703Y-71.943
X241.9Y-52.5
X241.9Y-54.7
X241.9Y-87.15
X242.1Y-97.9
X242.103Y-76.243
X242.103Y-76.893
X242.15Y-47.3
X242.7Y-41.3
X242.75Y-89.9
X242.753Y-76.243
X242.753Y-76.893
X242.8Y-61.8
X242.8Y-79.6
X243.015Y-64.45
X243.015Y-67.45
X243.015Y-70.45
X243.015Y-115.45
X243.015Y-118.45
X243.015Y-121.45
X243.1Y-87.15
X243.1Y-88.45
X243.403Y-76.243
X243.403Y-76.943
X243.425Y-100.875
X243.5Y-61.8
X243.9Y-50.05
X244.1Y-77.6
X244.225Y-51.6
X244.3Y-87.15
X244.3Y-88.45
X244.55Y-89.9
X244.7Y-54.675
X245.025Y-67.85
X245.1Y-83.2
X245.5Y-87.15
X245.5Y-88.45
X245.5Y-89.9
X245.7Y-41.3
X246.015Y-43.45
X246.015Y-85.45
X246.015Y-100.45
X246.015Y-118.45
X246.015Y-121.45
X246.05Y-70.8
X246.175Y-54.875
X246.5Y-57.3
X246.567Y-99.048
X246.6Y-102.0
X246.7Y-78.3
X246.7Y-79.1
X246.7Y-79.9
X246.7Y-80.7
X246.7Y-81.5
X246.8Y-102.7
X247.1Y-83.2
X247.15Y-98.45
X247.2Y-77.9
X247.3Y-55.325
X247.325Y-53.275
X247.5Y-86.2
X248.3Y-101.95
X248.5Y-106.9
X248.65Y-98.8
X248.7Y-41.3
X248.7Y-116.1
X249.015Y-43.45
X249.015Y-46.45
X249.015Y-118.45
X249.015Y-121.45
X249.25Y-83.55
X249.25Y-84.55
X249.25Y-85.55
X249.25Y-86.45
X249.4Y-77.9
X249.4Y-94.0
X249.5Y-53.125
X249.57Y-98.23
X249.7Y-99.25
X249.7Y-108.3
X249.85Y-82.9
X250.0Y-49.2
X250.0Y-49.85
X250.03Y-97.77
X250.1Y-57.525
X250.2Y-78.3
X250.2Y-79.1
X250.2Y-79.9
X250.2Y-80.7
X250.2Y-81.5
X250.3Y-65.25
X250.4Y-89.7
X250.8Y-53.6
X250.8Y-96.95
X250.85Y-82.9
X250.9Y-94.825
X250.9Y-95.95
X251.0Y-93.8
X251.05Y-103.5
X251.2Y-102.0
X251.35Y-46.85
X251.35Y-52.3
X251.4Y-56.0
X251.7Y-41.0
X251.85Y-82.9
X252.0Y-97.7
X252.0Y-98.7
X252.015Y-58.45
X252.015Y-67.45
X252.015Y-70.45
X252.015Y-73.45
X252.015Y-76.45
X252.015Y-79.45
X252.015Y-109.45
X252.015Y-112.45
X252.015Y-118.45
X252.015Y-121.45
X252.025Y-116.075
X252.6Y-99.25
X252.8Y-47.1
X252.8Y-82.9
X253.35Y-52.3
X253.35Y-91.35
X253.4Y-100.9
X253.45Y-89.45
X253.45Y-108.325
X253.5Y-83.55
X253.5Y-84.55
X253.5Y-85.55
X253.7Y-105.65
X253.75Y-110.95
X253.75Y-113.5
X254.2Y-89.45
X254.25Y-85.55
X254.3Y-101.925
X254.6Y-56.0
X254.65Y-82.3
X254.7Y-41.1
X254.7Y-105.05
X254.725Y-92.725
X254.8Y-112.5
X254.8Y-114.5
X255.0Y-85.55
X255.015Y-58.45
X255.015Y-73.45
X255.015Y-76.45
X255.015Y-79.45
X255.015Y-118.45
X255.015Y-121.45
X255.595Y-49.83
X255.8Y-108.3
X255.8Y-110.4
X255.9Y-48.78
X256.1Y-92.55
X256.1Y-104.4
X257.25Y-43.7
X257.7Y-41.7
X258.0Y-114.5
X258.015Y-64.45
X258.015Y-106.45
X258.015Y-109.45
X258.015Y-112.45
X258.015Y-118.45
X258.015Y-121.45
X258.15Y-99.85
X258.175Y-101.85
X258.3Y-105.4
X258.5Y-48.4
X258.5Y-51.0
X258.5Y-88.85
X258.85Y-85.325
X259.3Y-55.8
X259.3Y-93.5
X259.6Y-47.5
X260.225Y-43.675
X260.5Y-65.15
X260.5Y-95.4
X260.55Y-55.8
X260.7Y-41.7
X261.015Y-58.45
X261.015Y-61.45
X261.015Y-73.45
X261.015Y-82.45
X261.015Y-91.45
X261.015Y-97.45
X261.015Y-106.45
X261.015Y-118.45
X261.015Y-121.45
X261.35Y-63.85
X261.95Y-55.8
X262.525Y-87.475
X263.375Y-94.875
X263.4Y-55.8
X263.7Y-41.7
X264.015Y-58.45
X264.015Y-97.45
X264.015Y-100.45
X264.015Y-103.45
X264.015Y-106.45
X264.015Y-109.45
X264.015Y-112.45
X264.015Y-115.45
X264.015Y-118.45
X264.015Y-121.45
X264.2Y-43.7
T3
X260.9Y-102.08
X260.9Y-103.35
T4
X105.078Y-75.5
X107.657Y-75.5
X125.657Y-73.74
X125.657Y-77.66
X139.067Y-76.2
X143.657Y-76.2
T5
X154.157Y-79.9
X161.657Y-79.9
X173.5Y-73.8
X173.5Y-81.3
X190.157Y-79.9
X197.657Y-79.9
X209.4Y-73.8
X209.4Y-81.3
X260.1Y-68.25
X260.1Y-71.75
X260.1Y-75.25
X260.1Y-78.75
X260.1Y-108.25
X260.1Y-111.75
X260.1Y-115.25
T6
X77.422Y-96.093
X77.422Y-108.292
X83.422Y-94.492
X83.422Y-110.292
X89.422Y-96.093
X89.422Y-108.292
X95.54Y-96.117
X95.54Y-108.317
X95.657Y-55.117
X95.657Y-67.317
X101.54Y-94.517
X101.54Y-110.317
X101.657Y-53.117
X101.657Y-68.918
X107.54Y-96.117
X107.54Y-108.317
X107.657Y-55.117
X107.657Y-67.317
X113.54Y-96.117
X113.54Y-108.317
X113.657Y-55.117
X113.657Y-67.317
X119.54Y-94.517
X119.54Y-110.317
X119.657Y-53.117
X119.657Y-68.918
X125.54Y-96.117
X125.54Y-108.317
X125.657Y-55.117
X125.657Y-67.317
X131.657Y-55.117
X131.657Y-67.317
X131.657Y-96.117
X131.657Y-108.317
X137.657Y-53.117
X137.657Y-68.918
X137.657Y-94.517
X137.657Y-110.317
X143.657Y-55.117
X143.657Y-67.317
X143.657Y-96.117
X143.657Y-108.317
X149.54Y-96.117
X149.54Y-108.317
X149.657Y-55.117
X149.657Y-67.317
X155.54Y-94.517
X155.54Y-110.317
X155.657Y-53.117
X155.657Y-68.918
X161.54Y-96.117
X161.54Y-108.317
X161.657Y-55.117
X161.657Y-67.317
X167.54Y-96.117
X167.54Y-108.317
X167.657Y-55.117
X167.657Y-67.317
X173.54Y-94.517
X173.54Y-110.317
X173.657Y-53.117
X173.657Y-68.918
X179.54Y-96.117
X179.54Y-108.317
X179.657Y-55.117
X179.657Y-67.317
X185.54Y-96.117
X185.54Y-108.317
X185.657Y-55.117
X185.657Y-67.317
X191.54Y-94.517
X191.54Y-110.317
X191.657Y-53.117
X191.657Y-68.918
X197.54Y-96.117
X197.54Y-108.317
X197.657Y-55.117
X197.657Y-67.317
X203.54Y-96.117
X203.54Y-108.317
X203.657Y-55.117
X203.657Y-67.317
X209.54Y-94.517
X209.54Y-110.317
X209.657Y-53.117
X209.657Y-68.918
X215.54Y-96.117
X215.54Y-108.317
X215.657Y-55.117
X215.657Y-67.317
T7
X49.0Y-45.5
X49.0Y-117.5
X230.4Y-118.5
X231.0Y-45.0
T2
X257.185Y-45.235G85X258.285Y-45.235
G05
X257.185Y-53.875G85X258.285Y-53.875
G05
X261.615Y-45.235G85X262.215Y-45.235
G05
X261.615Y-53.875G85X262.215Y-53.875
G05
M30
