M48
; DRILL file {KiCad 8.0.1-8.0.1-1~ubuntu22.04.1} date 2024-04-26T23:59:05+0300
; FORMAT={-:-/ absolute / metric / decimal}
; #@! TF.CreationDate,2024-04-26T23:59:05+03:00
; #@! TF.GenerationSoftware,Kicad,Pcbnew,8.0.1-8.0.1-1~ubuntu22.04.1
; #@! TF.FileFunction,Plated,1,4,PTH
FMAT,2
METRIC
; #@! TA.AperFunction,Plated,PTH,ViaDrill
T1C0.200
; #@! TA.AperFunction,Plated,PTH,ComponentDrill
T2C0.600
; #@! TA.AperFunction,Plated,PTH,ComponentDrill
T3C0.650
; #@! TA.AperFunction,Plated,PTH,ComponentDrill
T4C0.770
; #@! TA.AperFunction,Plated,PTH,ComponentDrill
T5C1.000
; #@! TA.AperFunction,Plated,PTH,ComponentDrill
T6C1.200
; #@! TA.AperFunction,Plated,PTH,ComponentDrill
T7C1.300
%
G90
G05
T1
X45.45Y-58.65
X45.45Y-61.25
X46.455Y-43.015
X46.455Y-45.555
X46.455Y-48.095
X46.455Y-50.635
X46.455Y-53.175
X46.455Y-65.875
X46.455Y-68.415
X46.455Y-70.955
X46.455Y-73.495
X46.455Y-76.035
X46.455Y-78.575
X46.455Y-81.115
X46.455Y-83.655
X46.455Y-86.195
X46.455Y-88.735
X46.455Y-91.275
X46.455Y-96.355
X46.455Y-101.435
X46.455Y-106.515
X46.455Y-109.055
X46.455Y-111.595
X46.455Y-114.135
X46.455Y-116.675
X46.455Y-119.215
X46.85Y-58.65
X46.85Y-61.25
X48.24Y-100.15
X48.25Y-58.637
X48.25Y-61.237
X48.25Y-97.7
X48.995Y-43.015
X48.995Y-45.555
X48.995Y-48.095
X48.995Y-50.635
X48.995Y-53.175
X48.995Y-65.875
X48.995Y-68.415
X48.995Y-70.955
X48.995Y-73.495
X48.995Y-76.035
X48.995Y-78.575
X48.995Y-81.115
X48.995Y-83.655
X48.995Y-86.195
X48.995Y-88.735
X48.995Y-91.275
X48.995Y-96.355
X48.995Y-101.435
X48.995Y-106.515
X48.995Y-109.055
X48.995Y-111.595
X48.995Y-114.135
X48.995Y-116.675
X48.995Y-119.215
X49.545Y-100.15
X49.555Y-97.7
X49.637Y-58.637
X49.935Y-61.237
X50.85Y-100.15
X50.86Y-97.7
X51.024Y-58.637
X51.535Y-43.015
X51.535Y-45.555
X51.535Y-48.095
X51.535Y-50.635
X51.535Y-53.175
X51.535Y-55.715
X51.535Y-63.335
X51.535Y-65.875
X51.535Y-68.415
X51.535Y-70.955
X51.535Y-73.495
X51.535Y-76.035
X51.535Y-78.575
X51.535Y-81.115
X51.535Y-83.655
X51.535Y-86.195
X51.535Y-88.735
X51.535Y-91.275
X51.535Y-93.815
X51.535Y-96.355
X51.535Y-101.435
X51.535Y-103.975
X51.535Y-106.515
X51.535Y-109.055
X51.535Y-111.595
X51.535Y-114.135
X51.535Y-116.675
X51.535Y-119.215
X51.621Y-61.236
X51.891Y-57.77
X52.165Y-97.837
X52.165Y-100.037
X52.688Y-60.651
X52.759Y-56.903
X53.47Y-97.837
X53.47Y-100.037
X53.575Y-59.764
X53.626Y-56.035
X54.075Y-43.015
X54.075Y-45.555
X54.075Y-48.095
X54.075Y-50.635
X54.075Y-53.175
X54.075Y-63.335
X54.075Y-65.875
X54.075Y-68.415
X54.075Y-70.955
X54.075Y-73.495
X54.075Y-76.035
X54.075Y-78.575
X54.075Y-81.115
X54.075Y-83.655
X54.075Y-86.195
X54.075Y-88.735
X54.075Y-91.275
X54.075Y-93.815
X54.075Y-96.355
X54.075Y-101.435
X54.075Y-103.975
X54.075Y-106.515
X54.075Y-109.055
X54.075Y-111.595
X54.075Y-114.135
X54.075Y-116.675
X54.075Y-119.215
X54.462Y-58.877
X54.494Y-55.168
X54.775Y-97.837
X54.775Y-100.037
X55.348Y-57.99
X55.361Y-54.3
X56.08Y-97.837
X56.08Y-100.037
X56.229Y-53.433
X56.235Y-57.103
X56.615Y-43.015
X56.615Y-45.555
X56.615Y-48.095
X56.615Y-50.635
X56.615Y-58.255
X56.615Y-60.795
X56.615Y-63.335
X56.615Y-65.875
X56.615Y-68.415
X56.615Y-76.035
X56.615Y-78.575
X56.615Y-81.115
X56.615Y-83.655
X56.615Y-86.195
X56.615Y-88.735
X56.615Y-91.275
X56.615Y-93.815
X56.615Y-96.355
X56.615Y-101.435
X56.615Y-103.975
X56.615Y-106.515
X56.615Y-109.055
X56.615Y-111.595
X56.615Y-114.135
X56.615Y-116.675
X56.615Y-119.215
X57.096Y-52.566
X57.122Y-56.217
X57.386Y-97.837
X57.386Y-100.037
X57.963Y-51.698
X58.009Y-55.33
X58.691Y-97.837
X58.691Y-100.037
X58.831Y-50.831
X58.896Y-54.443
X59.155Y-43.015
X59.155Y-45.555
X59.155Y-48.095
X59.155Y-55.715
X59.155Y-58.255
X59.155Y-60.795
X59.155Y-63.335
X59.155Y-65.875
X59.155Y-68.415
X59.155Y-76.035
X59.155Y-78.575
X59.155Y-81.115
X59.155Y-83.655
X59.155Y-86.195
X59.155Y-88.735
X59.155Y-91.275
X59.155Y-93.815
X59.155Y-96.355
X59.155Y-101.435
X59.155Y-103.975
X59.155Y-106.515
X59.155Y-109.055
X59.155Y-111.595
X59.155Y-114.135
X59.155Y-116.675
X59.155Y-119.215
X59.782Y-53.556
X59.996Y-97.837
X59.996Y-100.037
X60.0Y-50.3
X61.274Y-97.838
X61.328Y-100.037
X61.695Y-43.015
X61.695Y-45.555
X61.695Y-48.095
X61.695Y-78.575
X61.695Y-91.275
X61.695Y-93.815
X61.695Y-101.435
X61.695Y-103.975
X61.695Y-106.515
X61.695Y-109.055
X61.695Y-111.595
X61.695Y-114.135
X61.695Y-116.675
X61.695Y-119.215
X61.7Y-82.5
X61.7Y-87.8
X62.3Y-87.15
X62.3Y-88.45
X62.738Y-97.551
X62.851Y-99.831
X63.0Y-87.8
X63.85Y-87.15
X63.85Y-88.45
X63.977Y-96.718
X64.235Y-43.015
X64.235Y-45.555
X64.235Y-48.095
X64.235Y-68.415
X64.235Y-70.955
X64.235Y-73.495
X64.235Y-78.575
X64.235Y-81.115
X64.235Y-91.275
X64.235Y-93.815
X64.235Y-101.435
X64.235Y-103.975
X64.235Y-106.515
X64.235Y-109.055
X64.235Y-111.595
X64.235Y-114.135
X64.235Y-116.675
X64.235Y-119.215
X64.271Y-99.243
X65.05Y-88.45
X65.126Y-95.829
X65.493Y-98.312
X66.25Y-88.45
X66.456Y-95.244
X66.732Y-97.479
X66.775Y-43.015
X66.775Y-45.555
X66.775Y-48.095
X66.775Y-50.635
X66.775Y-53.175
X66.775Y-55.715
X66.775Y-58.255
X66.775Y-60.795
X66.775Y-63.335
X66.775Y-65.875
X66.775Y-68.415
X66.775Y-70.955
X66.775Y-73.495
X66.775Y-76.035
X66.775Y-78.575
X66.775Y-81.115
X66.775Y-91.275
X66.775Y-93.815
X66.775Y-101.435
X66.775Y-103.975
X66.775Y-106.515
X66.775Y-109.055
X66.775Y-111.595
X66.775Y-114.135
X66.775Y-116.675
X66.775Y-119.215
X67.45Y-88.45
X67.888Y-94.999
X68.196Y-97.192
X68.65Y-87.15
X68.65Y-88.45
X69.315Y-43.015
X69.315Y-45.555
X69.315Y-48.095
X69.315Y-50.635
X69.315Y-53.175
X69.315Y-55.715
X69.315Y-58.255
X69.315Y-60.795
X69.315Y-63.335
X69.315Y-65.875
X69.315Y-68.415
X69.315Y-70.955
X69.315Y-73.495
X69.315Y-76.035
X69.315Y-78.575
X69.315Y-81.115
X69.315Y-91.275
X69.315Y-93.815
X69.315Y-101.435
X69.315Y-103.975
X69.315Y-106.515
X69.315Y-109.055
X69.315Y-111.595
X69.315Y-114.135
X69.315Y-116.675
X69.315Y-119.215
X69.491Y-94.992
X69.491Y-97.192
X69.85Y-87.15
X69.85Y-88.45
X70.813Y-94.992
X70.813Y-97.192
X71.0Y-87.15
X71.0Y-88.45
X71.855Y-43.015
X71.855Y-45.555
X71.855Y-48.095
X71.855Y-50.635
X71.855Y-53.175
X71.855Y-55.715
X71.855Y-58.255
X71.855Y-60.795
X71.855Y-63.335
X71.855Y-65.875
X71.855Y-68.415
X71.855Y-70.955
X71.855Y-73.495
X71.855Y-76.035
X71.855Y-78.575
X71.855Y-81.115
X71.855Y-91.275
X71.855Y-93.815
X71.855Y-98.895
X71.855Y-101.435
X71.855Y-103.975
X71.855Y-106.515
X71.855Y-109.055
X71.855Y-111.595
X71.855Y-114.135
X71.855Y-116.675
X71.855Y-119.215
X72.135Y-94.992
X72.135Y-97.192
X72.2Y-87.15
X72.2Y-88.45
X73.4Y-87.15
X73.4Y-88.45
X73.457Y-94.992
X73.457Y-97.192
X74.395Y-43.015
X74.395Y-45.555
X74.395Y-48.095
X74.395Y-50.635
X74.395Y-53.175
X74.395Y-55.715
X74.395Y-58.255
X74.395Y-60.795
X74.395Y-63.335
X74.395Y-65.875
X74.395Y-68.415
X74.395Y-70.955
X74.395Y-73.495
X74.395Y-76.035
X74.395Y-78.575
X74.395Y-81.115
X74.395Y-91.275
X74.395Y-93.815
X74.395Y-98.895
X74.395Y-101.435
X74.395Y-103.975
X74.395Y-106.515
X74.395Y-109.055
X74.395Y-111.595
X74.395Y-114.135
X74.395Y-116.675
X74.395Y-119.215
X74.6Y-87.15
X74.6Y-88.45
X74.779Y-94.992
X74.779Y-97.192
X75.8Y-87.15
X75.8Y-88.45
X76.101Y-94.75
X76.101Y-97.5
X76.2Y-84.4
X76.935Y-43.015
X76.935Y-45.555
X76.935Y-48.095
X76.935Y-50.635
X76.935Y-53.175
X76.935Y-55.715
X76.935Y-58.255
X76.935Y-60.795
X76.935Y-63.335
X76.935Y-65.875
X76.935Y-68.415
X76.935Y-70.955
X76.935Y-73.495
X76.935Y-76.035
X76.935Y-78.575
X76.935Y-81.115
X76.935Y-91.275
X76.935Y-98.895
X76.935Y-116.675
X76.935Y-119.215
X77.0Y-87.15
X77.0Y-88.45
X77.35Y-94.15
X77.8Y-82.5
X78.2Y-87.15
X78.2Y-88.45
X78.2Y-89.45
X78.511Y-93.448
X79.0Y-89.2
X79.0Y-89.9
X79.35Y-96.2
X79.444Y-92.515
X79.475Y-43.015
X79.475Y-45.555
X79.475Y-48.095
X79.475Y-50.635
X79.475Y-53.175
X79.475Y-55.715
X79.475Y-58.255
X79.475Y-60.795
X79.475Y-63.335
X79.475Y-65.875
X79.475Y-68.415
X79.475Y-70.955
X79.475Y-73.495
X79.475Y-76.035
X79.475Y-78.575
X79.475Y-81.115
X79.475Y-98.895
X79.475Y-101.435
X79.475Y-103.975
X79.475Y-106.515
X79.475Y-109.055
X79.475Y-111.595
X79.475Y-116.675
X79.475Y-119.215
X80.067Y-95.004
X80.2Y-87.15
X80.202Y-88.5
X80.202Y-89.9
X80.377Y-91.582
X81.0Y-94.071
X81.311Y-90.649
X81.403Y-88.5
X81.933Y-93.138
X82.015Y-43.015
X82.015Y-45.555
X82.015Y-48.095
X82.015Y-68.415
X82.015Y-70.955
X82.015Y-73.495
X82.015Y-96.355
X82.015Y-98.895
X82.015Y-101.435
X82.015Y-103.975
X82.015Y-106.515
X82.015Y-116.675
X82.015Y-119.215
X82.15Y-89.85
X82.605Y-88.5
X82.866Y-92.204
X83.35Y-88.5
X83.799Y-91.271
X84.15Y-87.2
X84.25Y-50.45
X84.25Y-53.05
X84.555Y-43.015
X84.555Y-45.555
X84.555Y-48.095
X84.555Y-81.115
X84.555Y-96.355
X84.555Y-98.895
X84.555Y-103.975
X84.555Y-106.515
X84.555Y-116.675
X84.555Y-119.215
X84.733Y-90.338
X85.063Y-86.897
X85.255Y-50.45
X85.255Y-53.05
X85.7Y-89.9
X86.046Y-86.095
X86.26Y-50.45
X86.26Y-53.05
X86.58Y-88.49
X87.095Y-43.015
X87.095Y-45.555
X87.095Y-48.095
X87.095Y-55.715
X87.095Y-58.255
X87.095Y-60.795
X87.095Y-63.335
X87.095Y-65.875
X87.095Y-68.415
X87.095Y-76.035
X87.095Y-78.575
X87.095Y-81.115
X87.095Y-91.275
X87.095Y-93.815
X87.095Y-96.355
X87.095Y-98.895
X87.095Y-101.435
X87.095Y-116.675
X87.095Y-119.215
X87.1Y-89.9
X87.166Y-85.498
X87.265Y-50.45
X87.265Y-53.05
X87.65Y-88.5
X88.269Y-50.45
X88.269Y-53.05
X88.38Y-85.128
X88.4Y-83.4
X88.4Y-89.9
X88.613Y-88.5
X89.274Y-50.45
X89.274Y-53.05
X89.4Y-87.2
X89.635Y-43.015
X89.635Y-45.555
X89.635Y-48.095
X89.635Y-55.715
X89.635Y-58.255
X89.635Y-60.795
X89.635Y-63.335
X89.635Y-65.875
X89.635Y-68.415
X89.635Y-76.035
X89.635Y-78.575
X89.635Y-81.115
X89.635Y-98.895
X89.635Y-116.675
X89.635Y-119.215
X89.669Y-85.0
X90.279Y-50.45
X90.279Y-53.05
X90.875Y-85.0
X91.016Y-89.9
X91.284Y-50.45
X91.284Y-53.05
X92.175Y-43.015
X92.175Y-45.555
X92.175Y-48.095
X92.175Y-55.715
X92.175Y-58.255
X92.175Y-60.795
X92.175Y-63.335
X92.175Y-65.875
X92.175Y-68.415
X92.175Y-70.955
X92.175Y-73.495
X92.175Y-76.035
X92.175Y-78.575
X92.175Y-81.115
X92.175Y-93.815
X92.175Y-96.355
X92.175Y-98.895
X92.175Y-103.975
X92.175Y-106.515
X92.175Y-109.055
X92.175Y-114.135
X92.175Y-116.675
X92.175Y-119.215
X92.217Y-88.5
X92.217Y-89.9
X92.289Y-50.45
X92.289Y-53.05
X93.287Y-87.2
X93.294Y-50.45
X93.294Y-53.05
X93.419Y-88.5
X93.419Y-89.9
X94.299Y-50.45
X94.4Y-53.05
X94.493Y-87.2
X94.62Y-88.5
X94.62Y-89.9
X94.715Y-43.015
X94.715Y-45.555
X94.715Y-58.255
X94.715Y-60.795
X94.715Y-63.335
X94.715Y-91.275
X94.715Y-93.815
X94.715Y-98.895
X94.715Y-103.975
X94.715Y-116.675
X94.715Y-119.215
X95.65Y-47.25
X95.699Y-85.0
X95.699Y-87.2
X95.822Y-88.5
X95.822Y-89.9
X96.308Y-50.7
X96.308Y-53.05
X96.905Y-85.0
X96.905Y-87.2
X97.024Y-88.5
X97.024Y-89.9
X97.25Y-42.05
X97.255Y-45.555
X97.255Y-48.095
X97.255Y-60.795
X97.255Y-63.335
X97.255Y-65.875
X97.255Y-91.275
X97.255Y-93.815
X97.255Y-98.895
X97.255Y-103.975
X97.255Y-116.675
X97.255Y-119.215
X97.313Y-50.7
X97.313Y-53.05
X98.112Y-85.0
X98.112Y-87.2
X98.225Y-88.5
X98.225Y-89.9
X98.318Y-50.45
X98.318Y-53.05
X99.318Y-85.0
X99.318Y-87.2
X99.323Y-50.45
X99.323Y-53.05
X99.427Y-88.5
X99.427Y-89.9
X99.795Y-45.555
X99.795Y-48.095
X99.795Y-78.575
X99.795Y-81.115
X99.795Y-91.275
X99.795Y-96.355
X99.795Y-98.895
X99.795Y-103.975
X99.795Y-106.515
X99.795Y-116.675
X99.795Y-119.215
X99.8Y-42.05
X100.524Y-85.0
X100.524Y-87.2
X100.628Y-88.5
X100.628Y-89.9
X101.73Y-85.0
X101.73Y-87.2
X101.83Y-88.5
X101.83Y-89.9
X102.335Y-45.555
X102.335Y-48.095
X102.335Y-55.715
X102.335Y-58.255
X102.335Y-60.795
X102.335Y-63.335
X102.335Y-70.955
X102.335Y-81.115
X102.335Y-103.975
X102.335Y-106.515
X102.335Y-116.675
X102.335Y-119.215
X102.35Y-42.05
X102.936Y-85.0
X102.936Y-87.2
X103.031Y-88.5
X103.031Y-89.9
X103.05Y-90.9
X103.05Y-91.9
X104.05Y-92.0
X104.142Y-85.0
X104.142Y-87.2
X104.233Y-88.5
X104.875Y-45.555
X104.875Y-48.095
X104.875Y-50.635
X104.875Y-65.875
X104.875Y-68.415
X104.875Y-70.955
X104.875Y-81.115
X104.875Y-93.815
X104.875Y-96.355
X104.875Y-98.895
X104.875Y-116.675
X104.875Y-119.215
X104.9Y-42.05
X105.05Y-92.0
X105.348Y-85.0
X105.348Y-87.2
X105.435Y-88.5
X106.05Y-92.0
X106.554Y-85.0
X106.554Y-87.2
X106.636Y-88.5
X107.415Y-58.255
X107.415Y-60.795
X107.415Y-63.335
X107.415Y-70.955
X107.415Y-73.495
X107.415Y-81.115
X107.415Y-98.895
X107.415Y-116.675
X107.415Y-119.215
X107.45Y-42.05
X107.76Y-85.0
X107.76Y-87.2
X107.838Y-88.5
X108.966Y-85.0
X108.966Y-87.2
X109.039Y-88.5
X109.039Y-89.9
X109.95Y-42.05
X109.955Y-45.555
X109.955Y-50.635
X109.955Y-53.175
X109.955Y-55.715
X109.955Y-58.255
X109.955Y-60.795
X109.955Y-63.335
X109.955Y-65.875
X109.955Y-68.415
X109.955Y-70.955
X109.955Y-73.495
X109.955Y-76.035
X109.955Y-81.115
X109.955Y-91.275
X109.955Y-93.815
X109.955Y-96.355
X109.955Y-98.895
X109.955Y-103.975
X109.955Y-106.515
X109.955Y-109.055
X109.955Y-114.135
X109.955Y-116.675
X109.955Y-119.215
X110.172Y-85.0
X110.172Y-87.2
X110.241Y-88.5
X110.241Y-89.9
X111.378Y-85.0
X111.378Y-87.2
X111.443Y-88.5
X111.443Y-89.9
X112.495Y-45.555
X112.495Y-50.635
X112.495Y-53.175
X112.495Y-58.255
X112.495Y-60.795
X112.495Y-63.335
X112.495Y-76.035
X112.495Y-81.115
X112.495Y-91.275
X112.495Y-93.815
X112.495Y-98.895
X112.495Y-103.975
X112.495Y-116.675
X112.495Y-119.215
X112.5Y-42.05
X112.585Y-85.0
X112.585Y-87.2
X112.644Y-88.5
X112.644Y-89.9
X113.791Y-85.0
X113.791Y-87.2
X113.846Y-88.5
X113.846Y-89.9
X114.997Y-85.0
X114.997Y-87.2
X115.035Y-60.795
X115.035Y-63.335
X115.035Y-81.115
X115.035Y-91.275
X115.035Y-93.815
X115.035Y-98.895
X115.035Y-116.675
X115.035Y-119.215
X115.047Y-88.5
X115.047Y-89.9
X115.05Y-42.05
X116.203Y-85.0
X116.203Y-87.2
X116.249Y-88.5
X116.249Y-89.9
X117.409Y-85.0
X117.409Y-87.2
X117.45Y-88.5
X117.45Y-89.9
X117.575Y-48.095
X117.575Y-50.635
X117.575Y-78.575
X117.575Y-81.115
X117.575Y-91.275
X117.575Y-93.815
X117.575Y-96.355
X117.575Y-98.895
X117.575Y-106.515
X117.575Y-116.675
X117.575Y-119.215
X117.6Y-42.05
X118.615Y-85.0
X118.615Y-87.2
X118.652Y-88.5
X118.652Y-89.9
X119.821Y-85.0
X119.821Y-87.2
X119.854Y-88.5
X119.854Y-89.9
X120.1Y-42.05
X120.115Y-48.095
X120.115Y-50.635
X120.115Y-55.715
X120.115Y-58.255
X120.115Y-60.795
X120.115Y-63.335
X120.115Y-70.955
X120.115Y-78.575
X120.115Y-81.115
X120.115Y-106.515
X120.115Y-116.675
X120.115Y-119.215
X121.027Y-85.0
X121.027Y-87.2
X121.05Y-90.9
X121.05Y-91.9
X121.055Y-88.5
X121.055Y-89.9
X122.05Y-92.0
X122.233Y-85.0
X122.233Y-87.2
X122.257Y-88.5
X122.65Y-42.05
X122.655Y-48.095
X122.655Y-50.635
X122.655Y-65.875
X122.655Y-68.415
X122.655Y-70.955
X122.655Y-81.115
X122.655Y-93.815
X122.655Y-96.355
X122.655Y-98.895
X122.655Y-116.675
X122.655Y-119.215
X123.05Y-92.0
X123.439Y-85.0
X123.439Y-87.2
X123.458Y-88.5
X124.05Y-92.0
X124.645Y-85.0
X124.645Y-87.2
X124.66Y-88.5
X125.195Y-58.255
X125.195Y-60.795
X125.195Y-63.335
X125.195Y-70.955
X125.195Y-73.495
X125.195Y-81.115
X125.195Y-98.895
X125.195Y-116.675
X125.195Y-119.215
X125.2Y-42.05
X125.851Y-85.0
X125.851Y-87.2
X125.861Y-88.5
X127.058Y-85.0
X127.058Y-87.2
X127.063Y-88.5
X127.063Y-89.9
X127.735Y-50.635
X127.735Y-53.175
X127.735Y-55.715
X127.735Y-58.255
X127.735Y-60.795
X127.735Y-63.335
X127.735Y-65.875
X127.735Y-68.415
X127.735Y-70.955
X127.735Y-73.495
X127.735Y-81.115
X127.735Y-91.275
X127.735Y-93.815
X127.735Y-96.355
X127.735Y-98.895
X127.735Y-106.515
X127.735Y-109.055
X127.735Y-114.135
X127.735Y-116.675
X127.735Y-119.215
X127.75Y-42.05
X128.264Y-85.0
X128.264Y-87.2
X128.265Y-88.5
X128.265Y-89.9
X129.466Y-88.5
X129.466Y-89.9
X129.47Y-85.0
X129.47Y-87.2
X130.275Y-50.635
X130.275Y-53.175
X130.275Y-58.255
X130.275Y-60.795
X130.275Y-63.335
X130.275Y-70.955
X130.275Y-76.035
X130.275Y-81.115
X130.275Y-91.275
X130.275Y-93.815
X130.275Y-98.895
X130.275Y-114.135
X130.275Y-116.675
X130.275Y-119.215
X130.3Y-42.05
X130.668Y-88.5
X130.668Y-89.9
X130.676Y-85.0
X130.676Y-87.2
X131.869Y-88.5
X131.869Y-89.9
X131.882Y-85.0
X131.882Y-87.2
X132.815Y-60.795
X132.815Y-63.335
X132.815Y-81.115
X132.815Y-91.275
X132.815Y-93.815
X132.815Y-98.895
X132.85Y-42.05
X133.071Y-88.5
X133.071Y-89.9
X133.088Y-85.0
X133.088Y-87.2
X134.272Y-88.5
X134.272Y-89.9
X134.294Y-85.0
X134.294Y-87.2
X134.3Y-115.4
X135.2Y-115.8
X135.355Y-50.635
X135.355Y-81.115
X135.355Y-91.275
X135.355Y-93.815
X135.355Y-96.355
X135.355Y-98.895
X135.355Y-106.515
X135.4Y-42.05
X135.474Y-88.5
X135.474Y-89.9
X135.5Y-85.0
X135.5Y-87.2
X136.4Y-115.3
X136.676Y-88.5
X136.676Y-89.9
X136.706Y-85.0
X136.706Y-87.2
X137.877Y-88.5
X137.877Y-89.9
X137.895Y-50.635
X137.895Y-60.795
X137.895Y-63.335
X137.895Y-70.955
X137.895Y-81.115
X137.895Y-91.275
X137.895Y-106.515
X137.912Y-85.0
X137.912Y-87.2
X137.95Y-42.05
X139.079Y-88.5
X139.079Y-89.9
X139.1Y-90.9
X139.1Y-91.9
X139.118Y-85.0
X139.118Y-87.2
X140.1Y-92.0
X140.28Y-88.5
X140.324Y-85.0
X140.324Y-87.2
X140.435Y-50.635
X140.435Y-65.875
X140.435Y-68.415
X140.435Y-70.955
X140.435Y-73.495
X140.435Y-76.035
X140.435Y-93.815
X140.435Y-96.355
X140.435Y-98.895
X140.5Y-42.05
X140.7Y-115.3
X141.1Y-92.0
X141.482Y-88.5
X141.531Y-85.0
X141.531Y-87.2
X142.1Y-92.0
X142.683Y-88.5
X142.737Y-85.0
X142.737Y-87.2
X142.975Y-58.255
X142.975Y-60.795
X142.975Y-63.335
X142.975Y-70.955
X142.975Y-73.495
X142.975Y-76.035
X142.975Y-98.895
X143.05Y-42.05
X143.885Y-88.5
X143.943Y-85.0
X143.943Y-87.2
X144.8Y-43.1
X145.0Y-47.4
X145.087Y-88.5
X145.087Y-89.9
X145.149Y-85.0
X145.149Y-87.2
X145.515Y-50.635
X145.515Y-53.175
X145.515Y-58.255
X145.515Y-60.795
X145.515Y-63.335
X145.515Y-65.875
X145.515Y-68.415
X145.515Y-70.955
X145.515Y-73.495
X145.515Y-76.035
X145.515Y-91.275
X145.515Y-93.815
X145.515Y-98.895
X145.7Y-43.1
X146.288Y-88.5
X146.288Y-89.9
X146.355Y-85.0
X146.355Y-87.2
X147.49Y-88.5
X147.49Y-89.9
X147.561Y-85.0
X147.561Y-87.2
X147.6Y-119.9
X148.055Y-50.635
X148.055Y-53.175
X148.055Y-58.255
X148.055Y-60.795
X148.055Y-63.335
X148.055Y-65.875
X148.055Y-70.955
X148.055Y-76.035
X148.055Y-78.575
X148.055Y-91.275
X148.055Y-93.815
X148.055Y-98.895
X148.691Y-88.5
X148.691Y-89.9
X148.7Y-119.9
X148.767Y-85.0
X148.767Y-87.2
X149.5Y-100.614
X149.893Y-88.5
X149.893Y-89.9
X149.973Y-85.0
X149.973Y-87.2
X150.5Y-121.5
X150.55Y-118.35
X150.595Y-53.175
X150.595Y-58.255
X150.595Y-60.795
X150.595Y-63.335
X150.595Y-91.275
X150.595Y-93.815
X150.595Y-98.895
X150.6Y-115.8
X151.094Y-88.5
X151.094Y-89.9
X151.179Y-85.0
X151.179Y-87.2
X152.296Y-88.5
X152.296Y-89.9
X152.385Y-85.0
X152.385Y-87.2
X153.05Y-115.8
X153.05Y-118.35
X153.05Y-121.5
X153.135Y-50.635
X153.135Y-91.275
X153.135Y-93.815
X153.135Y-96.355
X153.135Y-98.895
X153.498Y-88.5
X153.498Y-89.9
X153.591Y-85.0
X153.591Y-87.2
X154.699Y-88.5
X154.699Y-89.9
X154.797Y-85.0
X154.797Y-87.2
X155.6Y-115.8
X155.6Y-118.35
X155.6Y-121.5
X155.675Y-50.635
X155.675Y-60.795
X155.675Y-63.335
X155.675Y-70.955
X155.675Y-73.495
X155.675Y-76.035
X155.675Y-91.275
X155.901Y-88.5
X155.901Y-89.9
X156.004Y-85.0
X156.004Y-87.2
X157.1Y-90.9
X157.1Y-91.9
X157.102Y-88.5
X157.102Y-89.9
X157.21Y-85.0
X157.21Y-87.2
X158.1Y-92.0
X158.15Y-121.5
X158.2Y-118.35
X158.215Y-50.635
X158.215Y-65.875
X158.215Y-68.415
X158.215Y-70.955
X158.215Y-73.495
X158.215Y-76.035
X158.215Y-93.815
X158.215Y-96.355
X158.215Y-98.895
X158.25Y-115.8
X158.304Y-88.5
X158.416Y-85.0
X158.416Y-87.2
X159.1Y-92.0
X159.506Y-88.5
X159.622Y-85.0
X159.622Y-87.2
X160.1Y-92.0
X160.7Y-115.8
X160.7Y-118.35
X160.7Y-121.5
X160.707Y-88.5
X160.755Y-53.175
X160.755Y-58.255
X160.755Y-60.795
X160.755Y-63.335
X160.755Y-70.955
X160.755Y-73.495
X160.755Y-76.035
X160.755Y-98.895
X160.828Y-85.0
X160.828Y-87.2
X161.4Y-101.429
X161.909Y-88.5
X162.034Y-85.0
X162.034Y-87.2
X163.11Y-88.5
X163.11Y-89.9
X163.24Y-85.0
X163.24Y-87.2
X163.25Y-115.8
X163.25Y-118.35
X163.25Y-121.5
X163.295Y-53.175
X163.295Y-58.255
X163.295Y-60.795
X163.295Y-63.335
X163.295Y-65.875
X163.295Y-70.955
X163.295Y-73.495
X163.295Y-76.035
X163.295Y-78.575
X163.295Y-91.275
X163.295Y-93.815
X163.295Y-98.895
X164.312Y-88.5
X164.312Y-89.9
X164.446Y-85.0
X164.446Y-87.2
X164.5Y-47.4
X165.513Y-88.5
X165.513Y-89.9
X165.652Y-85.0
X165.652Y-87.2
X165.75Y-118.35
X165.75Y-121.5
X165.8Y-115.8
X165.835Y-53.175
X165.835Y-58.255
X165.835Y-60.795
X165.835Y-63.335
X165.835Y-65.875
X165.835Y-73.495
X165.835Y-76.035
X165.835Y-78.575
X165.835Y-91.275
X165.835Y-93.815
X165.835Y-98.895
X166.715Y-88.5
X166.715Y-89.9
X166.858Y-85.0
X166.858Y-87.2
X167.463Y-43.688
X167.5Y-102.214
X167.917Y-88.5
X167.917Y-89.9
X168.064Y-85.0
X168.064Y-87.2
X168.3Y-115.8
X168.3Y-118.35
X168.3Y-121.5
X168.375Y-58.255
X168.375Y-60.795
X168.375Y-63.335
X168.375Y-78.575
X168.375Y-91.275
X168.375Y-93.815
X168.375Y-98.895
X169.118Y-88.5
X169.118Y-89.9
X169.27Y-85.0
X169.27Y-87.2
X170.32Y-88.5
X170.32Y-89.9
X170.477Y-85.0
X170.477Y-87.2
X170.85Y-121.5
X170.9Y-118.35
X170.915Y-63.335
X170.915Y-65.875
X170.915Y-68.415
X170.915Y-70.955
X170.915Y-73.495
X170.915Y-91.275
X170.915Y-93.815
X170.915Y-96.355
X170.915Y-98.895
X170.915Y-109.055
X170.95Y-115.8
X171.521Y-88.5
X171.521Y-89.9
X171.683Y-85.0
X171.683Y-87.2
X172.723Y-88.5
X172.723Y-89.9
X172.889Y-85.0
X172.889Y-87.2
X173.4Y-47.4
X173.4Y-115.8
X173.4Y-118.35
X173.4Y-121.5
X173.455Y-60.795
X173.455Y-91.275
X173.924Y-88.5
X173.924Y-89.9
X174.095Y-85.0
X174.095Y-87.2
X175.126Y-88.5
X175.126Y-89.9
X175.15Y-90.9
X175.15Y-91.9
X175.301Y-85.0
X175.301Y-87.2
X175.95Y-115.8
X175.95Y-118.35
X175.95Y-121.5
X175.995Y-93.815
X175.995Y-96.355
X175.995Y-98.895
X176.15Y-92.0
X176.328Y-88.5
X176.507Y-85.0
X176.507Y-87.2
X177.15Y-92.0
X177.529Y-88.5
X177.713Y-85.0
X177.713Y-87.2
X178.15Y-52.2
X178.15Y-92.0
X178.45Y-118.35
X178.45Y-121.5
X178.5Y-115.8
X178.535Y-60.795
X178.535Y-63.335
X178.535Y-98.895
X178.731Y-88.5
X178.919Y-85.0
X178.919Y-87.2
X179.5Y-103.057
X179.518Y-44.65
X179.932Y-88.5
X180.125Y-85.0
X180.125Y-87.2
X181.0Y-121.5
X181.05Y-118.35
X181.075Y-53.175
X181.075Y-58.255
X181.075Y-60.795
X181.075Y-63.335
X181.075Y-70.955
X181.075Y-73.495
X181.075Y-76.035
X181.075Y-78.575
X181.075Y-91.275
X181.075Y-93.815
X181.075Y-98.895
X181.1Y-115.8
X181.134Y-88.5
X181.134Y-89.9
X181.331Y-85.0
X181.331Y-87.2
X182.335Y-88.5
X182.335Y-89.9
X182.537Y-85.0
X182.537Y-87.2
X183.537Y-88.5
X183.537Y-89.9
X183.55Y-115.8
X183.55Y-118.35
X183.55Y-121.5
X183.615Y-53.175
X183.615Y-55.715
X183.615Y-58.255
X183.615Y-60.795
X183.615Y-63.335
X183.615Y-65.875
X183.615Y-68.415
X183.615Y-70.955
X183.615Y-73.495
X183.615Y-76.035
X183.615Y-78.575
X183.615Y-91.275
X183.615Y-93.815
X183.615Y-96.355
X183.615Y-98.895
X183.615Y-109.055
X183.743Y-85.0
X183.743Y-87.2
X184.739Y-88.5
X184.739Y-89.9
X184.95Y-85.0
X184.95Y-87.2
X185.4Y-103.871
X185.625Y-45.664
X185.94Y-88.5
X185.94Y-89.9
X186.1Y-115.8
X186.1Y-118.35
X186.1Y-121.5
X186.155Y-58.255
X186.155Y-60.795
X186.155Y-63.335
X186.155Y-76.035
X186.155Y-78.575
X186.155Y-91.275
X186.155Y-93.815
X186.155Y-98.895
X186.156Y-85.0
X186.156Y-87.2
X187.142Y-88.5
X187.142Y-89.9
X187.2Y-52.2
X187.362Y-85.0
X187.362Y-87.2
X188.343Y-88.5
X188.343Y-89.9
X188.568Y-85.0
X188.568Y-87.2
X188.6Y-118.35
X188.6Y-121.5
X188.65Y-115.8
X188.695Y-63.335
X188.695Y-65.875
X188.695Y-68.415
X188.695Y-91.275
X188.695Y-93.815
X188.695Y-96.355
X188.695Y-98.895
X188.695Y-109.055
X189.545Y-88.5
X189.545Y-89.9
X189.774Y-85.0
X189.774Y-87.2
X190.746Y-88.5
X190.746Y-89.9
X190.98Y-85.0
X190.98Y-87.2
X191.15Y-115.8
X191.15Y-118.35
X191.15Y-121.5
X191.235Y-55.715
X191.235Y-58.255
X191.235Y-60.795
X191.235Y-70.955
X191.235Y-73.495
X191.235Y-81.115
X191.235Y-91.275
X191.948Y-88.5
X191.948Y-89.9
X192.186Y-85.0
X192.186Y-87.2
X193.15Y-88.5
X193.15Y-89.9
X193.15Y-87.15
X193.15Y-90.95
X193.15Y-91.95
X193.7Y-121.5
X193.75Y-118.35
X193.775Y-93.815
X193.775Y-96.355
X193.775Y-98.895
X193.8Y-115.8
X194.15Y-92.05
X194.35Y-87.05
X194.351Y-88.5
X195.15Y-92.05
X195.55Y-87.05
X195.553Y-88.5
X196.05Y-82.6
X196.1Y-52.2
X196.15Y-92.05
X196.2Y-86.0
X196.25Y-115.8
X196.25Y-118.35
X196.25Y-121.5
X196.315Y-60.795
X196.315Y-63.335
X196.315Y-98.895
X196.75Y-87.05
X196.754Y-88.5
X197.25Y-85.1
X197.55Y-104.686
X197.596Y-46.65
X197.95Y-87.05
X197.956Y-88.5
X198.35Y-80.3
X198.8Y-43.1
X198.8Y-115.8
X198.8Y-118.35
X198.8Y-121.5
X198.855Y-53.175
X198.855Y-58.255
X198.855Y-60.795
X198.855Y-63.335
X198.855Y-70.955
X198.855Y-73.495
X198.855Y-76.035
X198.855Y-91.275
X198.855Y-93.815
X198.855Y-98.895
X199.146Y-48.15
X199.15Y-85.15
X199.15Y-87.05
X199.157Y-88.5
X199.157Y-89.9
X199.2Y-79.6
X199.6Y-82.7
X199.7Y-43.1
X200.0Y-78.9
X200.35Y-87.05
X200.359Y-88.5
X200.359Y-89.9
X200.75Y-78.2
X201.3Y-118.35
X201.3Y-121.5
X201.35Y-115.8
X201.395Y-53.175
X201.395Y-55.715
X201.395Y-58.255
X201.395Y-60.795
X201.395Y-63.335
X201.395Y-65.875
X201.395Y-68.415
X201.395Y-70.955
X201.395Y-73.495
X201.395Y-76.035
X201.395Y-91.275
X201.395Y-93.815
X201.395Y-96.355
X201.395Y-98.895
X201.395Y-109.055
X201.5Y-77.5
X201.55Y-85.15
X201.55Y-87.05
X201.561Y-88.5
X201.561Y-89.9
X201.85Y-80.4
X202.2Y-76.8
X202.65Y-79.6
X202.762Y-88.5
X202.762Y-89.9
X202.8Y-87.05
X202.9Y-76.1
X203.3Y-78.9
X203.55Y-75.4
X203.55Y-105.5
X203.85Y-115.8
X203.85Y-118.35
X203.85Y-121.5
X203.935Y-58.255
X203.935Y-60.795
X203.935Y-63.335
X203.935Y-73.495
X203.935Y-91.275
X203.935Y-93.815
X203.935Y-98.895
X203.95Y-78.2
X203.95Y-85.2
X203.95Y-87.05
X203.964Y-88.5
X203.964Y-89.9
X204.25Y-74.6
X204.6Y-77.5
X205.165Y-88.5
X205.165Y-89.9
X205.2Y-87.05
X205.2Y-115.3
X205.207Y-52.207
X205.35Y-76.8
X206.3Y-76.1
X206.367Y-88.5
X206.367Y-89.9
X206.4Y-85.2
X206.4Y-87.05
X206.4Y-121.5
X206.475Y-63.335
X206.475Y-65.875
X206.475Y-68.415
X206.475Y-78.575
X206.475Y-91.275
X206.475Y-93.815
X206.475Y-96.355
X206.475Y-98.895
X206.475Y-109.055
X206.95Y-47.4
X207.569Y-88.5
X207.569Y-89.9
X207.6Y-75.4
X207.6Y-87.05
X208.25Y-74.6
X208.77Y-88.5
X208.77Y-89.9
X208.8Y-85.25
X208.8Y-87.05
X208.95Y-121.5
X209.015Y-55.715
X209.015Y-58.255
X209.015Y-70.955
X209.015Y-73.495
X209.015Y-76.035
X209.015Y-91.275
X209.972Y-88.5
X209.972Y-89.9
X210.0Y-87.05
X211.173Y-88.5
X211.173Y-89.9
X211.2Y-85.3
X211.2Y-87.05
X211.2Y-90.9
X211.2Y-91.9
X211.5Y-121.5
X211.55Y-78.6
X211.555Y-81.115
X211.555Y-93.815
X211.555Y-96.355
X211.555Y-98.895
X211.555Y-109.055
X211.555Y-111.595
X212.2Y-92.0
X212.35Y-47.4
X212.375Y-88.5
X212.4Y-87.05
X212.55Y-116.1
X213.2Y-92.0
X213.576Y-88.5
X213.6Y-85.3
X213.6Y-87.05
X214.05Y-121.5
X214.095Y-60.795
X214.095Y-63.335
X214.095Y-70.955
X214.095Y-81.115
X214.095Y-93.815
X214.095Y-98.895
X214.1Y-73.5
X214.1Y-76.05
X214.1Y-78.6
X214.2Y-92.0
X214.778Y-88.5
X214.8Y-87.05
X215.707Y-48.65
X215.98Y-88.5
X216.0Y-85.3
X216.0Y-87.05
X216.2Y-41.5
X216.6Y-121.5
X216.635Y-53.175
X216.635Y-58.255
X216.635Y-60.795
X216.635Y-63.335
X216.635Y-70.955
X216.635Y-73.495
X216.635Y-76.035
X216.635Y-78.575
X216.635Y-81.115
X216.635Y-98.895
X216.725Y-93.1
X216.775Y-93.95
X217.175Y-90.725
X217.175Y-91.525
X217.175Y-92.3
X217.181Y-88.5
X217.181Y-89.9
X217.2Y-87.05
X217.932Y-44.757
X218.875Y-43.85
X218.9Y-41.5
X219.15Y-121.5
X219.175Y-98.895
X219.175Y-109.055
X219.175Y-111.595
X219.625Y-46.65
X219.8Y-119.9
X220.3Y-44.3
X220.675Y-45.8
X220.9Y-119.9
X221.6Y-49.0
X221.7Y-115.2
X221.7Y-121.5
X221.715Y-109.055
X221.715Y-111.595
X222.1Y-45.1
X222.1Y-117.75
X222.5Y-48.15
X223.2Y-48.5
X223.33Y-101.33
X223.4Y-43.2
X224.25Y-115.2
X224.25Y-117.75
X224.25Y-121.5
X224.255Y-109.055
X224.255Y-111.595
X224.55Y-48.55
X224.6Y-45.1
X224.9Y-113.8
X224.95Y-95.6
X224.95Y-96.9
X224.95Y-98.2
X224.95Y-99.45
X224.95Y-100.75
X225.125Y-93.075
X225.2Y-87.1
X225.2Y-88.5
X225.2Y-89.85
X225.2Y-91.25
X225.5Y-43.0
X226.25Y-88.675
X227.1Y-92.44
X227.1Y-93.71
X227.4Y-87.1
X227.5Y-53.15
X227.55Y-74.7
X227.55Y-75.55
X227.55Y-76.35
X227.55Y-77.15
X227.55Y-78.0
X227.65Y-89.9
X228.1Y-50.65
X228.1Y-55.7
X228.1Y-58.25
X228.1Y-60.8
X228.1Y-63.35
X228.25Y-108.85
X228.45Y-78.0
X228.5Y-102.7
X229.335Y-43.015
X229.335Y-45.555
X229.335Y-48.095
X229.335Y-73.495
X229.335Y-111.595
X229.335Y-116.675
X229.335Y-119.215
X229.4Y-78.0
X229.4Y-79.5
X229.7Y-89.9
X229.8Y-50.45
X229.8Y-51.05
X229.8Y-51.65
X229.8Y-61.8
X229.8Y-62.4
X229.8Y-63.0
X229.85Y-87.1
X229.85Y-88.5
X230.25Y-78.0
X230.5Y-50.45
X230.5Y-51.05
X230.5Y-51.65
X230.5Y-61.8
X230.5Y-62.4
X230.5Y-63.0
X230.55Y-100.05
X230.7Y-93.71
X230.7Y-94.98
X230.7Y-96.25
X230.7Y-97.52
X230.7Y-98.79
X230.9Y-87.1
X230.9Y-88.5
X230.9Y-89.9
X231.1Y-74.7
X231.1Y-75.55
X231.1Y-76.35
X231.1Y-77.15
X231.1Y-78.0
X231.125Y-111.625
X231.6Y-87.8
X231.6Y-89.2
X231.875Y-43.015
X231.875Y-45.555
X231.875Y-63.335
X231.875Y-78.575
X231.875Y-91.275
X231.875Y-116.675
X231.875Y-119.215
X232.1Y-87.1
X232.1Y-88.5
X232.1Y-89.9
X232.2Y-112.65
X232.35Y-59.95
X232.4Y-66.9
X232.7Y-82.5
X233.1Y-60.0
X233.1Y-60.7
X233.3Y-87.1
X233.3Y-88.5
X233.3Y-89.9
X233.9Y-91.3
X234.0Y-111.3
X234.2Y-115.9
X234.2Y-116.85
X234.415Y-43.015
X234.415Y-45.555
X234.415Y-48.095
X234.415Y-50.635
X234.415Y-63.335
X234.415Y-73.495
X234.415Y-76.035
X234.415Y-81.115
X234.415Y-119.215
X234.5Y-87.1
X234.5Y-88.5
X234.5Y-89.9
X234.95Y-111.1
X235.05Y-115.9
X235.05Y-116.85
X235.65Y-119.55
X235.85Y-88.5
X236.15Y-89.9
X236.3Y-119.55
X236.4Y-90.85
X236.4Y-93.1
X236.4Y-95.6
X236.4Y-98.15
X236.4Y-100.7
X236.475Y-85.6
X236.7Y-87.1
X236.95Y-119.55
X236.955Y-43.015
X236.955Y-45.555
X236.955Y-48.095
X236.955Y-50.635
X236.955Y-53.175
X236.955Y-55.715
X236.955Y-63.335
X236.955Y-78.575
X237.05Y-88.5
X237.35Y-89.9
X237.7Y-117.15
X237.85Y-105.4
X237.9Y-87.1
X237.95Y-67.6
X238.25Y-67.0
X238.25Y-88.5
X238.3Y-85.0
X238.55Y-89.9
X238.75Y-78.6
X238.75Y-80.45
X238.9Y-87.075
X239.0Y-67.0
X239.4Y-77.1
X239.45Y-88.45
X239.495Y-43.015
X239.495Y-60.795
X239.495Y-63.335
X239.495Y-111.595
X239.495Y-116.675
X239.495Y-119.215
X239.5Y-110.9
X239.75Y-67.0
X239.75Y-89.9
X239.8Y-91.15
X239.9Y-57.1
X239.9Y-57.8
X239.95Y-87.1
X239.95Y-99.8
X240.2Y-77.1
X240.5Y-44.75
X240.5Y-57.1
X240.5Y-57.8
X240.5Y-67.0
X240.75Y-99.2
X240.75Y-100.45
X240.8Y-85.3
X240.8Y-106.5
X240.95Y-89.9
X241.0Y-77.1
X241.05Y-91.15
X241.1Y-57.1
X241.1Y-57.8
X241.2Y-50.65
X241.225Y-48.95
X241.3Y-88.45
X241.5Y-71.45
X241.5Y-72.05
X241.9Y-87.15
X242.035Y-43.015
X242.035Y-53.175
X242.035Y-55.715
X242.035Y-60.795
X242.035Y-63.335
X242.035Y-116.675
X242.035Y-119.215
X242.1Y-71.45
X242.1Y-72.05
X242.1Y-97.9
X242.15Y-47.3
X242.7Y-71.45
X242.7Y-72.05
X242.75Y-89.9
X243.1Y-76.35
X243.1Y-77.0
X243.1Y-87.15
X243.1Y-88.45
X243.2Y-83.4
X243.4Y-80.8
X243.425Y-100.875
X243.75Y-76.35
X243.75Y-77.0
X243.975Y-95.625
X244.15Y-65.45
X244.15Y-67.8
X244.15Y-69.95
X244.3Y-87.15
X244.3Y-88.45
X244.4Y-76.35
X244.4Y-77.05
X244.55Y-89.9
X244.575Y-50.635
X244.575Y-78.575
X244.575Y-116.675
X244.575Y-119.215
X244.85Y-82.6
X245.275Y-76.65
X245.5Y-87.15
X245.5Y-88.45
X245.5Y-89.9
X246.275Y-72.25
X246.3Y-47.95
X246.4Y-65.5
X246.567Y-99.048
X246.6Y-85.5
X246.6Y-102.0
X246.7Y-80.95
X246.8Y-102.7
X247.1Y-68.2
X247.115Y-43.015
X247.115Y-63.335
X247.115Y-70.955
X247.115Y-76.035
X247.115Y-119.215
X247.15Y-98.45
X247.575Y-46.525
X248.3Y-101.95
X248.5Y-106.9
X248.625Y-45.25
X248.65Y-98.8
X248.7Y-116.1
X249.25Y-83.55
X249.25Y-84.55
X249.25Y-85.55
X249.25Y-86.45
X249.57Y-98.23
X249.655Y-43.015
X249.655Y-48.095
X249.655Y-55.715
X249.655Y-109.055
X249.655Y-111.595
X249.655Y-119.215
X249.7Y-99.25
X249.8Y-82.85
X249.9Y-95.725
X250.0Y-51.7
X250.0Y-52.35
X250.03Y-97.77
X250.2Y-72.1
X250.45Y-89.8
X250.7Y-96.7
X250.8Y-82.85
X250.95Y-94.3
X251.05Y-103.5
X251.6Y-65.5
X251.8Y-82.85
X252.0Y-97.7
X252.0Y-98.7
X252.195Y-43.015
X252.195Y-109.055
X252.195Y-116.675
X252.195Y-119.215
X252.35Y-49.35
X252.35Y-54.8
X252.35Y-82.0
X252.6Y-99.25
X252.75Y-82.85
X253.0Y-82.0
X253.15Y-89.45
X253.3Y-83.55
X253.3Y-84.55
X253.3Y-85.55
X253.6Y-69.15
X253.6Y-82.0
X253.7Y-105.65
X253.75Y-110.95
X253.75Y-113.5
X253.8Y-49.6
X253.8Y-100.95
X253.9Y-77.55
X253.9Y-78.55
X253.9Y-79.55
X253.9Y-80.55
X253.95Y-71.0
X253.95Y-85.55
X254.0Y-89.45
X254.35Y-54.8
X254.7Y-105.05
X254.735Y-43.015
X254.735Y-114.135
X254.735Y-116.675
X254.735Y-119.215
X254.75Y-112.65
X255.6Y-58.5
X255.8Y-110.4
X256.1Y-100.93
X256.25Y-59.9
X256.3Y-92.45
X256.595Y-52.33
X256.9Y-51.28
X257.275Y-43.015
X257.275Y-63.335
X257.275Y-109.055
X257.275Y-114.135
X257.275Y-116.675
X257.275Y-119.215
X257.3Y-112.65
X257.45Y-64.65
X257.95Y-61.4
X258.0Y-85.65
X258.025Y-103.675
X258.25Y-88.95
X258.55Y-107.7
X258.7Y-61.4
X259.4Y-61.4
X259.5Y-50.9
X259.5Y-53.5
X259.8Y-52.3
X259.815Y-43.015
X259.815Y-63.335
X259.815Y-65.875
X259.815Y-81.115
X259.815Y-83.655
X259.815Y-91.275
X259.815Y-93.815
X259.815Y-96.355
X259.815Y-98.895
X259.815Y-106.515
X259.815Y-119.215
X260.3Y-58.3
X260.6Y-50.0
X261.55Y-58.3
X262.355Y-43.015
X262.355Y-60.795
X262.355Y-63.335
X262.355Y-65.875
X262.355Y-73.495
X262.355Y-81.115
X262.355Y-83.655
X262.355Y-91.275
X262.355Y-93.815
X262.355Y-96.355
X262.355Y-98.895
X262.355Y-106.515
X262.355Y-119.215
X262.95Y-58.3
X264.4Y-58.3
X264.895Y-43.015
X264.895Y-60.795
X264.895Y-63.335
X264.895Y-65.875
X264.895Y-68.415
X264.895Y-70.955
X264.895Y-73.495
X264.895Y-76.035
X264.895Y-78.575
X264.895Y-81.115
X264.895Y-83.655
X264.895Y-86.195
X264.895Y-88.735
X264.895Y-91.275
X264.895Y-93.815
X264.895Y-96.355
X264.895Y-98.895
X264.895Y-101.435
X264.895Y-103.975
X264.895Y-106.515
X264.895Y-109.055
X264.895Y-111.595
X264.895Y-114.135
X264.895Y-116.675
X264.895Y-119.215
T3
X262.0Y-100.93
X262.0Y-102.2
T4
X95.657Y-73.75
X95.657Y-76.33
X113.657Y-73.75
X113.657Y-77.67
X131.657Y-73.705
X131.657Y-78.295
T5
X229.415Y-71.357
X229.415Y-76.357
T6
X149.657Y-74.0
X149.657Y-81.5
X168.54Y-74.0
X168.54Y-81.5
X187.54Y-74.0
X187.54Y-81.5
X206.54Y-74.0
X206.54Y-81.5
X260.9Y-108.25
X260.9Y-111.75
X260.9Y-115.25
X261.0Y-68.25
X261.0Y-71.75
X261.0Y-75.25
X261.0Y-78.75
T7
X77.422Y-96.093
X77.422Y-108.292
X83.422Y-94.492
X83.422Y-110.292
X89.422Y-96.093
X89.422Y-108.292
X95.54Y-96.117
X95.54Y-108.317
X95.657Y-55.117
X95.657Y-67.317
X101.54Y-94.517
X101.54Y-110.317
X101.657Y-53.117
X101.657Y-68.918
X107.54Y-96.117
X107.54Y-108.317
X107.657Y-55.117
X107.657Y-67.317
X113.54Y-96.117
X113.54Y-108.317
X113.657Y-55.117
X113.657Y-67.317
X119.54Y-94.517
X119.54Y-110.317
X119.657Y-53.117
X119.657Y-68.918
X125.54Y-96.117
X125.54Y-108.317
X125.657Y-55.117
X125.657Y-67.317
X131.657Y-55.117
X131.657Y-67.317
X131.657Y-96.117
X131.657Y-108.317
X137.657Y-53.117
X137.657Y-68.918
X137.657Y-94.517
X137.657Y-110.317
X143.657Y-55.117
X143.657Y-67.317
X143.657Y-96.117
X143.657Y-108.317
X149.54Y-96.117
X149.54Y-108.317
X149.657Y-55.117
X149.657Y-67.317
X155.54Y-94.517
X155.54Y-110.317
X155.657Y-53.117
X155.657Y-68.918
X161.54Y-96.117
X161.54Y-108.317
X161.657Y-55.117
X161.657Y-67.317
X167.54Y-96.117
X167.54Y-108.317
X167.657Y-55.117
X167.657Y-67.317
X173.54Y-94.517
X173.54Y-110.317
X173.657Y-53.117
X173.657Y-68.918
X179.54Y-96.117
X179.54Y-108.317
X179.657Y-55.117
X179.657Y-67.317
X185.54Y-96.117
X185.54Y-108.317
X185.657Y-55.117
X185.657Y-67.317
X191.54Y-94.517
X191.54Y-110.317
X191.657Y-53.117
X191.657Y-68.918
X197.54Y-96.117
X197.54Y-108.317
X197.657Y-55.117
X197.657Y-67.317
X203.54Y-96.117
X203.54Y-108.317
X203.657Y-55.117
X203.657Y-67.317
X209.54Y-94.517
X209.54Y-110.317
X209.657Y-53.117
X209.657Y-68.918
X215.54Y-96.117
X215.54Y-108.317
X215.657Y-55.117
X215.657Y-67.317
T2
X258.185Y-47.735G85X259.285Y-47.735
G05
X258.185Y-56.375G85X259.285Y-56.375
G05
X262.615Y-47.735G85X263.215Y-47.735
G05
X262.615Y-56.375G85X263.215Y-56.375
G05
M30
