G04 #@! TF.GenerationSoftware,KiCad,Pcbnew,8.0.2-8.0.2-0~ubuntu22.04.1*
G04 #@! TF.CreationDate,2024-05-05T21:49:18+03:00*
G04 #@! TF.ProjectId,ZFTuner,5a465475-6e65-4722-9e6b-696361645f70,A0*
G04 #@! TF.SameCoordinates,Original*
G04 #@! TF.FileFunction,Paste,Top*
G04 #@! TF.FilePolarity,Positive*
%FSLAX46Y46*%
G04 Gerber Fmt 4.6, Leading zero omitted, Abs format (unit mm)*
G04 Created by KiCad (PCBNEW 8.0.2-8.0.2-0~ubuntu22.04.1) date 2024-05-05 21:49:18*
%MOMM*%
%LPD*%
G01*
G04 APERTURE LIST*
G04 Aperture macros list*
%AMRoundRect*
0 Rectangle with rounded corners*
0 $1 Rounding radius*
0 $2 $3 $4 $5 $6 $7 $8 $9 X,Y pos of 4 corners*
0 Add a 4 corners polygon primitive as box body*
4,1,4,$2,$3,$4,$5,$6,$7,$8,$9,$2,$3,0*
0 Add four circle primitives for the rounded corners*
1,1,$1+$1,$2,$3*
1,1,$1+$1,$4,$5*
1,1,$1+$1,$6,$7*
1,1,$1+$1,$8,$9*
0 Add four rect primitives between the rounded corners*
20,1,$1+$1,$2,$3,$4,$5,0*
20,1,$1+$1,$4,$5,$6,$7,0*
20,1,$1+$1,$6,$7,$8,$9,0*
20,1,$1+$1,$8,$9,$2,$3,0*%
G04 Aperture macros list end*
%ADD10RoundRect,0.225000X-0.375000X0.225000X-0.375000X-0.225000X0.375000X-0.225000X0.375000X0.225000X0*%
%ADD11RoundRect,0.225000X-0.225000X-0.250000X0.225000X-0.250000X0.225000X0.250000X-0.225000X0.250000X0*%
%ADD12RoundRect,0.200000X-0.200000X-0.275000X0.200000X-0.275000X0.200000X0.275000X-0.200000X0.275000X0*%
%ADD13RoundRect,0.200000X0.275000X-0.200000X0.275000X0.200000X-0.275000X0.200000X-0.275000X-0.200000X0*%
%ADD14RoundRect,0.225000X0.225000X0.250000X-0.225000X0.250000X-0.225000X-0.250000X0.225000X-0.250000X0*%
%ADD15RoundRect,0.225000X0.250000X-0.225000X0.250000X0.225000X-0.250000X0.225000X-0.250000X-0.225000X0*%
%ADD16RoundRect,0.250000X1.075000X-0.362500X1.075000X0.362500X-1.075000X0.362500X-1.075000X-0.362500X0*%
%ADD17RoundRect,0.250000X-0.550000X1.500000X-0.550000X-1.500000X0.550000X-1.500000X0.550000X1.500000X0*%
%ADD18RoundRect,0.225000X-0.250000X0.225000X-0.250000X-0.225000X0.250000X-0.225000X0.250000X0.225000X0*%
%ADD19RoundRect,0.150000X0.587500X0.150000X-0.587500X0.150000X-0.587500X-0.150000X0.587500X-0.150000X0*%
%ADD20R,0.600000X1.000000*%
%ADD21R,0.650000X0.350000*%
%ADD22RoundRect,0.162500X0.262500X-0.162500X0.262500X0.162500X-0.262500X0.162500X-0.262500X-0.162500X0*%
%ADD23RoundRect,0.350000X-1.750000X-0.350000X1.750000X-0.350000X1.750000X0.350000X-1.750000X0.350000X0*%
%ADD24R,1.200000X1.400000*%
%ADD25RoundRect,0.218750X0.218750X0.256250X-0.218750X0.256250X-0.218750X-0.256250X0.218750X-0.256250X0*%
%ADD26RoundRect,0.150000X0.150000X-0.512500X0.150000X0.512500X-0.150000X0.512500X-0.150000X-0.512500X0*%
%ADD27RoundRect,0.250000X0.325000X0.650000X-0.325000X0.650000X-0.325000X-0.650000X0.325000X-0.650000X0*%
%ADD28RoundRect,0.200000X0.200000X0.275000X-0.200000X0.275000X-0.200000X-0.275000X0.200000X-0.275000X0*%
%ADD29RoundRect,0.196850X-0.403150X-0.603150X0.403150X-0.603150X0.403150X0.603150X-0.403150X0.603150X0*%
%ADD30RoundRect,0.250000X-1.000000X1.500000X-1.000000X-1.500000X1.000000X-1.500000X1.000000X1.500000X0*%
%ADD31RoundRect,0.225000X0.375000X-0.225000X0.375000X0.225000X-0.375000X0.225000X-0.375000X-0.225000X0*%
%ADD32RoundRect,0.218750X-0.218750X-0.256250X0.218750X-0.256250X0.218750X0.256250X-0.218750X0.256250X0*%
%ADD33RoundRect,0.200000X-0.275000X0.200000X-0.275000X-0.200000X0.275000X-0.200000X0.275000X0.200000X0*%
%ADD34RoundRect,0.150000X-0.512500X-0.150000X0.512500X-0.150000X0.512500X0.150000X-0.512500X0.150000X0*%
%ADD35RoundRect,0.250000X-1.075000X0.362500X-1.075000X-0.362500X1.075000X-0.362500X1.075000X0.362500X0*%
%ADD36RoundRect,0.150000X0.675000X0.150000X-0.675000X0.150000X-0.675000X-0.150000X0.675000X-0.150000X0*%
%ADD37RoundRect,0.150000X0.875000X0.150000X-0.875000X0.150000X-0.875000X-0.150000X0.875000X-0.150000X0*%
%ADD38R,1.150000X0.300000*%
%ADD39RoundRect,0.285433X-1.764567X-0.584567X1.764567X-0.584567X1.764567X0.584567X-1.764567X0.584567X0*%
%ADD40RoundRect,0.150000X-0.587500X-0.150000X0.587500X-0.150000X0.587500X0.150000X-0.587500X0.150000X0*%
%ADD41RoundRect,0.250000X1.075000X-0.375000X1.075000X0.375000X-1.075000X0.375000X-1.075000X-0.375000X0*%
%ADD42RoundRect,0.075000X-0.075000X0.662500X-0.075000X-0.662500X0.075000X-0.662500X0.075000X0.662500X0*%
%ADD43RoundRect,0.075000X-0.662500X0.075000X-0.662500X-0.075000X0.662500X-0.075000X0.662500X0.075000X0*%
%ADD44RoundRect,0.250000X-0.312500X-0.625000X0.312500X-0.625000X0.312500X0.625000X-0.312500X0.625000X0*%
%ADD45RoundRect,0.140000X0.140000X0.170000X-0.140000X0.170000X-0.140000X-0.170000X0.140000X-0.170000X0*%
%ADD46RoundRect,0.250000X-1.075000X0.312500X-1.075000X-0.312500X1.075000X-0.312500X1.075000X0.312500X0*%
%ADD47R,0.510000X0.700000*%
%ADD48RoundRect,0.150000X0.150000X-0.650000X0.150000X0.650000X-0.150000X0.650000X-0.150000X-0.650000X0*%
%ADD49RoundRect,0.218750X0.256250X-0.218750X0.256250X0.218750X-0.256250X0.218750X-0.256250X-0.218750X0*%
G04 APERTURE END LIST*
D10*
X230190000Y-57375000D03*
X230190000Y-60675000D03*
D11*
X214107500Y-49750000D03*
X215657500Y-49750000D03*
D12*
X259250000Y-99800000D03*
X260900000Y-99800000D03*
X256150000Y-62900000D03*
X257800000Y-62900000D03*
D13*
X243350000Y-86100000D03*
X243350000Y-84450000D03*
D14*
X240950000Y-79817677D03*
X239400000Y-79817677D03*
X197540000Y-113617500D03*
X195990000Y-113617500D03*
D11*
X255850000Y-93712500D03*
X257400000Y-93712500D03*
D15*
X238690000Y-58925000D03*
X238690000Y-57375000D03*
D16*
X58250000Y-74450000D03*
X58250000Y-69825000D03*
D14*
X161540000Y-113617500D03*
X159990000Y-113617500D03*
X107540000Y-113617500D03*
X105990000Y-113617500D03*
D17*
X229152677Y-70392677D03*
X229152677Y-75792677D03*
D14*
X179540000Y-113617500D03*
X177990000Y-113617500D03*
D18*
X65250000Y-75325000D03*
X65250000Y-76875000D03*
D14*
X151090000Y-113617500D03*
X149540000Y-113617500D03*
X169090000Y-113617500D03*
X167540000Y-113617500D03*
D11*
X81250000Y-86450000D03*
X82800000Y-86450000D03*
D19*
X155687500Y-46590000D03*
X155687500Y-44690000D03*
X153812500Y-45640000D03*
D20*
X234362500Y-112900000D03*
X234362500Y-114100000D03*
X235137500Y-112900000D03*
X235137500Y-114100000D03*
D21*
X233200000Y-112525000D03*
X233200000Y-113175000D03*
X233200000Y-113825000D03*
X233200000Y-114475000D03*
X236300000Y-114475000D03*
X236300000Y-113825000D03*
X236300000Y-113175000D03*
X236300000Y-112525000D03*
D22*
X259450000Y-87050000D03*
X259450000Y-87900000D03*
X260900000Y-87050000D03*
X260900000Y-87900000D03*
D23*
X46407500Y-102500000D03*
X46407500Y-99950000D03*
X46407500Y-105050000D03*
D18*
X243325000Y-97712500D03*
X243325000Y-99262500D03*
D11*
X113657500Y-49750000D03*
X115207500Y-49750000D03*
D14*
X205090000Y-113617500D03*
X203540000Y-113617500D03*
D24*
X250600000Y-86100000D03*
X250600000Y-88300000D03*
X252300000Y-88300000D03*
X252300000Y-86100000D03*
D25*
X253137500Y-43950000D03*
X251562500Y-43950000D03*
D14*
X78972500Y-113617500D03*
X77422500Y-113617500D03*
D12*
X256150000Y-61150000D03*
X257800000Y-61150000D03*
D11*
X196107500Y-49750000D03*
X197657500Y-49750000D03*
X124107500Y-49750000D03*
X125657500Y-49750000D03*
D26*
X239050000Y-75837500D03*
X240000000Y-75837500D03*
X240950000Y-75837500D03*
X240950000Y-73562500D03*
X240000000Y-73562500D03*
X239050000Y-73562500D03*
D12*
X228575000Y-54000000D03*
X230225000Y-54000000D03*
X260900000Y-89640000D03*
X262550000Y-89640000D03*
D27*
X107540000Y-90500000D03*
X104590000Y-90500000D03*
D12*
X230540000Y-50200000D03*
X232190000Y-50200000D03*
D18*
X254150000Y-86750000D03*
X254150000Y-88300000D03*
X244650000Y-100875000D03*
X244650000Y-102425000D03*
D14*
X187090000Y-113617500D03*
X185540000Y-113617500D03*
D11*
X160107500Y-49750000D03*
X161657500Y-49750000D03*
D28*
X254887500Y-66600000D03*
X253237500Y-66600000D03*
D13*
X246050000Y-64550000D03*
X246050000Y-62900000D03*
D29*
X241750000Y-114900000D03*
X244250000Y-114900000D03*
X246750000Y-114900000D03*
X246750000Y-112100000D03*
X244250000Y-112100000D03*
X241750000Y-112100000D03*
D30*
X248500000Y-73692500D03*
X248500000Y-80192500D03*
D14*
X84887500Y-83450000D03*
X83337500Y-83450000D03*
D31*
X238750000Y-71350000D03*
X238750000Y-68050000D03*
D32*
X251562500Y-42250000D03*
X253137500Y-42250000D03*
D33*
X147000000Y-43990000D03*
X147000000Y-45640000D03*
D15*
X245100000Y-86100000D03*
X245100000Y-84550000D03*
D13*
X133750000Y-118475000D03*
X133750000Y-116825000D03*
D11*
X149657500Y-49750000D03*
X151207500Y-49750000D03*
D25*
X92325000Y-117975000D03*
X90750000Y-117975000D03*
D14*
X215540000Y-113617500D03*
X213990000Y-113617500D03*
D12*
X260900000Y-85300000D03*
X262550000Y-85300000D03*
D11*
X203657500Y-49750000D03*
X205207500Y-49750000D03*
D13*
X205237500Y-118175000D03*
X205237500Y-116525000D03*
D14*
X143657500Y-113617500D03*
X142107500Y-113617500D03*
D13*
X158062500Y-46552500D03*
X158062500Y-44902500D03*
D14*
X115090000Y-113617500D03*
X113540000Y-113617500D03*
D18*
X252325000Y-103525000D03*
X252325000Y-105075000D03*
D34*
X78975000Y-82500000D03*
X78975000Y-83450000D03*
X78975000Y-84400000D03*
X81250000Y-84400000D03*
X81250000Y-83450000D03*
X81250000Y-82500000D03*
D19*
X209375000Y-46290000D03*
X209375000Y-44390000D03*
X207500000Y-45340000D03*
D34*
X62975000Y-82500000D03*
X62975000Y-83450000D03*
X62975000Y-84400000D03*
X65250000Y-84400000D03*
X65250000Y-83450000D03*
X65250000Y-82500000D03*
D11*
X95657500Y-49750000D03*
X97207500Y-49750000D03*
D18*
X236300000Y-116650000D03*
X236300000Y-118200000D03*
D35*
X84250000Y-75125000D03*
X84250000Y-79750000D03*
D15*
X238250000Y-112600000D03*
X238250000Y-111050000D03*
D27*
X143657500Y-90500000D03*
X140707500Y-90500000D03*
D33*
X207175000Y-116525000D03*
X207175000Y-118175000D03*
D14*
X252100000Y-84100000D03*
X250550000Y-84100000D03*
D35*
X62250000Y-75325000D03*
X62250000Y-79950000D03*
D11*
X178107500Y-49750000D03*
X179657500Y-49750000D03*
D13*
X211500000Y-46165000D03*
X211500000Y-44515000D03*
D36*
X253725000Y-63870000D03*
X253725000Y-62600000D03*
X253725000Y-61330000D03*
X253725000Y-60060000D03*
X248475000Y-60060000D03*
X248475000Y-61330000D03*
X248475000Y-62600000D03*
X248475000Y-63870000D03*
D11*
X65250000Y-86400000D03*
X66800000Y-86400000D03*
D31*
X248400000Y-69500000D03*
X248400000Y-66200000D03*
D27*
X125550000Y-90500000D03*
X122600000Y-90500000D03*
X179540000Y-90500000D03*
X176590000Y-90500000D03*
D37*
X238100000Y-101330000D03*
X238100000Y-100060000D03*
X238100000Y-98790000D03*
X238100000Y-97520000D03*
X238100000Y-96250000D03*
X238100000Y-94980000D03*
X238100000Y-93710000D03*
X238100000Y-92440000D03*
X238100000Y-91170000D03*
X228800000Y-91170000D03*
X228800000Y-92440000D03*
X228800000Y-93710000D03*
X228800000Y-94980000D03*
X228800000Y-96250000D03*
X228800000Y-97520000D03*
X228800000Y-98790000D03*
X228800000Y-100060000D03*
X228800000Y-101330000D03*
D13*
X218187500Y-118550000D03*
X218187500Y-116900000D03*
D38*
X257170000Y-52905000D03*
X257170000Y-52105000D03*
X257170000Y-50805000D03*
X257170000Y-49805000D03*
X257170000Y-49305000D03*
X257170000Y-48305000D03*
X257170000Y-47005000D03*
X257170000Y-46205000D03*
X257170000Y-46505000D03*
X257170000Y-47305000D03*
X257170000Y-47805000D03*
X257170000Y-48805000D03*
X257170000Y-50305000D03*
X257170000Y-51305000D03*
X257170000Y-51805000D03*
X257170000Y-52605000D03*
D39*
X62250000Y-51750000D03*
X62250000Y-57150000D03*
X62250000Y-59350000D03*
X62250000Y-64750000D03*
X84250000Y-63750000D03*
X84250000Y-59350000D03*
X84250000Y-57150000D03*
X84250000Y-52750000D03*
D11*
X185657500Y-49750000D03*
X187207500Y-49750000D03*
D40*
X142000000Y-116650000D03*
X142000000Y-118550000D03*
X143875000Y-117600000D03*
D28*
X240950000Y-81700000D03*
X239300000Y-81700000D03*
D34*
X234415000Y-57375000D03*
X234415000Y-58325000D03*
X234415000Y-59275000D03*
X236690000Y-59275000D03*
X236690000Y-57375000D03*
D41*
X235750000Y-73600000D03*
X235750000Y-70800000D03*
D14*
X231137500Y-113425000D03*
X229587500Y-113425000D03*
D18*
X238250000Y-114400000D03*
X238250000Y-115950000D03*
D42*
X252325000Y-92300000D03*
X251825000Y-92300000D03*
X251325000Y-92300000D03*
X250825000Y-92300000D03*
X250325000Y-92300000D03*
X249825000Y-92300000D03*
X249325000Y-92300000D03*
X248825000Y-92300000D03*
X248325000Y-92300000D03*
X247825000Y-92300000D03*
X247325000Y-92300000D03*
X246825000Y-92300000D03*
D43*
X245412500Y-93712500D03*
X245412500Y-94212500D03*
X245412500Y-94712500D03*
X245412500Y-95212500D03*
X245412500Y-95712500D03*
X245412500Y-96212500D03*
X245412500Y-96712500D03*
X245412500Y-97212500D03*
X245412500Y-97712500D03*
X245412500Y-98212500D03*
X245412500Y-98712500D03*
X245412500Y-99212500D03*
D42*
X246825000Y-100625000D03*
X247325000Y-100625000D03*
X247825000Y-100625000D03*
X248325000Y-100625000D03*
X248825000Y-100625000D03*
X249325000Y-100625000D03*
X249825000Y-100625000D03*
X250325000Y-100625000D03*
X250825000Y-100625000D03*
X251325000Y-100625000D03*
X251825000Y-100625000D03*
X252325000Y-100625000D03*
D43*
X253737500Y-99212500D03*
X253737500Y-98712500D03*
X253737500Y-98212500D03*
X253737500Y-97712500D03*
X253737500Y-97212500D03*
X253737500Y-96712500D03*
X253737500Y-96212500D03*
X253737500Y-95712500D03*
X253737500Y-95212500D03*
X253737500Y-94712500D03*
X253737500Y-94212500D03*
X253737500Y-93712500D03*
D27*
X215540000Y-90500000D03*
X212590000Y-90500000D03*
D25*
X92312500Y-44625000D03*
X90737500Y-44625000D03*
D44*
X243825000Y-106900000D03*
X246750000Y-106900000D03*
D18*
X233500000Y-67175000D03*
X233500000Y-68725000D03*
D12*
X251515000Y-45750000D03*
X253165000Y-45750000D03*
D45*
X241900000Y-108150000D03*
X240940000Y-108150000D03*
D46*
X84250000Y-69812500D03*
X84250000Y-72737500D03*
D33*
X246050000Y-59500000D03*
X246050000Y-61150000D03*
D14*
X125540000Y-113617500D03*
X123990000Y-113617500D03*
D15*
X232440000Y-58925000D03*
X232440000Y-57375000D03*
D12*
X252015000Y-53555000D03*
X253665000Y-53555000D03*
D15*
X242750000Y-75112500D03*
X242750000Y-73562500D03*
D23*
X46307500Y-60500000D03*
X46307500Y-57950000D03*
X46307500Y-63050000D03*
D14*
X89422500Y-113617500D03*
X87872500Y-113617500D03*
D11*
X131657500Y-49750000D03*
X133207500Y-49750000D03*
D15*
X228800000Y-88675000D03*
X228800000Y-87125000D03*
D16*
X88250000Y-74437500D03*
X88250000Y-69812500D03*
D47*
X234090000Y-51775000D03*
X233140000Y-51775000D03*
X232190000Y-51775000D03*
X232190000Y-54095000D03*
X233140000Y-54095000D03*
X234090000Y-54095000D03*
D14*
X237275000Y-75837500D03*
X235725000Y-75837500D03*
X97090000Y-113617500D03*
X95540000Y-113617500D03*
D46*
X62250000Y-69825000D03*
X62250000Y-72750000D03*
D27*
X197540000Y-90500000D03*
X194590000Y-90500000D03*
D40*
X209300000Y-116650000D03*
X209300000Y-118550000D03*
X211175000Y-117600000D03*
D14*
X68775000Y-83450000D03*
X67225000Y-83450000D03*
D13*
X146125000Y-118550000D03*
X146125000Y-116900000D03*
D40*
X250262500Y-112550000D03*
X250262500Y-114450000D03*
X252137500Y-113500000D03*
D19*
X253237500Y-70450000D03*
X253237500Y-68550000D03*
X251362500Y-69500000D03*
D48*
X251850000Y-50650000D03*
X252800000Y-50650000D03*
X253750000Y-50650000D03*
X253750000Y-48350000D03*
X252800000Y-48350000D03*
X251850000Y-48350000D03*
D13*
X243450000Y-60725000D03*
X243450000Y-59075000D03*
D33*
X213500000Y-44515000D03*
X213500000Y-46165000D03*
D44*
X243825000Y-109400000D03*
X246750000Y-109400000D03*
D49*
X257735000Y-57687500D03*
X257735000Y-56112500D03*
D40*
X213862500Y-116650000D03*
X213862500Y-118550000D03*
X215737500Y-117600000D03*
D33*
X201000000Y-43690000D03*
X201000000Y-45340000D03*
D11*
X167657500Y-49750000D03*
X169207500Y-49750000D03*
X142107500Y-49750000D03*
X143657500Y-49750000D03*
D14*
X133207500Y-113617500D03*
X131657500Y-113617500D03*
D11*
X106107500Y-49750000D03*
X107657500Y-49750000D03*
D40*
X137625000Y-116700000D03*
X137625000Y-118600000D03*
X139500000Y-117650000D03*
D19*
X205125000Y-46290000D03*
X205125000Y-44390000D03*
X203250000Y-45340000D03*
D27*
X161540000Y-90500000D03*
X158590000Y-90500000D03*
D33*
X135500000Y-116825000D03*
X135500000Y-118475000D03*
X160062500Y-44902500D03*
X160062500Y-46552500D03*
D18*
X81250000Y-75125000D03*
X81250000Y-76675000D03*
D49*
X241700000Y-59075000D03*
X241700000Y-57500000D03*
D12*
X239300000Y-77950000D03*
X240950000Y-77950000D03*
D19*
X151250000Y-46590000D03*
X151250000Y-44690000D03*
X149375000Y-45640000D03*
D28*
X236075000Y-61025000D03*
X234425000Y-61025000D03*
M02*
