G04 #@! TF.GenerationSoftware,KiCad,Pcbnew,8.0.2-8.0.2-0~ubuntu22.04.1*
G04 #@! TF.CreationDate,2024-05-05T21:49:18+03:00*
G04 #@! TF.ProjectId,ZFTuner,5a465475-6e65-4722-9e6b-696361645f70,A0*
G04 #@! TF.SameCoordinates,Original*
G04 #@! TF.FileFunction,Copper,L4,Bot*
G04 #@! TF.FilePolarity,Positive*
%FSLAX46Y46*%
G04 Gerber Fmt 4.6, Leading zero omitted, Abs format (unit mm)*
G04 Created by KiCad (PCBNEW 8.0.2-8.0.2-0~ubuntu22.04.1) date 2024-05-05 21:49:18*
%MOMM*%
%LPD*%
G01*
G04 APERTURE LIST*
G04 Aperture macros list*
%AMRoundRect*
0 Rectangle with rounded corners*
0 $1 Rounding radius*
0 $2 $3 $4 $5 $6 $7 $8 $9 X,Y pos of 4 corners*
0 Add a 4 corners polygon primitive as box body*
4,1,4,$2,$3,$4,$5,$6,$7,$8,$9,$2,$3,0*
0 Add four circle primitives for the rounded corners*
1,1,$1+$1,$2,$3*
1,1,$1+$1,$4,$5*
1,1,$1+$1,$6,$7*
1,1,$1+$1,$8,$9*
0 Add four rect primitives between the rounded corners*
20,1,$1+$1,$2,$3,$4,$5,0*
20,1,$1+$1,$4,$5,$6,$7,0*
20,1,$1+$1,$6,$7,$8,$9,0*
20,1,$1+$1,$8,$9,$2,$3,0*%
G04 Aperture macros list end*
G04 #@! TA.AperFunction,ComponentPad*
%ADD10C,2.400000*%
G04 #@! TD*
G04 #@! TA.AperFunction,ComponentPad*
%ADD11C,2.500000*%
G04 #@! TD*
G04 #@! TA.AperFunction,SMDPad,CuDef*
%ADD12RoundRect,0.350000X-1.750000X-0.350000X1.750000X-0.350000X1.750000X0.350000X-1.750000X0.350000X0*%
G04 #@! TD*
G04 #@! TA.AperFunction,ComponentPad*
%ADD13C,5.700000*%
G04 #@! TD*
G04 #@! TA.AperFunction,ComponentPad*
%ADD14RoundRect,0.250000X-1.000000X1.000000X-1.000000X-1.000000X1.000000X-1.000000X1.000000X1.000000X0*%
G04 #@! TD*
G04 #@! TA.AperFunction,ComponentPad*
%ADD15C,1.600000*%
G04 #@! TD*
G04 #@! TA.AperFunction,ComponentPad*
%ADD16RoundRect,0.250000X1.000000X-1.000000X1.000000X1.000000X-1.000000X1.000000X-1.000000X-1.000000X0*%
G04 #@! TD*
G04 #@! TA.AperFunction,ComponentPad*
%ADD17R,2.400000X2.400000*%
G04 #@! TD*
G04 #@! TA.AperFunction,ComponentPad*
%ADD18O,2.100000X1.000000*%
G04 #@! TD*
G04 #@! TA.AperFunction,ComponentPad*
%ADD19O,1.600000X1.000000*%
G04 #@! TD*
G04 #@! TA.AperFunction,ComponentPad*
%ADD20R,1.000000X1.000000*%
G04 #@! TD*
G04 #@! TA.AperFunction,ComponentPad*
%ADD21O,1.000000X1.000000*%
G04 #@! TD*
G04 #@! TA.AperFunction,ViaPad*
%ADD22C,0.450000*%
G04 #@! TD*
G04 #@! TA.AperFunction,Conductor*
%ADD23C,0.200000*%
G04 #@! TD*
G04 #@! TA.AperFunction,Conductor*
%ADD24C,0.400000*%
G04 #@! TD*
G04 #@! TA.AperFunction,Conductor*
%ADD25C,0.300000*%
G04 #@! TD*
G04 #@! TA.AperFunction,Conductor*
%ADD26C,1.200000*%
G04 #@! TD*
G04 APERTURE END LIST*
D10*
X173500000Y-81300000D03*
D11*
X173500000Y-73800000D03*
D10*
X190157500Y-79900000D03*
D11*
X197657500Y-79900000D03*
D12*
X46407500Y-99950000D03*
X46407500Y-105050000D03*
D13*
X230400000Y-118500000D03*
D11*
X137657500Y-53117500D03*
X143657500Y-67317500D03*
X131657500Y-67317500D03*
D14*
X143657500Y-55117500D03*
D11*
X131657500Y-55117500D03*
X137657500Y-68917500D03*
D15*
X125657500Y-77660000D03*
X125657500Y-73740000D03*
D11*
X209540000Y-110317500D03*
X203540000Y-96117500D03*
X215540000Y-96117500D03*
D16*
X203540000Y-108317500D03*
D11*
X215540000Y-108317500D03*
X209540000Y-94517500D03*
X191540000Y-110317500D03*
X185540000Y-96117500D03*
X197540000Y-96117500D03*
D16*
X185540000Y-108317500D03*
D11*
X197540000Y-108317500D03*
X191540000Y-94517500D03*
X101657500Y-53117500D03*
X107657500Y-67317500D03*
X95657500Y-67317500D03*
D14*
X107657500Y-55117500D03*
D11*
X95657500Y-55117500D03*
X101657500Y-68917500D03*
D15*
X139067500Y-76200000D03*
X143657500Y-76200000D03*
D11*
X173540000Y-110317500D03*
X167540000Y-96117500D03*
X179540000Y-96117500D03*
D16*
X167540000Y-108317500D03*
D11*
X179540000Y-108317500D03*
X173540000Y-94517500D03*
D17*
X260100000Y-78750000D03*
D10*
X260100000Y-75250000D03*
X260100000Y-71750000D03*
X260100000Y-68250000D03*
D11*
X155657500Y-53117500D03*
X161657500Y-67317500D03*
X149657500Y-67317500D03*
D14*
X161657500Y-55117500D03*
D11*
X149657500Y-55117500D03*
X155657500Y-68917500D03*
X101540000Y-110317500D03*
X95540000Y-96117500D03*
X107540000Y-96117500D03*
D16*
X95540000Y-108317500D03*
D11*
X107540000Y-108317500D03*
X101540000Y-94517500D03*
D18*
X257735000Y-53875000D03*
D19*
X261915000Y-53875000D03*
D18*
X257735000Y-45235000D03*
D19*
X261915000Y-45235000D03*
D11*
X119540000Y-110317500D03*
X113540000Y-96117500D03*
X125540000Y-96117500D03*
D16*
X113540000Y-108317500D03*
D11*
X125540000Y-108317500D03*
X119540000Y-94517500D03*
X155540000Y-110317500D03*
X149540000Y-96117500D03*
X161540000Y-96117500D03*
D16*
X149540000Y-108317500D03*
D11*
X161540000Y-108317500D03*
X155540000Y-94517500D03*
D12*
X46307500Y-57950000D03*
X46307500Y-63050000D03*
D11*
X191657500Y-53117500D03*
X197657500Y-67317500D03*
X185657500Y-67317500D03*
D14*
X197657500Y-55117500D03*
D11*
X185657500Y-55117500D03*
X191657500Y-68917500D03*
X119657500Y-53117500D03*
X125657500Y-67317500D03*
X113657500Y-67317500D03*
D14*
X125657500Y-55117500D03*
D11*
X113657500Y-55117500D03*
X119657500Y-68917500D03*
X137657500Y-110317500D03*
X131657500Y-96117500D03*
X143657500Y-96117500D03*
D16*
X131657500Y-108317500D03*
D11*
X143657500Y-108317500D03*
X137657500Y-94517500D03*
D15*
X105077500Y-75500000D03*
X107657500Y-75500000D03*
D11*
X83422500Y-110292500D03*
X77422500Y-96092500D03*
X89422500Y-96092500D03*
D16*
X77422500Y-108292500D03*
D11*
X89422500Y-108292500D03*
X83422500Y-94492500D03*
D17*
X260100000Y-115250000D03*
D10*
X260100000Y-111750000D03*
X260100000Y-108250000D03*
D20*
X260900000Y-103350000D03*
D21*
X260900000Y-102080000D03*
D11*
X209657500Y-53117500D03*
X215657500Y-67317500D03*
X203657500Y-67317500D03*
D14*
X215657500Y-55117500D03*
D11*
X203657500Y-55117500D03*
X209657500Y-68917500D03*
D13*
X231000000Y-45000000D03*
X49000000Y-45500000D03*
X49000000Y-117500000D03*
D10*
X154157500Y-79900000D03*
D11*
X161657500Y-79900000D03*
D10*
X209400000Y-81300000D03*
D11*
X209400000Y-73800000D03*
X173657500Y-53117500D03*
X179657500Y-67317500D03*
X167657500Y-67317500D03*
D14*
X179657500Y-55117500D03*
D11*
X167657500Y-55117500D03*
X173657500Y-68917500D03*
D22*
X232350000Y-59950000D03*
X105015477Y-46450000D03*
X244300000Y-88450000D03*
X93015477Y-49450000D03*
X236400000Y-98150000D03*
X102015477Y-118450000D03*
X164475000Y-107100000D03*
X243015477Y-64450000D03*
X146625000Y-107100000D03*
X242102677Y-76242677D03*
X236900000Y-83600000D03*
X100275000Y-48700000D03*
X123800000Y-99975000D03*
X255800000Y-110400000D03*
X146800000Y-49900000D03*
X171015477Y-118450000D03*
X192015477Y-118450000D03*
X142000000Y-47400000D03*
X246700000Y-80700000D03*
X123800000Y-104800000D03*
X190500000Y-107100000D03*
X255015477Y-73450000D03*
X234500000Y-77525000D03*
X105700000Y-107100000D03*
X206950000Y-47400000D03*
X156015477Y-118450000D03*
X253350000Y-91350000D03*
X245100000Y-83200000D03*
X237015477Y-61450000D03*
X164475000Y-99975000D03*
X243015477Y-118450000D03*
X234015477Y-118450000D03*
X238752677Y-66892677D03*
X237015477Y-49450000D03*
X96015477Y-121450000D03*
X172400000Y-99975000D03*
X260700000Y-41700000D03*
X164500000Y-47400000D03*
X159600000Y-99975000D03*
X254200000Y-89450000D03*
X99015477Y-121450000D03*
X238000000Y-60200000D03*
X249850000Y-82900000D03*
X93015477Y-43450000D03*
X132015477Y-118450000D03*
X248300000Y-101950000D03*
X105700000Y-99975000D03*
X227800000Y-76750000D03*
X103400000Y-107100000D03*
X235650000Y-119550000D03*
X114015477Y-121450000D03*
X230900000Y-88500000D03*
X234100000Y-46450000D03*
X249250000Y-86450000D03*
X93600000Y-104100000D03*
X253450000Y-89450000D03*
X242750000Y-89900000D03*
X180015477Y-118450000D03*
X111000000Y-113600000D03*
X189015477Y-121450000D03*
X255015477Y-79450000D03*
X111015477Y-49450000D03*
X123015477Y-46450000D03*
X232250000Y-63750000D03*
X246015477Y-100450000D03*
X246700000Y-81500000D03*
X220300000Y-100200000D03*
X143650000Y-97950000D03*
X222015477Y-112450000D03*
X141900000Y-99975000D03*
X165015477Y-121450000D03*
X99015477Y-46450000D03*
X261015477Y-58450000D03*
X120015477Y-46450000D03*
X102015477Y-46450000D03*
X222100000Y-45100000D03*
X154400000Y-107100000D03*
X238700000Y-60200000D03*
X261015477Y-118450000D03*
X159015477Y-118450000D03*
X177015477Y-118450000D03*
X133500000Y-107100000D03*
X228015477Y-49450000D03*
X123800000Y-107100000D03*
X224200000Y-44400000D03*
X128600000Y-99975000D03*
X195015477Y-121450000D03*
X227650000Y-89900000D03*
X111015477Y-118450000D03*
X165015477Y-118450000D03*
X93015477Y-121450000D03*
X237015477Y-58450000D03*
X222015477Y-118450000D03*
X233900000Y-91300000D03*
X243500000Y-61800000D03*
X171015477Y-121450000D03*
X211400000Y-99950000D03*
X234015477Y-121450000D03*
X237350000Y-89900000D03*
X230900000Y-87100000D03*
X222015477Y-46450000D03*
X246015477Y-121450000D03*
X230500000Y-76742677D03*
X251850000Y-82900000D03*
X255800000Y-108300000D03*
X252015477Y-112450000D03*
X236400000Y-95600000D03*
X243402677Y-76242677D03*
X240015477Y-115450000D03*
X168015477Y-121450000D03*
X230300000Y-52600000D03*
X250200000Y-81500000D03*
X234600000Y-67500000D03*
X252015477Y-67450000D03*
X237015477Y-79450000D03*
X118300000Y-48700000D03*
X250200000Y-79100000D03*
X171015477Y-115450000D03*
X253750000Y-113500000D03*
X187400000Y-107100000D03*
X254725000Y-92725000D03*
X100000000Y-43000000D03*
X106675000Y-44725000D03*
X222015477Y-121450000D03*
X227500000Y-111800000D03*
X230900000Y-89900000D03*
X138015477Y-115450000D03*
X228015477Y-82450000D03*
X129015477Y-118450000D03*
X249015477Y-118450000D03*
X109000000Y-43000000D03*
X261015477Y-97450000D03*
X112000000Y-43000000D03*
X99015477Y-118450000D03*
X165000000Y-113600000D03*
X93600000Y-97975000D03*
X261015477Y-91450000D03*
X219015477Y-112450000D03*
X234925000Y-81600000D03*
X227500000Y-53150000D03*
X111015477Y-46450000D03*
X195900000Y-107100000D03*
X207015477Y-121450000D03*
X120015477Y-115450000D03*
X221100000Y-102300000D03*
X111015477Y-121450000D03*
X117015477Y-118450000D03*
X249015477Y-43450000D03*
X159600000Y-107100000D03*
X128600000Y-105500000D03*
X237900000Y-87100000D03*
X130000000Y-47400000D03*
X120015477Y-106450000D03*
X156015477Y-115450000D03*
X264015477Y-100450000D03*
X219015477Y-121450000D03*
X157400000Y-107100000D03*
X252015477Y-118450000D03*
X150015477Y-115450000D03*
X139500000Y-107100000D03*
X102015477Y-115450000D03*
X258015477Y-106450000D03*
X162015477Y-121450000D03*
X182525000Y-107100000D03*
X250800000Y-96950000D03*
X133000000Y-43025000D03*
X97025000Y-43000000D03*
X254700000Y-41100000D03*
X247300000Y-55325000D03*
X250100000Y-57525000D03*
X253400000Y-100900000D03*
X159015477Y-115450000D03*
X198015477Y-118450000D03*
X105015477Y-115450000D03*
X125575000Y-97950000D03*
X121400000Y-104800000D03*
X251000000Y-93800000D03*
X97400000Y-107100000D03*
X106000000Y-43000000D03*
X146625000Y-99950000D03*
X228015477Y-115450000D03*
X227400000Y-87100000D03*
X250850000Y-82900000D03*
X229850000Y-88500000D03*
X115400000Y-107100000D03*
X153015477Y-118450000D03*
X248700000Y-41300000D03*
X205400000Y-107100000D03*
X195900000Y-99975000D03*
X249250000Y-83550000D03*
X249700000Y-99250000D03*
X102015477Y-121450000D03*
X129015477Y-121450000D03*
X103000000Y-43000000D03*
X241900000Y-54700000D03*
X252800000Y-82900000D03*
X246700000Y-79100000D03*
X234015477Y-49450000D03*
X246015477Y-118450000D03*
X258300000Y-105400000D03*
X136500000Y-107100000D03*
X243015477Y-67450000D03*
X247500000Y-86200000D03*
X240950000Y-89900000D03*
X162015477Y-118450000D03*
X250400000Y-89700000D03*
X216200000Y-47400000D03*
X193400000Y-107100000D03*
X220300000Y-44300000D03*
X179550000Y-97975000D03*
X240015477Y-112450000D03*
X246015477Y-43450000D03*
X219015477Y-115450000D03*
X219000000Y-108800000D03*
X138015477Y-106450000D03*
X154400000Y-99975000D03*
X156015477Y-121450000D03*
X237015477Y-121450000D03*
X229850000Y-87100000D03*
X124000000Y-43025000D03*
X250200000Y-79900000D03*
X264015477Y-106450000D03*
X238402677Y-76992677D03*
X151400000Y-107100000D03*
X137400000Y-48875000D03*
X228100000Y-63350000D03*
X142000000Y-43025000D03*
X264015477Y-121450000D03*
X238550000Y-89900000D03*
X225015477Y-118450000D03*
X237015477Y-46450000D03*
X195015477Y-118450000D03*
X233300000Y-60800000D03*
X243402677Y-76942677D03*
X150015477Y-121450000D03*
X129015477Y-49450000D03*
X130000000Y-43025000D03*
X97400000Y-99950000D03*
X216015477Y-115450000D03*
X252015477Y-70450000D03*
X258175000Y-101850000D03*
X249015477Y-121450000D03*
X228015477Y-121450000D03*
X239202677Y-76992677D03*
X245500000Y-89900000D03*
X234600000Y-66900000D03*
X234000000Y-43300000D03*
X204015477Y-121450000D03*
X247200000Y-77900000D03*
X191650000Y-47400000D03*
X118000000Y-43025000D03*
X231015477Y-85450000D03*
X102015477Y-103450000D03*
X139000000Y-43025000D03*
X250200000Y-78300000D03*
X99015477Y-103450000D03*
X145000000Y-47400000D03*
X242752677Y-76892677D03*
X192015477Y-121450000D03*
X234500000Y-89900000D03*
X249015477Y-46450000D03*
X135015477Y-106450000D03*
X254800000Y-114500000D03*
X151400000Y-99975000D03*
X169400000Y-107100000D03*
X239800000Y-91150000D03*
X177015477Y-121450000D03*
X93600000Y-107100000D03*
X228015477Y-85450000D03*
X190475000Y-99975000D03*
X240800000Y-85300000D03*
X193400000Y-99975000D03*
X252015477Y-79450000D03*
X229152677Y-78392677D03*
X234500000Y-88500000D03*
X222000000Y-108800000D03*
X112450000Y-99975000D03*
X182525000Y-99975000D03*
X100400000Y-104100000D03*
X128600000Y-107100000D03*
X243015477Y-115450000D03*
X243015477Y-121450000D03*
X200525000Y-99975000D03*
X227900000Y-43300000D03*
X237015477Y-106450000D03*
X257700000Y-41700000D03*
X235850000Y-88500000D03*
X118400000Y-99975000D03*
X254250000Y-85550000D03*
X236825000Y-111250000D03*
X157400000Y-99975000D03*
X241300000Y-88450000D03*
X227800000Y-75100000D03*
X253700000Y-105650000D03*
X240900000Y-43500000D03*
X138015477Y-121450000D03*
X261015477Y-73450000D03*
X233300000Y-89900000D03*
X141015477Y-121450000D03*
X264015477Y-112450000D03*
X261015477Y-121450000D03*
X243100000Y-87150000D03*
X243100000Y-88450000D03*
X227800000Y-78400000D03*
X103400000Y-104100000D03*
X228100000Y-60800000D03*
X230500000Y-75092677D03*
X236300000Y-119550000D03*
X242800000Y-79600000D03*
X136000000Y-47400000D03*
X110500000Y-107100000D03*
X105015477Y-121450000D03*
X228500000Y-102700000D03*
X247100000Y-83200000D03*
X126015477Y-118450000D03*
X97400000Y-104100000D03*
X114015477Y-118450000D03*
X117015477Y-121450000D03*
X239950000Y-87100000D03*
X144015477Y-121450000D03*
X133500000Y-99975000D03*
X105700000Y-104100000D03*
X201015477Y-118450000D03*
X123015477Y-121450000D03*
X255015477Y-121450000D03*
X103525000Y-44700000D03*
X208400000Y-99975000D03*
X249400000Y-94000000D03*
X238002677Y-66892677D03*
X244225000Y-51600000D03*
X133000000Y-47400000D03*
X177015477Y-115450000D03*
X255015477Y-76450000D03*
X242752677Y-76242677D03*
X201015477Y-121450000D03*
X264015477Y-58450000D03*
X100300000Y-44675000D03*
X260500000Y-95400000D03*
X240015477Y-94450000D03*
X255015477Y-118450000D03*
X232400000Y-66900000D03*
X228100000Y-55700000D03*
X242150000Y-47300000D03*
X115400000Y-99975000D03*
X213900000Y-107100000D03*
X255015477Y-58450000D03*
X237700000Y-117150000D03*
X246700000Y-79900000D03*
X237015477Y-88450000D03*
X244700000Y-54675000D03*
X228100000Y-58250000D03*
X264015477Y-109450000D03*
X100400000Y-99950000D03*
X233900000Y-84100000D03*
X249250000Y-84550000D03*
X227800000Y-75950000D03*
X237015477Y-52450000D03*
X93600000Y-99950000D03*
X250300000Y-65250000D03*
X225000000Y-108800000D03*
X258850000Y-85325000D03*
X129000000Y-113600000D03*
X108015477Y-118450000D03*
X252015477Y-109450000D03*
X255000000Y-85550000D03*
X228250000Y-108850000D03*
X245700000Y-41300000D03*
X240015477Y-118450000D03*
X227800000Y-51300000D03*
X252015477Y-73450000D03*
X153015477Y-121450000D03*
X175400000Y-99975000D03*
X210015477Y-121450000D03*
X115000000Y-43000000D03*
X213900000Y-99950000D03*
X239450000Y-88450000D03*
X173400000Y-47400000D03*
X241900000Y-87150000D03*
X141900000Y-107100000D03*
X180015477Y-121450000D03*
X242700000Y-41300000D03*
X238300000Y-85000000D03*
X139000000Y-47400000D03*
X118400000Y-107100000D03*
X237252677Y-66892677D03*
X253500000Y-84550000D03*
X230500000Y-75942677D03*
X121450000Y-48675000D03*
X213015477Y-121450000D03*
X253500000Y-83550000D03*
X245500000Y-87150000D03*
X258015477Y-112450000D03*
X228015477Y-73450000D03*
X231015477Y-82450000D03*
X192015477Y-115450000D03*
X141015477Y-115450000D03*
X103525000Y-48700000D03*
X240002677Y-76992677D03*
X169375000Y-99975000D03*
X201000000Y-113600000D03*
X201400000Y-47400000D03*
X93015477Y-46450000D03*
X232100000Y-87100000D03*
X208400000Y-107100000D03*
X242800000Y-61800000D03*
X233300000Y-88500000D03*
X236400000Y-100700000D03*
X252025000Y-116075000D03*
X258015477Y-109450000D03*
X108015477Y-121450000D03*
X258015477Y-121450000D03*
X96015477Y-118450000D03*
X204015477Y-118450000D03*
X254800000Y-112500000D03*
X245025000Y-67850000D03*
X236150000Y-89900000D03*
X174015477Y-121450000D03*
X241900000Y-52500000D03*
X264015477Y-103450000D03*
X97125000Y-46925000D03*
X147015477Y-115450000D03*
X233500000Y-80100000D03*
X115400000Y-104800000D03*
X118400000Y-104800000D03*
X99015477Y-106450000D03*
X212350000Y-47400000D03*
X236952677Y-67492677D03*
X183015477Y-121450000D03*
X132015477Y-121450000D03*
X232200000Y-112650000D03*
X215575000Y-97975000D03*
X264015477Y-97450000D03*
X100400000Y-107100000D03*
X250200000Y-80700000D03*
X211400000Y-107100000D03*
X144015477Y-115450000D03*
X117015477Y-106450000D03*
X229800000Y-89900000D03*
X183015477Y-118450000D03*
X139500000Y-99975000D03*
X249500000Y-53125000D03*
X175400000Y-107100000D03*
X224200000Y-48400000D03*
X252015477Y-76450000D03*
X159015477Y-121450000D03*
X110500000Y-104100000D03*
X246700000Y-78300000D03*
X233275000Y-73425000D03*
X233300000Y-87100000D03*
X234500000Y-87100000D03*
X123015477Y-115450000D03*
X150015477Y-118450000D03*
X161575000Y-97950000D03*
X200525000Y-107100000D03*
X252015477Y-58450000D03*
X93000000Y-113600000D03*
X224500000Y-102300000D03*
X187400000Y-99975000D03*
X261015477Y-61450000D03*
X239400000Y-60200000D03*
X228150000Y-66900000D03*
X127000000Y-43025000D03*
X186015477Y-118450000D03*
X99015477Y-115450000D03*
X236400000Y-91200000D03*
X251200000Y-102000000D03*
X172400000Y-107100000D03*
X239950000Y-99800000D03*
X121400000Y-107100000D03*
X136000000Y-43025000D03*
X223600000Y-46600000D03*
X198015477Y-121450000D03*
X135015477Y-121450000D03*
X249400000Y-77900000D03*
X231015477Y-91450000D03*
X259300000Y-93500000D03*
X177800000Y-99975000D03*
X262525000Y-87475000D03*
X121000000Y-43025000D03*
X183000000Y-113600000D03*
X117015477Y-46450000D03*
X222015477Y-115450000D03*
X168015477Y-118450000D03*
X123015477Y-118450000D03*
X240900000Y-63425000D03*
X258500000Y-88850000D03*
X236950000Y-119550000D03*
X253750000Y-110950000D03*
X243015477Y-70450000D03*
X237900000Y-63400000D03*
X239700000Y-41300000D03*
X240800000Y-106500000D03*
X225015477Y-121450000D03*
X263700000Y-41700000D03*
X264015477Y-115450000D03*
X230500000Y-77542677D03*
X234600000Y-66300000D03*
X240015477Y-121450000D03*
X264015477Y-118450000D03*
X117015477Y-115450000D03*
X258000000Y-114500000D03*
X230500000Y-78392677D03*
X126015477Y-121450000D03*
X261015477Y-82450000D03*
X182500000Y-47400000D03*
X110500000Y-99975000D03*
X252015477Y-121450000D03*
X261015477Y-106450000D03*
X186015477Y-121450000D03*
X120015477Y-118450000D03*
X148000000Y-47400000D03*
X120015477Y-121450000D03*
X246015477Y-85450000D03*
X244550000Y-89900000D03*
X197550000Y-97975000D03*
X177800000Y-107100000D03*
X227500000Y-46400000D03*
X232100000Y-89900000D03*
X249250000Y-85550000D03*
X240015477Y-61450000D03*
X107550000Y-97950000D03*
X236400000Y-93100000D03*
X254300000Y-101925000D03*
X216015477Y-121450000D03*
X225015477Y-112450000D03*
X233100000Y-60000000D03*
X253500000Y-85550000D03*
X195015477Y-115450000D03*
X174015477Y-118450000D03*
X240100000Y-83700000D03*
X174015477Y-115450000D03*
X237625000Y-104775000D03*
X127000000Y-47550000D03*
X227800000Y-77550000D03*
X236400000Y-54500000D03*
X153015477Y-115450000D03*
X244300000Y-87150000D03*
X245500000Y-88450000D03*
X189015477Y-118450000D03*
X242102677Y-76892677D03*
X239500000Y-110900000D03*
X232100000Y-88500000D03*
X251700000Y-41000000D03*
X225015477Y-115450000D03*
X136500000Y-99975000D03*
X249700000Y-108300000D03*
X103400000Y-99975000D03*
X205400000Y-99975000D03*
X239502677Y-66892677D03*
X253450000Y-108325000D03*
X229600000Y-111800000D03*
X189015477Y-115450000D03*
X105015477Y-118450000D03*
X258015477Y-118450000D03*
X232400000Y-66300000D03*
X231015477Y-73450000D03*
X147015477Y-121450000D03*
X102015477Y-106450000D03*
X121400000Y-99975000D03*
X258015477Y-64450000D03*
X232400000Y-67500000D03*
X244100000Y-77600000D03*
X241225000Y-48950000D03*
X239900000Y-57050000D03*
X254650000Y-82300000D03*
X240500000Y-57050000D03*
X242100000Y-97900000D03*
X240500000Y-44750000D03*
X240500000Y-57650000D03*
X234200000Y-115900000D03*
X235050000Y-115900000D03*
X251050000Y-103500000D03*
X258150000Y-99850000D03*
X234200000Y-116850000D03*
X235050000Y-116850000D03*
X256100000Y-92550000D03*
X88625000Y-82850000D03*
X92925000Y-41300000D03*
X239900000Y-57650000D03*
X246500000Y-57300000D03*
X243425000Y-100875000D03*
X76200000Y-84400000D03*
X246050000Y-70800000D03*
X231125000Y-111625000D03*
X240502677Y-71342677D03*
X144800000Y-43100000D03*
X240502677Y-71942677D03*
X241702677Y-71942677D03*
X241102677Y-71342677D03*
X198800000Y-43100000D03*
X241102677Y-71942677D03*
X226250000Y-88675000D03*
X199700000Y-43100000D03*
X148700000Y-119900000D03*
X147600000Y-119900000D03*
X219800000Y-119900000D03*
X220900000Y-119900000D03*
X241702677Y-71342677D03*
X145700000Y-43100000D03*
X78015477Y-85450000D03*
X61860200Y-97642742D03*
X91200000Y-52900000D03*
X66015477Y-49450000D03*
X46307500Y-61700000D03*
X61000000Y-50300000D03*
X69015477Y-100450000D03*
X69373670Y-94892500D03*
X45015477Y-73450000D03*
X57015477Y-115450000D03*
X89641970Y-85000331D03*
X63000000Y-50300000D03*
X90400000Y-41300000D03*
X75015477Y-121450000D03*
X75410292Y-97292500D03*
X92517848Y-88937784D03*
X51015477Y-67450000D03*
X178175000Y-92000000D03*
X53313345Y-56489598D03*
X78015477Y-91450000D03*
X121200000Y-88975000D03*
X76400000Y-94600000D03*
X69015477Y-64450000D03*
X54015477Y-76450000D03*
X54015477Y-118450000D03*
X193175000Y-88975000D03*
X63015477Y-76450000D03*
X63015477Y-67450000D03*
X48015477Y-85450000D03*
X45015477Y-49450000D03*
X81015477Y-67450000D03*
X60015477Y-115450000D03*
X55442182Y-101300000D03*
X54015477Y-46450000D03*
X57015477Y-97450000D03*
X77425000Y-94175000D03*
X81015477Y-115450000D03*
X66015477Y-118450000D03*
X60015477Y-97450000D03*
X81015477Y-46450000D03*
X53434475Y-101300000D03*
X62000000Y-50300000D03*
X141350000Y-92000000D03*
X72015477Y-106450000D03*
X69015477Y-109450000D03*
X211200000Y-90991666D03*
X61000000Y-53200000D03*
X103200000Y-90991666D03*
X79444251Y-92515113D03*
X63000000Y-53200000D03*
X160175000Y-88975000D03*
X54015477Y-79450000D03*
X58146563Y-55050492D03*
X78015477Y-58450000D03*
X72015477Y-88450000D03*
X54015477Y-43450000D03*
X78000000Y-99950000D03*
X69015477Y-67450000D03*
X57015477Y-58450000D03*
X75015477Y-91450000D03*
X69015477Y-46450000D03*
X45015477Y-115450000D03*
X175175000Y-92000000D03*
X55794441Y-57402613D03*
X81310630Y-90648733D03*
X60015477Y-109450000D03*
X48716589Y-59300360D03*
X51015477Y-64450000D03*
X45015477Y-91450000D03*
X50521591Y-61456560D03*
X57015477Y-106450000D03*
X54015477Y-88450000D03*
X60015477Y-106450000D03*
X57362522Y-55834532D03*
X58017588Y-51785355D03*
X56446036Y-103700000D03*
X72015477Y-118450000D03*
X66015477Y-79450000D03*
X64800000Y-52600000D03*
X48015477Y-121450000D03*
X80999887Y-94070748D03*
X75015477Y-58450000D03*
X194175000Y-88975000D03*
X60015477Y-85450000D03*
X78015477Y-55450000D03*
X72015477Y-115450000D03*
X87015477Y-121450000D03*
X78015477Y-46450000D03*
X60000000Y-50300000D03*
X87015477Y-106450000D03*
X48415207Y-103700000D03*
X48015477Y-109450000D03*
X46307500Y-59300000D03*
X211200000Y-89983333D03*
X87015477Y-91450000D03*
X64000000Y-50300000D03*
X47526768Y-59300000D03*
X78015477Y-118450000D03*
X51015477Y-94450000D03*
X72015477Y-55450000D03*
X123200000Y-92000000D03*
X54015477Y-67450000D03*
X54015477Y-82450000D03*
X54097385Y-55705557D03*
X48015477Y-106450000D03*
X78015477Y-64450000D03*
X105200000Y-88975000D03*
X45015477Y-88450000D03*
X48015477Y-64450000D03*
X84250000Y-51325000D03*
X51015477Y-112450000D03*
X51426768Y-103700000D03*
X90522168Y-92758460D03*
X90015477Y-79450000D03*
X87015477Y-76450000D03*
X47526768Y-61700000D03*
X58221591Y-103456560D03*
X65304006Y-95220887D03*
X54015477Y-49450000D03*
X66015477Y-61450000D03*
X57015477Y-82450000D03*
X51015477Y-79450000D03*
X80377440Y-91581923D03*
X86045942Y-86095018D03*
X74404188Y-94892500D03*
X81015477Y-58450000D03*
X79300000Y-96075000D03*
X88600000Y-90700000D03*
X84110199Y-87849164D03*
X72200000Y-94892500D03*
X51015477Y-52450000D03*
X90522500Y-93851808D03*
X90669473Y-91616856D03*
X89375000Y-87199669D03*
X78015477Y-121450000D03*
X88000000Y-94900000D03*
X69015477Y-61450000D03*
X142350000Y-92000000D03*
X194175000Y-92000000D03*
X87015477Y-94450000D03*
X60015477Y-94450000D03*
X60015477Y-55450000D03*
X46407500Y-103700000D03*
X57325000Y-103650000D03*
X87015477Y-64450000D03*
X61055221Y-98447721D03*
X81015477Y-55450000D03*
X51015477Y-49450000D03*
X48415207Y-101300000D03*
X90500000Y-97600000D03*
X48015477Y-88450000D03*
X50422914Y-103700000D03*
X53434475Y-103700000D03*
X84015477Y-55450000D03*
X66015477Y-115450000D03*
X63015477Y-46450000D03*
X78015477Y-106450000D03*
X47411353Y-101300000D03*
X69015477Y-52450000D03*
X87450000Y-87825000D03*
X51745264Y-58057679D03*
X193175000Y-92000000D03*
X48015477Y-55450000D03*
X75015477Y-115450000D03*
X45015477Y-70450000D03*
X63015477Y-115450000D03*
X63015477Y-103450000D03*
X72015477Y-67450000D03*
X65232888Y-97866898D03*
X124200000Y-92000000D03*
X160175000Y-92000000D03*
X57015477Y-109450000D03*
X72015477Y-112450000D03*
X66015477Y-64450000D03*
X45015477Y-82450000D03*
X78350000Y-97700000D03*
X75015477Y-112450000D03*
X63015477Y-55450000D03*
X90015477Y-103450000D03*
X63557256Y-99339798D03*
X214200000Y-92000000D03*
X75015477Y-46450000D03*
X121200000Y-90991666D03*
X212200000Y-92000000D03*
X196175000Y-92000000D03*
X91200000Y-50600000D03*
X63015477Y-106450000D03*
X55442182Y-103700000D03*
X60015477Y-43450000D03*
X45015477Y-121450000D03*
X51015477Y-121450000D03*
X75015477Y-49450000D03*
X58574613Y-100725597D03*
X91812963Y-89642203D03*
X66015477Y-103450000D03*
X64000000Y-53200000D03*
X78015477Y-67450000D03*
X57015477Y-49450000D03*
X55665466Y-54137476D03*
X84015477Y-106450000D03*
X84015477Y-121450000D03*
X72015477Y-91450000D03*
X72015477Y-49450000D03*
X87015477Y-79450000D03*
X87015477Y-55450000D03*
X45015477Y-109450000D03*
X84000000Y-42100000D03*
X69015477Y-121450000D03*
X78015477Y-112450000D03*
X57015477Y-85450000D03*
X74404188Y-97292500D03*
X78015477Y-115450000D03*
X69015477Y-91450000D03*
X62752277Y-100144777D03*
X77200000Y-97925000D03*
X90015477Y-82450000D03*
X85250000Y-54200000D03*
X214200000Y-88975000D03*
X87015477Y-49450000D03*
X158175000Y-88975000D03*
X72015477Y-43450000D03*
X90219621Y-88125211D03*
X85250000Y-51325000D03*
X142350000Y-88975000D03*
X85300000Y-97500000D03*
X87015477Y-115450000D03*
X60015477Y-46450000D03*
X106200000Y-92000000D03*
X54015477Y-91450000D03*
X75015477Y-109450000D03*
X68367566Y-97292500D03*
X45015477Y-67450000D03*
X51015477Y-106450000D03*
X72015477Y-61450000D03*
X66015477Y-46450000D03*
X48015477Y-73450000D03*
X63015477Y-121450000D03*
X57015477Y-76450000D03*
X90200000Y-87200000D03*
X82350000Y-54150000D03*
X88322500Y-92731463D03*
X48015477Y-79450000D03*
X89400000Y-97900000D03*
X84015477Y-76450000D03*
X157175000Y-88975000D03*
X60015477Y-112450000D03*
X124200000Y-88975000D03*
X54438328Y-101300000D03*
X175175000Y-90991666D03*
X66015477Y-91450000D03*
X90015477Y-121450000D03*
X54438328Y-103700000D03*
X60254596Y-102497529D03*
X75015477Y-55450000D03*
X66015477Y-106450000D03*
X57015477Y-118450000D03*
X57015477Y-64450000D03*
X75015477Y-73450000D03*
X48015477Y-70450000D03*
X50422914Y-101300000D03*
X87050000Y-99950000D03*
X45015477Y-106450000D03*
X88991131Y-89853245D03*
X85665835Y-89404799D03*
X178175000Y-88975000D03*
X56446036Y-101300000D03*
X78511061Y-93448302D03*
X88700000Y-51100000D03*
X87875000Y-51625000D03*
X48015477Y-97450000D03*
X45015477Y-52450000D03*
X69015477Y-58450000D03*
X60015477Y-121450000D03*
X82350000Y-51325000D03*
X52430621Y-103700000D03*
X51015477Y-88450000D03*
X57015477Y-67450000D03*
X212200000Y-88975000D03*
X82243820Y-89715544D03*
X84015477Y-61450000D03*
X51579660Y-61065157D03*
X103200000Y-89983333D03*
X66015477Y-85450000D03*
X81015477Y-73450000D03*
X69015477Y-49450000D03*
X87700000Y-96800000D03*
X69015477Y-76450000D03*
X81015477Y-64450000D03*
X105200000Y-92000000D03*
X63015477Y-112450000D03*
X87000000Y-42100000D03*
X88325000Y-87400000D03*
X66015477Y-52450000D03*
X75015477Y-67450000D03*
X81015477Y-49450000D03*
X71385877Y-94892500D03*
X75015477Y-106450000D03*
X84950000Y-86950000D03*
X64341157Y-98555387D03*
X69015477Y-118450000D03*
X51015477Y-70450000D03*
X54015477Y-85450000D03*
X82866266Y-92204368D03*
X66015477Y-55450000D03*
X48015477Y-91450000D03*
X71385877Y-97292500D03*
X69015477Y-103450000D03*
X213200000Y-88975000D03*
X88400000Y-91700000D03*
X69373670Y-97292500D03*
X81000000Y-42100000D03*
X69015477Y-70450000D03*
X90200000Y-99950000D03*
X60015477Y-67450000D03*
X139350000Y-88975000D03*
X47411353Y-103700000D03*
X84015477Y-49450000D03*
X62686257Y-96817197D03*
X158175000Y-92000000D03*
X60015477Y-91450000D03*
X60015477Y-118450000D03*
X48015477Y-82450000D03*
X195175000Y-92000000D03*
X121200000Y-89983333D03*
X83799456Y-91271179D03*
X72015477Y-85450000D03*
X69015477Y-55450000D03*
X90900000Y-94972154D03*
X139350000Y-89983333D03*
X54881426Y-54921517D03*
X81015477Y-103450000D03*
X79050000Y-97075000D03*
X91100000Y-96800000D03*
X76300000Y-97700000D03*
X66015477Y-121450000D03*
X58900041Y-51110898D03*
X84732645Y-90337989D03*
X75015477Y-64450000D03*
X87600000Y-95800000D03*
X70379774Y-97292500D03*
X140350000Y-92000000D03*
X52430621Y-101300000D03*
X88800000Y-53775000D03*
X78015477Y-43450000D03*
X49600000Y-61600000D03*
X72015477Y-46450000D03*
X87015477Y-58450000D03*
X211200000Y-92000000D03*
X54015477Y-70450000D03*
X57015477Y-94450000D03*
X69015477Y-79450000D03*
X81700000Y-53700000D03*
X63015477Y-43450000D03*
X45015477Y-118450000D03*
X48015477Y-94450000D03*
X84015477Y-115450000D03*
X89700000Y-50600000D03*
X78015477Y-52450000D03*
X139350000Y-90991666D03*
X87015477Y-46450000D03*
X84015477Y-85450000D03*
X157175000Y-89983333D03*
X57015477Y-91450000D03*
X57015477Y-79450000D03*
X66015477Y-88450000D03*
X54015477Y-94450000D03*
X54015477Y-73450000D03*
X45015477Y-76450000D03*
X75015477Y-100450000D03*
X75015477Y-76450000D03*
X88400000Y-97600000D03*
X83250000Y-54150000D03*
X45015477Y-97450000D03*
X72015477Y-100450000D03*
X46407500Y-101300000D03*
X56449507Y-53353436D03*
X81933076Y-93137558D03*
X81015477Y-61450000D03*
X90962214Y-87382150D03*
X81015477Y-97450000D03*
X123200000Y-88975000D03*
X121200000Y-92000000D03*
X60015477Y-73450000D03*
X54015477Y-106450000D03*
X67361463Y-94892500D03*
X69015477Y-88450000D03*
X59466347Y-100037107D03*
X57015477Y-43450000D03*
X69015477Y-43450000D03*
X84015477Y-46450000D03*
X75015477Y-88450000D03*
X53421237Y-59775307D03*
X72015477Y-79450000D03*
X45015477Y-43450000D03*
X48015477Y-76450000D03*
X58930603Y-54266451D03*
X48015477Y-67450000D03*
X141350000Y-88975000D03*
X54015477Y-97450000D03*
X81015477Y-121450000D03*
X57015477Y-88450000D03*
X75015477Y-79450000D03*
X66015477Y-109450000D03*
X63015477Y-61450000D03*
X81015477Y-106450000D03*
X75410292Y-94892500D03*
X87015477Y-67450000D03*
X81015477Y-70450000D03*
X48746036Y-61700000D03*
X51015477Y-97450000D03*
X177175000Y-88975000D03*
X54015477Y-115450000D03*
X81015477Y-118450000D03*
X51015477Y-55450000D03*
X60015477Y-61450000D03*
X90800000Y-84975000D03*
X66015477Y-112450000D03*
X87015477Y-61450000D03*
X175175000Y-88975000D03*
X84275000Y-54175000D03*
X51015477Y-76450000D03*
X140350000Y-88975000D03*
X51015477Y-82450000D03*
X75015477Y-118450000D03*
X60015477Y-82450000D03*
X72015477Y-103450000D03*
X60015477Y-79450000D03*
X51015477Y-91450000D03*
X193175000Y-90991666D03*
X73398085Y-97292500D03*
X89535515Y-88939604D03*
X90015477Y-106450000D03*
X84015477Y-82450000D03*
X66015477Y-70450000D03*
X56578482Y-56618573D03*
X89700000Y-53300000D03*
X78015477Y-61450000D03*
X103200000Y-92000000D03*
X45015477Y-85450000D03*
X75015477Y-103450000D03*
X51015477Y-109450000D03*
X54015477Y-52450000D03*
X69015477Y-106450000D03*
X175175000Y-89983333D03*
X60250242Y-99252700D03*
X122200000Y-88975000D03*
X195175000Y-88975000D03*
X72015477Y-121450000D03*
X68367566Y-94892500D03*
X72015477Y-70450000D03*
X57533975Y-101156644D03*
X81015477Y-109450000D03*
X48015477Y-49450000D03*
X106200000Y-88975000D03*
X72015477Y-58450000D03*
X159175000Y-88975000D03*
X63015477Y-118450000D03*
X48015477Y-52450000D03*
X45015477Y-64450000D03*
X84000000Y-99950000D03*
X66305239Y-94978194D03*
X50874613Y-58725597D03*
X51426768Y-101300000D03*
X87015477Y-103450000D03*
X54015477Y-109450000D03*
X63015477Y-109450000D03*
X66015477Y-43450000D03*
X87000000Y-51625000D03*
X64800000Y-50900000D03*
X55010401Y-58186654D03*
X81015477Y-112450000D03*
X88322500Y-93851808D03*
X54226360Y-58970694D03*
X69015477Y-112450000D03*
X69015477Y-115450000D03*
X78015477Y-49450000D03*
X61142320Y-101754735D03*
X75015477Y-52450000D03*
X87000000Y-53925000D03*
X157175000Y-92000000D03*
X87165620Y-85497944D03*
X81700000Y-51900000D03*
X66015477Y-73450000D03*
X45015477Y-94450000D03*
X78015477Y-88450000D03*
X51015477Y-85450000D03*
X88379548Y-85128407D03*
X49833975Y-59156644D03*
X49419060Y-103700000D03*
X193175000Y-89983333D03*
X49419060Y-101300000D03*
X93241587Y-88214045D03*
X45015477Y-79450000D03*
X51015477Y-73450000D03*
X91109888Y-90553599D03*
X86250000Y-51325000D03*
X66015477Y-100450000D03*
X45015477Y-112450000D03*
X69015477Y-73450000D03*
X81015477Y-88450000D03*
X80066697Y-95003937D03*
X66015477Y-58450000D03*
X57015477Y-61450000D03*
X159175000Y-92000000D03*
X54015477Y-112450000D03*
X139350000Y-92000000D03*
X72200000Y-97292500D03*
X63472638Y-96151495D03*
X75015477Y-70450000D03*
X52529304Y-57273638D03*
X70379774Y-94892500D03*
X54015477Y-64450000D03*
X72015477Y-73450000D03*
X87875000Y-53900000D03*
X72015477Y-76450000D03*
X72015477Y-109450000D03*
X177175000Y-92000000D03*
X57015477Y-46450000D03*
X57233547Y-52569395D03*
X60015477Y-76450000D03*
X72015477Y-52450000D03*
X75015477Y-85450000D03*
X73398085Y-94892500D03*
X86579703Y-88490463D03*
X67361463Y-97292500D03*
X60015477Y-88450000D03*
X157175000Y-90991666D03*
X75015477Y-61450000D03*
X84015477Y-103450000D03*
X84015477Y-118450000D03*
X54015477Y-121450000D03*
X104200000Y-92000000D03*
X78015477Y-103450000D03*
X64900000Y-51800000D03*
X72015477Y-64450000D03*
X57015477Y-121450000D03*
X211200000Y-88975000D03*
X57015477Y-112450000D03*
X48015477Y-112450000D03*
X59279660Y-103065157D03*
X81700000Y-52750000D03*
X103200000Y-88975000D03*
X213200000Y-92000000D03*
X104200000Y-88975000D03*
X75015477Y-43450000D03*
X86250000Y-54175000D03*
X59714644Y-53482411D03*
X45015477Y-46450000D03*
X176175000Y-92000000D03*
X66015477Y-67450000D03*
X87015477Y-118450000D03*
X83177009Y-88782354D03*
X196175000Y-88975000D03*
X62000000Y-53200000D03*
X52554596Y-60497529D03*
X122200000Y-92000000D03*
X69015477Y-85450000D03*
X176175000Y-88975000D03*
X61947298Y-100949756D03*
X81000000Y-99950000D03*
X83250000Y-51325000D03*
X45015477Y-55450000D03*
X224225000Y-49875000D03*
X223475000Y-50650000D03*
X230700000Y-93710000D03*
X203550000Y-105500000D03*
X218875000Y-43850000D03*
X161400000Y-101428575D03*
X230550000Y-100050000D03*
X95650000Y-47250000D03*
X167462500Y-43687500D03*
X149500000Y-100614290D03*
X223330000Y-101330000D03*
X217932142Y-44757142D03*
X179517858Y-44650000D03*
X179500000Y-103057145D03*
X185625000Y-45664284D03*
X230700000Y-97520000D03*
X220675000Y-45800000D03*
X230700000Y-98790000D03*
X167500000Y-102214290D03*
X219625000Y-46650000D03*
X197596426Y-46650000D03*
X199146432Y-48150000D03*
X197550000Y-104685715D03*
X230700000Y-94980000D03*
X222500000Y-48150000D03*
X230700000Y-96250000D03*
X185400000Y-103871430D03*
X216700000Y-49000000D03*
X221600000Y-49000000D03*
X178150000Y-52200000D03*
X205207500Y-52207500D03*
X187200000Y-52200000D03*
X196100000Y-52200000D03*
X230200000Y-61800000D03*
X232200000Y-48900000D03*
X259600000Y-47500000D03*
X252800000Y-47100000D03*
X260500000Y-65150000D03*
X247325000Y-53275000D03*
X252600000Y-99250000D03*
X252000000Y-97700000D03*
X243900000Y-50050000D03*
X246175000Y-54875000D03*
X252000000Y-98700000D03*
X264200000Y-43700000D03*
X251400000Y-56000000D03*
X261950000Y-55800000D03*
X253350000Y-52300000D03*
X258500000Y-51000000D03*
X258500000Y-48400000D03*
X263400000Y-55800000D03*
X257250000Y-43700000D03*
X259300000Y-55800000D03*
X254600000Y-56000000D03*
X251350000Y-46850000D03*
X260550000Y-55800000D03*
X250800000Y-53600000D03*
X260225000Y-43675000D03*
X251350000Y-52300000D03*
X256100000Y-104400000D03*
X248700000Y-116100000D03*
X248500000Y-106900000D03*
X250900000Y-95950000D03*
X263375000Y-94875000D03*
X249570190Y-98229810D03*
X250000000Y-49200000D03*
X250029810Y-97770190D03*
X250000000Y-49850000D03*
X77800000Y-82500000D03*
X248650000Y-98800000D03*
X61700000Y-82500000D03*
X88800000Y-43750000D03*
X246600000Y-102000000D03*
X134300000Y-115400000D03*
X79000000Y-89200000D03*
X231600000Y-87800000D03*
X246800000Y-102700000D03*
X205200000Y-115300000D03*
X236475000Y-85600000D03*
X247150000Y-98450000D03*
X63000000Y-87800000D03*
X231600000Y-89200000D03*
X250900000Y-94825000D03*
X261350000Y-63850000D03*
X234950000Y-111100000D03*
X254700000Y-105050000D03*
X255594502Y-49829896D03*
X255900000Y-48780000D03*
X238900000Y-87075000D03*
X246566934Y-99047711D03*
D23*
X244100000Y-77600000D02*
X244100000Y-52800000D01*
X244100000Y-52800000D02*
X241225000Y-49925000D01*
X241225000Y-49925000D02*
X241225000Y-48950000D01*
D24*
X90550000Y-42875000D02*
X90550000Y-76000000D01*
X240500000Y-44750000D02*
X239900000Y-45350000D01*
X86200000Y-84400000D02*
X76200000Y-84400000D01*
X88625000Y-82850000D02*
X87750000Y-82850000D01*
X92125000Y-41300000D02*
X90550000Y-42875000D01*
X92925000Y-41300000D02*
X92125000Y-41300000D01*
X87750000Y-82850000D02*
X86200000Y-84400000D01*
X239900000Y-45350000D02*
X239900000Y-57050000D01*
X88625000Y-77925000D02*
X88625000Y-82850000D01*
X90550000Y-76000000D02*
X88625000Y-77925000D01*
D25*
X143657500Y-107356790D02*
X144700000Y-106314290D01*
X224225000Y-49875000D02*
X224200000Y-49850000D01*
X215540000Y-107390000D02*
X215540000Y-108317500D01*
X149657500Y-50410352D02*
X149657500Y-55117500D01*
X214464290Y-106314290D02*
X215540000Y-107390000D01*
X144700000Y-106314290D02*
X214464290Y-106314290D01*
X150217852Y-49850000D02*
X149657500Y-50410352D01*
X224200000Y-49850000D02*
X150217852Y-49850000D01*
X217644594Y-107525000D02*
X233000000Y-107525000D01*
X215619594Y-105500000D02*
X217644594Y-107525000D01*
X203550000Y-105500000D02*
X215619594Y-105500000D01*
X131657500Y-106506790D02*
X131657500Y-108317500D01*
X162150000Y-50650000D02*
X161657500Y-51142500D01*
X203550000Y-105500000D02*
X132664290Y-105500000D01*
X233100000Y-93700000D02*
X230700000Y-93700000D01*
X132664290Y-105500000D02*
X131657500Y-106506790D01*
X233000000Y-107525000D02*
X234716665Y-105808335D01*
X223475000Y-50650000D02*
X162150000Y-50650000D01*
X234716665Y-105808335D02*
X234716665Y-95316665D01*
X161657500Y-51142500D02*
X161657500Y-55117500D01*
X234716665Y-95316665D02*
X233100000Y-93700000D01*
X90585715Y-101428575D02*
X89422500Y-102591790D01*
X167425000Y-43650000D02*
X167400000Y-43675000D01*
X167425000Y-43650000D02*
X167450000Y-43675000D01*
X199963173Y-43650000D02*
X218675000Y-43650000D01*
X230200000Y-103400000D02*
X230550000Y-103050000D01*
X218364285Y-101428575D02*
X220335710Y-103400000D01*
X199938173Y-43675000D02*
X199963173Y-43650000D01*
X95650000Y-47250000D02*
X95650000Y-55110000D01*
X230550000Y-103050000D02*
X230550000Y-100050000D01*
X220335710Y-103400000D02*
X230200000Y-103400000D01*
X167450000Y-43675000D02*
X199938173Y-43675000D01*
X96725000Y-43675000D02*
X95650000Y-44750000D01*
X95650000Y-44750000D02*
X95650000Y-47250000D01*
X89422500Y-102591790D02*
X89422500Y-108292500D01*
X161400000Y-101428575D02*
X90585715Y-101428575D01*
X167400000Y-43675000D02*
X96725000Y-43675000D01*
X218675000Y-43650000D02*
X218875000Y-43850000D01*
X167462500Y-43687500D02*
X167425000Y-43650000D01*
X95650000Y-55110000D02*
X95657500Y-55117500D01*
X161400000Y-101428575D02*
X218364285Y-101428575D01*
X179517858Y-44650000D02*
X217825000Y-44650000D01*
X219064290Y-100614290D02*
X149500000Y-100614290D01*
X217825000Y-44650000D02*
X217932142Y-44757142D01*
X77422500Y-101841790D02*
X77422500Y-108292500D01*
X107657500Y-45630000D02*
X107657500Y-55117500D01*
X108637500Y-44650000D02*
X107657500Y-45630000D01*
X149500000Y-100614290D02*
X78650000Y-100614290D01*
X223330000Y-101330000D02*
X219780000Y-101330000D01*
X179517858Y-44650000D02*
X108637500Y-44650000D01*
X219780000Y-101330000D02*
X219064290Y-100614290D01*
X78650000Y-100614290D02*
X77422500Y-101841790D01*
X232216666Y-98366666D02*
X231350000Y-97500000D01*
X107540000Y-104174290D02*
X107540000Y-108317500D01*
X185625000Y-45664284D02*
X220539284Y-45664284D01*
X219235710Y-105050000D02*
X231400000Y-105050000D01*
X217242855Y-103057145D02*
X219235710Y-105050000D01*
X231350000Y-97500000D02*
X230700000Y-97500000D01*
X114523216Y-45664284D02*
X185625000Y-45664284D01*
X108657145Y-103057145D02*
X107540000Y-104174290D01*
X113500000Y-46687500D02*
X114523216Y-45664284D01*
X179500000Y-103057145D02*
X217242855Y-103057145D01*
X220539284Y-45664284D02*
X220675000Y-45800000D01*
X113657500Y-55117500D02*
X113500000Y-54960000D01*
X231400000Y-105050000D02*
X232216666Y-104233334D01*
X232216666Y-104233334D02*
X232216666Y-98366666D01*
X113500000Y-54960000D02*
X113500000Y-46687500D01*
X179500000Y-103057145D02*
X108657145Y-103057145D01*
X219760710Y-104225000D02*
X230850000Y-104225000D01*
X217750000Y-102214290D02*
X219760710Y-104225000D01*
X230700000Y-98790000D02*
X230700000Y-98800000D01*
X197596426Y-46650000D02*
X126612500Y-46650000D01*
X167500000Y-102242860D02*
X96750000Y-102242860D01*
X95540000Y-103452860D02*
X95540000Y-108317500D01*
X167500000Y-102214290D02*
X217750000Y-102214290D01*
X231383333Y-99473333D02*
X230700000Y-98790000D01*
X230850000Y-104225000D02*
X231350000Y-103725000D01*
X96750000Y-102242860D02*
X95540000Y-103452860D01*
X126612500Y-46650000D02*
X125657500Y-47605000D01*
X231383333Y-103691667D02*
X231383333Y-99473333D01*
X125657500Y-47605000D02*
X125657500Y-55117500D01*
X219625000Y-46650000D02*
X197596426Y-46650000D01*
X230700000Y-95000000D02*
X232550000Y-95000000D01*
X233883332Y-96333332D02*
X233883332Y-105366668D01*
X125540000Y-105674290D02*
X125540000Y-108317500D01*
X199146432Y-48150000D02*
X222500000Y-48150000D01*
X131850000Y-48150000D02*
X131657500Y-48342500D01*
X199146432Y-48150000D02*
X131850000Y-48150000D01*
X233883332Y-105366668D02*
X232550000Y-106700000D01*
X131657500Y-48342500D02*
X131657500Y-55117500D01*
X232550000Y-95000000D02*
X233883332Y-96333332D01*
X216221425Y-104685715D02*
X197550000Y-104685715D01*
X232550000Y-106700000D02*
X218235710Y-106700000D01*
X126528575Y-104685715D02*
X125540000Y-105674290D01*
X218235710Y-106700000D02*
X216221425Y-104685715D01*
X197550000Y-104685715D02*
X126528575Y-104685715D01*
X218760710Y-105875000D02*
X231850000Y-105875000D01*
X143657500Y-49142500D02*
X143657500Y-55117500D01*
X185400000Y-103871430D02*
X114492860Y-103871430D01*
X143800000Y-49000000D02*
X143657500Y-49142500D01*
X233049999Y-104675001D02*
X233049999Y-97549999D01*
X216700000Y-49000000D02*
X143800000Y-49000000D01*
X216757140Y-103871430D02*
X218760710Y-105875000D01*
X216700000Y-49000000D02*
X221600000Y-49000000D01*
X114492860Y-103871430D02*
X113540000Y-104824290D01*
X113540000Y-104824290D02*
X113540000Y-108317500D01*
X231850000Y-105875000D02*
X233049999Y-104675001D01*
X185400000Y-103871430D02*
X216757140Y-103871430D01*
X233049999Y-97549999D02*
X231750000Y-96250000D01*
X231750000Y-96250000D02*
X230700000Y-96250000D01*
D24*
X205207500Y-52207500D02*
X196107500Y-52207500D01*
X187200000Y-52200000D02*
X178150000Y-52200000D01*
X196107500Y-52207500D02*
X196100000Y-52200000D01*
D23*
X230200000Y-61800000D02*
X230200000Y-56700000D01*
X229700000Y-48900000D02*
X232200000Y-48900000D01*
X230200000Y-56700000D02*
X229000000Y-55500000D01*
X229000000Y-55500000D02*
X229000000Y-49600000D01*
X229000000Y-49600000D02*
X229700000Y-48900000D01*
D24*
X252800000Y-47100000D02*
X253200000Y-47500000D01*
X253200000Y-47500000D02*
X259600000Y-47500000D01*
D26*
X88031852Y-86349282D02*
X88490616Y-86226352D01*
X87155100Y-86712454D02*
X87585548Y-86511728D01*
X211706207Y-76256207D02*
X209400000Y-73950000D01*
X86743785Y-86949932D02*
X87155100Y-86712454D01*
X88958348Y-86143875D02*
X208274491Y-86143875D01*
X85990904Y-87527650D02*
X86354732Y-87222355D01*
X87585548Y-86511728D02*
X88031852Y-86349282D01*
X85821207Y-87693792D02*
X85990904Y-87527650D01*
X88490616Y-86226352D02*
X88958348Y-86143875D01*
X213300000Y-81118366D02*
X213300000Y-80103963D01*
X86354732Y-87222355D02*
X86743785Y-86949932D01*
X209400000Y-73950000D02*
X209400000Y-73800000D01*
X77422500Y-96092500D02*
X85821207Y-87693792D01*
X208274491Y-86143875D02*
G75*
G03*
X211828060Y-84671935I9J5025475D01*
G01*
X211828062Y-84671937D02*
G75*
G03*
X213299978Y-81118366I-3553562J3553537D01*
G01*
X213300000Y-80103963D02*
G75*
G03*
X211706199Y-76256215I-5441600J-37D01*
G01*
D23*
X262600000Y-78200000D02*
X262050000Y-78750000D01*
X262000000Y-65150000D02*
X262600000Y-65750000D01*
X260500000Y-65150000D02*
X262000000Y-65150000D01*
X262050000Y-78750000D02*
X260100000Y-78750000D01*
X262600000Y-65750000D02*
X262600000Y-78200000D01*
X259100000Y-103350000D02*
X260900000Y-103350000D01*
X258050000Y-104400000D02*
X259100000Y-103350000D01*
X256100000Y-104400000D02*
X258050000Y-104400000D01*
D26*
X121673881Y-111567499D02*
X135523618Y-111567499D01*
X84047499Y-110917499D02*
X83422500Y-110292500D01*
X139791381Y-111567499D02*
X153406118Y-111567499D01*
X103673881Y-111567499D02*
X117406118Y-111567499D01*
X207406118Y-111567499D02*
X193673881Y-111567499D01*
X174692499Y-110942499D02*
X174253999Y-110503999D01*
X208915000Y-110942499D02*
X209540000Y-110317500D01*
X157673881Y-111567499D02*
X171406118Y-111567499D01*
X189406118Y-111567499D02*
X176201381Y-111567499D01*
X85556381Y-111542499D02*
X99448795Y-111542499D01*
X172915000Y-110942499D02*
X173353500Y-110503999D01*
X102164999Y-110942499D02*
X102152499Y-110929999D01*
X174692499Y-110942499D02*
G75*
G03*
X176201381Y-111567507I1508901J1508899D01*
G01*
X121673881Y-111567499D02*
G75*
G02*
X120165005Y-110942493I19J2133899D01*
G01*
X154915000Y-110942499D02*
G75*
G02*
X153406118Y-111567506I-1508900J1508899D01*
G01*
X103673881Y-111567499D02*
G75*
G02*
X102165005Y-110942493I19J2133899D01*
G01*
X138282499Y-110942499D02*
G75*
G03*
X137032499Y-110942498I-625000J-624997D01*
G01*
X100927500Y-110929999D02*
G75*
G02*
X99448795Y-111542497I-1478700J1478699D01*
G01*
X190915000Y-110942499D02*
G75*
G02*
X189406118Y-111567506I-1508900J1508899D01*
G01*
X85556381Y-111542499D02*
G75*
G02*
X84047505Y-110917493I19J2133899D01*
G01*
X102152499Y-110929999D02*
G75*
G03*
X100927501Y-110929999I-612499J-612498D01*
G01*
X174253999Y-110503999D02*
G75*
G03*
X173803750Y-110317521I-450199J-450201D01*
G01*
X190915000Y-110942499D02*
G75*
G02*
X192164998Y-110942499I624999J-624997D01*
G01*
X139791381Y-111567499D02*
G75*
G02*
X138282505Y-110942493I19J2133899D01*
G01*
X207406118Y-111567499D02*
G75*
G03*
X208914995Y-110942494I-18J2133899D01*
G01*
X173353500Y-110503999D02*
G75*
G02*
X173803750Y-110317520I450200J-450201D01*
G01*
X156164999Y-110942499D02*
G75*
G03*
X154914999Y-110942498I-625000J-624997D01*
G01*
X137032500Y-110942499D02*
G75*
G02*
X135523618Y-111567506I-1508900J1508899D01*
G01*
X172915000Y-110942499D02*
G75*
G02*
X171406118Y-111567506I-1508900J1508899D01*
G01*
X157673881Y-111567499D02*
G75*
G02*
X156165005Y-110942493I19J2133899D01*
G01*
X193673881Y-111567499D02*
G75*
G02*
X192165005Y-110942493I19J2133899D01*
G01*
X118915000Y-110942499D02*
G75*
G02*
X120164998Y-110942499I624999J-624997D01*
G01*
X118915000Y-110942499D02*
G75*
G02*
X117406118Y-111567506I-1508900J1508899D01*
G01*
D24*
X248700000Y-116100000D02*
X248700000Y-107100000D01*
X248700000Y-107100000D02*
X248500000Y-106900000D01*
D23*
X263375000Y-94875000D02*
X262300000Y-95950000D01*
X262300000Y-95950000D02*
X250900000Y-95950000D01*
X248250000Y-49950000D02*
X248250000Y-96909620D01*
X249000000Y-49200000D02*
X248250000Y-49950000D01*
X248250000Y-96909620D02*
X249570190Y-98229810D01*
X250000000Y-49200000D02*
X249000000Y-49200000D01*
X248650000Y-50350000D02*
X248650000Y-96567157D01*
X249853033Y-97770190D02*
X250029810Y-97770190D01*
X249150000Y-49850000D02*
X248650000Y-50350000D01*
X250000000Y-49850000D02*
X249150000Y-49850000D01*
X248650000Y-96567157D02*
X249853033Y-97770190D01*
X61900000Y-82500000D02*
X77800000Y-82500000D01*
X61700000Y-82500000D02*
X61900000Y-82500000D01*
X80300000Y-67750000D02*
X80300000Y-44075000D01*
X79300000Y-68750000D02*
X80300000Y-67750000D01*
X80300000Y-44075000D02*
X80625000Y-43750000D01*
X80625000Y-43750000D02*
X88800000Y-43750000D01*
X77800000Y-82500000D02*
X77800000Y-70250000D01*
X77800000Y-70250000D02*
X79300000Y-68750000D01*
X238732500Y-109867500D02*
X219332500Y-109867500D01*
X219332500Y-109867500D02*
X214600000Y-114600000D01*
X135100000Y-114600000D02*
X134300000Y-115400000D01*
X246600000Y-102000000D02*
X238732500Y-109867500D01*
X214600000Y-114600000D02*
X135100000Y-114600000D01*
X219000000Y-98500000D02*
X224025000Y-93475000D01*
X73575000Y-98500000D02*
X219000000Y-98500000D01*
X72850000Y-97775000D02*
X73575000Y-98500000D01*
X224025000Y-93475000D02*
X224025000Y-89150000D01*
X224025000Y-89150000D02*
X225375000Y-87800000D01*
X74000000Y-90075000D02*
X72850000Y-91225000D01*
X78125000Y-90075000D02*
X74000000Y-90075000D01*
X72850000Y-91225000D02*
X72850000Y-97775000D01*
X79000000Y-89200000D02*
X78125000Y-90075000D01*
X225375000Y-87800000D02*
X231600000Y-87800000D01*
X219800000Y-110500000D02*
X215000000Y-115300000D01*
X215000000Y-115300000D02*
X205200000Y-115300000D01*
X246800000Y-102700000D02*
X239000000Y-110500000D01*
X239000000Y-110500000D02*
X219800000Y-110500000D01*
X247150000Y-93425000D02*
X239325000Y-85600000D01*
X247150000Y-98450000D02*
X247150000Y-93425000D01*
X239325000Y-85600000D02*
X236475000Y-85600000D01*
X226350000Y-89200000D02*
X231600000Y-89200000D01*
X225325000Y-93725000D02*
X225325000Y-90225000D01*
X67775000Y-99350000D02*
X219700000Y-99350000D01*
X219700000Y-99350000D02*
X225325000Y-93725000D01*
X63000000Y-87800000D02*
X63000000Y-94575000D01*
X225325000Y-90225000D02*
X226350000Y-89200000D01*
X63000000Y-94575000D02*
X67775000Y-99350000D01*
X261575000Y-94825000D02*
X250900000Y-94825000D01*
X261350000Y-63850000D02*
X262450000Y-63850000D01*
X262450000Y-63850000D02*
X263500000Y-64900000D01*
X263500000Y-92900000D02*
X261575000Y-94825000D01*
X263500000Y-64900000D02*
X263500000Y-92900000D01*
X255900000Y-49524398D02*
X255594502Y-49829896D01*
X255900000Y-48780000D02*
X255900000Y-49524398D01*
X246566934Y-99047711D02*
X246550000Y-99030777D01*
X239050000Y-87075000D02*
X238900000Y-87075000D01*
X246550000Y-99030777D02*
X246550000Y-94575000D01*
X246550000Y-94575000D02*
X239050000Y-87075000D01*
G04 #@! TA.AperFunction,Conductor*
G36*
X264779290Y-42970210D02*
G01*
X264799500Y-43019000D01*
X264799500Y-56631000D01*
X264779290Y-56679790D01*
X264730500Y-56700000D01*
X250269000Y-56700000D01*
X250220210Y-56679790D01*
X250200000Y-56631000D01*
X250200000Y-52368707D01*
X257655500Y-52368707D01*
X257655500Y-52521293D01*
X257694992Y-52668678D01*
X257771285Y-52800821D01*
X257879179Y-52908715D01*
X258011322Y-52985008D01*
X258158707Y-53024500D01*
X258158710Y-53024500D01*
X258311290Y-53024500D01*
X258311293Y-53024500D01*
X258458678Y-52985008D01*
X258590821Y-52908715D01*
X258698715Y-52800821D01*
X258775008Y-52668678D01*
X258814500Y-52521293D01*
X258814500Y-52368707D01*
X258775008Y-52221322D01*
X258698715Y-52089179D01*
X258590821Y-51981285D01*
X258458678Y-51904992D01*
X258311293Y-51865500D01*
X258158707Y-51865500D01*
X258048168Y-51895119D01*
X258011321Y-51904992D01*
X257879181Y-51981284D01*
X257879175Y-51981288D01*
X257771288Y-52089175D01*
X257771284Y-52089181D01*
X257694992Y-52221321D01*
X257694992Y-52221322D01*
X257655500Y-52368707D01*
X250200000Y-52368707D01*
X250200000Y-50267927D01*
X250220210Y-50219137D01*
X250237671Y-50206450D01*
X250253220Y-50198528D01*
X250348528Y-50103220D01*
X250409719Y-49983126D01*
X250430804Y-49850000D01*
X250427620Y-49829896D01*
X255163698Y-49829896D01*
X255184783Y-49963022D01*
X255184783Y-49963023D01*
X255184784Y-49963025D01*
X255184784Y-49963026D01*
X255245971Y-50083112D01*
X255245974Y-50083116D01*
X255341281Y-50178423D01*
X255341285Y-50178426D01*
X255461372Y-50239613D01*
X255461376Y-50239615D01*
X255594502Y-50260700D01*
X255727628Y-50239615D01*
X255847722Y-50178424D01*
X255943030Y-50083116D01*
X255993976Y-49983129D01*
X256004219Y-49963026D01*
X256004220Y-49963024D01*
X256004220Y-49963023D01*
X256004221Y-49963022D01*
X256022897Y-49845104D01*
X256042254Y-49807113D01*
X256140460Y-49708909D01*
X256177135Y-49645385D01*
X256180021Y-49640387D01*
X256200500Y-49563960D01*
X256200500Y-49109828D01*
X256220710Y-49061038D01*
X256248528Y-49033220D01*
X256309719Y-48913126D01*
X256330804Y-48780000D01*
X256309719Y-48646874D01*
X256309717Y-48646870D01*
X256309717Y-48646869D01*
X256248530Y-48526783D01*
X256248527Y-48526779D01*
X256153220Y-48431472D01*
X256153216Y-48431469D01*
X256033129Y-48370282D01*
X256033127Y-48370281D01*
X256033126Y-48370281D01*
X255900000Y-48349196D01*
X255766874Y-48370281D01*
X255766872Y-48370281D01*
X255766870Y-48370282D01*
X255766869Y-48370282D01*
X255646783Y-48431469D01*
X255646779Y-48431472D01*
X255551472Y-48526779D01*
X255551469Y-48526783D01*
X255490282Y-48646869D01*
X255490282Y-48646870D01*
X255490281Y-48646872D01*
X255490281Y-48646874D01*
X255469196Y-48780000D01*
X255490281Y-48913126D01*
X255490281Y-48913127D01*
X255490282Y-48913129D01*
X255490282Y-48913130D01*
X255551469Y-49033216D01*
X255551472Y-49033220D01*
X255579290Y-49061038D01*
X255599500Y-49109828D01*
X255599500Y-49339368D01*
X255579290Y-49388158D01*
X255541294Y-49407518D01*
X255461378Y-49420175D01*
X255461371Y-49420178D01*
X255341285Y-49481365D01*
X255341281Y-49481368D01*
X255245974Y-49576675D01*
X255245971Y-49576679D01*
X255184784Y-49696765D01*
X255184784Y-49696766D01*
X255184783Y-49696768D01*
X255184783Y-49696770D01*
X255163698Y-49829896D01*
X250427620Y-49829896D01*
X250409719Y-49716874D01*
X250409717Y-49716870D01*
X250409717Y-49716869D01*
X250348530Y-49596783D01*
X250348527Y-49596779D01*
X250325538Y-49573790D01*
X250305328Y-49525000D01*
X250325538Y-49476210D01*
X250348528Y-49453220D01*
X250409719Y-49333126D01*
X250430804Y-49200000D01*
X250409719Y-49066874D01*
X250409717Y-49066870D01*
X250409717Y-49066869D01*
X250348530Y-48946783D01*
X250348527Y-48946779D01*
X250253220Y-48851472D01*
X250237674Y-48843550D01*
X250203377Y-48803395D01*
X250200000Y-48782072D01*
X250200000Y-47100000D01*
X252369196Y-47100000D01*
X252390281Y-47233126D01*
X252390281Y-47233127D01*
X252390282Y-47233129D01*
X252390282Y-47233130D01*
X252451469Y-47353216D01*
X252451472Y-47353220D01*
X252546780Y-47448528D01*
X252609130Y-47480297D01*
X252626590Y-47492983D01*
X252954088Y-47820481D01*
X252981219Y-47836144D01*
X253045413Y-47873207D01*
X253147273Y-47900500D01*
X259432215Y-47900500D01*
X259463541Y-47908021D01*
X259466871Y-47909718D01*
X259466872Y-47909718D01*
X259466874Y-47909719D01*
X259600000Y-47930804D01*
X259733126Y-47909719D01*
X259853220Y-47848528D01*
X259948528Y-47753220D01*
X260009719Y-47633126D01*
X260030804Y-47500000D01*
X260009719Y-47366874D01*
X260009717Y-47366870D01*
X260009717Y-47366869D01*
X259948530Y-47246783D01*
X259948527Y-47246779D01*
X259853220Y-47151472D01*
X259853216Y-47151469D01*
X259733129Y-47090282D01*
X259733127Y-47090281D01*
X259733126Y-47090281D01*
X259600000Y-47069196D01*
X259466871Y-47090281D01*
X259463541Y-47091979D01*
X259432215Y-47099500D01*
X258772801Y-47099500D01*
X258724011Y-47079290D01*
X258703801Y-47030500D01*
X258713045Y-46996000D01*
X258729861Y-46966874D01*
X258775008Y-46888678D01*
X258814500Y-46741293D01*
X258814500Y-46588707D01*
X258775008Y-46441322D01*
X258698715Y-46309179D01*
X258590821Y-46201285D01*
X258458678Y-46124992D01*
X258311293Y-46085500D01*
X258158707Y-46085500D01*
X258048168Y-46115119D01*
X258011321Y-46124992D01*
X257879181Y-46201284D01*
X257879175Y-46201288D01*
X257771288Y-46309175D01*
X257771284Y-46309181D01*
X257694992Y-46441321D01*
X257694992Y-46441322D01*
X257655500Y-46588707D01*
X257655500Y-46741293D01*
X257694992Y-46888678D01*
X257740136Y-46966870D01*
X257756955Y-46996000D01*
X257763848Y-47048358D01*
X257731699Y-47090256D01*
X257697199Y-47099500D01*
X253394473Y-47099500D01*
X253345683Y-47079290D01*
X253192983Y-46926590D01*
X253180297Y-46909130D01*
X253148528Y-46846780D01*
X253053220Y-46751472D01*
X253053216Y-46751469D01*
X252933129Y-46690282D01*
X252933127Y-46690281D01*
X252933126Y-46690281D01*
X252800000Y-46669196D01*
X252666874Y-46690281D01*
X252666872Y-46690281D01*
X252666870Y-46690282D01*
X252666869Y-46690282D01*
X252546783Y-46751469D01*
X252546779Y-46751472D01*
X252451472Y-46846779D01*
X252451469Y-46846783D01*
X252390282Y-46966869D01*
X252390282Y-46966870D01*
X252390281Y-46966872D01*
X252390281Y-46966874D01*
X252369196Y-47100000D01*
X250200000Y-47100000D01*
X250200000Y-43019000D01*
X250220210Y-42970210D01*
X250269000Y-42950000D01*
X264730500Y-42950000D01*
X264779290Y-42970210D01*
G37*
G04 #@! TD.AperFunction*
G04 #@! TA.AperFunction,Conductor*
G36*
X91318039Y-40720185D02*
G01*
X91363794Y-40772989D01*
X91375000Y-40824500D01*
X91375000Y-41432245D01*
X91355315Y-41499284D01*
X91338681Y-41519926D01*
X90229522Y-42629084D01*
X90229518Y-42629090D01*
X90176793Y-42720410D01*
X90172572Y-42736167D01*
X90149500Y-42822273D01*
X90149500Y-75782745D01*
X90129815Y-75849784D01*
X90113181Y-75870426D01*
X88304522Y-77679084D01*
X88304518Y-77679090D01*
X88251792Y-77770412D01*
X88251793Y-77770413D01*
X88224500Y-77872273D01*
X88224500Y-82325500D01*
X88204815Y-82392539D01*
X88152011Y-82438294D01*
X88100500Y-82449500D01*
X87697273Y-82449500D01*
X87595410Y-82476793D01*
X87504087Y-82529520D01*
X87504084Y-82529522D01*
X86070426Y-83963181D01*
X86009103Y-83996666D01*
X85982745Y-83999500D01*
X76380989Y-83999500D01*
X76343326Y-83990458D01*
X76342405Y-83993296D01*
X76333123Y-83990279D01*
X76200002Y-83969196D01*
X76199998Y-83969196D01*
X76066878Y-83990279D01*
X75946778Y-84051473D01*
X75946774Y-84051476D01*
X75851476Y-84146774D01*
X75851473Y-84146778D01*
X75790279Y-84266878D01*
X75769196Y-84399997D01*
X75769196Y-84400002D01*
X75790279Y-84533121D01*
X75790280Y-84533124D01*
X75790281Y-84533126D01*
X75851472Y-84653220D01*
X75851473Y-84653221D01*
X75851476Y-84653225D01*
X75946774Y-84748523D01*
X75946778Y-84748526D01*
X75946780Y-84748528D01*
X76066874Y-84809719D01*
X76066876Y-84809719D01*
X76066878Y-84809720D01*
X76199998Y-84830804D01*
X76200000Y-84830804D01*
X76200002Y-84830804D01*
X76333123Y-84809720D01*
X76342405Y-84806704D01*
X76343326Y-84809541D01*
X76380989Y-84800500D01*
X86252725Y-84800500D01*
X86252727Y-84800500D01*
X86354588Y-84773207D01*
X86445913Y-84720480D01*
X87879574Y-83286819D01*
X87940897Y-83253334D01*
X87967255Y-83250500D01*
X88444011Y-83250500D01*
X88481673Y-83259541D01*
X88482595Y-83256704D01*
X88491876Y-83259720D01*
X88624998Y-83280804D01*
X88625000Y-83280804D01*
X88625002Y-83280804D01*
X88758121Y-83259720D01*
X88758121Y-83259719D01*
X88758126Y-83259719D01*
X88878220Y-83198528D01*
X88973528Y-83103220D01*
X89034719Y-82983126D01*
X89043006Y-82930804D01*
X89055804Y-82850002D01*
X89055804Y-82849997D01*
X89034719Y-82716873D01*
X89031704Y-82707593D01*
X89034539Y-82706671D01*
X89025500Y-82669011D01*
X89025500Y-78142255D01*
X89045185Y-78075216D01*
X89061819Y-78054574D01*
X89437309Y-77679084D01*
X90870480Y-76245913D01*
X90923207Y-76154588D01*
X90950500Y-76052727D01*
X90950500Y-75947273D01*
X90950500Y-43092255D01*
X90970185Y-43025216D01*
X90986819Y-43004574D01*
X91163319Y-42828074D01*
X91224642Y-42794589D01*
X91294334Y-42799573D01*
X91350267Y-42841445D01*
X91374684Y-42906909D01*
X91375000Y-42915755D01*
X91375000Y-85219375D01*
X91355315Y-85286414D01*
X91302511Y-85332169D01*
X91251000Y-85343375D01*
X88968446Y-85343375D01*
X88965743Y-85343346D01*
X88962104Y-85343266D01*
X88896981Y-85341846D01*
X88896980Y-85341846D01*
X88896974Y-85341846D01*
X88890902Y-85342311D01*
X88890893Y-85342199D01*
X88885556Y-85342666D01*
X88885567Y-85342778D01*
X88879507Y-85343374D01*
X88812054Y-85356791D01*
X88809398Y-85357289D01*
X88401308Y-85429249D01*
X88387889Y-85430867D01*
X88359585Y-85432723D01*
X88359577Y-85432724D01*
X88322409Y-85442683D01*
X88311853Y-85445024D01*
X88295237Y-85447954D01*
X88273961Y-85451706D01*
X88273959Y-85451706D01*
X88273957Y-85451707D01*
X88247511Y-85461990D01*
X88234670Y-85466193D01*
X87873422Y-85562994D01*
X87860192Y-85565777D01*
X87832143Y-85570094D01*
X87795972Y-85583259D01*
X87785660Y-85586510D01*
X87748504Y-85596466D01*
X87723059Y-85609014D01*
X87710631Y-85614321D01*
X87359188Y-85742240D01*
X87346256Y-85746164D01*
X87318693Y-85752910D01*
X87318682Y-85752914D01*
X87283813Y-85769173D01*
X87273828Y-85773310D01*
X87237663Y-85786474D01*
X87213413Y-85801189D01*
X87201496Y-85807559D01*
X86862525Y-85965628D01*
X86849982Y-85970664D01*
X86823122Y-85979782D01*
X86789800Y-85999021D01*
X86780209Y-86004014D01*
X86745330Y-86020279D01*
X86722448Y-86037057D01*
X86711138Y-86044437D01*
X86387241Y-86231443D01*
X86375189Y-86237552D01*
X86349213Y-86248982D01*
X86317682Y-86271059D01*
X86308567Y-86276866D01*
X86275250Y-86296103D01*
X86275242Y-86296109D01*
X86253920Y-86314808D01*
X86243287Y-86323153D01*
X85936922Y-86537676D01*
X85925446Y-86544813D01*
X85900578Y-86558457D01*
X85900565Y-86558466D01*
X85871097Y-86583193D01*
X85862519Y-86589776D01*
X85830994Y-86611851D01*
X85830991Y-86611853D01*
X85811367Y-86632351D01*
X85801507Y-86641585D01*
X85518775Y-86878833D01*
X85506867Y-86887668D01*
X85487225Y-86900495D01*
X85487222Y-86900497D01*
X85487217Y-86900502D01*
X85456214Y-86930854D01*
X85449177Y-86937234D01*
X85415953Y-86965113D01*
X85415946Y-86965120D01*
X85401268Y-86983409D01*
X85391313Y-86994395D01*
X85368365Y-87016864D01*
X85321782Y-87062471D01*
X85313710Y-87069710D01*
X85310918Y-87072001D01*
X85258669Y-87124250D01*
X85257739Y-87125171D01*
X85204848Y-87176955D01*
X85202526Y-87179724D01*
X85195206Y-87187713D01*
X78481194Y-93901726D01*
X78455549Y-93921412D01*
X77189734Y-94652789D01*
X77148108Y-94667731D01*
X77065200Y-94681566D01*
X76837847Y-94759616D01*
X76837842Y-94759618D01*
X76626430Y-94874029D01*
X76626424Y-94874033D01*
X76436742Y-95021669D01*
X76436739Y-95021672D01*
X76436736Y-95021674D01*
X76436736Y-95021675D01*
X76413290Y-95047144D01*
X76273930Y-95198529D01*
X76273927Y-95198533D01*
X76142451Y-95399770D01*
X76045889Y-95619910D01*
X75986879Y-95852940D01*
X75967029Y-96092494D01*
X75967029Y-96092505D01*
X75986879Y-96332059D01*
X76045889Y-96565089D01*
X76142451Y-96785229D01*
X76273927Y-96986466D01*
X76273929Y-96986469D01*
X76436736Y-97163325D01*
X76436739Y-97163327D01*
X76436742Y-97163330D01*
X76626424Y-97310966D01*
X76626430Y-97310970D01*
X76626433Y-97310972D01*
X76837844Y-97425382D01*
X76837847Y-97425383D01*
X77065199Y-97503433D01*
X77065201Y-97503433D01*
X77065203Y-97503434D01*
X77302308Y-97543000D01*
X77302309Y-97543000D01*
X77542691Y-97543000D01*
X77542692Y-97543000D01*
X77779797Y-97503434D01*
X78007156Y-97425382D01*
X78218567Y-97310972D01*
X78408264Y-97163325D01*
X78571071Y-96986469D01*
X78702549Y-96785228D01*
X78799110Y-96565091D01*
X78858120Y-96332063D01*
X78858120Y-96332059D01*
X78858712Y-96329723D01*
X78871786Y-96297723D01*
X78991399Y-96092494D01*
X87967029Y-96092494D01*
X87967029Y-96092505D01*
X87986879Y-96332059D01*
X88045889Y-96565089D01*
X88142451Y-96785229D01*
X88273927Y-96986466D01*
X88273929Y-96986469D01*
X88436736Y-97163325D01*
X88436739Y-97163327D01*
X88436742Y-97163330D01*
X88626424Y-97310966D01*
X88626430Y-97310970D01*
X88626433Y-97310972D01*
X88837844Y-97425382D01*
X88837847Y-97425383D01*
X89065199Y-97503433D01*
X89065201Y-97503433D01*
X89065203Y-97503434D01*
X89302308Y-97543000D01*
X89302309Y-97543000D01*
X89542691Y-97543000D01*
X89542692Y-97543000D01*
X89779797Y-97503434D01*
X90007156Y-97425382D01*
X90218567Y-97310972D01*
X90408264Y-97163325D01*
X90571071Y-96986469D01*
X90702549Y-96785228D01*
X90799110Y-96565091D01*
X90858120Y-96332063D01*
X90877971Y-96092500D01*
X90858120Y-95852937D01*
X90799110Y-95619909D01*
X90702549Y-95399772D01*
X90693858Y-95386470D01*
X90571072Y-95198533D01*
X90571071Y-95198531D01*
X90408264Y-95021675D01*
X90408259Y-95021671D01*
X90408257Y-95021669D01*
X90218575Y-94874033D01*
X90218569Y-94874029D01*
X90007157Y-94759618D01*
X90007152Y-94759616D01*
X89779800Y-94681566D01*
X89601968Y-94651891D01*
X89542692Y-94642000D01*
X89302308Y-94642000D01*
X89254887Y-94649913D01*
X89065199Y-94681566D01*
X88837847Y-94759616D01*
X88837842Y-94759618D01*
X88626430Y-94874029D01*
X88626424Y-94874033D01*
X88436742Y-95021669D01*
X88436739Y-95021672D01*
X88436736Y-95021674D01*
X88436736Y-95021675D01*
X88413290Y-95047144D01*
X88273930Y-95198529D01*
X88273927Y-95198533D01*
X88142451Y-95399770D01*
X88045889Y-95619910D01*
X87986879Y-95852940D01*
X87967029Y-96092494D01*
X78991399Y-96092494D01*
X79593580Y-95059285D01*
X79613025Y-95034051D01*
X80154582Y-94492494D01*
X81967029Y-94492494D01*
X81967029Y-94492505D01*
X81986879Y-94732059D01*
X82045889Y-94965089D01*
X82142451Y-95185229D01*
X82273927Y-95386466D01*
X82273929Y-95386469D01*
X82436736Y-95563325D01*
X82436739Y-95563327D01*
X82436742Y-95563330D01*
X82626424Y-95710966D01*
X82626430Y-95710970D01*
X82626433Y-95710972D01*
X82837844Y-95825382D01*
X82837847Y-95825383D01*
X83065199Y-95903433D01*
X83065201Y-95903433D01*
X83065203Y-95903434D01*
X83302308Y-95943000D01*
X83302309Y-95943000D01*
X83542691Y-95943000D01*
X83542692Y-95943000D01*
X83779797Y-95903434D01*
X84007156Y-95825382D01*
X84218567Y-95710972D01*
X84408264Y-95563325D01*
X84571071Y-95386469D01*
X84702549Y-95185228D01*
X84799110Y-94965091D01*
X84858120Y-94732063D01*
X84877971Y-94492500D01*
X84874493Y-94450529D01*
X84858120Y-94252940D01*
X84858120Y-94252937D01*
X84799110Y-94019909D01*
X84702549Y-93799772D01*
X84571071Y-93598531D01*
X84408264Y-93421675D01*
X84408259Y-93421671D01*
X84408257Y-93421669D01*
X84218575Y-93274033D01*
X84218569Y-93274029D01*
X84007157Y-93159618D01*
X84007152Y-93159616D01*
X83779800Y-93081566D01*
X83601968Y-93051891D01*
X83542692Y-93042000D01*
X83302308Y-93042000D01*
X83254887Y-93049913D01*
X83065199Y-93081566D01*
X82837847Y-93159616D01*
X82837842Y-93159618D01*
X82626430Y-93274029D01*
X82626424Y-93274033D01*
X82436742Y-93421669D01*
X82436739Y-93421672D01*
X82273930Y-93598529D01*
X82273927Y-93598533D01*
X82142451Y-93799770D01*
X82045889Y-94019910D01*
X81986879Y-94252940D01*
X81967029Y-94492494D01*
X80154582Y-94492494D01*
X86383919Y-88263156D01*
X86384573Y-88262508D01*
X86525600Y-88124435D01*
X86532585Y-88118102D01*
X86838387Y-87861498D01*
X86846943Y-87854934D01*
X87169877Y-87628809D01*
X87178987Y-87623003D01*
X87520402Y-87425883D01*
X87529988Y-87420893D01*
X87887298Y-87254273D01*
X87897256Y-87250149D01*
X88267719Y-87115307D01*
X88278012Y-87112060D01*
X88658839Y-87010015D01*
X88669367Y-87007681D01*
X89017700Y-86946259D01*
X89039233Y-86944375D01*
X91251000Y-86944375D01*
X91318039Y-86964060D01*
X91363794Y-87016864D01*
X91375000Y-87068375D01*
X91375000Y-87900000D01*
X91350000Y-87900000D01*
X91350000Y-92425000D01*
X91375000Y-92425000D01*
X91375000Y-98075500D01*
X91355315Y-98142539D01*
X91302511Y-98188294D01*
X91251000Y-98199500D01*
X73750833Y-98199500D01*
X73683794Y-98179815D01*
X73663152Y-98163181D01*
X73186819Y-97686848D01*
X73153334Y-97625525D01*
X73150500Y-97599167D01*
X73150500Y-91400833D01*
X73170185Y-91333794D01*
X73186819Y-91313152D01*
X74088152Y-90411819D01*
X74149475Y-90378334D01*
X74175833Y-90375500D01*
X78164560Y-90375500D01*
X78164562Y-90375500D01*
X78240989Y-90355021D01*
X78309511Y-90315460D01*
X78365460Y-90259511D01*
X78964580Y-89660389D01*
X79025901Y-89626906D01*
X79032821Y-89625605D01*
X79133126Y-89609719D01*
X79253220Y-89548528D01*
X79348528Y-89453220D01*
X79409719Y-89333126D01*
X79430804Y-89200000D01*
X79409719Y-89066874D01*
X79348528Y-88946780D01*
X79348526Y-88946778D01*
X79348523Y-88946774D01*
X79253225Y-88851476D01*
X79253221Y-88851473D01*
X79253220Y-88851472D01*
X79133126Y-88790281D01*
X79133124Y-88790280D01*
X79133121Y-88790279D01*
X79000002Y-88769196D01*
X78999998Y-88769196D01*
X78866878Y-88790279D01*
X78746778Y-88851473D01*
X78746774Y-88851476D01*
X78651476Y-88946774D01*
X78651473Y-88946778D01*
X78590279Y-89066878D01*
X78574400Y-89167136D01*
X78544471Y-89230271D01*
X78539608Y-89235419D01*
X78036848Y-89738181D01*
X77975525Y-89771666D01*
X77949167Y-89774500D01*
X73960438Y-89774500D01*
X73884010Y-89794978D01*
X73815489Y-89834540D01*
X73815486Y-89834542D01*
X72609541Y-91040487D01*
X72609535Y-91040495D01*
X72569982Y-91109004D01*
X72569979Y-91109009D01*
X72556326Y-91159962D01*
X72549500Y-91185438D01*
X72549500Y-97814562D01*
X72563152Y-97865513D01*
X72569979Y-97890990D01*
X72569982Y-97890995D01*
X72609535Y-97959504D01*
X72609539Y-97959509D01*
X72609540Y-97959511D01*
X73334540Y-98684511D01*
X73390489Y-98740460D01*
X73390491Y-98740461D01*
X73390495Y-98740464D01*
X73459004Y-98780017D01*
X73459011Y-98780021D01*
X73535438Y-98800500D01*
X73535440Y-98800500D01*
X91251000Y-98800500D01*
X91318039Y-98820185D01*
X91363794Y-98872989D01*
X91375000Y-98924500D01*
X91375000Y-98925500D01*
X91355315Y-98992539D01*
X91302511Y-99038294D01*
X91251000Y-99049500D01*
X67950833Y-99049500D01*
X67883794Y-99029815D01*
X67863152Y-99013181D01*
X63336819Y-94486848D01*
X63303334Y-94425525D01*
X63300500Y-94399167D01*
X63300500Y-88152610D01*
X63320185Y-88085571D01*
X63336816Y-88064931D01*
X63348528Y-88053220D01*
X63409719Y-87933126D01*
X63430804Y-87800000D01*
X63409719Y-87666874D01*
X63348528Y-87546780D01*
X63348526Y-87546778D01*
X63348523Y-87546774D01*
X63253225Y-87451476D01*
X63253221Y-87451473D01*
X63253220Y-87451472D01*
X63133126Y-87390281D01*
X63133124Y-87390280D01*
X63133121Y-87390279D01*
X63000002Y-87369196D01*
X62999998Y-87369196D01*
X62866878Y-87390279D01*
X62746778Y-87451473D01*
X62746774Y-87451476D01*
X62651476Y-87546774D01*
X62651473Y-87546778D01*
X62590279Y-87666878D01*
X62569196Y-87799997D01*
X62569196Y-87800002D01*
X62590279Y-87933121D01*
X62590280Y-87933124D01*
X62590281Y-87933126D01*
X62651472Y-88053220D01*
X62663180Y-88064928D01*
X62696666Y-88126249D01*
X62699500Y-88152610D01*
X62699500Y-94614562D01*
X62706852Y-94642000D01*
X62719979Y-94690990D01*
X62719980Y-94690991D01*
X62729418Y-94707338D01*
X62759540Y-94759511D01*
X67590489Y-99590460D01*
X67659012Y-99630022D01*
X67735438Y-99650500D01*
X67735440Y-99650500D01*
X91251000Y-99650500D01*
X91318039Y-99670185D01*
X91363794Y-99722989D01*
X91375000Y-99774500D01*
X91375000Y-100139790D01*
X91355315Y-100206829D01*
X91302511Y-100252584D01*
X91251000Y-100263790D01*
X78603856Y-100263790D01*
X78514712Y-100287676D01*
X78514709Y-100287677D01*
X78434791Y-100333817D01*
X78434786Y-100333821D01*
X77142031Y-101626576D01*
X77142027Y-101626581D01*
X77095887Y-101706499D01*
X77095886Y-101706502D01*
X77072000Y-101795646D01*
X77072000Y-106718000D01*
X77052315Y-106785039D01*
X76999511Y-106830794D01*
X76948000Y-106842000D01*
X76368230Y-106842000D01*
X76337800Y-106844853D01*
X76337798Y-106844853D01*
X76209619Y-106889706D01*
X76209617Y-106889707D01*
X76100350Y-106970350D01*
X76019707Y-107079617D01*
X76019706Y-107079619D01*
X75974853Y-107207798D01*
X75974853Y-107207800D01*
X75972000Y-107238230D01*
X75972000Y-109346769D01*
X75974853Y-109377199D01*
X75974853Y-109377201D01*
X76019706Y-109505380D01*
X76019707Y-109505382D01*
X76100350Y-109614650D01*
X76209618Y-109695293D01*
X76232881Y-109703433D01*
X76337799Y-109740146D01*
X76368230Y-109743000D01*
X76368234Y-109743000D01*
X78476770Y-109743000D01*
X78507199Y-109740146D01*
X78507201Y-109740146D01*
X78571290Y-109717719D01*
X78635382Y-109695293D01*
X78744650Y-109614650D01*
X78825293Y-109505382D01*
X78862682Y-109398531D01*
X78870146Y-109377201D01*
X78870146Y-109377199D01*
X78873000Y-109346769D01*
X78873000Y-107238230D01*
X78870146Y-107207800D01*
X78870146Y-107207798D01*
X78825293Y-107079619D01*
X78825292Y-107079617D01*
X78821167Y-107074028D01*
X78744650Y-106970350D01*
X78635382Y-106889707D01*
X78635380Y-106889706D01*
X78507200Y-106844853D01*
X78476770Y-106842000D01*
X78476766Y-106842000D01*
X77897000Y-106842000D01*
X77829961Y-106822315D01*
X77784206Y-106769511D01*
X77773000Y-106718000D01*
X77773000Y-102038334D01*
X77792685Y-101971295D01*
X77809319Y-101950653D01*
X78758863Y-101001109D01*
X78820186Y-100967624D01*
X78846544Y-100964790D01*
X90254457Y-100964790D01*
X90321496Y-100984475D01*
X90367251Y-101037279D01*
X90377195Y-101106437D01*
X90348170Y-101169993D01*
X90342138Y-101176471D01*
X89142031Y-102376576D01*
X89142027Y-102376581D01*
X89095887Y-102456499D01*
X89095886Y-102456502D01*
X89072000Y-102545646D01*
X89072000Y-106790697D01*
X89052315Y-106857736D01*
X88999511Y-106903491D01*
X88988263Y-106907978D01*
X88837848Y-106959616D01*
X88837842Y-106959618D01*
X88626430Y-107074029D01*
X88626424Y-107074033D01*
X88436742Y-107221669D01*
X88436739Y-107221672D01*
X88436736Y-107221674D01*
X88436736Y-107221675D01*
X88400794Y-107260717D01*
X88273930Y-107398529D01*
X88273927Y-107398533D01*
X88142451Y-107599770D01*
X88045889Y-107819910D01*
X87986879Y-108052940D01*
X87967029Y-108292494D01*
X87967029Y-108292505D01*
X87986879Y-108532059D01*
X88045889Y-108765089D01*
X88142451Y-108985229D01*
X88273927Y-109186466D01*
X88273929Y-109186469D01*
X88436736Y-109363325D01*
X88436739Y-109363327D01*
X88436742Y-109363330D01*
X88626424Y-109510966D01*
X88626430Y-109510970D01*
X88626433Y-109510972D01*
X88837844Y-109625382D01*
X88837847Y-109625383D01*
X89065199Y-109703433D01*
X89065201Y-109703433D01*
X89065203Y-109703434D01*
X89302308Y-109743000D01*
X89302309Y-109743000D01*
X89542691Y-109743000D01*
X89542692Y-109743000D01*
X89779797Y-109703434D01*
X90007156Y-109625382D01*
X90218567Y-109510972D01*
X90408264Y-109363325D01*
X90571071Y-109186469D01*
X90702549Y-108985228D01*
X90799110Y-108765091D01*
X90858120Y-108532063D01*
X90877971Y-108292500D01*
X90858120Y-108052937D01*
X90799110Y-107819909D01*
X90702549Y-107599772D01*
X90571071Y-107398531D01*
X90408264Y-107221675D01*
X90408259Y-107221671D01*
X90408257Y-107221669D01*
X90218575Y-107074033D01*
X90218569Y-107074029D01*
X90007157Y-106959618D01*
X90007151Y-106959616D01*
X89856737Y-106907978D01*
X89799721Y-106867592D01*
X89773591Y-106802792D01*
X89773000Y-106790697D01*
X89773000Y-102788333D01*
X89792685Y-102721294D01*
X89809319Y-102700652D01*
X90694577Y-101815394D01*
X90755900Y-101781909D01*
X90782258Y-101779075D01*
X91251000Y-101779075D01*
X91318039Y-101798760D01*
X91363794Y-101851564D01*
X91375000Y-101903075D01*
X91375000Y-110617999D01*
X91355315Y-110685038D01*
X91302511Y-110730793D01*
X91251000Y-110741999D01*
X85560441Y-110741999D01*
X85552331Y-110741733D01*
X85533973Y-110740529D01*
X85390457Y-110731121D01*
X85374377Y-110729004D01*
X85219254Y-110698147D01*
X85203588Y-110693949D01*
X85053824Y-110643111D01*
X85038837Y-110636904D01*
X84932570Y-110584498D01*
X84881151Y-110537192D01*
X84863470Y-110469597D01*
X84863839Y-110463046D01*
X84877971Y-110292505D01*
X84877971Y-110292494D01*
X84858120Y-110052940D01*
X84858120Y-110052937D01*
X84799110Y-109819909D01*
X84702549Y-109599772D01*
X84571071Y-109398531D01*
X84408264Y-109221675D01*
X84408259Y-109221671D01*
X84408257Y-109221669D01*
X84218575Y-109074033D01*
X84218569Y-109074029D01*
X84007157Y-108959618D01*
X84007152Y-108959616D01*
X83779800Y-108881566D01*
X83601968Y-108851891D01*
X83542692Y-108842000D01*
X83302308Y-108842000D01*
X83254887Y-108849913D01*
X83065199Y-108881566D01*
X82837847Y-108959616D01*
X82837842Y-108959618D01*
X82626430Y-109074029D01*
X82626424Y-109074033D01*
X82436742Y-109221669D01*
X82436739Y-109221672D01*
X82273930Y-109398529D01*
X82273927Y-109398533D01*
X82142451Y-109599770D01*
X82045889Y-109819910D01*
X81986879Y-110052940D01*
X81967029Y-110292494D01*
X81967029Y-110292505D01*
X81986879Y-110532059D01*
X82045889Y-110765089D01*
X82142451Y-110985229D01*
X82173146Y-111032210D01*
X82273929Y-111186469D01*
X82436736Y-111363325D01*
X82436739Y-111363327D01*
X82436742Y-111363330D01*
X82626424Y-111510966D01*
X82626430Y-111510970D01*
X82626433Y-111510972D01*
X82837844Y-111625382D01*
X82837847Y-111625383D01*
X83065199Y-111703433D01*
X83065201Y-111703433D01*
X83065203Y-111703434D01*
X83302308Y-111743000D01*
X83302309Y-111743000D01*
X83542687Y-111743000D01*
X83542692Y-111743000D01*
X83680497Y-111720003D01*
X83749858Y-111728384D01*
X83779564Y-111746455D01*
X83806267Y-111768370D01*
X84045990Y-111928549D01*
X84300258Y-112064459D01*
X84566624Y-112174793D01*
X84842521Y-112258487D01*
X85125284Y-112314734D01*
X85125285Y-112314734D01*
X85125294Y-112314736D01*
X85412218Y-112342998D01*
X85467537Y-112342998D01*
X85467549Y-112342999D01*
X91251000Y-112342999D01*
X91318039Y-112362684D01*
X91363794Y-112415488D01*
X91375000Y-112466999D01*
X91375000Y-122175500D01*
X91355315Y-122242539D01*
X91302511Y-122288294D01*
X91251000Y-122299500D01*
X44324500Y-122299500D01*
X44257461Y-122279815D01*
X44211706Y-122227011D01*
X44200500Y-122175500D01*
X44200500Y-82499997D01*
X61269196Y-82499997D01*
X61269196Y-82500002D01*
X61290279Y-82633121D01*
X61290280Y-82633124D01*
X61290281Y-82633126D01*
X61332953Y-82716874D01*
X61351473Y-82753221D01*
X61351476Y-82753225D01*
X61446774Y-82848523D01*
X61446778Y-82848526D01*
X61446780Y-82848528D01*
X61566874Y-82909719D01*
X61566876Y-82909719D01*
X61566878Y-82909720D01*
X61699998Y-82930804D01*
X61700000Y-82930804D01*
X61700002Y-82930804D01*
X61833121Y-82909720D01*
X61833121Y-82909719D01*
X61833126Y-82909719D01*
X61953220Y-82848528D01*
X61953225Y-82848523D01*
X61964930Y-82836819D01*
X62026253Y-82803334D01*
X62052611Y-82800500D01*
X77447389Y-82800500D01*
X77514428Y-82820185D01*
X77535070Y-82836819D01*
X77546774Y-82848523D01*
X77546778Y-82848526D01*
X77546780Y-82848528D01*
X77666874Y-82909719D01*
X77666876Y-82909719D01*
X77666878Y-82909720D01*
X77799998Y-82930804D01*
X77800000Y-82930804D01*
X77800002Y-82930804D01*
X77933121Y-82909720D01*
X77933121Y-82909719D01*
X77933126Y-82909719D01*
X78053220Y-82848528D01*
X78148528Y-82753220D01*
X78209719Y-82633126D01*
X78230804Y-82500000D01*
X78227128Y-82476793D01*
X78209720Y-82366878D01*
X78209719Y-82366876D01*
X78209719Y-82366874D01*
X78148528Y-82246780D01*
X78148526Y-82246778D01*
X78148523Y-82246774D01*
X78136819Y-82235070D01*
X78103334Y-82173747D01*
X78100500Y-82147389D01*
X78100500Y-70425833D01*
X78120185Y-70358794D01*
X78136819Y-70338152D01*
X78465431Y-70009540D01*
X79540460Y-68934511D01*
X80540460Y-67934511D01*
X80580022Y-67865988D01*
X80600500Y-67789562D01*
X80600500Y-67710438D01*
X80600500Y-44250833D01*
X80620185Y-44183794D01*
X80636819Y-44163152D01*
X80713152Y-44086819D01*
X80774475Y-44053334D01*
X80800833Y-44050500D01*
X88447389Y-44050500D01*
X88514428Y-44070185D01*
X88535070Y-44086819D01*
X88546774Y-44098523D01*
X88546778Y-44098526D01*
X88546780Y-44098528D01*
X88666874Y-44159719D01*
X88666876Y-44159719D01*
X88666878Y-44159720D01*
X88799998Y-44180804D01*
X88800000Y-44180804D01*
X88800002Y-44180804D01*
X88933121Y-44159720D01*
X88933121Y-44159719D01*
X88933126Y-44159719D01*
X89053220Y-44098528D01*
X89148528Y-44003220D01*
X89209719Y-43883126D01*
X89230804Y-43750000D01*
X89209719Y-43616874D01*
X89148528Y-43496780D01*
X89148526Y-43496778D01*
X89148523Y-43496774D01*
X89053225Y-43401476D01*
X89053221Y-43401473D01*
X89053220Y-43401472D01*
X88933126Y-43340281D01*
X88933124Y-43340280D01*
X88933121Y-43340279D01*
X88800002Y-43319196D01*
X88799998Y-43319196D01*
X88666878Y-43340279D01*
X88546778Y-43401473D01*
X88546774Y-43401476D01*
X88535070Y-43413181D01*
X88473747Y-43446666D01*
X88447389Y-43449500D01*
X80585438Y-43449500D01*
X80547224Y-43459739D01*
X80509009Y-43469979D01*
X80509008Y-43469980D01*
X80462591Y-43496778D01*
X80462592Y-43496779D01*
X80440487Y-43509541D01*
X80059541Y-43890487D01*
X80059535Y-43890495D01*
X80019982Y-43959004D01*
X80019979Y-43959009D01*
X79999500Y-44035439D01*
X79999500Y-67574167D01*
X79979815Y-67641206D01*
X79963181Y-67661848D01*
X77559541Y-70065487D01*
X77559535Y-70065495D01*
X77519982Y-70134004D01*
X77519979Y-70134009D01*
X77499500Y-70210439D01*
X77499500Y-82075500D01*
X77479815Y-82142539D01*
X77427011Y-82188294D01*
X77375500Y-82199500D01*
X62052611Y-82199500D01*
X61985572Y-82179815D01*
X61964930Y-82163181D01*
X61953225Y-82151476D01*
X61953221Y-82151473D01*
X61953220Y-82151472D01*
X61833126Y-82090281D01*
X61833124Y-82090280D01*
X61833121Y-82090279D01*
X61700002Y-82069196D01*
X61699998Y-82069196D01*
X61566878Y-82090279D01*
X61446778Y-82151473D01*
X61446774Y-82151476D01*
X61351476Y-82246774D01*
X61351473Y-82246778D01*
X61290279Y-82366878D01*
X61269196Y-82499997D01*
X44200500Y-82499997D01*
X44200500Y-40824500D01*
X44220185Y-40757461D01*
X44272989Y-40711706D01*
X44324500Y-40700500D01*
X91251000Y-40700500D01*
X91318039Y-40720185D01*
G37*
G04 #@! TD.AperFunction*
G04 #@! TA.AperFunction,Conductor*
G36*
X216268039Y-87919685D02*
G01*
X216313794Y-87972489D01*
X216325000Y-88024000D01*
X216325000Y-92301000D01*
X216305315Y-92368039D01*
X216252511Y-92413794D01*
X216201000Y-92425000D01*
X91350000Y-92425000D01*
X91350000Y-87900000D01*
X91375000Y-87900000D01*
X216201000Y-87900000D01*
X216268039Y-87919685D01*
G37*
G04 #@! TD.AperFunction*
G04 #@! TA.AperFunction,Conductor*
G36*
X264779290Y-40720710D02*
G01*
X264799500Y-40769500D01*
X264799500Y-42675500D01*
X264779290Y-42724290D01*
X264730500Y-42744500D01*
X250269000Y-42744500D01*
X250255953Y-42747095D01*
X250190357Y-42760142D01*
X250190354Y-42760143D01*
X250141575Y-42780348D01*
X250141563Y-42780355D01*
X250083275Y-42816980D01*
X250030354Y-42891563D01*
X250030352Y-42891567D01*
X250010142Y-42940358D01*
X249994500Y-43019000D01*
X249994500Y-48711135D01*
X249974290Y-48759925D01*
X249936294Y-48779285D01*
X249866876Y-48790279D01*
X249866869Y-48790282D01*
X249746783Y-48851469D01*
X249746779Y-48851472D01*
X249718962Y-48879290D01*
X249670172Y-48899500D01*
X248960438Y-48899500D01*
X248884011Y-48919979D01*
X248884010Y-48919979D01*
X248884008Y-48919980D01*
X248837589Y-48946780D01*
X248815491Y-48959537D01*
X248009537Y-49765491D01*
X247969980Y-49834008D01*
X247969979Y-49834010D01*
X247969979Y-49834011D01*
X247949500Y-49910438D01*
X247949500Y-96949182D01*
X247966190Y-97011469D01*
X247969979Y-97025609D01*
X248006691Y-97089196D01*
X248006692Y-97089199D01*
X248009537Y-97094127D01*
X248009542Y-97094134D01*
X249122434Y-98207025D01*
X249141794Y-98245021D01*
X249160469Y-98362933D01*
X249160472Y-98362940D01*
X249221659Y-98483026D01*
X249221662Y-98483030D01*
X249316969Y-98578337D01*
X249316973Y-98578340D01*
X249390864Y-98615989D01*
X249437064Y-98639529D01*
X249570190Y-98660614D01*
X249703316Y-98639529D01*
X249823410Y-98578338D01*
X249918718Y-98483030D01*
X249979909Y-98362936D01*
X249997091Y-98254446D01*
X250024685Y-98209420D01*
X250054445Y-98197092D01*
X250162936Y-98179909D01*
X250283030Y-98118718D01*
X250378338Y-98023410D01*
X250439529Y-97903316D01*
X250460614Y-97770190D01*
X250449497Y-97700000D01*
X251569196Y-97700000D01*
X251590281Y-97833126D01*
X251590281Y-97833127D01*
X251590282Y-97833129D01*
X251590282Y-97833130D01*
X251651469Y-97953216D01*
X251651472Y-97953220D01*
X251746779Y-98048527D01*
X251746783Y-98048530D01*
X251866870Y-98109717D01*
X251866874Y-98109719D01*
X252000000Y-98130804D01*
X252133126Y-98109719D01*
X252253220Y-98048528D01*
X252348528Y-97953220D01*
X252393306Y-97865338D01*
X252409717Y-97833130D01*
X252409717Y-97833129D01*
X252409719Y-97833126D01*
X252430804Y-97700000D01*
X252409719Y-97566874D01*
X252409717Y-97566870D01*
X252409717Y-97566869D01*
X252348530Y-97446783D01*
X252348527Y-97446779D01*
X252253220Y-97351472D01*
X252253216Y-97351469D01*
X252133129Y-97290282D01*
X252133127Y-97290281D01*
X252133126Y-97290281D01*
X252000000Y-97269196D01*
X251866874Y-97290281D01*
X251866872Y-97290281D01*
X251866870Y-97290282D01*
X251866869Y-97290282D01*
X251746783Y-97351469D01*
X251746779Y-97351472D01*
X251651472Y-97446779D01*
X251651469Y-97446783D01*
X251590282Y-97566869D01*
X251590282Y-97566870D01*
X251590281Y-97566872D01*
X251590281Y-97566874D01*
X251569196Y-97700000D01*
X250449497Y-97700000D01*
X250439529Y-97637064D01*
X250439527Y-97637060D01*
X250439527Y-97637059D01*
X250378340Y-97516973D01*
X250378337Y-97516969D01*
X250283030Y-97421662D01*
X250283026Y-97421659D01*
X250162939Y-97360472D01*
X250162937Y-97360471D01*
X250162936Y-97360471D01*
X250029810Y-97339386D01*
X250029809Y-97339386D01*
X249906890Y-97358854D01*
X249855539Y-97346525D01*
X249847307Y-97339493D01*
X248970710Y-96462896D01*
X248950500Y-96414106D01*
X248950500Y-95950000D01*
X250469196Y-95950000D01*
X250490281Y-96083126D01*
X250490281Y-96083127D01*
X250490282Y-96083129D01*
X250490282Y-96083130D01*
X250551469Y-96203216D01*
X250551472Y-96203220D01*
X250646779Y-96298527D01*
X250646783Y-96298530D01*
X250700608Y-96325955D01*
X250766874Y-96359719D01*
X250900000Y-96380804D01*
X251033126Y-96359719D01*
X251153220Y-96298528D01*
X251181038Y-96270710D01*
X251229828Y-96250500D01*
X262339559Y-96250500D01*
X262339562Y-96250500D01*
X262415989Y-96230021D01*
X262471382Y-96198040D01*
X262484508Y-96190462D01*
X262484508Y-96190461D01*
X262484511Y-96190460D01*
X262540460Y-96134511D01*
X263352216Y-95322753D01*
X263390207Y-95303395D01*
X263508126Y-95284719D01*
X263628220Y-95223528D01*
X263723528Y-95128220D01*
X263784719Y-95008126D01*
X263805804Y-94875000D01*
X263784719Y-94741874D01*
X263784717Y-94741870D01*
X263784717Y-94741869D01*
X263723530Y-94621783D01*
X263723527Y-94621779D01*
X263628220Y-94526472D01*
X263628216Y-94526469D01*
X263508129Y-94465282D01*
X263508127Y-94465281D01*
X263508126Y-94465281D01*
X263375000Y-94444196D01*
X263241874Y-94465281D01*
X263241872Y-94465281D01*
X263241870Y-94465282D01*
X263241869Y-94465282D01*
X263121783Y-94526469D01*
X263121779Y-94526472D01*
X263026472Y-94621779D01*
X263026469Y-94621783D01*
X262965282Y-94741869D01*
X262965279Y-94741876D01*
X262946604Y-94859787D01*
X262927244Y-94897783D01*
X262195739Y-95629290D01*
X262146949Y-95649500D01*
X251229828Y-95649500D01*
X251181038Y-95629290D01*
X251153220Y-95601472D01*
X251153216Y-95601469D01*
X251033129Y-95540282D01*
X251033127Y-95540281D01*
X251033126Y-95540281D01*
X250900000Y-95519196D01*
X250766874Y-95540281D01*
X250766872Y-95540281D01*
X250766870Y-95540282D01*
X250766869Y-95540282D01*
X250646783Y-95601469D01*
X250646779Y-95601472D01*
X250551472Y-95696779D01*
X250551469Y-95696783D01*
X250490282Y-95816869D01*
X250490282Y-95816870D01*
X250490281Y-95816872D01*
X250490281Y-95816874D01*
X250469196Y-95950000D01*
X248950500Y-95950000D01*
X248950500Y-94825000D01*
X250469196Y-94825000D01*
X250490281Y-94958126D01*
X250490281Y-94958127D01*
X250490282Y-94958129D01*
X250490282Y-94958130D01*
X250551469Y-95078216D01*
X250551472Y-95078220D01*
X250646779Y-95173527D01*
X250646783Y-95173530D01*
X250744908Y-95223527D01*
X250766874Y-95234719D01*
X250900000Y-95255804D01*
X251033126Y-95234719D01*
X251153220Y-95173528D01*
X251181038Y-95145710D01*
X251229828Y-95125500D01*
X261614559Y-95125500D01*
X261614562Y-95125500D01*
X261690989Y-95105021D01*
X261759511Y-95065460D01*
X261815460Y-95009511D01*
X263740460Y-93084511D01*
X263750570Y-93067000D01*
X263780021Y-93015989D01*
X263800500Y-92939562D01*
X263800500Y-64860438D01*
X263780021Y-64784011D01*
X263770497Y-64767516D01*
X263740462Y-64715491D01*
X262634508Y-63609537D01*
X262612411Y-63596780D01*
X262565991Y-63569980D01*
X262565990Y-63569979D01*
X262565989Y-63569979D01*
X262489562Y-63549500D01*
X262489559Y-63549500D01*
X261679828Y-63549500D01*
X261631038Y-63529290D01*
X261603220Y-63501472D01*
X261603216Y-63501469D01*
X261483129Y-63440282D01*
X261483127Y-63440281D01*
X261483126Y-63440281D01*
X261350000Y-63419196D01*
X261216874Y-63440281D01*
X261216872Y-63440281D01*
X261216870Y-63440282D01*
X261216869Y-63440282D01*
X261096783Y-63501469D01*
X261096779Y-63501472D01*
X261001472Y-63596779D01*
X261001469Y-63596783D01*
X260940282Y-63716869D01*
X260940282Y-63716870D01*
X260940281Y-63716872D01*
X260940281Y-63716874D01*
X260919196Y-63850000D01*
X260940281Y-63983126D01*
X260940281Y-63983127D01*
X260940282Y-63983129D01*
X260940282Y-63983130D01*
X261001469Y-64103216D01*
X261001472Y-64103220D01*
X261096779Y-64198527D01*
X261096783Y-64198530D01*
X261216870Y-64259717D01*
X261216874Y-64259719D01*
X261350000Y-64280804D01*
X261483126Y-64259719D01*
X261603220Y-64198528D01*
X261631038Y-64170710D01*
X261679828Y-64150500D01*
X262296949Y-64150500D01*
X262345739Y-64170710D01*
X263179290Y-65004261D01*
X263199500Y-65053051D01*
X263199500Y-92746949D01*
X263179290Y-92795739D01*
X261470739Y-94504290D01*
X261421949Y-94524500D01*
X251229828Y-94524500D01*
X251181038Y-94504290D01*
X251153220Y-94476472D01*
X251153216Y-94476469D01*
X251033129Y-94415282D01*
X251033127Y-94415281D01*
X251033126Y-94415281D01*
X250900000Y-94394196D01*
X250766874Y-94415281D01*
X250766872Y-94415281D01*
X250766870Y-94415282D01*
X250766869Y-94415282D01*
X250646783Y-94476469D01*
X250646779Y-94476472D01*
X250551472Y-94571779D01*
X250551469Y-94571783D01*
X250490282Y-94691869D01*
X250490282Y-94691870D01*
X250490281Y-94691872D01*
X250490281Y-94691874D01*
X250469196Y-94825000D01*
X248950500Y-94825000D01*
X248950500Y-92550000D01*
X255669196Y-92550000D01*
X255690281Y-92683126D01*
X255690281Y-92683127D01*
X255690282Y-92683129D01*
X255690282Y-92683130D01*
X255751469Y-92803216D01*
X255751472Y-92803220D01*
X255846779Y-92898527D01*
X255846783Y-92898530D01*
X255966870Y-92959717D01*
X255966874Y-92959719D01*
X256100000Y-92980804D01*
X256233126Y-92959719D01*
X256353220Y-92898528D01*
X256448528Y-92803220D01*
X256509719Y-92683126D01*
X256530804Y-92550000D01*
X256509719Y-92416874D01*
X256509717Y-92416870D01*
X256509717Y-92416869D01*
X256448530Y-92296783D01*
X256448527Y-92296779D01*
X256353220Y-92201472D01*
X256353216Y-92201469D01*
X256233129Y-92140282D01*
X256233127Y-92140281D01*
X256233126Y-92140281D01*
X256100000Y-92119196D01*
X255966874Y-92140281D01*
X255966872Y-92140281D01*
X255966870Y-92140282D01*
X255966869Y-92140282D01*
X255846783Y-92201469D01*
X255846779Y-92201472D01*
X255751472Y-92296779D01*
X255751469Y-92296783D01*
X255690282Y-92416869D01*
X255690282Y-92416870D01*
X255690281Y-92416872D01*
X255690281Y-92416874D01*
X255669196Y-92550000D01*
X248950500Y-92550000D01*
X248950500Y-82300000D01*
X254219196Y-82300000D01*
X254240281Y-82433126D01*
X254240281Y-82433127D01*
X254240282Y-82433129D01*
X254240282Y-82433130D01*
X254301469Y-82553216D01*
X254301472Y-82553220D01*
X254396779Y-82648527D01*
X254396783Y-82648530D01*
X254498781Y-82700500D01*
X254516874Y-82709719D01*
X254650000Y-82730804D01*
X254783126Y-82709719D01*
X254903220Y-82648528D01*
X254998528Y-82553220D01*
X255059719Y-82433126D01*
X255080804Y-82300000D01*
X255059719Y-82166874D01*
X255059717Y-82166870D01*
X255059717Y-82166869D01*
X254998530Y-82046783D01*
X254998527Y-82046779D01*
X254903220Y-81951472D01*
X254903216Y-81951469D01*
X254783129Y-81890282D01*
X254783127Y-81890281D01*
X254783126Y-81890281D01*
X254650000Y-81869196D01*
X254516874Y-81890281D01*
X254516872Y-81890281D01*
X254516870Y-81890282D01*
X254516869Y-81890282D01*
X254396783Y-81951469D01*
X254396779Y-81951472D01*
X254301472Y-82046779D01*
X254301469Y-82046783D01*
X254240282Y-82166869D01*
X254240282Y-82166870D01*
X254240281Y-82166872D01*
X254240281Y-82166874D01*
X254219196Y-82300000D01*
X248950500Y-82300000D01*
X248950500Y-77530252D01*
X258699500Y-77530252D01*
X258699500Y-79969747D01*
X258711133Y-80028231D01*
X258755447Y-80094552D01*
X258798816Y-80123530D01*
X258821769Y-80138867D01*
X258880252Y-80150500D01*
X258880253Y-80150500D01*
X261319747Y-80150500D01*
X261319748Y-80150500D01*
X261378231Y-80138867D01*
X261444552Y-80094552D01*
X261488867Y-80028231D01*
X261500500Y-79969748D01*
X261500500Y-79119500D01*
X261520710Y-79070710D01*
X261569500Y-79050500D01*
X262089559Y-79050500D01*
X262089562Y-79050500D01*
X262165989Y-79030021D01*
X262234511Y-78990460D01*
X262290460Y-78934511D01*
X262840460Y-78384511D01*
X262863132Y-78345242D01*
X262880021Y-78315989D01*
X262900500Y-78239562D01*
X262900500Y-65710438D01*
X262880021Y-65634011D01*
X262870497Y-65617516D01*
X262840462Y-65565491D01*
X262184508Y-64909537D01*
X262162411Y-64896780D01*
X262115991Y-64869980D01*
X262115990Y-64869979D01*
X262115989Y-64869979D01*
X262039562Y-64849500D01*
X262039559Y-64849500D01*
X260829828Y-64849500D01*
X260781038Y-64829290D01*
X260753220Y-64801472D01*
X260753216Y-64801469D01*
X260633129Y-64740282D01*
X260633127Y-64740281D01*
X260633126Y-64740281D01*
X260500000Y-64719196D01*
X260366874Y-64740281D01*
X260366872Y-64740281D01*
X260366870Y-64740282D01*
X260366869Y-64740282D01*
X260246783Y-64801469D01*
X260246779Y-64801472D01*
X260151472Y-64896779D01*
X260151469Y-64896783D01*
X260090282Y-65016869D01*
X260090282Y-65016870D01*
X260090281Y-65016872D01*
X260090281Y-65016874D01*
X260069196Y-65150000D01*
X260090281Y-65283126D01*
X260090281Y-65283127D01*
X260090282Y-65283129D01*
X260090282Y-65283130D01*
X260151469Y-65403216D01*
X260151472Y-65403220D01*
X260246779Y-65498527D01*
X260246783Y-65498530D01*
X260366870Y-65559717D01*
X260366874Y-65559719D01*
X260500000Y-65580804D01*
X260633126Y-65559719D01*
X260753220Y-65498528D01*
X260781038Y-65470710D01*
X260829828Y-65450500D01*
X261846949Y-65450500D01*
X261895739Y-65470710D01*
X262279290Y-65854261D01*
X262299500Y-65903051D01*
X262299500Y-78046949D01*
X262279290Y-78095739D01*
X261945739Y-78429290D01*
X261896949Y-78449500D01*
X261569500Y-78449500D01*
X261520710Y-78429290D01*
X261500500Y-78380500D01*
X261500500Y-77530252D01*
X261488867Y-77471769D01*
X261468954Y-77441968D01*
X261444552Y-77405447D01*
X261378231Y-77361133D01*
X261319748Y-77349500D01*
X258880252Y-77349500D01*
X258851010Y-77355316D01*
X258821768Y-77361133D01*
X258755447Y-77405447D01*
X258711133Y-77471768D01*
X258699500Y-77530252D01*
X248950500Y-77530252D01*
X248950500Y-75249995D01*
X258694700Y-75249995D01*
X258694700Y-75250004D01*
X258713864Y-75481297D01*
X258770845Y-75706307D01*
X258864072Y-75918842D01*
X258864074Y-75918846D01*
X258864076Y-75918849D01*
X258919622Y-76003868D01*
X258991021Y-76113154D01*
X259080987Y-76210883D01*
X259148216Y-76283913D01*
X259331374Y-76426470D01*
X259535497Y-76536936D01*
X259535503Y-76536939D01*
X259755012Y-76612296D01*
X259755014Y-76612296D01*
X259755019Y-76612298D01*
X259983951Y-76650500D01*
X259983953Y-76650500D01*
X260216047Y-76650500D01*
X260216049Y-76650500D01*
X260444981Y-76612298D01*
X260525293Y-76584727D01*
X260664496Y-76536939D01*
X260664499Y-76536937D01*
X260664503Y-76536936D01*
X260868626Y-76426470D01*
X261051784Y-76283913D01*
X261208979Y-76113153D01*
X261335924Y-75918849D01*
X261429157Y-75706300D01*
X261486134Y-75481305D01*
X261495847Y-75364090D01*
X261505300Y-75250004D01*
X261505300Y-75249995D01*
X261486135Y-75018702D01*
X261486134Y-75018699D01*
X261486134Y-75018695D01*
X261429157Y-74793700D01*
X261429154Y-74793694D01*
X261429154Y-74793692D01*
X261335927Y-74581157D01*
X261335925Y-74581155D01*
X261335924Y-74581151D01*
X261208979Y-74386847D01*
X261208978Y-74386845D01*
X261051786Y-74216089D01*
X261051785Y-74216088D01*
X261051784Y-74216087D01*
X260868626Y-74073530D01*
X260664503Y-73963064D01*
X260664504Y-73963064D01*
X260664496Y-73963060D01*
X260444987Y-73887703D01*
X260444982Y-73887702D01*
X260216054Y-73849500D01*
X260216049Y-73849500D01*
X259983951Y-73849500D01*
X259983945Y-73849500D01*
X259755017Y-73887702D01*
X259755012Y-73887703D01*
X259535503Y-73963060D01*
X259394139Y-74039563D01*
X259331374Y-74073530D01*
X259331372Y-74073530D01*
X259331369Y-74073533D01*
X259331367Y-74073535D01*
X259148216Y-74216087D01*
X259148213Y-74216089D01*
X258991021Y-74386845D01*
X258864072Y-74581157D01*
X258770845Y-74793692D01*
X258713864Y-75018702D01*
X258694700Y-75249995D01*
X248950500Y-75249995D01*
X248950500Y-71749995D01*
X258694700Y-71749995D01*
X258694700Y-71750004D01*
X258713864Y-71981297D01*
X258770845Y-72206307D01*
X258864072Y-72418842D01*
X258864074Y-72418846D01*
X258864076Y-72418849D01*
X258895612Y-72467118D01*
X258991021Y-72613154D01*
X259120657Y-72753976D01*
X259148216Y-72783913D01*
X259331374Y-72926470D01*
X259521049Y-73029117D01*
X259535503Y-73036939D01*
X259755012Y-73112296D01*
X259755014Y-73112296D01*
X259755019Y-73112298D01*
X259983951Y-73150500D01*
X259983953Y-73150500D01*
X260216047Y-73150500D01*
X260216049Y-73150500D01*
X260444981Y-73112298D01*
X260444987Y-73112296D01*
X260664496Y-73036939D01*
X260664499Y-73036937D01*
X260664503Y-73036936D01*
X260868626Y-72926470D01*
X261051784Y-72783913D01*
X261208979Y-72613153D01*
X261335924Y-72418849D01*
X261429157Y-72206300D01*
X261486134Y-71981305D01*
X261505300Y-71750000D01*
X261500284Y-71689460D01*
X261486135Y-71518702D01*
X261486134Y-71518699D01*
X261486134Y-71518695D01*
X261429157Y-71293700D01*
X261429154Y-71293694D01*
X261429154Y-71293692D01*
X261335927Y-71081157D01*
X261335925Y-71081155D01*
X261335924Y-71081151D01*
X261208979Y-70886847D01*
X261208978Y-70886845D01*
X261051786Y-70716089D01*
X261051785Y-70716088D01*
X261051784Y-70716087D01*
X260868626Y-70573530D01*
X260664503Y-70463064D01*
X260664504Y-70463064D01*
X260664496Y-70463060D01*
X260444987Y-70387703D01*
X260444982Y-70387702D01*
X260216054Y-70349500D01*
X260216049Y-70349500D01*
X259983951Y-70349500D01*
X259983945Y-70349500D01*
X259755017Y-70387702D01*
X259755012Y-70387703D01*
X259535503Y-70463060D01*
X259388711Y-70542500D01*
X259331374Y-70573530D01*
X259331372Y-70573530D01*
X259331369Y-70573533D01*
X259331367Y-70573535D01*
X259148216Y-70716087D01*
X259148213Y-70716089D01*
X258991021Y-70886845D01*
X258864072Y-71081157D01*
X258770845Y-71293692D01*
X258713864Y-71518702D01*
X258694700Y-71749995D01*
X248950500Y-71749995D01*
X248950500Y-50503051D01*
X248970710Y-50454261D01*
X249254261Y-50170710D01*
X249303051Y-50150500D01*
X249670172Y-50150500D01*
X249718962Y-50170710D01*
X249746779Y-50198527D01*
X249746783Y-50198530D01*
X249866867Y-50259716D01*
X249866872Y-50259718D01*
X249866874Y-50259719D01*
X249936295Y-50270713D01*
X249981322Y-50298306D01*
X249994500Y-50338864D01*
X249994500Y-52395763D01*
X249994500Y-56631000D01*
X249996346Y-56640281D01*
X250010142Y-56709642D01*
X250010143Y-56709645D01*
X250030348Y-56758424D01*
X250030352Y-56758431D01*
X250030353Y-56758433D01*
X250054447Y-56796779D01*
X250066980Y-56816724D01*
X250141563Y-56869645D01*
X250141567Y-56869647D01*
X250190357Y-56889857D01*
X250269000Y-56905500D01*
X250269001Y-56905500D01*
X264730500Y-56905500D01*
X264779290Y-56925710D01*
X264799500Y-56974500D01*
X264799500Y-122230500D01*
X264779290Y-122279290D01*
X264730500Y-122299500D01*
X91769000Y-122299500D01*
X91720210Y-122279290D01*
X91700000Y-122230500D01*
X91700000Y-119900000D01*
X147169196Y-119900000D01*
X147190281Y-120033126D01*
X147190281Y-120033127D01*
X147190282Y-120033129D01*
X147190282Y-120033130D01*
X147251469Y-120153216D01*
X147251472Y-120153220D01*
X147346779Y-120248527D01*
X147346783Y-120248530D01*
X147466870Y-120309717D01*
X147466874Y-120309719D01*
X147600000Y-120330804D01*
X147733126Y-120309719D01*
X147853220Y-120248528D01*
X147948528Y-120153220D01*
X148009719Y-120033126D01*
X148030804Y-119900000D01*
X148269196Y-119900000D01*
X148290281Y-120033126D01*
X148290281Y-120033127D01*
X148290282Y-120033129D01*
X148290282Y-120033130D01*
X148351469Y-120153216D01*
X148351472Y-120153220D01*
X148446779Y-120248527D01*
X148446783Y-120248530D01*
X148566870Y-120309717D01*
X148566874Y-120309719D01*
X148700000Y-120330804D01*
X148833126Y-120309719D01*
X148953220Y-120248528D01*
X149048528Y-120153220D01*
X149109719Y-120033126D01*
X149130804Y-119900000D01*
X219369196Y-119900000D01*
X219390281Y-120033126D01*
X219390281Y-120033127D01*
X219390282Y-120033129D01*
X219390282Y-120033130D01*
X219451469Y-120153216D01*
X219451472Y-120153220D01*
X219546779Y-120248527D01*
X219546783Y-120248530D01*
X219666870Y-120309717D01*
X219666874Y-120309719D01*
X219800000Y-120330804D01*
X219933126Y-120309719D01*
X220053220Y-120248528D01*
X220148528Y-120153220D01*
X220209719Y-120033126D01*
X220230804Y-119900000D01*
X220469196Y-119900000D01*
X220490281Y-120033126D01*
X220490281Y-120033127D01*
X220490282Y-120033129D01*
X220490282Y-120033130D01*
X220551469Y-120153216D01*
X220551472Y-120153220D01*
X220646779Y-120248527D01*
X220646783Y-120248530D01*
X220766870Y-120309717D01*
X220766874Y-120309719D01*
X220900000Y-120330804D01*
X221033126Y-120309719D01*
X221153220Y-120248528D01*
X221248528Y-120153220D01*
X221309719Y-120033126D01*
X221330804Y-119900000D01*
X221309719Y-119766874D01*
X221309717Y-119766870D01*
X221309717Y-119766869D01*
X221248530Y-119646783D01*
X221248527Y-119646779D01*
X221153220Y-119551472D01*
X221153216Y-119551469D01*
X221033129Y-119490282D01*
X221033127Y-119490281D01*
X221033126Y-119490281D01*
X220900000Y-119469196D01*
X220766874Y-119490281D01*
X220766872Y-119490281D01*
X220766870Y-119490282D01*
X220766869Y-119490282D01*
X220646783Y-119551469D01*
X220646779Y-119551472D01*
X220551472Y-119646779D01*
X220551469Y-119646783D01*
X220490282Y-119766869D01*
X220490282Y-119766870D01*
X220490281Y-119766872D01*
X220490281Y-119766874D01*
X220469196Y-119900000D01*
X220230804Y-119900000D01*
X220209719Y-119766874D01*
X220209717Y-119766870D01*
X220209717Y-119766869D01*
X220148530Y-119646783D01*
X220148527Y-119646779D01*
X220053220Y-119551472D01*
X220053216Y-119551469D01*
X219933129Y-119490282D01*
X219933127Y-119490281D01*
X219933126Y-119490281D01*
X219800000Y-119469196D01*
X219666874Y-119490281D01*
X219666872Y-119490281D01*
X219666870Y-119490282D01*
X219666869Y-119490282D01*
X219546783Y-119551469D01*
X219546779Y-119551472D01*
X219451472Y-119646779D01*
X219451469Y-119646783D01*
X219390282Y-119766869D01*
X219390282Y-119766870D01*
X219390281Y-119766872D01*
X219390281Y-119766874D01*
X219369196Y-119900000D01*
X149130804Y-119900000D01*
X149109719Y-119766874D01*
X149109717Y-119766870D01*
X149109717Y-119766869D01*
X149048530Y-119646783D01*
X149048527Y-119646779D01*
X148953220Y-119551472D01*
X148953216Y-119551469D01*
X148833129Y-119490282D01*
X148833127Y-119490281D01*
X148833126Y-119490281D01*
X148700000Y-119469196D01*
X148566874Y-119490281D01*
X148566872Y-119490281D01*
X148566870Y-119490282D01*
X148566869Y-119490282D01*
X148446783Y-119551469D01*
X148446779Y-119551472D01*
X148351472Y-119646779D01*
X148351469Y-119646783D01*
X148290282Y-119766869D01*
X148290282Y-119766870D01*
X148290281Y-119766872D01*
X148290281Y-119766874D01*
X148269196Y-119900000D01*
X148030804Y-119900000D01*
X148009719Y-119766874D01*
X148009717Y-119766870D01*
X148009717Y-119766869D01*
X147948530Y-119646783D01*
X147948527Y-119646779D01*
X147853220Y-119551472D01*
X147853216Y-119551469D01*
X147733129Y-119490282D01*
X147733127Y-119490281D01*
X147733126Y-119490281D01*
X147600000Y-119469196D01*
X147466874Y-119490281D01*
X147466872Y-119490281D01*
X147466870Y-119490282D01*
X147466869Y-119490282D01*
X147346783Y-119551469D01*
X147346779Y-119551472D01*
X147251472Y-119646779D01*
X147251469Y-119646783D01*
X147190282Y-119766869D01*
X147190282Y-119766870D01*
X147190281Y-119766872D01*
X147190281Y-119766874D01*
X147169196Y-119900000D01*
X91700000Y-119900000D01*
X91700000Y-115900000D01*
X233769196Y-115900000D01*
X233790281Y-116033126D01*
X233790281Y-116033127D01*
X233790282Y-116033129D01*
X233790282Y-116033130D01*
X233851469Y-116153216D01*
X233851472Y-116153220D01*
X233946779Y-116248527D01*
X233946783Y-116248530D01*
X234071712Y-116312185D01*
X234070922Y-116313733D01*
X234105979Y-116343678D01*
X234110120Y-116396326D01*
X234075820Y-116436481D01*
X234067851Y-116439782D01*
X233946783Y-116501469D01*
X233946779Y-116501472D01*
X233851472Y-116596779D01*
X233851469Y-116596783D01*
X233790282Y-116716869D01*
X233790282Y-116716870D01*
X233790281Y-116716872D01*
X233790281Y-116716874D01*
X233769196Y-116850000D01*
X233790281Y-116983126D01*
X233790281Y-116983127D01*
X233790282Y-116983129D01*
X233790282Y-116983130D01*
X233851469Y-117103216D01*
X233851472Y-117103220D01*
X233946779Y-117198527D01*
X233946783Y-117198530D01*
X234066870Y-117259717D01*
X234066874Y-117259719D01*
X234200000Y-117280804D01*
X234333126Y-117259719D01*
X234453220Y-117198528D01*
X234548528Y-117103220D01*
X234563521Y-117073793D01*
X234603677Y-117039497D01*
X234656325Y-117043640D01*
X234686478Y-117073793D01*
X234701470Y-117103216D01*
X234701472Y-117103220D01*
X234796779Y-117198527D01*
X234796783Y-117198530D01*
X234916870Y-117259717D01*
X234916874Y-117259719D01*
X235050000Y-117280804D01*
X235183126Y-117259719D01*
X235303220Y-117198528D01*
X235398528Y-117103220D01*
X235459719Y-116983126D01*
X235480804Y-116850000D01*
X235459719Y-116716874D01*
X235459717Y-116716870D01*
X235459717Y-116716869D01*
X235398530Y-116596783D01*
X235398528Y-116596781D01*
X235398528Y-116596780D01*
X235303220Y-116501472D01*
X235303216Y-116501469D01*
X235178288Y-116437815D01*
X235179077Y-116436265D01*
X235144022Y-116406326D01*
X235139878Y-116353679D01*
X235174175Y-116313521D01*
X235182143Y-116310220D01*
X235303216Y-116248530D01*
X235303215Y-116248530D01*
X235303220Y-116248528D01*
X235398528Y-116153220D01*
X235459719Y-116033126D01*
X235480804Y-115900000D01*
X235459719Y-115766874D01*
X235459717Y-115766870D01*
X235459717Y-115766869D01*
X235398530Y-115646783D01*
X235398528Y-115646781D01*
X235398528Y-115646780D01*
X235303220Y-115551472D01*
X235303216Y-115551469D01*
X235183129Y-115490282D01*
X235183127Y-115490281D01*
X235183126Y-115490281D01*
X235050000Y-115469196D01*
X234916874Y-115490281D01*
X234916872Y-115490281D01*
X234916870Y-115490282D01*
X234916869Y-115490282D01*
X234796783Y-115551469D01*
X234796779Y-115551472D01*
X234701472Y-115646779D01*
X234701471Y-115646781D01*
X234686479Y-115676205D01*
X234646322Y-115710502D01*
X234593674Y-115706358D01*
X234563521Y-115676205D01*
X234551807Y-115653216D01*
X234548528Y-115646780D01*
X234453220Y-115551472D01*
X234453216Y-115551469D01*
X234333129Y-115490282D01*
X234333127Y-115490281D01*
X234333126Y-115490281D01*
X234200000Y-115469196D01*
X234066874Y-115490281D01*
X234066872Y-115490281D01*
X234066870Y-115490282D01*
X234066869Y-115490282D01*
X233946783Y-115551469D01*
X233946779Y-115551472D01*
X233851472Y-115646779D01*
X233851469Y-115646783D01*
X233790282Y-115766869D01*
X233790282Y-115766870D01*
X233790281Y-115766872D01*
X233790281Y-115766874D01*
X233769196Y-115900000D01*
X91700000Y-115900000D01*
X91700000Y-112969000D01*
X91720210Y-112920210D01*
X91769000Y-112900000D01*
X215708449Y-112900000D01*
X215757239Y-112920210D01*
X215777449Y-112969000D01*
X215757239Y-113017790D01*
X214495739Y-114279290D01*
X214446949Y-114299500D01*
X135060438Y-114299500D01*
X135003117Y-114314859D01*
X134984010Y-114319979D01*
X134915491Y-114359538D01*
X134915486Y-114359542D01*
X134322783Y-114952244D01*
X134284787Y-114971604D01*
X134166876Y-114990279D01*
X134166869Y-114990282D01*
X134046783Y-115051469D01*
X134046779Y-115051472D01*
X133951472Y-115146779D01*
X133951469Y-115146783D01*
X133890282Y-115266869D01*
X133890282Y-115266870D01*
X133890281Y-115266872D01*
X133890281Y-115266874D01*
X133869196Y-115400000D01*
X133890281Y-115533126D01*
X133890281Y-115533127D01*
X133890282Y-115533129D01*
X133890282Y-115533130D01*
X133951469Y-115653216D01*
X133951472Y-115653220D01*
X134046779Y-115748527D01*
X134046783Y-115748530D01*
X134166870Y-115809717D01*
X134166874Y-115809719D01*
X134300000Y-115830804D01*
X134433126Y-115809719D01*
X134553220Y-115748528D01*
X134648528Y-115653220D01*
X134709719Y-115533126D01*
X134728395Y-115415207D01*
X134747753Y-115377216D01*
X135204261Y-114920710D01*
X135253051Y-114900500D01*
X204831172Y-114900500D01*
X204879962Y-114920710D01*
X204900172Y-114969500D01*
X204879962Y-115018290D01*
X204851472Y-115046779D01*
X204851469Y-115046783D01*
X204790282Y-115166869D01*
X204790282Y-115166870D01*
X204790281Y-115166872D01*
X204790281Y-115166874D01*
X204769196Y-115300000D01*
X204790281Y-115433126D01*
X204790281Y-115433127D01*
X204790282Y-115433129D01*
X204790282Y-115433130D01*
X204851469Y-115553216D01*
X204851472Y-115553220D01*
X204946779Y-115648527D01*
X204946783Y-115648530D01*
X205001099Y-115676205D01*
X205066874Y-115709719D01*
X205200000Y-115730804D01*
X205333126Y-115709719D01*
X205453220Y-115648528D01*
X205481038Y-115620710D01*
X205529828Y-115600500D01*
X215039559Y-115600500D01*
X215039562Y-115600500D01*
X215115989Y-115580021D01*
X215184511Y-115540460D01*
X215240460Y-115484511D01*
X217804761Y-112920210D01*
X217853551Y-112900000D01*
X218100000Y-112900000D01*
X218100000Y-112653551D01*
X218120210Y-112604761D01*
X219099971Y-111625000D01*
X230694196Y-111625000D01*
X230715281Y-111758126D01*
X230715281Y-111758127D01*
X230715282Y-111758129D01*
X230715282Y-111758130D01*
X230776469Y-111878216D01*
X230776472Y-111878220D01*
X230871779Y-111973527D01*
X230871783Y-111973530D01*
X230991870Y-112034717D01*
X230991874Y-112034719D01*
X231125000Y-112055804D01*
X231258126Y-112034719D01*
X231378220Y-111973528D01*
X231473528Y-111878220D01*
X231534719Y-111758126D01*
X231555804Y-111625000D01*
X231534719Y-111491874D01*
X231534717Y-111491870D01*
X231534717Y-111491869D01*
X231473530Y-111371783D01*
X231473527Y-111371779D01*
X231378220Y-111276472D01*
X231378216Y-111276469D01*
X231258129Y-111215282D01*
X231258127Y-111215281D01*
X231258126Y-111215281D01*
X231125000Y-111194196D01*
X230991874Y-111215281D01*
X230991872Y-111215281D01*
X230991870Y-111215282D01*
X230991869Y-111215282D01*
X230871783Y-111276469D01*
X230871779Y-111276472D01*
X230776472Y-111371779D01*
X230776469Y-111371783D01*
X230715282Y-111491869D01*
X230715282Y-111491870D01*
X230715281Y-111491872D01*
X230715281Y-111491874D01*
X230694196Y-111625000D01*
X219099971Y-111625000D01*
X219904261Y-110820710D01*
X219953051Y-110800500D01*
X234512455Y-110800500D01*
X234561245Y-110820710D01*
X234581455Y-110869500D01*
X234573934Y-110900826D01*
X234540281Y-110966871D01*
X234540281Y-110966874D01*
X234519196Y-111100000D01*
X234540281Y-111233126D01*
X234540281Y-111233127D01*
X234540282Y-111233129D01*
X234540282Y-111233130D01*
X234601469Y-111353216D01*
X234601472Y-111353220D01*
X234696779Y-111448527D01*
X234696783Y-111448530D01*
X234726472Y-111463657D01*
X234816874Y-111509719D01*
X234950000Y-111530804D01*
X235083126Y-111509719D01*
X235203220Y-111448528D01*
X235298528Y-111353220D01*
X235359719Y-111233126D01*
X235380804Y-111100000D01*
X235359719Y-110966874D01*
X235359718Y-110966872D01*
X235359718Y-110966871D01*
X235326066Y-110900826D01*
X235321922Y-110848178D01*
X235356219Y-110808021D01*
X235387545Y-110800500D01*
X239039559Y-110800500D01*
X239039562Y-110800500D01*
X239115989Y-110780021D01*
X239168016Y-110749983D01*
X239184508Y-110740462D01*
X239184508Y-110740461D01*
X239184511Y-110740460D01*
X239240460Y-110684511D01*
X243024970Y-106900000D01*
X248069196Y-106900000D01*
X248090281Y-107033126D01*
X248090281Y-107033127D01*
X248090282Y-107033129D01*
X248090282Y-107033130D01*
X248151469Y-107153216D01*
X248151472Y-107153220D01*
X248246780Y-107248528D01*
X248261824Y-107256193D01*
X248296123Y-107296350D01*
X248299500Y-107317673D01*
X248299500Y-115932215D01*
X248291981Y-115963538D01*
X248290281Y-115966873D01*
X248270203Y-116093640D01*
X248269196Y-116100000D01*
X248290281Y-116233126D01*
X248290281Y-116233127D01*
X248290282Y-116233129D01*
X248290282Y-116233130D01*
X248351469Y-116353216D01*
X248351472Y-116353220D01*
X248446779Y-116448527D01*
X248446783Y-116448530D01*
X248550682Y-116501469D01*
X248566874Y-116509719D01*
X248700000Y-116530804D01*
X248833126Y-116509719D01*
X248953220Y-116448528D01*
X249048528Y-116353220D01*
X249109719Y-116233126D01*
X249130804Y-116100000D01*
X249109719Y-115966874D01*
X249108018Y-115963536D01*
X249100500Y-115932215D01*
X249100500Y-114030252D01*
X258699500Y-114030252D01*
X258699500Y-116469747D01*
X258711133Y-116528231D01*
X258755447Y-116594552D01*
X258799762Y-116624162D01*
X258821769Y-116638867D01*
X258880252Y-116650500D01*
X258880253Y-116650500D01*
X261319747Y-116650500D01*
X261319748Y-116650500D01*
X261378231Y-116638867D01*
X261444552Y-116594552D01*
X261488867Y-116528231D01*
X261500500Y-116469748D01*
X261500500Y-114030252D01*
X261488867Y-113971769D01*
X261474162Y-113949762D01*
X261444552Y-113905447D01*
X261378231Y-113861133D01*
X261319748Y-113849500D01*
X258880252Y-113849500D01*
X258851010Y-113855316D01*
X258821768Y-113861133D01*
X258755447Y-113905447D01*
X258711133Y-113971768D01*
X258699500Y-114030252D01*
X249100500Y-114030252D01*
X249100500Y-111749995D01*
X258694700Y-111749995D01*
X258694700Y-111750004D01*
X258713864Y-111981297D01*
X258770845Y-112206307D01*
X258864072Y-112418842D01*
X258864074Y-112418846D01*
X258864076Y-112418849D01*
X258923406Y-112509660D01*
X258991021Y-112613154D01*
X259148213Y-112783910D01*
X259148216Y-112783913D01*
X259331374Y-112926470D01*
X259535497Y-113036936D01*
X259535503Y-113036939D01*
X259755012Y-113112296D01*
X259755014Y-113112296D01*
X259755019Y-113112298D01*
X259983951Y-113150500D01*
X259983953Y-113150500D01*
X260216047Y-113150500D01*
X260216049Y-113150500D01*
X260444981Y-113112298D01*
X260444987Y-113112296D01*
X260664496Y-113036939D01*
X260664499Y-113036937D01*
X260664503Y-113036936D01*
X260868626Y-112926470D01*
X261051784Y-112783913D01*
X261208979Y-112613153D01*
X261335924Y-112418849D01*
X261429157Y-112206300D01*
X261486134Y-111981305D01*
X261486779Y-111973530D01*
X261505300Y-111750004D01*
X261505300Y-111749995D01*
X261486135Y-111518702D01*
X261486134Y-111518699D01*
X261486134Y-111518695D01*
X261429157Y-111293700D01*
X261429154Y-111293694D01*
X261429154Y-111293692D01*
X261335927Y-111081157D01*
X261335925Y-111081155D01*
X261335924Y-111081151D01*
X261208979Y-110886847D01*
X261208978Y-110886845D01*
X261051786Y-110716089D01*
X261051785Y-110716088D01*
X261051784Y-110716087D01*
X260868626Y-110573530D01*
X260664503Y-110463064D01*
X260664504Y-110463064D01*
X260664496Y-110463060D01*
X260444987Y-110387703D01*
X260444982Y-110387702D01*
X260216054Y-110349500D01*
X260216049Y-110349500D01*
X259983951Y-110349500D01*
X259983945Y-110349500D01*
X259755017Y-110387702D01*
X259755012Y-110387703D01*
X259535503Y-110463060D01*
X259388711Y-110542500D01*
X259331374Y-110573530D01*
X259331372Y-110573530D01*
X259331369Y-110573533D01*
X259331367Y-110573535D01*
X259148216Y-110716087D01*
X259148213Y-110716089D01*
X258991021Y-110886845D01*
X258864072Y-111081157D01*
X258770845Y-111293692D01*
X258713864Y-111518702D01*
X258694700Y-111749995D01*
X249100500Y-111749995D01*
X249100500Y-107158295D01*
X249100501Y-107158282D01*
X249100501Y-107047275D01*
X249100501Y-107047273D01*
X249073207Y-106945413D01*
X249058667Y-106920228D01*
X249055479Y-106914706D01*
X249055479Y-106914707D01*
X249020480Y-106854087D01*
X248945913Y-106779520D01*
X248941983Y-106775590D01*
X248941976Y-106775584D01*
X248892985Y-106726593D01*
X248880295Y-106709128D01*
X248848528Y-106646780D01*
X248753220Y-106551472D01*
X248753216Y-106551469D01*
X248633129Y-106490282D01*
X248633127Y-106490281D01*
X248633126Y-106490281D01*
X248500000Y-106469196D01*
X248366874Y-106490281D01*
X248366872Y-106490281D01*
X248366870Y-106490282D01*
X248366869Y-106490282D01*
X248246783Y-106551469D01*
X248246779Y-106551472D01*
X248151472Y-106646779D01*
X248151469Y-106646783D01*
X248090282Y-106766869D01*
X248090282Y-106766870D01*
X248090281Y-106766872D01*
X248090281Y-106766874D01*
X248069196Y-106900000D01*
X243024970Y-106900000D01*
X244874969Y-105050000D01*
X254269196Y-105050000D01*
X254290281Y-105183126D01*
X254290281Y-105183127D01*
X254290282Y-105183129D01*
X254290282Y-105183130D01*
X254351469Y-105303216D01*
X254351472Y-105303220D01*
X254446779Y-105398527D01*
X254446783Y-105398530D01*
X254499099Y-105425186D01*
X254566874Y-105459719D01*
X254700000Y-105480804D01*
X254833126Y-105459719D01*
X254953220Y-105398528D01*
X255048528Y-105303220D01*
X255109719Y-105183126D01*
X255130804Y-105050000D01*
X255109719Y-104916874D01*
X255109717Y-104916870D01*
X255109717Y-104916869D01*
X255048530Y-104796783D01*
X255048527Y-104796779D01*
X254953220Y-104701472D01*
X254953216Y-104701469D01*
X254833129Y-104640282D01*
X254833127Y-104640281D01*
X254833126Y-104640281D01*
X254700000Y-104619196D01*
X254566874Y-104640281D01*
X254566872Y-104640281D01*
X254566870Y-104640282D01*
X254566869Y-104640282D01*
X254446783Y-104701469D01*
X254446779Y-104701472D01*
X254351472Y-104796779D01*
X254351469Y-104796783D01*
X254290282Y-104916869D01*
X254290282Y-104916870D01*
X254290281Y-104916872D01*
X254290281Y-104916874D01*
X254269196Y-105050000D01*
X244874969Y-105050000D01*
X245524969Y-104400000D01*
X255669196Y-104400000D01*
X255690281Y-104533126D01*
X255690282Y-104533130D01*
X255751469Y-104653216D01*
X255751472Y-104653220D01*
X255846779Y-104748527D01*
X255846783Y-104748530D01*
X255966870Y-104809717D01*
X255966874Y-104809719D01*
X256100000Y-104830804D01*
X256233126Y-104809719D01*
X256258821Y-104796627D01*
X256295091Y-104778146D01*
X256353220Y-104748528D01*
X256381038Y-104720710D01*
X256429828Y-104700500D01*
X258089559Y-104700500D01*
X258089562Y-104700500D01*
X258165989Y-104680021D01*
X258234511Y-104640460D01*
X258290460Y-104584511D01*
X259204261Y-103670710D01*
X259253051Y-103650500D01*
X260130500Y-103650500D01*
X260179290Y-103670710D01*
X260199500Y-103719500D01*
X260199500Y-103869747D01*
X260211133Y-103928231D01*
X260255447Y-103994552D01*
X260278251Y-104009789D01*
X260321769Y-104038867D01*
X260380252Y-104050500D01*
X260380253Y-104050500D01*
X261419747Y-104050500D01*
X261419748Y-104050500D01*
X261478231Y-104038867D01*
X261544552Y-103994552D01*
X261588867Y-103928231D01*
X261600500Y-103869748D01*
X261600500Y-102830252D01*
X261588867Y-102771769D01*
X261561312Y-102730531D01*
X261544552Y-102705447D01*
X261478232Y-102661133D01*
X261468312Y-102659160D01*
X261424404Y-102629818D01*
X261414103Y-102578021D01*
X261426956Y-102552154D01*
X261425812Y-102551364D01*
X261429753Y-102545653D01*
X261524818Y-102407930D01*
X261585140Y-102248872D01*
X261605645Y-102080000D01*
X261585140Y-101911128D01*
X261524818Y-101752070D01*
X261428183Y-101612071D01*
X261428181Y-101612069D01*
X261428182Y-101612069D01*
X261300850Y-101499264D01*
X261150226Y-101420210D01*
X260985056Y-101379500D01*
X260814944Y-101379500D01*
X260649773Y-101420210D01*
X260499149Y-101499264D01*
X260499148Y-101499264D01*
X260371818Y-101612069D01*
X260275183Y-101752067D01*
X260275180Y-101752074D01*
X260214860Y-101911127D01*
X260194355Y-102080000D01*
X260214860Y-102248872D01*
X260275180Y-102407925D01*
X260275183Y-102407932D01*
X260374188Y-102551364D01*
X260372265Y-102552691D01*
X260387097Y-102595630D01*
X260363994Y-102643119D01*
X260331687Y-102659159D01*
X260321771Y-102661132D01*
X260321769Y-102661132D01*
X260255447Y-102705447D01*
X260211133Y-102771768D01*
X260199500Y-102830252D01*
X260199500Y-102980500D01*
X260179290Y-103029290D01*
X260130500Y-103049500D01*
X259060438Y-103049500D01*
X258984011Y-103069979D01*
X258984010Y-103069979D01*
X258984008Y-103069980D01*
X258938692Y-103096144D01*
X258915491Y-103109538D01*
X258915486Y-103109542D01*
X257945739Y-104079290D01*
X257896949Y-104099500D01*
X256429828Y-104099500D01*
X256381038Y-104079290D01*
X256353220Y-104051472D01*
X256353216Y-104051469D01*
X256233129Y-103990282D01*
X256233127Y-103990281D01*
X256233126Y-103990281D01*
X256100000Y-103969196D01*
X255966874Y-103990281D01*
X255966872Y-103990281D01*
X255966870Y-103990282D01*
X255966869Y-103990282D01*
X255846783Y-104051469D01*
X255846779Y-104051472D01*
X255751472Y-104146779D01*
X255751469Y-104146783D01*
X255690282Y-104266869D01*
X255690282Y-104266870D01*
X255690281Y-104266872D01*
X255690281Y-104266874D01*
X255669196Y-104400000D01*
X245524969Y-104400000D01*
X246424969Y-103500000D01*
X250619196Y-103500000D01*
X250640281Y-103633126D01*
X250640281Y-103633127D01*
X250640282Y-103633129D01*
X250640282Y-103633130D01*
X250701469Y-103753216D01*
X250701472Y-103753220D01*
X250796779Y-103848527D01*
X250796783Y-103848530D01*
X250911294Y-103906876D01*
X250916874Y-103909719D01*
X251050000Y-103930804D01*
X251183126Y-103909719D01*
X251303220Y-103848528D01*
X251398528Y-103753220D01*
X251429123Y-103693173D01*
X251459717Y-103633130D01*
X251459717Y-103633129D01*
X251459719Y-103633126D01*
X251480804Y-103500000D01*
X251459719Y-103366874D01*
X251459717Y-103366870D01*
X251459717Y-103366869D01*
X251398530Y-103246783D01*
X251398527Y-103246779D01*
X251303220Y-103151472D01*
X251303216Y-103151469D01*
X251183129Y-103090282D01*
X251183127Y-103090281D01*
X251183126Y-103090281D01*
X251050000Y-103069196D01*
X250916874Y-103090281D01*
X250916872Y-103090281D01*
X250916870Y-103090282D01*
X250916869Y-103090282D01*
X250796783Y-103151469D01*
X250796779Y-103151472D01*
X250701472Y-103246779D01*
X250701469Y-103246783D01*
X250640282Y-103366869D01*
X250640282Y-103366870D01*
X250640281Y-103366872D01*
X250640281Y-103366874D01*
X250619196Y-103500000D01*
X246424969Y-103500000D01*
X246777216Y-103147753D01*
X246815207Y-103128395D01*
X246933126Y-103109719D01*
X247053220Y-103048528D01*
X247148528Y-102953220D01*
X247209719Y-102833126D01*
X247230804Y-102700000D01*
X247209719Y-102566874D01*
X247209717Y-102566870D01*
X247209717Y-102566869D01*
X247148530Y-102446783D01*
X247148527Y-102446779D01*
X247053220Y-102351472D01*
X247053218Y-102351471D01*
X246991840Y-102320197D01*
X246957543Y-102280040D01*
X246961686Y-102227394D01*
X247009719Y-102133126D01*
X247030804Y-102000000D01*
X247009719Y-101866874D01*
X247009717Y-101866870D01*
X247009717Y-101866869D01*
X246948530Y-101746783D01*
X246948527Y-101746779D01*
X246853220Y-101651472D01*
X246853216Y-101651469D01*
X246733129Y-101590282D01*
X246733127Y-101590281D01*
X246733126Y-101590281D01*
X246600000Y-101569196D01*
X246466874Y-101590281D01*
X246466872Y-101590281D01*
X246466870Y-101590282D01*
X246466869Y-101590282D01*
X246346783Y-101651469D01*
X246346779Y-101651472D01*
X246251472Y-101746779D01*
X246251469Y-101746783D01*
X246190282Y-101866869D01*
X246190279Y-101866876D01*
X246171604Y-101984787D01*
X246152244Y-102022783D01*
X238628239Y-109546790D01*
X238579449Y-109567000D01*
X219372062Y-109567000D01*
X219292938Y-109567000D01*
X219216512Y-109587478D01*
X219147988Y-109627040D01*
X219147982Y-109627045D01*
X218217790Y-110557238D01*
X218169000Y-110577448D01*
X218120210Y-110557238D01*
X218100000Y-110508448D01*
X218100000Y-107944500D01*
X218120210Y-107895710D01*
X218169000Y-107875500D01*
X233046143Y-107875500D01*
X233046144Y-107875500D01*
X233135288Y-107851614D01*
X233146898Y-107844910D01*
X233146901Y-107844910D01*
X233146901Y-107844909D01*
X233215212Y-107805470D01*
X234997135Y-106023547D01*
X235017845Y-105987677D01*
X235020207Y-105983585D01*
X235043279Y-105943623D01*
X235049302Y-105921144D01*
X235067165Y-105854479D01*
X235067165Y-100875000D01*
X242994196Y-100875000D01*
X243015281Y-101008126D01*
X243015281Y-101008127D01*
X243015282Y-101008129D01*
X243015282Y-101008130D01*
X243076469Y-101128216D01*
X243076472Y-101128220D01*
X243171779Y-101223527D01*
X243171783Y-101223530D01*
X243291870Y-101284717D01*
X243291874Y-101284719D01*
X243425000Y-101305804D01*
X243558126Y-101284719D01*
X243678220Y-101223528D01*
X243773528Y-101128220D01*
X243834719Y-101008126D01*
X243855804Y-100875000D01*
X243834719Y-100741874D01*
X243834717Y-100741870D01*
X243834717Y-100741869D01*
X243773530Y-100621783D01*
X243773527Y-100621779D01*
X243678220Y-100526472D01*
X243678216Y-100526469D01*
X243558129Y-100465282D01*
X243558127Y-100465281D01*
X243558126Y-100465281D01*
X243425000Y-100444196D01*
X243291874Y-100465281D01*
X243291872Y-100465281D01*
X243291870Y-100465282D01*
X243291869Y-100465282D01*
X243171783Y-100526469D01*
X243171779Y-100526472D01*
X243076472Y-100621779D01*
X243076469Y-100621783D01*
X243015282Y-100741869D01*
X243015282Y-100741870D01*
X243015281Y-100741872D01*
X243015281Y-100741874D01*
X242994196Y-100875000D01*
X235067165Y-100875000D01*
X235067165Y-99850000D01*
X257719196Y-99850000D01*
X257740281Y-99983126D01*
X257740281Y-99983127D01*
X257740282Y-99983129D01*
X257740282Y-99983130D01*
X257801469Y-100103216D01*
X257801472Y-100103220D01*
X257896779Y-100198527D01*
X257896783Y-100198530D01*
X257985199Y-100243580D01*
X258016874Y-100259719D01*
X258150000Y-100280804D01*
X258283126Y-100259719D01*
X258403220Y-100198528D01*
X258498528Y-100103220D01*
X258559719Y-99983126D01*
X258580804Y-99850000D01*
X258559719Y-99716874D01*
X258559717Y-99716870D01*
X258559717Y-99716869D01*
X258498530Y-99596783D01*
X258498527Y-99596779D01*
X258403220Y-99501472D01*
X258403216Y-99501469D01*
X258283129Y-99440282D01*
X258283127Y-99440281D01*
X258283126Y-99440281D01*
X258150000Y-99419196D01*
X258016874Y-99440281D01*
X258016872Y-99440281D01*
X258016870Y-99440282D01*
X258016869Y-99440282D01*
X257896783Y-99501469D01*
X257896779Y-99501472D01*
X257801472Y-99596779D01*
X257801469Y-99596783D01*
X257740282Y-99716869D01*
X257740282Y-99716870D01*
X257740281Y-99716872D01*
X257740281Y-99716874D01*
X257719196Y-99850000D01*
X235067165Y-99850000D01*
X235067165Y-97900000D01*
X241669196Y-97900000D01*
X241690281Y-98033126D01*
X241690281Y-98033127D01*
X241690282Y-98033129D01*
X241690282Y-98033130D01*
X241751469Y-98153216D01*
X241751472Y-98153220D01*
X241846779Y-98248527D01*
X241846783Y-98248530D01*
X241963791Y-98308148D01*
X241966874Y-98309719D01*
X242100000Y-98330804D01*
X242233126Y-98309719D01*
X242271260Y-98290289D01*
X242353216Y-98248530D01*
X242353215Y-98248530D01*
X242353220Y-98248528D01*
X242448528Y-98153220D01*
X242509719Y-98033126D01*
X242530804Y-97900000D01*
X242509719Y-97766874D01*
X242509717Y-97766870D01*
X242509717Y-97766869D01*
X242448530Y-97646783D01*
X242448527Y-97646779D01*
X242353220Y-97551472D01*
X242353216Y-97551469D01*
X242233129Y-97490282D01*
X242233127Y-97490281D01*
X242233126Y-97490281D01*
X242100000Y-97469196D01*
X241966874Y-97490281D01*
X241966872Y-97490281D01*
X241966870Y-97490282D01*
X241966869Y-97490282D01*
X241846783Y-97551469D01*
X241846779Y-97551472D01*
X241751472Y-97646779D01*
X241751469Y-97646783D01*
X241690282Y-97766869D01*
X241690282Y-97766870D01*
X241690281Y-97766872D01*
X241690281Y-97766874D01*
X241669196Y-97900000D01*
X235067165Y-97900000D01*
X235067165Y-95270521D01*
X235043279Y-95181377D01*
X235034604Y-95166352D01*
X235022686Y-95145710D01*
X234997138Y-95101458D01*
X234997137Y-95101457D01*
X234997135Y-95101453D01*
X233315212Y-93419530D01*
X233315209Y-93419527D01*
X233235285Y-93373384D01*
X233235284Y-93373383D01*
X233217607Y-93368648D01*
X233217606Y-93368647D01*
X233217606Y-93368648D01*
X233181874Y-93359074D01*
X233146144Y-93349500D01*
X233146143Y-93349500D01*
X230946288Y-93349500D01*
X230914964Y-93341979D01*
X230850254Y-93309008D01*
X230833129Y-93300282D01*
X230833127Y-93300281D01*
X230766563Y-93289738D01*
X230700000Y-93279196D01*
X230699999Y-93279196D01*
X230659824Y-93285559D01*
X230566874Y-93300281D01*
X230566872Y-93300281D01*
X230566870Y-93300282D01*
X230566869Y-93300282D01*
X230446783Y-93361469D01*
X230446779Y-93361472D01*
X230351472Y-93456779D01*
X230351469Y-93456783D01*
X230290282Y-93576869D01*
X230290282Y-93576870D01*
X230290281Y-93576872D01*
X230290281Y-93576874D01*
X230277193Y-93659508D01*
X230269196Y-93710000D01*
X230290281Y-93843126D01*
X230290282Y-93843130D01*
X230351469Y-93963216D01*
X230351472Y-93963220D01*
X230446779Y-94058527D01*
X230446783Y-94058530D01*
X230566870Y-94119717D01*
X230566874Y-94119719D01*
X230700000Y-94140804D01*
X230833126Y-94119719D01*
X230953220Y-94058528D01*
X230953220Y-94058527D01*
X230954215Y-94058021D01*
X230985541Y-94050500D01*
X232926238Y-94050500D01*
X232975028Y-94070710D01*
X234345955Y-95441637D01*
X234366165Y-95490427D01*
X234366165Y-96256955D01*
X234345955Y-96305745D01*
X234297165Y-96325955D01*
X234248375Y-96305745D01*
X234230516Y-96274813D01*
X234225731Y-96256955D01*
X234209946Y-96198044D01*
X234205568Y-96190463D01*
X234205568Y-96190459D01*
X234205567Y-96190460D01*
X234163802Y-96118120D01*
X232765212Y-94719530D01*
X232765209Y-94719527D01*
X232685289Y-94673386D01*
X232640716Y-94661443D01*
X232596144Y-94649500D01*
X232596143Y-94649500D01*
X230999828Y-94649500D01*
X230959089Y-94632625D01*
X230957610Y-94634662D01*
X230953216Y-94631469D01*
X230833129Y-94570282D01*
X230833127Y-94570281D01*
X230833126Y-94570281D01*
X230700000Y-94549196D01*
X230566874Y-94570281D01*
X230566872Y-94570281D01*
X230566870Y-94570282D01*
X230566869Y-94570282D01*
X230446783Y-94631469D01*
X230446779Y-94631472D01*
X230351472Y-94726779D01*
X230351469Y-94726783D01*
X230290282Y-94846869D01*
X230290282Y-94846870D01*
X230290281Y-94846872D01*
X230290281Y-94846874D01*
X230269196Y-94980000D01*
X230290281Y-95113126D01*
X230290281Y-95113127D01*
X230290282Y-95113129D01*
X230290282Y-95113130D01*
X230351469Y-95233216D01*
X230351472Y-95233220D01*
X230446779Y-95328527D01*
X230446783Y-95328530D01*
X230566870Y-95389717D01*
X230566874Y-95389719D01*
X230700000Y-95410804D01*
X230833126Y-95389719D01*
X230895339Y-95358019D01*
X230926664Y-95350500D01*
X232376238Y-95350500D01*
X232425028Y-95370710D01*
X233512622Y-96458304D01*
X233532832Y-96507094D01*
X233532832Y-97473622D01*
X233512622Y-97522412D01*
X233463832Y-97542622D01*
X233415042Y-97522412D01*
X233397183Y-97491480D01*
X233378475Y-97421662D01*
X233376613Y-97414711D01*
X233373678Y-97409628D01*
X233330469Y-97334787D01*
X231965212Y-95969530D01*
X231965209Y-95969527D01*
X231885289Y-95923386D01*
X231840716Y-95911443D01*
X231796144Y-95899500D01*
X231796143Y-95899500D01*
X230965914Y-95899500D01*
X230934590Y-95891979D01*
X230880489Y-95864413D01*
X230833129Y-95840282D01*
X230833127Y-95840281D01*
X230766563Y-95829738D01*
X230700000Y-95819196D01*
X230699999Y-95819196D01*
X230659824Y-95825559D01*
X230566874Y-95840281D01*
X230566872Y-95840281D01*
X230566870Y-95840282D01*
X230566869Y-95840282D01*
X230446783Y-95901469D01*
X230446779Y-95901472D01*
X230351472Y-95996779D01*
X230351469Y-95996783D01*
X230290282Y-96116869D01*
X230290282Y-96116870D01*
X230290281Y-96116872D01*
X230290281Y-96116874D01*
X230269196Y-96250000D01*
X230290281Y-96383126D01*
X230290281Y-96383127D01*
X230290282Y-96383129D01*
X230290282Y-96383130D01*
X230351469Y-96503216D01*
X230351472Y-96503220D01*
X230446779Y-96598527D01*
X230446783Y-96598530D01*
X230566870Y-96659717D01*
X230566874Y-96659719D01*
X230700000Y-96680804D01*
X230833126Y-96659719D01*
X230934590Y-96608020D01*
X230965914Y-96600500D01*
X231576238Y-96600500D01*
X231625028Y-96620710D01*
X232679289Y-97674971D01*
X232699499Y-97723761D01*
X232699499Y-98290289D01*
X232679289Y-98339079D01*
X232630499Y-98359289D01*
X232581709Y-98339079D01*
X232563850Y-98308148D01*
X232550826Y-98259540D01*
X232543280Y-98231378D01*
X232536699Y-98219979D01*
X232497136Y-98151454D01*
X231565212Y-97219530D01*
X231565209Y-97219527D01*
X231485288Y-97173386D01*
X231478142Y-97171471D01*
X231478142Y-97171470D01*
X231411149Y-97153520D01*
X231396144Y-97149500D01*
X231396143Y-97149500D01*
X230926664Y-97149500D01*
X230895339Y-97141980D01*
X230833127Y-97110281D01*
X230731133Y-97094127D01*
X230700000Y-97089196D01*
X230699999Y-97089196D01*
X230659824Y-97095559D01*
X230566874Y-97110281D01*
X230566872Y-97110281D01*
X230566870Y-97110282D01*
X230566869Y-97110282D01*
X230446783Y-97171469D01*
X230446779Y-97171472D01*
X230351472Y-97266779D01*
X230351469Y-97266783D01*
X230290282Y-97386869D01*
X230290282Y-97386870D01*
X230290281Y-97386872D01*
X230290281Y-97386874D01*
X230269196Y-97520000D01*
X230290281Y-97653126D01*
X230290281Y-97653127D01*
X230290282Y-97653129D01*
X230290282Y-97653130D01*
X230351469Y-97773216D01*
X230351472Y-97773220D01*
X230446779Y-97868527D01*
X230446783Y-97868530D01*
X230451062Y-97870710D01*
X230566874Y-97929719D01*
X230700000Y-97950804D01*
X230833126Y-97929719D01*
X230953220Y-97868528D01*
X230953223Y-97868524D01*
X230957610Y-97865338D01*
X230959089Y-97867374D01*
X230999828Y-97850500D01*
X231176238Y-97850500D01*
X231225028Y-97870710D01*
X231845956Y-98491638D01*
X231866166Y-98540428D01*
X231866166Y-99396956D01*
X231845956Y-99445746D01*
X231797166Y-99465956D01*
X231748376Y-99445746D01*
X231730517Y-99414815D01*
X231725732Y-99396956D01*
X231709947Y-99338045D01*
X231694008Y-99310438D01*
X231663805Y-99258123D01*
X231134447Y-98728765D01*
X231115087Y-98690770D01*
X231109719Y-98656874D01*
X231109717Y-98656870D01*
X231109716Y-98656867D01*
X231048530Y-98536783D01*
X231048527Y-98536779D01*
X230953220Y-98441472D01*
X230953216Y-98441469D01*
X230833129Y-98380282D01*
X230833127Y-98380281D01*
X230833126Y-98380281D01*
X230700000Y-98359196D01*
X230566874Y-98380281D01*
X230566872Y-98380281D01*
X230566870Y-98380282D01*
X230566869Y-98380282D01*
X230446783Y-98441469D01*
X230446779Y-98441472D01*
X230351472Y-98536779D01*
X230351469Y-98536783D01*
X230290282Y-98656869D01*
X230290282Y-98656870D01*
X230290281Y-98656872D01*
X230290281Y-98656874D01*
X230269196Y-98790000D01*
X230290281Y-98923126D01*
X230290281Y-98923127D01*
X230290282Y-98923129D01*
X230290282Y-98923130D01*
X230351469Y-99043216D01*
X230351472Y-99043220D01*
X230446779Y-99138527D01*
X230446783Y-99138530D01*
X230566867Y-99199716D01*
X230566872Y-99199718D01*
X230566874Y-99199719D01*
X230600770Y-99205087D01*
X230638765Y-99224447D01*
X231012623Y-99598305D01*
X231032833Y-99647095D01*
X231032833Y-99772962D01*
X231012623Y-99821752D01*
X230963833Y-99841962D01*
X230915043Y-99821752D01*
X230902354Y-99804289D01*
X230898528Y-99796780D01*
X230803220Y-99701472D01*
X230803216Y-99701469D01*
X230683129Y-99640282D01*
X230683127Y-99640281D01*
X230683126Y-99640281D01*
X230550000Y-99619196D01*
X230416874Y-99640281D01*
X230416872Y-99640281D01*
X230416870Y-99640282D01*
X230416869Y-99640282D01*
X230296783Y-99701469D01*
X230296779Y-99701472D01*
X230201472Y-99796779D01*
X230201469Y-99796783D01*
X230140282Y-99916869D01*
X230140282Y-99916870D01*
X230119196Y-100050000D01*
X230140281Y-100183128D01*
X230191979Y-100284588D01*
X230199500Y-100315914D01*
X230199500Y-102876238D01*
X230179290Y-102925028D01*
X230075028Y-103029290D01*
X230026238Y-103049500D01*
X220509472Y-103049500D01*
X220460682Y-103029290D01*
X218579494Y-101148102D01*
X218499575Y-101101962D01*
X218499574Y-101101961D01*
X218499573Y-101101961D01*
X218493890Y-101100438D01*
X218451994Y-101068289D01*
X218445101Y-101015931D01*
X218477251Y-100974034D01*
X218511750Y-100964790D01*
X218890528Y-100964790D01*
X218939318Y-100985000D01*
X219564790Y-101610472D01*
X219644710Y-101656613D01*
X219644712Y-101656614D01*
X219733856Y-101680500D01*
X219826144Y-101680500D01*
X223064086Y-101680500D01*
X223095409Y-101688020D01*
X223196874Y-101739719D01*
X223330000Y-101760804D01*
X223463126Y-101739719D01*
X223583220Y-101678528D01*
X223678528Y-101583220D01*
X223739719Y-101463126D01*
X223760804Y-101330000D01*
X223739719Y-101196874D01*
X223739717Y-101196870D01*
X223739717Y-101196869D01*
X223678530Y-101076783D01*
X223678527Y-101076779D01*
X223583220Y-100981472D01*
X223583216Y-100981469D01*
X223463129Y-100920282D01*
X223463127Y-100920281D01*
X223463126Y-100920281D01*
X223330000Y-100899196D01*
X223196872Y-100920281D01*
X223196870Y-100920282D01*
X223132721Y-100952968D01*
X223095409Y-100971979D01*
X223064086Y-100979500D01*
X219953762Y-100979500D01*
X219904972Y-100959290D01*
X219279499Y-100333817D01*
X219199579Y-100287676D01*
X219155006Y-100275733D01*
X219110434Y-100263790D01*
X219110433Y-100263790D01*
X149765914Y-100263790D01*
X149734590Y-100256269D01*
X149680489Y-100228703D01*
X149633129Y-100204572D01*
X149633127Y-100204571D01*
X149500000Y-100183486D01*
X149366872Y-100204571D01*
X149366870Y-100204572D01*
X149302721Y-100237258D01*
X149265409Y-100256269D01*
X149234086Y-100263790D01*
X93169000Y-100263790D01*
X93120210Y-100243580D01*
X93100000Y-100194790D01*
X93100000Y-99719500D01*
X93120210Y-99670710D01*
X93169000Y-99650500D01*
X219739559Y-99650500D01*
X219739562Y-99650500D01*
X219815989Y-99630021D01*
X219870537Y-99598528D01*
X219884508Y-99590462D01*
X219884508Y-99590461D01*
X219884511Y-99590460D01*
X219940460Y-99534511D01*
X225565460Y-93909511D01*
X225603787Y-93843126D01*
X225603789Y-93843127D01*
X225603791Y-93843118D01*
X225605021Y-93840989D01*
X225625500Y-93764562D01*
X225625500Y-90378051D01*
X225645710Y-90329261D01*
X226454261Y-89520710D01*
X226503051Y-89500500D01*
X231270172Y-89500500D01*
X231318962Y-89520710D01*
X231346779Y-89548527D01*
X231346783Y-89548530D01*
X231466870Y-89609717D01*
X231466874Y-89609719D01*
X231600000Y-89630804D01*
X231733126Y-89609719D01*
X231853220Y-89548528D01*
X231948528Y-89453220D01*
X232009719Y-89333126D01*
X232030804Y-89200000D01*
X232009719Y-89066874D01*
X232009717Y-89066870D01*
X232009717Y-89066869D01*
X231948530Y-88946783D01*
X231948527Y-88946779D01*
X231853220Y-88851472D01*
X231853216Y-88851469D01*
X231733129Y-88790282D01*
X231733127Y-88790281D01*
X231733126Y-88790281D01*
X231600000Y-88769196D01*
X231466874Y-88790281D01*
X231466872Y-88790281D01*
X231466870Y-88790282D01*
X231466869Y-88790282D01*
X231346783Y-88851469D01*
X231346779Y-88851472D01*
X231318962Y-88879290D01*
X231270172Y-88899500D01*
X226725000Y-88899500D01*
X226676210Y-88879290D01*
X226656000Y-88830500D01*
X226659377Y-88809178D01*
X226659718Y-88808128D01*
X226659718Y-88808127D01*
X226659719Y-88808126D01*
X226680804Y-88675000D01*
X226659719Y-88541874D01*
X226659717Y-88541870D01*
X226659717Y-88541869D01*
X226598530Y-88421783D01*
X226598527Y-88421779D01*
X226503220Y-88326472D01*
X226503216Y-88326469D01*
X226383129Y-88265282D01*
X226383127Y-88265281D01*
X226383126Y-88265281D01*
X226250000Y-88244196D01*
X226116874Y-88265281D01*
X226116872Y-88265281D01*
X226116870Y-88265282D01*
X226116869Y-88265282D01*
X225996783Y-88326469D01*
X225996779Y-88326472D01*
X225901472Y-88421779D01*
X225901469Y-88421783D01*
X225840282Y-88541869D01*
X225840282Y-88541870D01*
X225840281Y-88541872D01*
X225840281Y-88541874D01*
X225819196Y-88675000D01*
X225840281Y-88808126D01*
X225840281Y-88808127D01*
X225840282Y-88808129D01*
X225840282Y-88808130D01*
X225901469Y-88928216D01*
X225901472Y-88928220D01*
X226000350Y-89027098D01*
X226020560Y-89075888D01*
X226000350Y-89124678D01*
X225140489Y-89984540D01*
X225084537Y-90040491D01*
X225044980Y-90109008D01*
X225044979Y-90109010D01*
X225044979Y-90109011D01*
X225024500Y-90185438D01*
X225024500Y-90185440D01*
X225024500Y-93571949D01*
X225004290Y-93620739D01*
X219595739Y-99029290D01*
X219546949Y-99049500D01*
X93169000Y-99049500D01*
X93120210Y-99029290D01*
X93100000Y-98980500D01*
X93100000Y-98869500D01*
X93120210Y-98820710D01*
X93169000Y-98800500D01*
X219039559Y-98800500D01*
X219039562Y-98800500D01*
X219115989Y-98780021D01*
X219184511Y-98740460D01*
X219240460Y-98684511D01*
X224265460Y-93659511D01*
X224300345Y-93599088D01*
X224305021Y-93590989D01*
X224325500Y-93514562D01*
X224325500Y-89303051D01*
X224345710Y-89254261D01*
X225479261Y-88120710D01*
X225528051Y-88100500D01*
X231270172Y-88100500D01*
X231318962Y-88120710D01*
X231346779Y-88148527D01*
X231346783Y-88148530D01*
X231466870Y-88209717D01*
X231466874Y-88209719D01*
X231600000Y-88230804D01*
X231733126Y-88209719D01*
X231853220Y-88148528D01*
X231948528Y-88053220D01*
X232009719Y-87933126D01*
X232030804Y-87800000D01*
X232009719Y-87666874D01*
X232009717Y-87666870D01*
X232009717Y-87666869D01*
X231948530Y-87546783D01*
X231948527Y-87546779D01*
X231853220Y-87451472D01*
X231853216Y-87451469D01*
X231733129Y-87390282D01*
X231733127Y-87390281D01*
X231733126Y-87390281D01*
X231600000Y-87369196D01*
X231466874Y-87390281D01*
X231466872Y-87390281D01*
X231466870Y-87390282D01*
X231466869Y-87390282D01*
X231346783Y-87451469D01*
X231346779Y-87451472D01*
X231318962Y-87479290D01*
X231270172Y-87499500D01*
X225335438Y-87499500D01*
X225259011Y-87519979D01*
X225259010Y-87519979D01*
X225259008Y-87519980D01*
X225212589Y-87546780D01*
X225190491Y-87559537D01*
X223784537Y-88965491D01*
X223744980Y-89034008D01*
X223744979Y-89034010D01*
X223744979Y-89034011D01*
X223724500Y-89110438D01*
X223724500Y-89110440D01*
X223724500Y-93321949D01*
X223704290Y-93370739D01*
X218895739Y-98179290D01*
X218846949Y-98199500D01*
X93169000Y-98199500D01*
X93120210Y-98179290D01*
X93100000Y-98130500D01*
X93100000Y-97769000D01*
X93120210Y-97720210D01*
X93169000Y-97700000D01*
X218100000Y-97700000D01*
X218100000Y-85600000D01*
X236044196Y-85600000D01*
X236065281Y-85733126D01*
X236065281Y-85733127D01*
X236065282Y-85733129D01*
X236065282Y-85733130D01*
X236126469Y-85853216D01*
X236126472Y-85853220D01*
X236221779Y-85948527D01*
X236221783Y-85948530D01*
X236256567Y-85966253D01*
X236341874Y-86009719D01*
X236475000Y-86030804D01*
X236608126Y-86009719D01*
X236728220Y-85948528D01*
X236756038Y-85920710D01*
X236804828Y-85900500D01*
X239171949Y-85900500D01*
X239220739Y-85920710D01*
X246829290Y-93529261D01*
X246849500Y-93578051D01*
X246849500Y-94282948D01*
X246829290Y-94331738D01*
X246780500Y-94351948D01*
X246731710Y-94331738D01*
X239284072Y-86884101D01*
X239271384Y-86866638D01*
X239248528Y-86821780D01*
X239153220Y-86726472D01*
X239153216Y-86726469D01*
X239033129Y-86665282D01*
X239033127Y-86665281D01*
X239033126Y-86665281D01*
X238900000Y-86644196D01*
X238766874Y-86665281D01*
X238766872Y-86665281D01*
X238766870Y-86665282D01*
X238766869Y-86665282D01*
X238646783Y-86726469D01*
X238646779Y-86726472D01*
X238551472Y-86821779D01*
X238551469Y-86821783D01*
X238490282Y-86941869D01*
X238490282Y-86941870D01*
X238490281Y-86941872D01*
X238490281Y-86941874D01*
X238469196Y-87075000D01*
X238490281Y-87208126D01*
X238490281Y-87208127D01*
X238490282Y-87208129D01*
X238490282Y-87208130D01*
X238551469Y-87328216D01*
X238551472Y-87328220D01*
X238646779Y-87423527D01*
X238646783Y-87423530D01*
X238701617Y-87451469D01*
X238766874Y-87484719D01*
X238900000Y-87505804D01*
X238999802Y-87489997D01*
X239051153Y-87502325D01*
X239059386Y-87509357D01*
X246229290Y-94679261D01*
X246249500Y-94728051D01*
X246249500Y-98734817D01*
X246229290Y-98783607D01*
X246218406Y-98794490D01*
X246218403Y-98794494D01*
X246157216Y-98914580D01*
X246157216Y-98914581D01*
X246157215Y-98914583D01*
X246157215Y-98914585D01*
X246136130Y-99047711D01*
X246157215Y-99180837D01*
X246157215Y-99180838D01*
X246157216Y-99180840D01*
X246157216Y-99180841D01*
X246218403Y-99300927D01*
X246218406Y-99300931D01*
X246313713Y-99396238D01*
X246313717Y-99396241D01*
X246400151Y-99440281D01*
X246433808Y-99457430D01*
X246566934Y-99478515D01*
X246700060Y-99457430D01*
X246820154Y-99396239D01*
X246915462Y-99300931D01*
X246976653Y-99180837D01*
X246997738Y-99047711D01*
X246981561Y-98945573D01*
X246993889Y-98894223D01*
X247038917Y-98866630D01*
X247060502Y-98866629D01*
X247150000Y-98880804D01*
X247283126Y-98859719D01*
X247400331Y-98800000D01*
X248219196Y-98800000D01*
X248240281Y-98933126D01*
X248240281Y-98933127D01*
X248240282Y-98933129D01*
X248240282Y-98933130D01*
X248301469Y-99053216D01*
X248301472Y-99053220D01*
X248396779Y-99148527D01*
X248396783Y-99148530D01*
X248486122Y-99194050D01*
X248516874Y-99209719D01*
X248650000Y-99230804D01*
X248783126Y-99209719D01*
X248903220Y-99148528D01*
X248998528Y-99053220D01*
X249059719Y-98933126D01*
X249080804Y-98800000D01*
X249064966Y-98700000D01*
X251569196Y-98700000D01*
X251590281Y-98833126D01*
X251590281Y-98833127D01*
X251590282Y-98833129D01*
X251590282Y-98833130D01*
X251651469Y-98953216D01*
X251651472Y-98953220D01*
X251746779Y-99048527D01*
X251746783Y-99048530D01*
X251866523Y-99109540D01*
X251866874Y-99109719D01*
X252000000Y-99130804D01*
X252099113Y-99115106D01*
X252150464Y-99127434D01*
X252178057Y-99172462D01*
X252178057Y-99194047D01*
X252169196Y-99250000D01*
X252190281Y-99383126D01*
X252190281Y-99383127D01*
X252190282Y-99383129D01*
X252190282Y-99383130D01*
X252251469Y-99503216D01*
X252251472Y-99503220D01*
X252346779Y-99598527D01*
X252346783Y-99598530D01*
X252442098Y-99647095D01*
X252466874Y-99659719D01*
X252600000Y-99680804D01*
X252733126Y-99659719D01*
X252853220Y-99598528D01*
X252948528Y-99503220D01*
X253009719Y-99383126D01*
X253030804Y-99250000D01*
X253009719Y-99116874D01*
X253009717Y-99116870D01*
X253009717Y-99116869D01*
X252948530Y-98996783D01*
X252948527Y-98996779D01*
X252853220Y-98901472D01*
X252853216Y-98901469D01*
X252733129Y-98840282D01*
X252733127Y-98840281D01*
X252733126Y-98840281D01*
X252600000Y-98819196D01*
X252599999Y-98819196D01*
X252500886Y-98834894D01*
X252449534Y-98822565D01*
X252421941Y-98777537D01*
X252421941Y-98755952D01*
X252430804Y-98700000D01*
X252409719Y-98566874D01*
X252409717Y-98566870D01*
X252409717Y-98566869D01*
X252348530Y-98446783D01*
X252348527Y-98446779D01*
X252253220Y-98351472D01*
X252253216Y-98351469D01*
X252133129Y-98290282D01*
X252133127Y-98290281D01*
X252133126Y-98290281D01*
X252000000Y-98269196D01*
X251866874Y-98290281D01*
X251866872Y-98290281D01*
X251866870Y-98290282D01*
X251866869Y-98290282D01*
X251746783Y-98351469D01*
X251746779Y-98351472D01*
X251651472Y-98446779D01*
X251651469Y-98446783D01*
X251590282Y-98566869D01*
X251590282Y-98566870D01*
X251590281Y-98566872D01*
X251590281Y-98566874D01*
X251569196Y-98700000D01*
X249064966Y-98700000D01*
X249059719Y-98666874D01*
X249059717Y-98666870D01*
X249059717Y-98666869D01*
X248998530Y-98546783D01*
X248998527Y-98546779D01*
X248903220Y-98451472D01*
X248903216Y-98451469D01*
X248783129Y-98390282D01*
X248783127Y-98390281D01*
X248783126Y-98390281D01*
X248650000Y-98369196D01*
X248516874Y-98390281D01*
X248516872Y-98390281D01*
X248516870Y-98390282D01*
X248516869Y-98390282D01*
X248396783Y-98451469D01*
X248396779Y-98451472D01*
X248301472Y-98546779D01*
X248301469Y-98546783D01*
X248240282Y-98666869D01*
X248240282Y-98666870D01*
X248240281Y-98666872D01*
X248240281Y-98666874D01*
X248219196Y-98800000D01*
X247400331Y-98800000D01*
X247403220Y-98798528D01*
X247498528Y-98703220D01*
X247559719Y-98583126D01*
X247580804Y-98450000D01*
X247559719Y-98316874D01*
X247559717Y-98316870D01*
X247559717Y-98316869D01*
X247498530Y-98196783D01*
X247498527Y-98196779D01*
X247470710Y-98168962D01*
X247450500Y-98120172D01*
X247450500Y-93385440D01*
X247450500Y-93385438D01*
X247430021Y-93309011D01*
X247420497Y-93292516D01*
X247390462Y-93240491D01*
X239509508Y-85359537D01*
X239487411Y-85346780D01*
X239440991Y-85319980D01*
X239440990Y-85319979D01*
X239440989Y-85319979D01*
X239364562Y-85299500D01*
X239364559Y-85299500D01*
X236804828Y-85299500D01*
X236756038Y-85279290D01*
X236728220Y-85251472D01*
X236728216Y-85251469D01*
X236608129Y-85190282D01*
X236608127Y-85190281D01*
X236608126Y-85190281D01*
X236475000Y-85169196D01*
X236341874Y-85190281D01*
X236341872Y-85190281D01*
X236341870Y-85190282D01*
X236341869Y-85190282D01*
X236221783Y-85251469D01*
X236221779Y-85251472D01*
X236126472Y-85346779D01*
X236126469Y-85346783D01*
X236065282Y-85466869D01*
X236065282Y-85466870D01*
X236065281Y-85466872D01*
X236065281Y-85466874D01*
X236044196Y-85600000D01*
X218100000Y-85600000D01*
X218100000Y-71342677D01*
X240071873Y-71342677D01*
X240092958Y-71475803D01*
X240092958Y-71475804D01*
X240092959Y-71475806D01*
X240092959Y-71475807D01*
X240154146Y-71595893D01*
X240157339Y-71600287D01*
X240155379Y-71601710D01*
X240172349Y-71642677D01*
X240155379Y-71683643D01*
X240157339Y-71685067D01*
X240154146Y-71689460D01*
X240092959Y-71809546D01*
X240092959Y-71809547D01*
X240092958Y-71809549D01*
X240092958Y-71809551D01*
X240071873Y-71942677D01*
X240092958Y-72075803D01*
X240092958Y-72075804D01*
X240092959Y-72075806D01*
X240092959Y-72075807D01*
X240154146Y-72195893D01*
X240154149Y-72195897D01*
X240249456Y-72291204D01*
X240249460Y-72291207D01*
X240363867Y-72349500D01*
X240369551Y-72352396D01*
X240502677Y-72373481D01*
X240635803Y-72352396D01*
X240755897Y-72291205D01*
X240755900Y-72291201D01*
X240760287Y-72288015D01*
X240761710Y-72289974D01*
X240802677Y-72273005D01*
X240843643Y-72289974D01*
X240845067Y-72288015D01*
X240849460Y-72291207D01*
X240963867Y-72349500D01*
X240969551Y-72352396D01*
X241102677Y-72373481D01*
X241235803Y-72352396D01*
X241355897Y-72291205D01*
X241355900Y-72291201D01*
X241360287Y-72288015D01*
X241361710Y-72289974D01*
X241402677Y-72273005D01*
X241443643Y-72289974D01*
X241445067Y-72288015D01*
X241449460Y-72291207D01*
X241563867Y-72349500D01*
X241569551Y-72352396D01*
X241702677Y-72373481D01*
X241835803Y-72352396D01*
X241955897Y-72291205D01*
X242051205Y-72195897D01*
X242112396Y-72075803D01*
X242133481Y-71942677D01*
X242112396Y-71809551D01*
X242112394Y-71809547D01*
X242112394Y-71809546D01*
X242051207Y-71689460D01*
X242048015Y-71685067D01*
X242049974Y-71683643D01*
X242033005Y-71642677D01*
X242049974Y-71601710D01*
X242048015Y-71600287D01*
X242051201Y-71595900D01*
X242051205Y-71595897D01*
X242112396Y-71475803D01*
X242133481Y-71342677D01*
X242112396Y-71209551D01*
X242112394Y-71209547D01*
X242112394Y-71209546D01*
X242051207Y-71089460D01*
X242051204Y-71089456D01*
X241955897Y-70994149D01*
X241955893Y-70994146D01*
X241835806Y-70932959D01*
X241835804Y-70932958D01*
X241835803Y-70932958D01*
X241702677Y-70911873D01*
X241569551Y-70932958D01*
X241569549Y-70932958D01*
X241569547Y-70932959D01*
X241569546Y-70932959D01*
X241449460Y-70994146D01*
X241445067Y-70997339D01*
X241443643Y-70995379D01*
X241402677Y-71012349D01*
X241361710Y-70995379D01*
X241360287Y-70997339D01*
X241355893Y-70994146D01*
X241235806Y-70932959D01*
X241235804Y-70932958D01*
X241235803Y-70932958D01*
X241102677Y-70911873D01*
X240969551Y-70932958D01*
X240969549Y-70932958D01*
X240969547Y-70932959D01*
X240969546Y-70932959D01*
X240849460Y-70994146D01*
X240845067Y-70997339D01*
X240843643Y-70995379D01*
X240802677Y-71012349D01*
X240761710Y-70995379D01*
X240760287Y-70997339D01*
X240755893Y-70994146D01*
X240635806Y-70932959D01*
X240635804Y-70932958D01*
X240635803Y-70932958D01*
X240502677Y-70911873D01*
X240369551Y-70932958D01*
X240369549Y-70932958D01*
X240369547Y-70932959D01*
X240369546Y-70932959D01*
X240249460Y-70994146D01*
X240249456Y-70994149D01*
X240154149Y-71089456D01*
X240154146Y-71089460D01*
X240092959Y-71209546D01*
X240092959Y-71209547D01*
X240092958Y-71209549D01*
X240092958Y-71209551D01*
X240071873Y-71342677D01*
X218100000Y-71342677D01*
X218100000Y-51069500D01*
X218120210Y-51020710D01*
X218169000Y-51000500D01*
X223209086Y-51000500D01*
X223240409Y-51008020D01*
X223341874Y-51059719D01*
X223475000Y-51080804D01*
X223608126Y-51059719D01*
X223728220Y-50998528D01*
X223823528Y-50903220D01*
X223884719Y-50783126D01*
X223905804Y-50650000D01*
X223884719Y-50516874D01*
X223884717Y-50516870D01*
X223884717Y-50516869D01*
X223823530Y-50396783D01*
X223823527Y-50396779D01*
X223745038Y-50318290D01*
X223724828Y-50269500D01*
X223745038Y-50220710D01*
X223793828Y-50200500D01*
X223920172Y-50200500D01*
X223968962Y-50220710D01*
X223971779Y-50223527D01*
X223971783Y-50223530D01*
X224072925Y-50275064D01*
X224091874Y-50284719D01*
X224225000Y-50305804D01*
X224358126Y-50284719D01*
X224478220Y-50223528D01*
X224573528Y-50128220D01*
X224634719Y-50008126D01*
X224655804Y-49875000D01*
X224634719Y-49741874D01*
X224634717Y-49741870D01*
X224634717Y-49741869D01*
X224573530Y-49621783D01*
X224573527Y-49621779D01*
X224512186Y-49560438D01*
X228699500Y-49560438D01*
X228699500Y-55539562D01*
X228713040Y-55590091D01*
X228719980Y-55615991D01*
X228734466Y-55641081D01*
X228759538Y-55684508D01*
X228759542Y-55684513D01*
X229879290Y-56804261D01*
X229899500Y-56853051D01*
X229899500Y-61470172D01*
X229879290Y-61518962D01*
X229851472Y-61546779D01*
X229851469Y-61546783D01*
X229790282Y-61666869D01*
X229790282Y-61666870D01*
X229790281Y-61666872D01*
X229790281Y-61666874D01*
X229769196Y-61800000D01*
X229790281Y-61933126D01*
X229790281Y-61933127D01*
X229790282Y-61933129D01*
X229790282Y-61933130D01*
X229851469Y-62053216D01*
X229851472Y-62053220D01*
X229946779Y-62148527D01*
X229946783Y-62148530D01*
X230066870Y-62209717D01*
X230066874Y-62209719D01*
X230200000Y-62230804D01*
X230333126Y-62209719D01*
X230453220Y-62148528D01*
X230548528Y-62053220D01*
X230609719Y-61933126D01*
X230630804Y-61800000D01*
X230609719Y-61666874D01*
X230609717Y-61666870D01*
X230609717Y-61666869D01*
X230548530Y-61546783D01*
X230548527Y-61546779D01*
X230520710Y-61518962D01*
X230500500Y-61470172D01*
X230500500Y-57050000D01*
X239469196Y-57050000D01*
X239490281Y-57183126D01*
X239490281Y-57183127D01*
X239490282Y-57183129D01*
X239490282Y-57183130D01*
X239551469Y-57303216D01*
X239554662Y-57307610D01*
X239552702Y-57309033D01*
X239569672Y-57350000D01*
X239552702Y-57390966D01*
X239554662Y-57392390D01*
X239551469Y-57396783D01*
X239490282Y-57516869D01*
X239490282Y-57516870D01*
X239490281Y-57516872D01*
X239490281Y-57516874D01*
X239469196Y-57650000D01*
X239490281Y-57783126D01*
X239490281Y-57783127D01*
X239490282Y-57783129D01*
X239490282Y-57783130D01*
X239551469Y-57903216D01*
X239551472Y-57903220D01*
X239646779Y-57998527D01*
X239646783Y-57998530D01*
X239766870Y-58059717D01*
X239766874Y-58059719D01*
X239900000Y-58080804D01*
X240033126Y-58059719D01*
X240153220Y-57998528D01*
X240153223Y-57998524D01*
X240157610Y-57995338D01*
X240159033Y-57997297D01*
X240200000Y-57980328D01*
X240240966Y-57997297D01*
X240242390Y-57995338D01*
X240246783Y-57998530D01*
X240366870Y-58059717D01*
X240366874Y-58059719D01*
X240500000Y-58080804D01*
X240633126Y-58059719D01*
X240753220Y-57998528D01*
X240848528Y-57903220D01*
X240909719Y-57783126D01*
X240930804Y-57650000D01*
X240909719Y-57516874D01*
X240909717Y-57516870D01*
X240909717Y-57516869D01*
X240848530Y-57396783D01*
X240845338Y-57392390D01*
X240847297Y-57390966D01*
X240830328Y-57350000D01*
X240847297Y-57309033D01*
X240845338Y-57307610D01*
X240848524Y-57303223D01*
X240848528Y-57303220D01*
X240909719Y-57183126D01*
X240930804Y-57050000D01*
X240909719Y-56916874D01*
X240909717Y-56916870D01*
X240909717Y-56916869D01*
X240848530Y-56796783D01*
X240848527Y-56796779D01*
X240753220Y-56701472D01*
X240753216Y-56701469D01*
X240633129Y-56640282D01*
X240633127Y-56640281D01*
X240633126Y-56640281D01*
X240500000Y-56619196D01*
X240380292Y-56638155D01*
X240328943Y-56625827D01*
X240301349Y-56580799D01*
X240300500Y-56570005D01*
X240300500Y-48950000D01*
X240794196Y-48950000D01*
X240815281Y-49083126D01*
X240815281Y-49083127D01*
X240815282Y-49083129D01*
X240815282Y-49083130D01*
X240876469Y-49203216D01*
X240876472Y-49203220D01*
X240904290Y-49231038D01*
X240924500Y-49279828D01*
X240924500Y-49964562D01*
X240944979Y-50040989D01*
X240944980Y-50040991D01*
X240961933Y-50070356D01*
X240961934Y-50070356D01*
X240984538Y-50109508D01*
X240984542Y-50109513D01*
X243779290Y-52904261D01*
X243799500Y-52953051D01*
X243799500Y-77270172D01*
X243779290Y-77318962D01*
X243751472Y-77346779D01*
X243751469Y-77346783D01*
X243690282Y-77466869D01*
X243690282Y-77466870D01*
X243690281Y-77466872D01*
X243690281Y-77466874D01*
X243669196Y-77600000D01*
X243690281Y-77733126D01*
X243690281Y-77733127D01*
X243690282Y-77733129D01*
X243690282Y-77733130D01*
X243751469Y-77853216D01*
X243751472Y-77853220D01*
X243846779Y-77948527D01*
X243846783Y-77948530D01*
X243966870Y-78009717D01*
X243966874Y-78009719D01*
X244100000Y-78030804D01*
X244233126Y-78009719D01*
X244353220Y-77948528D01*
X244448528Y-77853220D01*
X244509719Y-77733126D01*
X244530804Y-77600000D01*
X244509719Y-77466874D01*
X244509717Y-77466870D01*
X244509717Y-77466869D01*
X244448530Y-77346783D01*
X244448527Y-77346779D01*
X244420710Y-77318962D01*
X244400500Y-77270172D01*
X244400500Y-70800000D01*
X245619196Y-70800000D01*
X245640281Y-70933126D01*
X245640281Y-70933127D01*
X245640282Y-70933129D01*
X245640282Y-70933130D01*
X245701469Y-71053216D01*
X245701472Y-71053220D01*
X245796779Y-71148527D01*
X245796783Y-71148530D01*
X245916534Y-71209546D01*
X245916874Y-71209719D01*
X246050000Y-71230804D01*
X246183126Y-71209719D01*
X246303220Y-71148528D01*
X246398528Y-71053220D01*
X246459719Y-70933126D01*
X246480804Y-70800000D01*
X246459719Y-70666874D01*
X246459717Y-70666870D01*
X246459717Y-70666869D01*
X246398530Y-70546783D01*
X246398527Y-70546779D01*
X246303220Y-70451472D01*
X246303216Y-70451469D01*
X246183129Y-70390282D01*
X246183127Y-70390281D01*
X246183126Y-70390281D01*
X246050000Y-70369196D01*
X245916874Y-70390281D01*
X245916872Y-70390281D01*
X245916870Y-70390282D01*
X245916869Y-70390282D01*
X245796783Y-70451469D01*
X245796779Y-70451472D01*
X245701472Y-70546779D01*
X245701469Y-70546783D01*
X245640282Y-70666869D01*
X245640282Y-70666870D01*
X245640281Y-70666872D01*
X245640281Y-70666874D01*
X245619196Y-70800000D01*
X244400500Y-70800000D01*
X244400500Y-57300000D01*
X246069196Y-57300000D01*
X246090281Y-57433126D01*
X246090281Y-57433127D01*
X246090282Y-57433129D01*
X246090282Y-57433130D01*
X246151469Y-57553216D01*
X246151472Y-57553220D01*
X246246779Y-57648527D01*
X246246783Y-57648530D01*
X246366870Y-57709717D01*
X246366874Y-57709719D01*
X246500000Y-57730804D01*
X246633126Y-57709719D01*
X246753220Y-57648528D01*
X246848528Y-57553220D01*
X246909719Y-57433126D01*
X246930804Y-57300000D01*
X246909719Y-57166874D01*
X246909717Y-57166870D01*
X246909717Y-57166869D01*
X246848530Y-57046783D01*
X246848527Y-57046779D01*
X246753220Y-56951472D01*
X246753216Y-56951469D01*
X246633129Y-56890282D01*
X246633127Y-56890281D01*
X246633126Y-56890281D01*
X246500000Y-56869196D01*
X246366874Y-56890281D01*
X246366872Y-56890281D01*
X246366870Y-56890282D01*
X246366869Y-56890282D01*
X246246783Y-56951469D01*
X246246779Y-56951472D01*
X246151472Y-57046779D01*
X246151469Y-57046783D01*
X246090282Y-57166869D01*
X246090282Y-57166870D01*
X246090281Y-57166872D01*
X246090281Y-57166874D01*
X246069196Y-57300000D01*
X244400500Y-57300000D01*
X244400500Y-54875000D01*
X245744196Y-54875000D01*
X245765281Y-55008126D01*
X245765281Y-55008127D01*
X245765282Y-55008129D01*
X245765282Y-55008130D01*
X245826469Y-55128216D01*
X245826472Y-55128220D01*
X245921779Y-55223527D01*
X245921783Y-55223530D01*
X246041870Y-55284717D01*
X246041874Y-55284719D01*
X246175000Y-55305804D01*
X246308126Y-55284719D01*
X246428220Y-55223528D01*
X246523528Y-55128220D01*
X246584719Y-55008126D01*
X246605804Y-54875000D01*
X246584719Y-54741874D01*
X246584717Y-54741870D01*
X246584717Y-54741869D01*
X246523530Y-54621783D01*
X246523527Y-54621779D01*
X246428220Y-54526472D01*
X246428216Y-54526469D01*
X246308129Y-54465282D01*
X246308127Y-54465281D01*
X246308126Y-54465281D01*
X246175000Y-54444196D01*
X246041874Y-54465281D01*
X246041872Y-54465281D01*
X246041870Y-54465282D01*
X246041869Y-54465282D01*
X245921783Y-54526469D01*
X245921779Y-54526472D01*
X245826472Y-54621779D01*
X245826469Y-54621783D01*
X245765282Y-54741869D01*
X245765282Y-54741870D01*
X245765281Y-54741872D01*
X245765281Y-54741874D01*
X245744196Y-54875000D01*
X244400500Y-54875000D01*
X244400500Y-53275000D01*
X246894196Y-53275000D01*
X246915281Y-53408126D01*
X246915281Y-53408127D01*
X246915282Y-53408129D01*
X246915282Y-53408130D01*
X246976469Y-53528216D01*
X246976472Y-53528220D01*
X247071779Y-53623527D01*
X247071783Y-53623530D01*
X247162700Y-53669854D01*
X247191874Y-53684719D01*
X247325000Y-53705804D01*
X247458126Y-53684719D01*
X247578220Y-53623528D01*
X247673528Y-53528220D01*
X247734719Y-53408126D01*
X247755804Y-53275000D01*
X247734719Y-53141874D01*
X247734717Y-53141870D01*
X247734717Y-53141869D01*
X247673530Y-53021783D01*
X247673527Y-53021779D01*
X247578220Y-52926472D01*
X247578216Y-52926469D01*
X247458129Y-52865282D01*
X247458127Y-52865281D01*
X247458126Y-52865281D01*
X247325000Y-52844196D01*
X247191874Y-52865281D01*
X247191872Y-52865281D01*
X247191870Y-52865282D01*
X247191869Y-52865282D01*
X247071783Y-52926469D01*
X247071779Y-52926472D01*
X246976472Y-53021779D01*
X246976469Y-53021783D01*
X246915282Y-53141869D01*
X246915282Y-53141870D01*
X246915281Y-53141872D01*
X246915281Y-53141874D01*
X246894196Y-53275000D01*
X244400500Y-53275000D01*
X244400500Y-52760440D01*
X244400500Y-52760438D01*
X244380021Y-52684011D01*
X244357446Y-52644909D01*
X244340462Y-52615491D01*
X241774971Y-50050000D01*
X243469196Y-50050000D01*
X243490281Y-50183126D01*
X243490281Y-50183127D01*
X243490282Y-50183129D01*
X243490282Y-50183130D01*
X243551469Y-50303216D01*
X243551472Y-50303220D01*
X243646779Y-50398527D01*
X243646783Y-50398530D01*
X243756162Y-50454261D01*
X243766874Y-50459719D01*
X243900000Y-50480804D01*
X244033126Y-50459719D01*
X244153220Y-50398528D01*
X244248528Y-50303220D01*
X244291340Y-50219196D01*
X244309717Y-50183130D01*
X244309717Y-50183129D01*
X244309719Y-50183126D01*
X244330804Y-50050000D01*
X244309719Y-49916874D01*
X244309717Y-49916870D01*
X244309717Y-49916869D01*
X244248530Y-49796783D01*
X244248527Y-49796779D01*
X244153220Y-49701472D01*
X244153216Y-49701469D01*
X244033129Y-49640282D01*
X244033127Y-49640281D01*
X244033126Y-49640281D01*
X243900000Y-49619196D01*
X243766874Y-49640281D01*
X243766872Y-49640281D01*
X243766870Y-49640282D01*
X243766869Y-49640282D01*
X243646783Y-49701469D01*
X243646779Y-49701472D01*
X243551472Y-49796779D01*
X243551469Y-49796783D01*
X243490282Y-49916869D01*
X243490282Y-49916870D01*
X243490281Y-49916872D01*
X243490281Y-49916874D01*
X243469196Y-50050000D01*
X241774971Y-50050000D01*
X241545710Y-49820739D01*
X241525500Y-49771949D01*
X241525500Y-49279828D01*
X241545710Y-49231038D01*
X241556038Y-49220710D01*
X241573528Y-49203220D01*
X241634719Y-49083126D01*
X241655804Y-48950000D01*
X241634719Y-48816874D01*
X241634717Y-48816870D01*
X241634717Y-48816869D01*
X241573530Y-48696783D01*
X241573527Y-48696779D01*
X241478220Y-48601472D01*
X241478216Y-48601469D01*
X241358129Y-48540282D01*
X241358127Y-48540281D01*
X241358126Y-48540281D01*
X241225000Y-48519196D01*
X241091874Y-48540281D01*
X241091872Y-48540281D01*
X241091870Y-48540282D01*
X241091869Y-48540282D01*
X240971783Y-48601469D01*
X240971779Y-48601472D01*
X240876472Y-48696779D01*
X240876469Y-48696783D01*
X240815282Y-48816869D01*
X240815282Y-48816870D01*
X240815281Y-48816872D01*
X240815281Y-48816874D01*
X240794196Y-48950000D01*
X240300500Y-48950000D01*
X240300500Y-48486147D01*
X242099200Y-48486147D01*
X242099200Y-48633852D01*
X242128013Y-48778708D01*
X242128014Y-48778712D01*
X242184536Y-48915164D01*
X242184540Y-48915172D01*
X242246040Y-49007212D01*
X242266592Y-49037970D01*
X242371030Y-49142408D01*
X242371039Y-49142414D01*
X242493827Y-49224459D01*
X242493833Y-49224462D01*
X242493836Y-49224464D01*
X242551929Y-49248527D01*
X242630287Y-49280985D01*
X242630291Y-49280986D01*
X242775148Y-49309800D01*
X242775151Y-49309800D01*
X242922852Y-49309800D01*
X243031494Y-49288189D01*
X243067709Y-49280986D01*
X243067710Y-49280985D01*
X243067712Y-49280985D01*
X243134741Y-49253220D01*
X243204164Y-49224464D01*
X243204169Y-49224460D01*
X243204172Y-49224459D01*
X243245462Y-49196869D01*
X243326970Y-49142408D01*
X243431408Y-49037970D01*
X243505364Y-48927287D01*
X243513459Y-48915172D01*
X243513460Y-48915169D01*
X243513464Y-48915164D01*
X243565194Y-48790279D01*
X243569985Y-48778712D01*
X243569986Y-48778708D01*
X243598800Y-48633852D01*
X243598800Y-48486147D01*
X244131200Y-48486147D01*
X244131200Y-48633852D01*
X244160013Y-48778708D01*
X244160014Y-48778712D01*
X244216536Y-48915164D01*
X244216540Y-48915172D01*
X244278040Y-49007212D01*
X244298592Y-49037970D01*
X244403030Y-49142408D01*
X244403039Y-49142414D01*
X244525827Y-49224459D01*
X244525833Y-49224462D01*
X244525836Y-49224464D01*
X244583929Y-49248527D01*
X244662287Y-49280985D01*
X244662291Y-49280986D01*
X244807148Y-49309800D01*
X244807151Y-49309800D01*
X244954852Y-49309800D01*
X245063494Y-49288189D01*
X245099709Y-49280986D01*
X245099710Y-49280985D01*
X245099712Y-49280985D01*
X245166741Y-49253220D01*
X245236164Y-49224464D01*
X245236169Y-49224460D01*
X245236172Y-49224459D01*
X245277462Y-49196869D01*
X245358970Y-49142408D01*
X245463408Y-49037970D01*
X245537364Y-48927287D01*
X245545459Y-48915172D01*
X245545460Y-48915169D01*
X245545464Y-48915164D01*
X245597194Y-48790279D01*
X245601985Y-48778712D01*
X245601986Y-48778708D01*
X245630800Y-48633852D01*
X245630800Y-48486147D01*
X245601986Y-48341291D01*
X245601985Y-48341287D01*
X245546448Y-48207212D01*
X245545464Y-48204836D01*
X245545462Y-48204833D01*
X245545459Y-48204827D01*
X245463414Y-48082039D01*
X245463408Y-48082030D01*
X245358970Y-47977592D01*
X245358960Y-47977585D01*
X245236172Y-47895540D01*
X245236164Y-47895536D01*
X245099712Y-47839014D01*
X245099708Y-47839013D01*
X244954852Y-47810200D01*
X244954849Y-47810200D01*
X244807151Y-47810200D01*
X244807148Y-47810200D01*
X244662291Y-47839013D01*
X244662287Y-47839014D01*
X244525835Y-47895536D01*
X244525827Y-47895540D01*
X244403039Y-47977585D01*
X244403025Y-47977596D01*
X244298596Y-48082025D01*
X244298585Y-48082039D01*
X244216540Y-48204827D01*
X244216536Y-48204835D01*
X244160014Y-48341287D01*
X244160013Y-48341291D01*
X244131200Y-48486147D01*
X243598800Y-48486147D01*
X243569986Y-48341291D01*
X243569985Y-48341287D01*
X243514448Y-48207212D01*
X243513464Y-48204836D01*
X243513462Y-48204833D01*
X243513459Y-48204827D01*
X243431414Y-48082039D01*
X243431408Y-48082030D01*
X243326970Y-47977592D01*
X243326960Y-47977585D01*
X243204172Y-47895540D01*
X243204164Y-47895536D01*
X243067712Y-47839014D01*
X243067708Y-47839013D01*
X242922852Y-47810200D01*
X242922849Y-47810200D01*
X242775151Y-47810200D01*
X242775148Y-47810200D01*
X242630291Y-47839013D01*
X242630287Y-47839014D01*
X242493835Y-47895536D01*
X242493827Y-47895540D01*
X242371039Y-47977585D01*
X242371025Y-47977596D01*
X242266596Y-48082025D01*
X242266585Y-48082039D01*
X242184540Y-48204827D01*
X242184536Y-48204835D01*
X242128014Y-48341287D01*
X242128013Y-48341291D01*
X242099200Y-48486147D01*
X240300500Y-48486147D01*
X240300500Y-45544472D01*
X240320709Y-45495683D01*
X240673409Y-45142982D01*
X240690867Y-45130297D01*
X240753220Y-45098528D01*
X240848528Y-45003220D01*
X240909719Y-44883126D01*
X240930804Y-44750000D01*
X240909719Y-44616874D01*
X240909717Y-44616870D01*
X240909717Y-44616869D01*
X240848530Y-44496783D01*
X240848527Y-44496779D01*
X240753220Y-44401472D01*
X240753216Y-44401469D01*
X240633129Y-44340282D01*
X240633127Y-44340281D01*
X240633126Y-44340281D01*
X240500000Y-44319196D01*
X240366874Y-44340281D01*
X240366872Y-44340281D01*
X240366870Y-44340282D01*
X240366869Y-44340282D01*
X240246783Y-44401469D01*
X240246782Y-44401470D01*
X240151474Y-44496777D01*
X240151469Y-44496783D01*
X240119703Y-44559127D01*
X240107014Y-44576591D01*
X239579523Y-45104082D01*
X239579520Y-45104086D01*
X239579520Y-45104087D01*
X239578605Y-45105672D01*
X239526792Y-45195412D01*
X239524442Y-45204186D01*
X239499500Y-45297274D01*
X239499500Y-56882215D01*
X239491981Y-56913538D01*
X239490281Y-56916873D01*
X239484802Y-56951469D01*
X239469196Y-57050000D01*
X230500500Y-57050000D01*
X230500500Y-56660440D01*
X230500500Y-56660438D01*
X230480021Y-56584011D01*
X230443234Y-56520293D01*
X230440462Y-56515491D01*
X229320710Y-55395739D01*
X229300500Y-55346949D01*
X229300500Y-49753051D01*
X229320710Y-49704261D01*
X229804261Y-49220710D01*
X229853051Y-49200500D01*
X231870172Y-49200500D01*
X231918962Y-49220710D01*
X231946779Y-49248527D01*
X231946783Y-49248530D01*
X232010480Y-49280985D01*
X232066874Y-49309719D01*
X232200000Y-49330804D01*
X232333126Y-49309719D01*
X232453220Y-49248528D01*
X232548528Y-49153220D01*
X232609719Y-49033126D01*
X232630804Y-48900000D01*
X232609719Y-48766874D01*
X232609717Y-48766870D01*
X232609717Y-48766869D01*
X232548530Y-48646783D01*
X232548527Y-48646779D01*
X232453220Y-48551472D01*
X232453216Y-48551469D01*
X232333129Y-48490282D01*
X232333127Y-48490281D01*
X232333126Y-48490281D01*
X232200000Y-48469196D01*
X232066874Y-48490281D01*
X232066872Y-48490281D01*
X232066870Y-48490282D01*
X232066869Y-48490282D01*
X231946783Y-48551469D01*
X231946779Y-48551472D01*
X231918962Y-48579290D01*
X231870172Y-48599500D01*
X229660438Y-48599500D01*
X229614438Y-48611826D01*
X229584010Y-48619979D01*
X229533617Y-48649074D01*
X229515491Y-48659538D01*
X229515486Y-48659542D01*
X228759537Y-49415491D01*
X228719980Y-49484008D01*
X228719979Y-49484010D01*
X228719979Y-49484011D01*
X228699500Y-49560438D01*
X224512186Y-49560438D01*
X224478220Y-49526472D01*
X224478216Y-49526469D01*
X224358129Y-49465282D01*
X224358127Y-49465281D01*
X224358126Y-49465281D01*
X224225000Y-49444196D01*
X224091872Y-49465281D01*
X224039474Y-49491980D01*
X224008149Y-49499500D01*
X221844327Y-49499500D01*
X221795537Y-49479290D01*
X221775327Y-49430500D01*
X221795537Y-49381710D01*
X221813001Y-49369021D01*
X221823903Y-49363465D01*
X221853220Y-49348528D01*
X221948528Y-49253220D01*
X222009719Y-49133126D01*
X222030804Y-49000000D01*
X222009719Y-48866874D01*
X222009717Y-48866870D01*
X222009717Y-48866869D01*
X221948530Y-48746783D01*
X221948527Y-48746779D01*
X221853220Y-48651472D01*
X221853218Y-48651471D01*
X221813001Y-48630979D01*
X221778704Y-48590822D01*
X221782848Y-48538174D01*
X221823005Y-48503877D01*
X221844327Y-48500500D01*
X222234086Y-48500500D01*
X222265409Y-48508020D01*
X222366874Y-48559719D01*
X222500000Y-48580804D01*
X222633126Y-48559719D01*
X222753220Y-48498528D01*
X222848528Y-48403220D01*
X222909719Y-48283126D01*
X222930804Y-48150000D01*
X222909719Y-48016874D01*
X222909717Y-48016870D01*
X222909717Y-48016869D01*
X222848530Y-47896783D01*
X222848527Y-47896779D01*
X222753220Y-47801472D01*
X222753216Y-47801469D01*
X222633129Y-47740282D01*
X222633127Y-47740281D01*
X222633126Y-47740281D01*
X222500000Y-47719196D01*
X222366872Y-47740281D01*
X222366870Y-47740282D01*
X222302721Y-47772968D01*
X222265409Y-47791979D01*
X222234086Y-47799500D01*
X199412346Y-47799500D01*
X199381022Y-47791979D01*
X199298990Y-47750182D01*
X199279561Y-47740282D01*
X199279559Y-47740281D01*
X199146432Y-47719196D01*
X199013304Y-47740281D01*
X199013302Y-47740282D01*
X198949153Y-47772968D01*
X198911841Y-47791979D01*
X198880518Y-47799500D01*
X131803856Y-47799500D01*
X131774141Y-47807462D01*
X131714710Y-47823386D01*
X131634790Y-47869527D01*
X131377032Y-48127285D01*
X131377026Y-48127293D01*
X131363917Y-48150000D01*
X131341382Y-48189033D01*
X131336134Y-48198122D01*
X131330886Y-48207211D01*
X131307000Y-48296357D01*
X131307000Y-50431000D01*
X131286790Y-50479790D01*
X131238000Y-50500000D01*
X126077000Y-50500000D01*
X126028210Y-50479790D01*
X126008000Y-50431000D01*
X126008000Y-47778762D01*
X126028210Y-47729972D01*
X126737472Y-47020710D01*
X126786262Y-47000500D01*
X197330512Y-47000500D01*
X197361835Y-47008020D01*
X197463300Y-47059719D01*
X197596426Y-47080804D01*
X197729552Y-47059719D01*
X197831016Y-47008020D01*
X197862340Y-47000500D01*
X219359086Y-47000500D01*
X219390409Y-47008020D01*
X219491874Y-47059719D01*
X219625000Y-47080804D01*
X219758126Y-47059719D01*
X219878220Y-46998528D01*
X219973528Y-46903220D01*
X220034719Y-46783126D01*
X220055804Y-46650000D01*
X220034719Y-46516874D01*
X220034717Y-46516870D01*
X220034717Y-46516869D01*
X219973530Y-46396783D01*
X219973527Y-46396779D01*
X219878220Y-46301472D01*
X219878216Y-46301469D01*
X219758129Y-46240282D01*
X219758127Y-46240281D01*
X219758126Y-46240281D01*
X219625000Y-46219196D01*
X219491872Y-46240281D01*
X219491870Y-46240282D01*
X219427721Y-46272968D01*
X219390409Y-46291979D01*
X219359086Y-46299500D01*
X197862340Y-46299500D01*
X197831016Y-46291979D01*
X197776915Y-46264413D01*
X197729555Y-46240282D01*
X197729553Y-46240281D01*
X197596426Y-46219196D01*
X197463298Y-46240281D01*
X197463296Y-46240282D01*
X197399147Y-46272968D01*
X197361835Y-46291979D01*
X197330512Y-46299500D01*
X126566356Y-46299500D01*
X126536641Y-46307462D01*
X126477210Y-46323386D01*
X126397290Y-46369527D01*
X125377032Y-47389785D01*
X125377028Y-47389790D01*
X125353140Y-47431167D01*
X125330886Y-47469712D01*
X125307000Y-47558857D01*
X125307000Y-50431000D01*
X125286790Y-50479790D01*
X125238000Y-50500000D01*
X113919500Y-50500000D01*
X113870710Y-50479790D01*
X113850500Y-50431000D01*
X113850500Y-46861262D01*
X113870710Y-46812472D01*
X114648188Y-46034994D01*
X114696978Y-46014784D01*
X185359086Y-46014784D01*
X185390409Y-46022304D01*
X185491874Y-46074003D01*
X185625000Y-46095088D01*
X185758126Y-46074003D01*
X185859590Y-46022304D01*
X185890914Y-46014784D01*
X220264605Y-46014784D01*
X220313395Y-46034994D01*
X220326085Y-46052460D01*
X220326472Y-46053220D01*
X220421779Y-46148527D01*
X220421783Y-46148530D01*
X220541870Y-46209717D01*
X220541874Y-46209719D01*
X220675000Y-46230804D01*
X220808126Y-46209719D01*
X220928220Y-46148528D01*
X221023528Y-46053220D01*
X221084719Y-45933126D01*
X221105804Y-45800000D01*
X221084719Y-45666874D01*
X221084717Y-45666870D01*
X221084717Y-45666869D01*
X221023530Y-45546783D01*
X221023527Y-45546779D01*
X220928220Y-45451472D01*
X220928216Y-45451469D01*
X220808130Y-45390282D01*
X220808124Y-45390280D01*
X220762288Y-45383020D01*
X220738584Y-45374626D01*
X220674573Y-45337670D01*
X220630000Y-45325727D01*
X220585428Y-45313784D01*
X220585427Y-45313784D01*
X218014361Y-45313784D01*
X217965571Y-45293574D01*
X217945361Y-45244784D01*
X217965571Y-45195994D01*
X218003565Y-45176633D01*
X218065268Y-45166861D01*
X218065269Y-45166860D01*
X218065271Y-45166860D01*
X218065272Y-45166859D01*
X218185358Y-45105672D01*
X218185357Y-45105672D01*
X218185362Y-45105670D01*
X218280670Y-45010362D01*
X218341861Y-44890268D01*
X218362946Y-44757142D01*
X218341861Y-44624016D01*
X218341859Y-44624012D01*
X218341859Y-44624011D01*
X218280672Y-44503925D01*
X218280669Y-44503921D01*
X218185362Y-44408614D01*
X218185358Y-44408611D01*
X218065272Y-44347424D01*
X218065265Y-44347422D01*
X217990605Y-44335597D01*
X217966902Y-44327204D01*
X217960288Y-44323386D01*
X217960287Y-44323385D01*
X217960286Y-44323385D01*
X217903771Y-44308242D01*
X217871144Y-44299500D01*
X217871143Y-44299500D01*
X179783772Y-44299500D01*
X179752448Y-44291979D01*
X179689133Y-44259719D01*
X179650987Y-44240282D01*
X179650985Y-44240281D01*
X179517858Y-44219196D01*
X179384730Y-44240281D01*
X179384728Y-44240282D01*
X179320579Y-44272968D01*
X179283267Y-44291979D01*
X179251944Y-44299500D01*
X108591356Y-44299500D01*
X108502212Y-44323386D01*
X108502211Y-44323386D01*
X108502209Y-44323387D01*
X108422290Y-44369529D01*
X108422281Y-44369536D01*
X107377027Y-45414790D01*
X107330886Y-45494710D01*
X107307000Y-45583857D01*
X107307000Y-50431000D01*
X107286790Y-50479790D01*
X107238000Y-50500000D01*
X96069500Y-50500000D01*
X96020710Y-50479790D01*
X96000500Y-50431000D01*
X96000500Y-47515914D01*
X96008021Y-47484588D01*
X96059718Y-47383128D01*
X96059718Y-47383127D01*
X96059719Y-47383126D01*
X96080804Y-47250000D01*
X96059719Y-47116874D01*
X96008020Y-47015410D01*
X96000500Y-46984085D01*
X96000500Y-44923762D01*
X96020710Y-44874972D01*
X96849972Y-44045710D01*
X96898762Y-44025500D01*
X167172370Y-44025500D01*
X167203410Y-44035585D01*
X167204441Y-44033563D01*
X167261065Y-44062414D01*
X167329374Y-44097219D01*
X167462500Y-44118304D01*
X167595626Y-44097219D01*
X167595630Y-44097217D01*
X167720559Y-44033563D01*
X167721589Y-44035585D01*
X167752630Y-44025500D01*
X199984316Y-44025500D01*
X199984317Y-44025500D01*
X200038536Y-44010971D01*
X200068845Y-44002851D01*
X200086703Y-44000500D01*
X218431850Y-44000500D01*
X218480640Y-44020710D01*
X218493329Y-44038174D01*
X218526471Y-44103218D01*
X218526472Y-44103220D01*
X218621779Y-44198527D01*
X218621783Y-44198530D01*
X218741870Y-44259717D01*
X218741874Y-44259719D01*
X218875000Y-44280804D01*
X219008126Y-44259719D01*
X219128220Y-44198528D01*
X219223528Y-44103220D01*
X219275299Y-44001614D01*
X219284717Y-43983130D01*
X219284717Y-43983129D01*
X219284719Y-43983126D01*
X219305804Y-43850000D01*
X219284719Y-43716874D01*
X219284717Y-43716870D01*
X219284717Y-43716869D01*
X219223530Y-43596783D01*
X219223527Y-43596779D01*
X219128220Y-43501472D01*
X219128216Y-43501469D01*
X219008129Y-43440282D01*
X219008127Y-43440281D01*
X219008126Y-43440281D01*
X218974227Y-43434911D01*
X218936234Y-43415552D01*
X218926829Y-43406147D01*
X243115200Y-43406147D01*
X243115200Y-43553852D01*
X243144013Y-43698708D01*
X243144014Y-43698712D01*
X243200536Y-43835164D01*
X243200540Y-43835172D01*
X243282585Y-43957960D01*
X243282592Y-43957970D01*
X243387030Y-44062408D01*
X243387039Y-44062414D01*
X243509827Y-44144459D01*
X243509833Y-44144462D01*
X243509836Y-44144464D01*
X243574158Y-44171107D01*
X243646287Y-44200985D01*
X243646291Y-44200986D01*
X243791148Y-44229800D01*
X243791151Y-44229800D01*
X243938852Y-44229800D01*
X244047494Y-44208189D01*
X244083709Y-44200986D01*
X244083710Y-44200985D01*
X244083712Y-44200985D01*
X244110356Y-44189948D01*
X244220164Y-44144464D01*
X244220169Y-44144460D01*
X244220172Y-44144459D01*
X244290874Y-44097217D01*
X244342970Y-44062408D01*
X244447408Y-43957970D01*
X244529464Y-43835164D01*
X244585986Y-43698709D01*
X244606261Y-43596779D01*
X244614800Y-43553852D01*
X244614800Y-43406147D01*
X244585986Y-43261291D01*
X244585985Y-43261287D01*
X244556107Y-43189158D01*
X244529464Y-43124836D01*
X244529462Y-43124833D01*
X244529459Y-43124827D01*
X244447414Y-43002039D01*
X244447408Y-43002030D01*
X244342970Y-42897592D01*
X244342960Y-42897585D01*
X244220172Y-42815540D01*
X244220164Y-42815536D01*
X244083712Y-42759014D01*
X244083708Y-42759013D01*
X243938852Y-42730200D01*
X243938849Y-42730200D01*
X243791151Y-42730200D01*
X243791148Y-42730200D01*
X243646291Y-42759013D01*
X243646287Y-42759014D01*
X243509835Y-42815536D01*
X243509827Y-42815540D01*
X243387039Y-42897585D01*
X243387025Y-42897596D01*
X243282596Y-43002025D01*
X243282585Y-43002039D01*
X243200540Y-43124827D01*
X243200536Y-43124835D01*
X243144014Y-43261287D01*
X243144013Y-43261291D01*
X243115200Y-43406147D01*
X218926829Y-43406147D01*
X218890209Y-43369527D01*
X218810289Y-43323386D01*
X218765716Y-43311443D01*
X218721144Y-43299500D01*
X218721143Y-43299500D01*
X200179995Y-43299500D01*
X200131205Y-43279290D01*
X200110995Y-43230500D01*
X200111843Y-43219712D01*
X200130804Y-43100000D01*
X200109719Y-42966874D01*
X200109717Y-42966870D01*
X200109717Y-42966869D01*
X200048530Y-42846783D01*
X200048527Y-42846779D01*
X199953220Y-42751472D01*
X199953216Y-42751469D01*
X199833129Y-42690282D01*
X199833127Y-42690281D01*
X199833126Y-42690281D01*
X199700000Y-42669196D01*
X199566874Y-42690281D01*
X199566872Y-42690281D01*
X199566870Y-42690282D01*
X199566869Y-42690282D01*
X199446783Y-42751469D01*
X199446779Y-42751472D01*
X199351472Y-42846779D01*
X199351469Y-42846783D01*
X199311479Y-42925269D01*
X199271322Y-42959567D01*
X199218675Y-42955423D01*
X199188521Y-42925269D01*
X199148530Y-42846783D01*
X199148527Y-42846779D01*
X199053220Y-42751472D01*
X199053216Y-42751469D01*
X198933129Y-42690282D01*
X198933127Y-42690281D01*
X198933126Y-42690281D01*
X198800000Y-42669196D01*
X198666874Y-42690281D01*
X198666872Y-42690281D01*
X198666870Y-42690282D01*
X198666869Y-42690282D01*
X198546783Y-42751469D01*
X198546779Y-42751472D01*
X198451472Y-42846779D01*
X198451469Y-42846783D01*
X198390282Y-42966869D01*
X198390282Y-42966870D01*
X198390281Y-42966872D01*
X198390281Y-42966874D01*
X198369196Y-43100000D01*
X198373130Y-43124836D01*
X198390281Y-43233128D01*
X198390623Y-43234178D01*
X198390564Y-43234915D01*
X198391131Y-43238489D01*
X198390272Y-43238624D01*
X198386479Y-43286826D01*
X198346322Y-43321123D01*
X198325000Y-43324500D01*
X167703882Y-43324500D01*
X167672556Y-43316979D01*
X167595628Y-43277781D01*
X167462500Y-43256696D01*
X167329371Y-43277781D01*
X167252444Y-43316979D01*
X167221118Y-43324500D01*
X146175000Y-43324500D01*
X146126210Y-43304290D01*
X146106000Y-43255500D01*
X146109377Y-43234178D01*
X146109718Y-43233128D01*
X146109718Y-43233127D01*
X146109719Y-43233126D01*
X146130804Y-43100000D01*
X146109719Y-42966874D01*
X146109717Y-42966870D01*
X146109717Y-42966869D01*
X146048530Y-42846783D01*
X146048527Y-42846779D01*
X145953220Y-42751472D01*
X145953216Y-42751469D01*
X145833129Y-42690282D01*
X145833127Y-42690281D01*
X145833126Y-42690281D01*
X145700000Y-42669196D01*
X145566874Y-42690281D01*
X145566872Y-42690281D01*
X145566870Y-42690282D01*
X145566869Y-42690282D01*
X145446783Y-42751469D01*
X145446779Y-42751472D01*
X145351472Y-42846779D01*
X145351469Y-42846783D01*
X145311479Y-42925269D01*
X145271322Y-42959567D01*
X145218675Y-42955423D01*
X145188521Y-42925269D01*
X145148530Y-42846783D01*
X145148527Y-42846779D01*
X145053220Y-42751472D01*
X145053216Y-42751469D01*
X144933129Y-42690282D01*
X144933127Y-42690281D01*
X144933126Y-42690281D01*
X144800000Y-42669196D01*
X144666874Y-42690281D01*
X144666872Y-42690281D01*
X144666870Y-42690282D01*
X144666869Y-42690282D01*
X144546783Y-42751469D01*
X144546779Y-42751472D01*
X144451472Y-42846779D01*
X144451469Y-42846783D01*
X144390282Y-42966869D01*
X144390282Y-42966870D01*
X144390281Y-42966872D01*
X144390281Y-42966874D01*
X144369196Y-43100000D01*
X144373130Y-43124836D01*
X144390281Y-43233128D01*
X144390623Y-43234178D01*
X144390564Y-43234915D01*
X144391131Y-43238489D01*
X144390272Y-43238624D01*
X144386479Y-43286826D01*
X144346322Y-43321123D01*
X144325000Y-43324500D01*
X96678856Y-43324500D01*
X96669434Y-43327024D01*
X96624845Y-43338971D01*
X96624846Y-43338972D01*
X96589712Y-43348386D01*
X96589711Y-43348386D01*
X96589709Y-43348387D01*
X96509790Y-43394527D01*
X95369532Y-44534785D01*
X95369528Y-44534790D01*
X95334529Y-44595412D01*
X95334528Y-44595412D01*
X95323387Y-44614707D01*
X95299500Y-44703857D01*
X95299500Y-46984085D01*
X95291979Y-47015411D01*
X95240282Y-47116870D01*
X95240281Y-47116872D01*
X95219196Y-47250000D01*
X95240281Y-47383128D01*
X95291979Y-47484588D01*
X95299500Y-47515914D01*
X95299500Y-50431000D01*
X95279290Y-50479790D01*
X95230500Y-50500000D01*
X91769000Y-50500000D01*
X91720210Y-50479790D01*
X91700000Y-50431000D01*
X91700000Y-42319973D01*
X91720210Y-42271183D01*
X92270683Y-41720710D01*
X92319473Y-41700500D01*
X92757215Y-41700500D01*
X92788541Y-41708021D01*
X92791871Y-41709718D01*
X92791872Y-41709718D01*
X92791874Y-41709719D01*
X92925000Y-41730804D01*
X93058126Y-41709719D01*
X93178220Y-41648528D01*
X93273528Y-41553220D01*
X93334719Y-41433126D01*
X93355804Y-41300000D01*
X93334719Y-41166874D01*
X93334717Y-41166870D01*
X93334717Y-41166869D01*
X93273530Y-41046783D01*
X93273527Y-41046779D01*
X93178220Y-40951472D01*
X93178216Y-40951469D01*
X93058129Y-40890282D01*
X93058127Y-40890281D01*
X93058126Y-40890281D01*
X92925000Y-40869196D01*
X92791871Y-40890281D01*
X92788541Y-40891979D01*
X92757215Y-40899500D01*
X92072273Y-40899500D01*
X91970413Y-40926793D01*
X91879088Y-40979518D01*
X91817790Y-41040817D01*
X91769000Y-41061027D01*
X91720210Y-41040817D01*
X91700000Y-40992027D01*
X91700000Y-40769500D01*
X91720210Y-40720710D01*
X91769000Y-40700500D01*
X264730500Y-40700500D01*
X264779290Y-40720710D01*
G37*
G04 #@! TD.AperFunction*
G04 #@! TA.AperFunction,Conductor*
G36*
X96651325Y-101799285D02*
G01*
X96671535Y-101848075D01*
X96651325Y-101896865D01*
X96620395Y-101914723D01*
X96615477Y-101916040D01*
X96614708Y-101916247D01*
X96534790Y-101962389D01*
X96534781Y-101962396D01*
X95259527Y-103237650D01*
X95229863Y-103289032D01*
X95213386Y-103317570D01*
X95189500Y-103406717D01*
X95189500Y-106798000D01*
X95169290Y-106846790D01*
X95120500Y-106867000D01*
X94485734Y-106867000D01*
X94476605Y-106867856D01*
X94455300Y-106869853D01*
X94327118Y-106914706D01*
X94327113Y-106914709D01*
X94217849Y-106995349D01*
X94137209Y-107104613D01*
X94137206Y-107104618D01*
X94092353Y-107232800D01*
X94089500Y-107263239D01*
X94089500Y-107431000D01*
X94069290Y-107479790D01*
X94020500Y-107500000D01*
X93169000Y-107500000D01*
X93120210Y-107479790D01*
X93100000Y-107431000D01*
X93100000Y-101848075D01*
X93120210Y-101799285D01*
X93169000Y-101779075D01*
X96602535Y-101779075D01*
X96651325Y-101799285D01*
G37*
G04 #@! TD.AperFunction*
G04 #@! TA.AperFunction,Conductor*
G36*
X108558470Y-102613570D02*
G01*
X108578680Y-102662360D01*
X108558470Y-102711150D01*
X108527540Y-102729008D01*
X108521857Y-102730531D01*
X108521856Y-102730531D01*
X108521854Y-102730532D01*
X108441935Y-102776672D01*
X107259532Y-103959075D01*
X107259528Y-103959080D01*
X107230253Y-104009788D01*
X107230252Y-104009789D01*
X107213387Y-104038999D01*
X107213386Y-104039001D01*
X107213386Y-104039002D01*
X107200217Y-104088152D01*
X107189500Y-104128147D01*
X107189500Y-106854967D01*
X107169290Y-106903757D01*
X107142904Y-106920228D01*
X106955348Y-106984615D01*
X106743932Y-107099028D01*
X106743926Y-107099033D01*
X106554236Y-107246675D01*
X106554233Y-107246677D01*
X106391431Y-107423527D01*
X106361892Y-107468740D01*
X106318287Y-107498532D01*
X106304128Y-107500000D01*
X97059500Y-107500000D01*
X97010710Y-107479790D01*
X96990500Y-107431000D01*
X96990500Y-107263239D01*
X96989839Y-107256193D01*
X96987646Y-107232801D01*
X96942793Y-107104618D01*
X96942790Y-107104613D01*
X96862150Y-106995349D01*
X96752886Y-106914709D01*
X96752881Y-106914706D01*
X96624699Y-106869853D01*
X96603977Y-106867910D01*
X96594266Y-106867000D01*
X96594261Y-106867000D01*
X95959500Y-106867000D01*
X95910710Y-106846790D01*
X95890500Y-106798000D01*
X95890500Y-103626621D01*
X95910710Y-103577831D01*
X96874971Y-102613570D01*
X96923761Y-102593360D01*
X108509680Y-102593360D01*
X108558470Y-102613570D01*
G37*
G04 #@! TD.AperFunction*
G04 #@! TA.AperFunction,Conductor*
G36*
X114394185Y-103427855D02*
G01*
X114414395Y-103476645D01*
X114394185Y-103525435D01*
X114363255Y-103543293D01*
X114357572Y-103544816D01*
X114357571Y-103544816D01*
X114357569Y-103544817D01*
X114277650Y-103590957D01*
X113259532Y-104609075D01*
X113259528Y-104609080D01*
X113241412Y-104640460D01*
X113213386Y-104689000D01*
X113189500Y-104778147D01*
X113189500Y-106798000D01*
X113169290Y-106846790D01*
X113120500Y-106867000D01*
X112485734Y-106867000D01*
X112476605Y-106867856D01*
X112455300Y-106869853D01*
X112327118Y-106914706D01*
X112327113Y-106914709D01*
X112217849Y-106995349D01*
X112137209Y-107104613D01*
X112137206Y-107104618D01*
X112092353Y-107232800D01*
X112089500Y-107263239D01*
X112089500Y-107431000D01*
X112069290Y-107479790D01*
X112020500Y-107500000D01*
X108775872Y-107500000D01*
X108727082Y-107479790D01*
X108718108Y-107468740D01*
X108704494Y-107447902D01*
X108688571Y-107423531D01*
X108688569Y-107423529D01*
X108688568Y-107423527D01*
X108525766Y-107246677D01*
X108525765Y-107246676D01*
X108525764Y-107246675D01*
X108336067Y-107099028D01*
X108224870Y-107038851D01*
X108124651Y-106984615D01*
X107937096Y-106920228D01*
X107897511Y-106885272D01*
X107890500Y-106854967D01*
X107890500Y-104348052D01*
X107910710Y-104299262D01*
X108782117Y-103427855D01*
X108830907Y-103407645D01*
X114345395Y-103407645D01*
X114394185Y-103427855D01*
G37*
G04 #@! TD.AperFunction*
G04 #@! TA.AperFunction,Conductor*
G36*
X126429900Y-104242140D02*
G01*
X126450110Y-104290930D01*
X126429900Y-104339720D01*
X126398970Y-104357578D01*
X126393287Y-104359101D01*
X126393286Y-104359101D01*
X126393284Y-104359102D01*
X126313365Y-104405242D01*
X125259532Y-105459075D01*
X125259528Y-105459080D01*
X125246457Y-105481721D01*
X125221759Y-105524500D01*
X125217572Y-105531751D01*
X125213386Y-105539001D01*
X125189500Y-105628147D01*
X125189500Y-106854967D01*
X125169290Y-106903757D01*
X125142904Y-106920228D01*
X124955348Y-106984615D01*
X124743932Y-107099028D01*
X124743926Y-107099033D01*
X124554236Y-107246675D01*
X124554233Y-107246677D01*
X124391431Y-107423527D01*
X124361892Y-107468740D01*
X124318287Y-107498532D01*
X124304128Y-107500000D01*
X115059500Y-107500000D01*
X115010710Y-107479790D01*
X114990500Y-107431000D01*
X114990500Y-107263239D01*
X114989839Y-107256193D01*
X114987646Y-107232801D01*
X114942793Y-107104618D01*
X114942790Y-107104613D01*
X114862150Y-106995349D01*
X114752886Y-106914709D01*
X114752881Y-106914706D01*
X114624699Y-106869853D01*
X114603977Y-106867910D01*
X114594266Y-106867000D01*
X114594261Y-106867000D01*
X113959500Y-106867000D01*
X113910710Y-106846790D01*
X113890500Y-106798000D01*
X113890500Y-104998052D01*
X113910710Y-104949262D01*
X114617832Y-104242140D01*
X114666622Y-104221930D01*
X126381110Y-104221930D01*
X126429900Y-104242140D01*
G37*
G04 #@! TD.AperFunction*
G04 #@! TA.AperFunction,Conductor*
G36*
X132565615Y-105056425D02*
G01*
X132585825Y-105105215D01*
X132565615Y-105154005D01*
X132534685Y-105171863D01*
X132529002Y-105173386D01*
X132529001Y-105173386D01*
X132528999Y-105173387D01*
X132449080Y-105219527D01*
X131377032Y-106291575D01*
X131377028Y-106291580D01*
X131343589Y-106349500D01*
X131330886Y-106371500D01*
X131307000Y-106460647D01*
X131307000Y-106798000D01*
X131286790Y-106846790D01*
X131238000Y-106867000D01*
X130603234Y-106867000D01*
X130594105Y-106867856D01*
X130572800Y-106869853D01*
X130444618Y-106914706D01*
X130444613Y-106914709D01*
X130335349Y-106995349D01*
X130254709Y-107104613D01*
X130254706Y-107104618D01*
X130209853Y-107232800D01*
X130207000Y-107263239D01*
X130207000Y-107431000D01*
X130186790Y-107479790D01*
X130138000Y-107500000D01*
X126775872Y-107500000D01*
X126727082Y-107479790D01*
X126718108Y-107468740D01*
X126704494Y-107447902D01*
X126688571Y-107423531D01*
X126688569Y-107423529D01*
X126688568Y-107423527D01*
X126525766Y-107246677D01*
X126525765Y-107246676D01*
X126525764Y-107246675D01*
X126336067Y-107099028D01*
X126224870Y-107038851D01*
X126124651Y-106984615D01*
X125937096Y-106920228D01*
X125897511Y-106885272D01*
X125890500Y-106854967D01*
X125890500Y-105848052D01*
X125910710Y-105799262D01*
X126653547Y-105056425D01*
X126702337Y-105036215D01*
X132516825Y-105036215D01*
X132565615Y-105056425D01*
G37*
G04 #@! TD.AperFunction*
G04 #@! TA.AperFunction,Conductor*
G36*
X144601344Y-105870710D02*
G01*
X144621554Y-105919500D01*
X144601344Y-105968290D01*
X144570414Y-105986147D01*
X144564712Y-105987676D01*
X144564711Y-105987676D01*
X144564709Y-105987677D01*
X144484790Y-106033817D01*
X143671818Y-106846790D01*
X143623028Y-106867000D01*
X143537303Y-106867000D01*
X143300201Y-106906566D01*
X143300196Y-106906567D01*
X143072848Y-106984615D01*
X142861432Y-107099028D01*
X142861426Y-107099033D01*
X142671736Y-107246675D01*
X142671733Y-107246677D01*
X142508931Y-107423527D01*
X142479392Y-107468740D01*
X142435787Y-107498532D01*
X142421628Y-107500000D01*
X133177000Y-107500000D01*
X133128210Y-107479790D01*
X133108000Y-107431000D01*
X133108000Y-107263239D01*
X133107339Y-107256193D01*
X133105146Y-107232801D01*
X133060293Y-107104618D01*
X133060290Y-107104613D01*
X132979650Y-106995349D01*
X132870386Y-106914709D01*
X132870381Y-106914706D01*
X132742199Y-106869853D01*
X132721477Y-106867910D01*
X132711766Y-106867000D01*
X132711761Y-106867000D01*
X132077000Y-106867000D01*
X132028210Y-106846790D01*
X132008000Y-106798000D01*
X132008000Y-106680552D01*
X132028210Y-106631762D01*
X132789262Y-105870710D01*
X132838052Y-105850500D01*
X144552554Y-105850500D01*
X144601344Y-105870710D01*
G37*
G04 #@! TD.AperFunction*
G04 #@! TA.AperFunction,Conductor*
G36*
X214339318Y-106685000D02*
G01*
X214693976Y-107039658D01*
X214714186Y-107088448D01*
X214693976Y-107137238D01*
X214687567Y-107142899D01*
X214554236Y-107246675D01*
X214554233Y-107246677D01*
X214391431Y-107423527D01*
X214361892Y-107468740D01*
X214318287Y-107498532D01*
X214304128Y-107500000D01*
X205059500Y-107500000D01*
X205010710Y-107479790D01*
X204990500Y-107431000D01*
X204990500Y-107263239D01*
X204989839Y-107256193D01*
X204987646Y-107232801D01*
X204942793Y-107104618D01*
X204942790Y-107104613D01*
X204862150Y-106995349D01*
X204752886Y-106914709D01*
X204752881Y-106914706D01*
X204624699Y-106869853D01*
X204603977Y-106867910D01*
X204594266Y-106867000D01*
X202485734Y-106867000D01*
X202476605Y-106867856D01*
X202455300Y-106869853D01*
X202327118Y-106914706D01*
X202327113Y-106914709D01*
X202217849Y-106995349D01*
X202137209Y-107104613D01*
X202137206Y-107104618D01*
X202092353Y-107232800D01*
X202089500Y-107263239D01*
X202089500Y-107431000D01*
X202069290Y-107479790D01*
X202020500Y-107500000D01*
X198775872Y-107500000D01*
X198727082Y-107479790D01*
X198718108Y-107468740D01*
X198704494Y-107447902D01*
X198688571Y-107423531D01*
X198688569Y-107423529D01*
X198688568Y-107423527D01*
X198525766Y-107246677D01*
X198525765Y-107246676D01*
X198525764Y-107246675D01*
X198336067Y-107099028D01*
X198224870Y-107038851D01*
X198124651Y-106984615D01*
X197897303Y-106906567D01*
X197897298Y-106906566D01*
X197660196Y-106867000D01*
X197660192Y-106867000D01*
X197419808Y-106867000D01*
X197419803Y-106867000D01*
X197182701Y-106906566D01*
X197182696Y-106906567D01*
X196955348Y-106984615D01*
X196743932Y-107099028D01*
X196743926Y-107099033D01*
X196554236Y-107246675D01*
X196554233Y-107246677D01*
X196391431Y-107423527D01*
X196361892Y-107468740D01*
X196318287Y-107498532D01*
X196304128Y-107500000D01*
X187059500Y-107500000D01*
X187010710Y-107479790D01*
X186990500Y-107431000D01*
X186990500Y-107263239D01*
X186989839Y-107256193D01*
X186987646Y-107232801D01*
X186942793Y-107104618D01*
X186942790Y-107104613D01*
X186862150Y-106995349D01*
X186752886Y-106914709D01*
X186752881Y-106914706D01*
X186624699Y-106869853D01*
X186603977Y-106867910D01*
X186594266Y-106867000D01*
X184485734Y-106867000D01*
X184476605Y-106867856D01*
X184455300Y-106869853D01*
X184327118Y-106914706D01*
X184327113Y-106914709D01*
X184217849Y-106995349D01*
X184137209Y-107104613D01*
X184137206Y-107104618D01*
X184092353Y-107232800D01*
X184089500Y-107263239D01*
X184089500Y-107431000D01*
X184069290Y-107479790D01*
X184020500Y-107500000D01*
X180775872Y-107500000D01*
X180727082Y-107479790D01*
X180718108Y-107468740D01*
X180704494Y-107447902D01*
X180688571Y-107423531D01*
X180688569Y-107423529D01*
X180688568Y-107423527D01*
X180525766Y-107246677D01*
X180525765Y-107246676D01*
X180525764Y-107246675D01*
X180336067Y-107099028D01*
X180224870Y-107038851D01*
X180124651Y-106984615D01*
X179897303Y-106906567D01*
X179897298Y-106906566D01*
X179660196Y-106867000D01*
X179660192Y-106867000D01*
X179419808Y-106867000D01*
X179419803Y-106867000D01*
X179182701Y-106906566D01*
X179182696Y-106906567D01*
X178955348Y-106984615D01*
X178743932Y-107099028D01*
X178743926Y-107099033D01*
X178554236Y-107246675D01*
X178554233Y-107246677D01*
X178391431Y-107423527D01*
X178361892Y-107468740D01*
X178318287Y-107498532D01*
X178304128Y-107500000D01*
X169059500Y-107500000D01*
X169010710Y-107479790D01*
X168990500Y-107431000D01*
X168990500Y-107263239D01*
X168989839Y-107256193D01*
X168987646Y-107232801D01*
X168942793Y-107104618D01*
X168942790Y-107104613D01*
X168862150Y-106995349D01*
X168752886Y-106914709D01*
X168752881Y-106914706D01*
X168624699Y-106869853D01*
X168603977Y-106867910D01*
X168594266Y-106867000D01*
X166485734Y-106867000D01*
X166476605Y-106867856D01*
X166455300Y-106869853D01*
X166327118Y-106914706D01*
X166327113Y-106914709D01*
X166217849Y-106995349D01*
X166137209Y-107104613D01*
X166137206Y-107104618D01*
X166092353Y-107232800D01*
X166089500Y-107263239D01*
X166089500Y-107431000D01*
X166069290Y-107479790D01*
X166020500Y-107500000D01*
X162775872Y-107500000D01*
X162727082Y-107479790D01*
X162718108Y-107468740D01*
X162704494Y-107447902D01*
X162688571Y-107423531D01*
X162688569Y-107423529D01*
X162688568Y-107423527D01*
X162525766Y-107246677D01*
X162525765Y-107246676D01*
X162525764Y-107246675D01*
X162336067Y-107099028D01*
X162224870Y-107038851D01*
X162124651Y-106984615D01*
X161897303Y-106906567D01*
X161897298Y-106906566D01*
X161660196Y-106867000D01*
X161660192Y-106867000D01*
X161419808Y-106867000D01*
X161419803Y-106867000D01*
X161182701Y-106906566D01*
X161182696Y-106906567D01*
X160955348Y-106984615D01*
X160743932Y-107099028D01*
X160743926Y-107099033D01*
X160554236Y-107246675D01*
X160554233Y-107246677D01*
X160391431Y-107423527D01*
X160361892Y-107468740D01*
X160318287Y-107498532D01*
X160304128Y-107500000D01*
X151059500Y-107500000D01*
X151010710Y-107479790D01*
X150990500Y-107431000D01*
X150990500Y-107263239D01*
X150989839Y-107256193D01*
X150987646Y-107232801D01*
X150942793Y-107104618D01*
X150942790Y-107104613D01*
X150862150Y-106995349D01*
X150752886Y-106914709D01*
X150752881Y-106914706D01*
X150624699Y-106869853D01*
X150603977Y-106867910D01*
X150594266Y-106867000D01*
X148485734Y-106867000D01*
X148476605Y-106867856D01*
X148455300Y-106869853D01*
X148327118Y-106914706D01*
X148327113Y-106914709D01*
X148217849Y-106995349D01*
X148137209Y-107104613D01*
X148137206Y-107104618D01*
X148092353Y-107232800D01*
X148089500Y-107263239D01*
X148089500Y-107431000D01*
X148069290Y-107479790D01*
X148020500Y-107500000D01*
X144893372Y-107500000D01*
X144844582Y-107479790D01*
X144835608Y-107468740D01*
X144821994Y-107447902D01*
X144806071Y-107423531D01*
X144806069Y-107423529D01*
X144806068Y-107423527D01*
X144643266Y-107246677D01*
X144643265Y-107246676D01*
X144643264Y-107246675D01*
X144509933Y-107142899D01*
X144491257Y-107128363D01*
X144465168Y-107082447D01*
X144479187Y-107031531D01*
X144484831Y-107025139D01*
X144824973Y-106684998D01*
X144873762Y-106664790D01*
X214290528Y-106664790D01*
X214339318Y-106685000D01*
G37*
G04 #@! TD.AperFunction*
G04 #@! TA.AperFunction,Conductor*
G36*
X179283267Y-45008020D02*
G01*
X179384732Y-45059719D01*
X179517858Y-45080804D01*
X179650984Y-45059719D01*
X179752448Y-45008020D01*
X179783772Y-45000500D01*
X217545171Y-45000500D01*
X217593961Y-45020709D01*
X217678922Y-45105670D01*
X217678924Y-45105671D01*
X217678925Y-45105672D01*
X217799011Y-45166859D01*
X217799012Y-45166860D01*
X217799014Y-45166860D01*
X217799016Y-45166861D01*
X217860717Y-45176633D01*
X217905745Y-45204227D01*
X217918074Y-45255578D01*
X217890480Y-45300606D01*
X217849923Y-45313784D01*
X185890914Y-45313784D01*
X185859590Y-45306263D01*
X185805489Y-45278697D01*
X185758129Y-45254566D01*
X185758127Y-45254565D01*
X185625000Y-45233480D01*
X185491872Y-45254565D01*
X185491870Y-45254566D01*
X185427721Y-45287252D01*
X185390409Y-45306263D01*
X185359086Y-45313784D01*
X114477072Y-45313784D01*
X114447357Y-45321746D01*
X114387926Y-45337670D01*
X114308006Y-45383811D01*
X113219528Y-46472289D01*
X113191614Y-46520640D01*
X113191613Y-46520639D01*
X113173386Y-46552210D01*
X113149500Y-46641357D01*
X113149500Y-50431000D01*
X113129290Y-50479790D01*
X113080500Y-50500000D01*
X108077000Y-50500000D01*
X108028210Y-50479790D01*
X108008000Y-50431000D01*
X108008000Y-45803761D01*
X108028210Y-45754971D01*
X108762471Y-45020710D01*
X108811261Y-45000500D01*
X179251944Y-45000500D01*
X179283267Y-45008020D01*
G37*
G04 #@! TD.AperFunction*
G04 #@! TA.AperFunction,Conductor*
G36*
X198911841Y-48508020D02*
G01*
X198933432Y-48519021D01*
X198967729Y-48559179D01*
X198963585Y-48611826D01*
X198923427Y-48646123D01*
X198902106Y-48649500D01*
X143753856Y-48649500D01*
X143664712Y-48673386D01*
X143664711Y-48673386D01*
X143664709Y-48673387D01*
X143584792Y-48719528D01*
X143584788Y-48719531D01*
X143377031Y-48927286D01*
X143377030Y-48927287D01*
X143345214Y-48982395D01*
X143345213Y-48982394D01*
X143330886Y-49007210D01*
X143307000Y-49096357D01*
X143307000Y-50431000D01*
X143286790Y-50479790D01*
X143238000Y-50500000D01*
X132077000Y-50500000D01*
X132028210Y-50479790D01*
X132008000Y-50431000D01*
X132008000Y-48569500D01*
X132028210Y-48520710D01*
X132077000Y-48500500D01*
X198880518Y-48500500D01*
X198911841Y-48508020D01*
G37*
G04 #@! TD.AperFunction*
G04 #@! TA.AperFunction,Conductor*
G36*
X216465409Y-49358020D02*
G01*
X216487000Y-49369021D01*
X216521297Y-49409179D01*
X216517153Y-49461826D01*
X216476995Y-49496123D01*
X216455674Y-49499500D01*
X150171708Y-49499500D01*
X150082564Y-49523386D01*
X150082563Y-49523386D01*
X150082561Y-49523387D01*
X150002642Y-49569529D01*
X150002633Y-49569536D01*
X149377028Y-50195141D01*
X149339179Y-50260698D01*
X149339180Y-50260699D01*
X149330885Y-50275065D01*
X149307000Y-50364209D01*
X149307000Y-50431000D01*
X149286790Y-50479790D01*
X149238000Y-50500000D01*
X144077000Y-50500000D01*
X144028210Y-50479790D01*
X144008000Y-50431000D01*
X144008000Y-49419500D01*
X144028210Y-49370710D01*
X144077000Y-49350500D01*
X216434086Y-49350500D01*
X216465409Y-49358020D01*
G37*
G04 #@! TD.AperFunction*
G04 #@! TA.AperFunction,Conductor*
G36*
X210626168Y-73665008D02*
G01*
X210629284Y-73668820D01*
X211319707Y-75017479D01*
X211320426Y-75026405D01*
X211317565Y-75031084D01*
X210481749Y-75866900D01*
X210473476Y-75870327D01*
X210467120Y-75868450D01*
X209166623Y-75026952D01*
X209161539Y-75019580D01*
X209161497Y-75014886D01*
X209397645Y-73807715D01*
X209402596Y-73800254D01*
X209407820Y-73798335D01*
X210617564Y-73662525D01*
X210626168Y-73665008D01*
G37*
G04 #@! TD.AperFunction*
G04 #@! TA.AperFunction,Conductor*
G36*
X78585473Y-94093699D02*
G01*
X79421276Y-94929502D01*
X79424703Y-94937775D01*
X79423111Y-94943666D01*
X78641398Y-96284913D01*
X78634272Y-96290336D01*
X78629403Y-96290568D01*
X78311030Y-96238536D01*
X77430227Y-96094585D01*
X77422615Y-96089868D01*
X77420540Y-96084753D01*
X77240462Y-94869354D01*
X77242640Y-94860670D01*
X77246178Y-94857513D01*
X78571349Y-94091840D01*
X78580224Y-94090670D01*
X78585473Y-94093699D01*
G37*
G04 #@! TD.AperFunction*
M02*
